<svg width="512" height="512" version="1.1" xmlns="http://www.w3.org/2000/svg" desc="Created with imagetracer.js version 1.2.6" ><path fill="rgb(0,0,0)" stroke="rgb(0,0,0)" stroke-width="1" opacity="0" d="M 0 0 L 143 0.5 L 134.5 4 L 110 28.5 Q 104.5 35 105 47.5 L 107 55.5 L 111 62.5 L 304 256.5 L 110 450.5 L 105 462.5 L 105 471.5 L 111 485.5 L 131.5 506 Q 135.7 510.3 143 511.5 L 0 512 L 0 0 Z " /><path fill="rgb(0,0,0)" stroke="rgb(0,0,0)" stroke-width="1" opacity="0" d="M 158.5 0 L 512 0 L 512 512 L 158 511.5 L 166.5 508 L 402 272.5 L 407 260.5 L 407 251.5 Q 405.3 242.2 400 236.5 L 169.5 6 L 163.5 2 L 158.5 1 L 158.5 0 Z " /><path fill="rgb(255,255,255)" stroke="rgb(255,255,255)" stroke-width="1" opacity="0.49411764705882355" d="M 143.5 0 L 147 0.5 L 143.5 1 L 143.5 0 Z " /><path fill="rgb(255,255,255)" stroke="rgb(255,255,255)" stroke-width="1" opacity="0.49411764705882355" d="M 154.5 0 L 158 0.5 L 154.5 1 L 154.5 0 Z " /><path fill="rgb(255,255,255)" stroke="rgb(255,255,255)" stroke-width="1" opacity="0.49411764705882355" d="M 140.5 1 L 142 1.5 L 138.5 3 L 138.5 2 L 140.5 1 Z " /><path fill="rgb(255,255,255)" stroke="rgb(255,255,255)" stroke-width="1" opacity="0.49411764705882355" d="M 162.5 2 L 169.5 6 L 400 236.5 L 405 245.5 L 404 245.5 L 402 240.5 L 166.5 5 Q 161.8 4.2 162.5 2 Z " /><path fill="rgb(255,255,255)" stroke="rgb(255,255,255)" stroke-width="1" opacity="0.49411764705882355" d="M 136.5 3 L 135.5 5 L 111 28.5 Q 107.3 32.8 106.5 40 L 106 36.5 L 110 28.5 L 134.5 4 L 136.5 3 Z " /><path fill="rgb(255,255,255)" stroke="rgb(255,255,255)" stroke-width="1" opacity="0.49411764705882355" d="M 105.5 41 L 106 47.5 L 105 47.5 L 105.5 41 Z " /><path fill="rgb(255,255,255)" stroke="rgb(255,255,255)" stroke-width="1" opacity="0.49411764705882355" d="M 106.5 50 L 107 52.5 L 106 52.5 L 106.5 50 Z " /><path fill="rgb(255,255,255)" stroke="rgb(255,255,255)" stroke-width="1" opacity="0.49411764705882355" d="M 107.5 54 L 112 62.5 L 305 256.5 L 111 450.5 L 108.5 455 L 108 453.5 L 304 255.5 L 111 62.5 L 107 55.5 L 107.5 54 Z " /><path fill="rgb(255,255,255)" stroke="rgb(255,255,255)" stroke-width="1" opacity="0.49411764705882355" d="M 405.5 247 L 406 249.5 L 405 249.5 L 405.5 247 Z " /><path fill="rgb(255,255,255)" stroke="rgb(255,255,255)" stroke-width="1" opacity="0.49411764705882355" d="M 406.5 251 L 407 260.5 L 406 260.5 L 406.5 251 Z " /><path fill="rgb(255,255,255)" stroke="rgb(255,255,255)" stroke-width="1" opacity="0.49411764705882355" d="M 405.5 262 L 406 264.5 L 402 272.5 L 166.5 508 L 159.5 511 L 159.5 510 L 166.5 507 L 401 272.5 L 405.5 262 Z " /><path fill="rgb(255,255,255)" stroke="rgb(255,255,255)" stroke-width="1" opacity="0.49411764705882355" d="M 107.5 456 L 108 457.5 L 106.5 461 L 106 458.5 L 107.5 456 Z " /><path fill="rgb(255,255,255)" stroke="rgb(255,255,255)" stroke-width="1" opacity="0.49411764705882355" d="M 105.5 462 L 106 471.5 L 105 471.5 L 105.5 462 Z " /><path fill="rgb(255,255,255)" stroke="rgb(255,255,255)" stroke-width="1" opacity="0.49411764705882355" d="M 106.5 473 L 107 475.5 L 106 475.5 L 106.5 473 Z " /><path fill="rgb(255,255,255)" stroke="rgb(255,255,255)" stroke-width="1" opacity="0.49411764705882355" d="M 107.5 477 L 110 482.5 L 134.5 507 L 139 509.5 L 137.5 510 L 131.5 506 L 111 485.5 L 107 478.5 L 107.5 477 Z " /><path fill="rgb(255,255,255)" stroke="rgb(255,255,255)" stroke-width="1" opacity="0.49411764705882355" d="M 143.5 511 L 147 511.5 L 143.5 512 L 143.5 511 Z " /><path fill="rgb(255,255,255)" stroke="rgb(255,255,255)" stroke-width="1" opacity="0.49411764705882355" d="M 154.5 511 L 158 511.5 L 154.5 512 L 154.5 511 Z " /><path fill="rgb(255,255,255)" stroke="rgb(255,255,255)" stroke-width="1" opacity="0.996078431372549" d="M 147.5 0 L 150 0.5 L 147.5 1 L 147.5 0 Z " /><path fill="rgb(255,255,255)" stroke="rgb(255,255,255)" stroke-width="1" opacity="0.996078431372549" d="M 151.5 0 L 154 0.5 L 151.5 1 L 151.5 0 Z " /><path fill="rgb(255,255,255)" stroke="rgb(255,255,255)" stroke-width="1" opacity="0.996078431372549" d="M 137.5 3 L 136.5 5 L 137.5 3 Z " /><path fill="rgb(255,255,255)" stroke="rgb(255,255,255)" stroke-width="1" opacity="0.996078431372549" d="M 134.5 5 L 132.5 8 L 134.5 5 Z " /><path fill="rgb(255,255,255)" stroke="rgb(255,255,255)" stroke-width="1" opacity="0.996078431372549" d="M 166.5 5 L 167.5 7 L 166.5 5 Z " /><path fill="rgb(255,255,255)" stroke="rgb(255,255,255)" stroke-width="1" opacity="0.996078431372549" d="M 112.5 27 L 111.5 29 L 112.5 27 Z " /><path fill="rgb(255,255,255)" stroke="rgb(255,255,255)" stroke-width="1" opacity="0.996078431372549" d="M 112.5 62 L 306 256.5 L 111 450.5 L 305 255.5 L 112.5 62 Z " /><path fill="rgb(255,255,255)" stroke="rgb(255,255,255)" stroke-width="1" opacity="0.996078431372549" d="M 400.5 239 L 401.5 241 L 400.5 239 Z " /><path fill="rgb(255,255,255)" stroke="rgb(255,255,255)" stroke-width="1" opacity="0.996078431372549" d="M 400.5 272 L 398.5 275 L 400.5 272 Z " /><path fill="rgb(255,255,255)" stroke="rgb(255,255,255)" stroke-width="1" opacity="0.996078431372549" d="M 110.5 452 L 109.5 454 L 110.5 452 Z " /><path fill="rgb(255,255,255)" stroke="rgb(255,255,255)" stroke-width="1" opacity="0.996078431372549" d="M 110.5 482 L 111.5 484 L 110.5 482 Z " /><path fill="rgb(255,255,255)" stroke="rgb(255,255,255)" stroke-width="1" opacity="0.996078431372549" d="M 168.5 504 L 166.5 507 L 168.5 504 Z " /><path fill="rgb(255,255,255)" stroke="rgb(255,255,255)" stroke-width="1" opacity="0.996078431372549" d="M 147.5 511 L 150 511.5 L 147.5 512 L 147.5 511 Z " /><path fill="rgb(255,255,255)" stroke="rgb(255,255,255)" stroke-width="1" opacity="0.996078431372549" d="M 151.5 511 L 154 511.5 L 151.5 512 L 151.5 511 Z " /><path fill="rgb(255,255,255)" stroke="rgb(255,255,255)" stroke-width="1" opacity="1" d="M 150.5 0 L 160.5 2 L 168.5 7 L 400 238.5 Q 406.4 245.6 406 259.5 Q 404.1 269.6 398 275.5 L 169.5 504 L 162.5 509 L 150.5 512 L 140.5 510 L 133.5 506 L 112 484.5 Q 105.2 477.8 106 463.5 L 111 451.5 L 306 255.5 L 111 60.5 Q 105.7 54.3 106 42.5 L 110 30.5 L 131.5 8 L 138.5 3 L 150.5 0 Z " /></svg>