<svg width="64" height="64" version="1.1" xmlns="http://www.w3.org/2000/svg" desc="Created with imagetracer.js version 1.2.6" ><path fill="rgb(0,0,0)" stroke="rgb(0,0,0)" stroke-width="1" opacity="0" d="M 0 0 L 16 0.5 Q 12 1.5 13 7.5 L 37 32.5 L 13 56.5 L 13 60.5 L 15.5 64 L 0.5 64 L 0 63.5 L 0 0 Z " /><path fill="rgb(0,0,0)" stroke="rgb(0,0,0)" stroke-width="1" opacity="0" d="M 22.5 0 L 64 0 L 64 64 L 22 63.5 L 51 34.5 L 51 29.5 L 22.5 0 Z " /><path fill="rgb(255,255,255)" stroke="rgb(255,255,255)" stroke-width="1" opacity="0.39215686274509803" d="M 16.5 0 L 18 0.5 L 14 3.5 L 13.5 5 L 13 3.5 L 16.5 0 Z " /><path fill="rgb(255,255,255)" stroke="rgb(255,255,255)" stroke-width="1" opacity="0.39215686274509803" d="M 20.5 0 L 51 29.5 L 50.5 31 L 21.5 1 L 20.5 0 Z " /><path fill="rgb(255,255,255)" stroke="rgb(255,255,255)" stroke-width="1" opacity="0.39215686274509803" d="M 13.5 6 L 38 32.5 L 13.5 58 L 13 56.5 L 37 31.5 L 13 7.5 L 13.5 6 Z " /><path fill="rgb(255,255,255)" stroke="rgb(255,255,255)" stroke-width="1" opacity="0.39215686274509803" d="M 50.5 32 L 51 34.5 L 20.5 64 L 20.5 63 L 50 34.5 L 50.5 32 Z " /><path fill="rgb(255,255,255)" stroke="rgb(255,255,255)" stroke-width="1" opacity="0.39215686274509803" d="M 13.5 59 L 16.5 63 L 18 63.5 L 16.5 64 L 13 60.5 L 13.5 59 Z " /><path fill="rgb(255,255,255)" stroke="rgb(255,255,255)" stroke-width="1" opacity="0.996078431372549" d="M 16.5 1 L 14.5 4 L 16.5 1 Z " /><path fill="rgb(255,255,255)" stroke="rgb(255,255,255)" stroke-width="1" opacity="0.996078431372549" d="M 21.5 1 L 49.5 30 L 21.5 1 Z " /><path fill="rgb(255,255,255)" stroke="rgb(255,255,255)" stroke-width="1" opacity="0.996078431372549" d="M 14.5 7 L 39 32.5 L 14 56.5 L 38 31.5 L 14.5 7 Z " /><path fill="rgb(255,255,255)" stroke="rgb(255,255,255)" stroke-width="1" opacity="0.996078431372549" d="M 49.5 34 L 21.5 63 L 49.5 34 Z " /><path fill="rgb(255,255,255)" stroke="rgb(255,255,255)" stroke-width="1" opacity="0.996078431372549" d="M 14.5 60 L 16.5 63 L 14.5 60 Z " /><path fill="rgb(255,255,255)" stroke="rgb(255,255,255)" stroke-width="1" opacity="1" d="M 17.5 1 L 20.5 1 L 50 30.5 L 50 33.5 L 20.5 63 Q 14.8 63.8 14 59.5 L 14 57.5 L 39 31.5 L 14 6.5 L 14 4.5 L 17.5 1 Z " /></svg>