<svg width="32" height="32" version="1.1" xmlns="http://www.w3.org/2000/svg" desc="Created with imagetracer.js version 1.2.6" ><path fill="rgb(0,0,0)" stroke="rgb(0,0,0)" stroke-width="1" opacity="0.9529411764705882" d="M 23.5 7 L 24.5 9 L 23.5 7 Z " /><path fill="rgb(0,0,0)" stroke="rgb(0,0,0)" stroke-width="1" opacity="0.9529411764705882" d="M 31.5 9 L 32 28.5 L 31 28.5 L 31.5 9 Z " /><path fill="rgb(0,0,0)" stroke="rgb(0,0,0)" stroke-width="1" opacity="0.9529411764705882" d="M 3.5 17 L 2.5 19 L 3.5 17 Z " /><path fill="rgb(0,0,0)" stroke="rgb(0,0,0)" stroke-width="1" opacity="0.9529411764705882" d="M 13.5 17 L 14.5 19 L 13.5 17 Z " /><path fill="rgb(0,0,0)" stroke="rgb(0,0,0)" stroke-width="1" opacity="0.12156862745098039" d="M 18.5 18 L 27 18.5 L 18.5 19 L 17.5 20 L 18.5 18 Z " /><path fill="rgb(0,0,0)" stroke="rgb(0,0,0)" stroke-width="1" opacity="0.12156862745098039" d="M 16.5 29 L 14.5 32 L 16.5 29 Z " /><path fill="rgb(0,0,0)" stroke="rgb(0,0,0)" stroke-width="1" opacity="0" d="M 0 0 L 8 0.5 L 7 1.5 L 7 14 Q 13.2 12.9 15.5 17 L 27 17.5 L 18.5 18 L 17 19.5 L 18 23 L 27 23.5 L 18 24 Q 17.9 29.6 13.5 32 L 12 31.5 L 16 28.5 L 17 20.5 L 13.5 16 L 5.5 15 L 1 18.5 L 0.5 20 L 0 0 Z " /><path fill="rgb(0,0,0)" stroke="rgb(0,0,0)" stroke-width="1" opacity="0" d="M 24.5 0 L 25 7 L 32 7.5 L 24 8 L 24.5 0 Z " /><path fill="rgb(0,0,0)" stroke="rgb(0,0,0)" stroke-width="1" opacity="0" d="M 26.5 0 Q 34.8 -2.8 32 5.5 L 26.5 0 Z " /><path fill="rgb(0,0,0)" stroke="rgb(0,0,0)" stroke-width="1" opacity="0" d="M 13.5 12 L 27 12.5 L 13.5 13 L 13.5 12 Z " /><path fill="rgb(0,0,0)" stroke="rgb(0,0,0)" stroke-width="1" opacity="0" d="M 8.5 19 L 9 23 L 11 23.5 L 8 24 L 8.5 19 Z " /><path fill="rgb(0,0,0)" stroke="rgb(0,0,0)" stroke-width="1" opacity="0" d="M 0.5 27 L 3.5 31 L 5 31.5 L 0 32 L 0.5 27 Z " /><path fill="rgb(0,0,0)" stroke="rgb(0,0,0)" stroke-width="1" opacity="0.8509803921568627" d="M 23.5 0 L 24 6.5 L 23 6.5 L 23.5 0 Z " /><path fill="rgb(0,0,0)" stroke="rgb(0,0,0)" stroke-width="1" opacity="0.8509803921568627" d="M 25.5 8 L 32 8.5 L 25.5 9 L 25.5 8 Z " /><path fill="rgb(0,0,0)" stroke="rgb(0,0,0)" stroke-width="1" opacity="0.8509803921568627" d="M 7.5 15 L 10 15.5 L 7.5 16 L 7.5 15 Z " /><path fill="rgb(0,0,0)" stroke="rgb(0,0,0)" stroke-width="1" opacity="0.8509803921568627" d="M 16.5 30 L 15.5 32 L 16.5 30 Z " /><path fill="rgb(0,0,0)" stroke="rgb(0,0,0)" stroke-width="1" opacity="0.6588235294117647" d="M 26.5 1 L 30.5 6 L 26.5 1 Z " /><path fill="rgb(0,0,0)" stroke="rgb(0,0,0)" stroke-width="1" opacity="0.6588235294117647" d="M 13 13 L 26 13.5 L 14.5 14 L 13.5 15 L 13 13 Z " /><path fill="rgb(0,0,0)" stroke="rgb(0,0,0)" stroke-width="1" opacity="0.6588235294117647" d="M 7.5 19 L 8 23.5 L 7 23.5 L 7.5 19 Z " /><path fill="rgb(0,0,0)" stroke="rgb(0,0,0)" stroke-width="1" opacity="0.6588235294117647" d="M 9.5 19 L 11 22.5 L 9 21.5 L 9.5 19 Z " /><path fill="rgb(0,0,0)" stroke="rgb(0,0,0)" stroke-width="1" opacity="0.6588235294117647" d="M 19.5 22 L 27 22.5 L 19.5 23 L 19.5 22 Z " /><path fill="rgb(0,0,0)" stroke="rgb(0,0,0)" stroke-width="1" opacity="1" d="M 10.5 0 L 23 0 L 23 7.5 Q 24.9 10.8 31 9 L 31 30.5 L 29.5 31 L 28.5 32 L 16.5 32 L 18 29.5 L 19 25 L 28 25 L 28 22 L 19.5 22 L 19 20.5 L 18.5 19 L 27.5 19 L 28 17 L 17.5 17 L 14 14.5 L 26.5 14 L 28 12.5 L 27.5 11 L 12 11 Q 13.2 14.7 8 13 L 8 2.5 L 10.5 0 Z " /><path fill="rgb(0,0,0)" stroke="rgb(0,0,0)" stroke-width="1" opacity="1" d="M 26.5 2 L 29.5 6 Q 23.6 7.6 26.5 2 Z " /><path fill="rgb(0,0,0)" stroke="rgb(0,0,0)" stroke-width="1" opacity="1" d="M 5.5 16 Q 14.5 14.5 16 20.5 Q 17.3 27.8 13.5 30 L 5.5 31 L 2 28.5 L 1 20.5 L 5.5 16 Z M 9 18 L 7 20 Q 5 28 12 25 Q 13 21 10 22 L 9 18 Z " /><path fill="rgb(0,0,0)" stroke="rgb(0,0,0)" stroke-width="1" opacity="0.28627450980392155" d="M 25.5 1 L 26 6 L 31 6.5 L 26.5 7 Q 23.6 5.6 25.5 1 Z " /><path fill="rgb(0,0,0)" stroke="rgb(0,0,0)" stroke-width="1" opacity="0.28627450980392155" d="M 14.5 15 L 15.5 19 Q 11 17 14.5 15 Z " /><path fill="rgb(0,0,0)" stroke="rgb(0,0,0)" stroke-width="1" opacity="0.28627450980392155" d="M 3.5 16 L 1.5 19 L 3.5 16 Z " /><path fill="rgb(0,0,0)" stroke="rgb(0,0,0)" stroke-width="1" opacity="0.43529411764705883" d="M 7.5 2 L 8 12.5 L 7 12.5 L 7.5 2 Z " /><path fill="rgb(0,0,0)" stroke="rgb(0,0,0)" stroke-width="1" opacity="0.43529411764705883" d="M 13.5 11 L 26.5 11 L 28 12.5 L 26.5 12 L 13.5 12 L 13.5 11 Z " /><path fill="rgb(0,0,0)" stroke="rgb(0,0,0)" stroke-width="1" opacity="0.43529411764705883" d="M 27.5 23 L 26.5 25 Q 20.3 23.3 18.5 26 L 19.5 24 Q 25.8 25.8 27.5 23 Z " /><path fill="rgb(0,0,0)" stroke="rgb(0,0,0)" stroke-width="1" opacity="0.43529411764705883" d="M 8.5 24 L 11 24.5 L 8.5 25 L 8.5 24 Z " /></svg>