<svg width="512" height="512" version="1.1" xmlns="http://www.w3.org/2000/svg" desc="Created with imagetracer.js version 1.2.6" ><path fill="rgb(0,0,0)" stroke="rgb(0,0,0)" stroke-width="1" opacity="0.8" d="M 159.5 0 L 164 0.5 L 159.5 1 L 159.5 0 Z " /><path fill="rgb(0,0,0)" stroke="rgb(0,0,0)" stroke-width="1" opacity="0.8" d="M 144.5 5 L 143.5 7 L 144.5 5 Z " /><path fill="rgb(0,0,0)" stroke="rgb(0,0,0)" stroke-width="1" opacity="0.8" d="M 138.5 9 L 135.5 13 L 138.5 9 Z " /><path fill="rgb(0,0,0)" stroke="rgb(0,0,0)" stroke-width="1" opacity="0.8" d="M 411.5 9 L 501.5 100 L 411.5 9 Z " /><path fill="rgb(0,0,0)" stroke="rgb(0,0,0)" stroke-width="1" opacity="0.8" d="M 133.5 14 L 130.5 18 L 133.5 14 Z " /><path fill="rgb(0,0,0)" stroke="rgb(0,0,0)" stroke-width="1" opacity="0.8" d="M 127.5 22 L 126.5 24 L 127.5 22 Z " /><path fill="rgb(0,0,0)" stroke="rgb(0,0,0)" stroke-width="1" opacity="0.8" d="M 121.5 38 L 122 42.5 L 121 42.5 L 121.5 38 Z " /><path fill="rgb(0,0,0)" stroke="rgb(0,0,0)" stroke-width="1" opacity="0.8" d="M 383.5 123 L 384.5 125 L 383.5 123 Z " /><path fill="rgb(0,0,0)" stroke="rgb(0,0,0)" stroke-width="1" opacity="0.8" d="M 386.5 126 L 387.5 128 L 386.5 126 Z " /><path fill="rgb(0,0,0)" stroke="rgb(0,0,0)" stroke-width="1" opacity="0.8" d="M 197.5 184 L 196.5 186 L 197.5 184 Z " /><path fill="rgb(0,0,0)" stroke="rgb(0,0,0)" stroke-width="1" opacity="0.8" d="M 434.5 184 L 435.5 186 L 434.5 184 Z " /><path fill="rgb(0,0,0)" stroke="rgb(0,0,0)" stroke-width="1" opacity="0.8" d="M 194.5 187 L 193.5 189 L 194.5 187 Z " /><path fill="rgb(0,0,0)" stroke="rgb(0,0,0)" stroke-width="1" opacity="0.8" d="M 437.5 187 L 438.5 189 L 437.5 187 Z " /><path fill="rgb(0,0,0)" stroke="rgb(0,0,0)" stroke-width="1" opacity="0.8" d="M 193.5 205 L 194.5 207 L 193.5 205 Z " /><path fill="rgb(0,0,0)" stroke="rgb(0,0,0)" stroke-width="1" opacity="0.8" d="M 438.5 205 L 437.5 207 L 438.5 205 Z " /><path fill="rgb(0,0,0)" stroke="rgb(0,0,0)" stroke-width="1" opacity="0.8" d="M 196.5 208 L 197.5 210 L 196.5 208 Z " /><path fill="rgb(0,0,0)" stroke="rgb(0,0,0)" stroke-width="1" opacity="0.8" d="M 435.5 208 L 434.5 210 L 435.5 208 Z " /><path fill="rgb(0,0,0)" stroke="rgb(0,0,0)" stroke-width="1" opacity="0.8" d="M 121.5 212 L 125 212.5 L 121.5 213 L 121.5 212 Z " /><path fill="rgb(0,0,0)" stroke="rgb(0,0,0)" stroke-width="1" opacity="0.8" d="M 147.5 212 L 153 212.5 L 147.5 213 L 147.5 212 Z " /><path fill="rgb(0,0,0)" stroke="rgb(0,0,0)" stroke-width="1" opacity="0.8" d="M 157.5 213 L 161 213.5 L 157.5 214 L 157.5 213 Z " /><path fill="rgb(0,0,0)" stroke="rgb(0,0,0)" stroke-width="1" opacity="0.8" d="M 164.5 214 L 167 214.5 L 164.5 215 L 164.5 214 Z " /><path fill="rgb(0,0,0)" stroke="rgb(0,0,0)" stroke-width="1" opacity="0.8" d="M 169.5 215 L 172 215.5 L 169.5 216 L 169.5 215 Z " /><path fill="rgb(0,0,0)" stroke="rgb(0,0,0)" stroke-width="1" opacity="0.8" d="M 212.5 230 L 216 232.5 L 214.5 232 L 212.5 230 Z " /><path fill="rgb(0,0,0)" stroke="rgb(0,0,0)" stroke-width="1" opacity="0.8" d="M 224.5 237 L 225.5 239 L 224.5 237 Z " /><path fill="rgb(0,0,0)" stroke="rgb(0,0,0)" stroke-width="1" opacity="0.8" d="M 227.5 239 L 228.5 241 L 227.5 239 Z " /><path fill="rgb(0,0,0)" stroke="rgb(0,0,0)" stroke-width="1" opacity="0.8" d="M 230.5 241 L 231.5 243 L 230.5 241 Z " /><path fill="rgb(0,0,0)" stroke="rgb(0,0,0)" stroke-width="1" opacity="0.8" d="M 123.5 242 L 132 242.5 L 123.5 243 L 123.5 242 Z " /><path fill="rgb(0,0,0)" stroke="rgb(0,0,0)" stroke-width="1" opacity="0.8" d="M 140.5 242 L 149 242.5 L 140.5 243 L 140.5 242 Z " /><path fill="rgb(0,0,0)" stroke="rgb(0,0,0)" stroke-width="1" opacity="0.8" d="M 115.5 243 L 119 243.5 L 115.5 244 L 115.5 243 Z " /><path fill="rgb(0,0,0)" stroke="rgb(0,0,0)" stroke-width="1" opacity="0.8" d="M 153.5 243 L 157 243.5 L 153.5 244 L 153.5 243 Z " /><path fill="rgb(0,0,0)" stroke="rgb(0,0,0)" stroke-width="1" opacity="0.8" d="M 234.5 244 L 235.5 246 L 234.5 244 Z " /><path fill="rgb(0,0,0)" stroke="rgb(0,0,0)" stroke-width="1" opacity="0.8" d="M 238.5 247 L 240.5 250 L 238.5 247 Z " /><path fill="rgb(0,0,0)" stroke="rgb(0,0,0)" stroke-width="1" opacity="0.8" d="M 243.5 251 L 249.5 258 L 243.5 251 Z " /><path fill="rgb(0,0,0)" stroke="rgb(0,0,0)" stroke-width="1" opacity="0.8" d="M 69.5 259 L 68.5 261 L 69.5 259 Z " /><path fill="rgb(0,0,0)" stroke="rgb(0,0,0)" stroke-width="1" opacity="0.8" d="M 202.5 259 L 203.5 261 L 202.5 259 Z " /><path fill="rgb(0,0,0)" stroke="rgb(0,0,0)" stroke-width="1" opacity="0.8" d="M 64.5 262 L 63.5 264 L 64.5 262 Z " /><path fill="rgb(0,0,0)" stroke="rgb(0,0,0)" stroke-width="1" opacity="0.8" d="M 207.5 262 L 208.5 264 L 207.5 262 Z " /><path fill="rgb(0,0,0)" stroke="rgb(0,0,0)" stroke-width="1" opacity="0.8" d="M 61.5 264 L 60.5 266 L 61.5 264 Z " /><path fill="rgb(0,0,0)" stroke="rgb(0,0,0)" stroke-width="1" opacity="0.8" d="M 210.5 264 L 211.5 266 L 210.5 264 Z " /><path fill="rgb(0,0,0)" stroke="rgb(0,0,0)" stroke-width="1" opacity="0.8" d="M 256.5 264 L 261.5 270 L 256.5 264 Z " /><path fill="rgb(0,0,0)" stroke="rgb(0,0,0)" stroke-width="1" opacity="0.8" d="M 58.5 266 L 57.5 268 L 58.5 266 Z " /><path fill="rgb(0,0,0)" stroke="rgb(0,0,0)" stroke-width="1" opacity="0.8" d="M 213.5 266 L 214.5 268 L 213.5 266 Z " /><path fill="rgb(0,0,0)" stroke="rgb(0,0,0)" stroke-width="1" opacity="0.8" d="M 54.5 269 L 52.5 272 L 54.5 269 Z " /><path fill="rgb(0,0,0)" stroke="rgb(0,0,0)" stroke-width="1" opacity="0.8" d="M 217.5 269 L 219.5 272 L 217.5 269 Z " /><path fill="rgb(0,0,0)" stroke="rgb(0,0,0)" stroke-width="1" opacity="0.8" d="M 49.5 273 L 46.5 277 L 49.5 273 Z " /><path fill="rgb(0,0,0)" stroke="rgb(0,0,0)" stroke-width="1" opacity="0.8" d="M 222.5 273 L 225.5 277 L 222.5 273 Z " /><path fill="rgb(0,0,0)" stroke="rgb(0,0,0)" stroke-width="1" opacity="0.8" d="M 434.5 274 L 435.5 276 L 434.5 274 Z " /><path fill="rgb(0,0,0)" stroke="rgb(0,0,0)" stroke-width="1" opacity="0.8" d="M 437.5 277 L 438.5 279 L 437.5 277 Z " /><path fill="rgb(0,0,0)" stroke="rgb(0,0,0)" stroke-width="1" opacity="0.8" d="M 35.5 287 L 32.5 291 L 35.5 287 Z " /><path fill="rgb(0,0,0)" stroke="rgb(0,0,0)" stroke-width="1" opacity="0.8" d="M 236.5 287 L 239.5 291 L 236.5 287 Z " /><path fill="rgb(0,0,0)" stroke="rgb(0,0,0)" stroke-width="1" opacity="0.8" d="M 30.5 293 L 28.5 296 L 30.5 293 Z " /><path fill="rgb(0,0,0)" stroke="rgb(0,0,0)" stroke-width="1" opacity="0.8" d="M 241.5 293 L 243.5 296 L 241.5 293 Z " /><path fill="rgb(0,0,0)" stroke="rgb(0,0,0)" stroke-width="1" opacity="0.8" d="M 438.5 295 L 437.5 297 L 438.5 295 Z " /><path fill="rgb(0,0,0)" stroke="rgb(0,0,0)" stroke-width="1" opacity="0.8" d="M 26.5 298 L 25.5 300 L 26.5 298 Z " /><path fill="rgb(0,0,0)" stroke="rgb(0,0,0)" stroke-width="1" opacity="0.8" d="M 245.5 298 L 246.5 300 L 245.5 298 Z " /><path fill="rgb(0,0,0)" stroke="rgb(0,0,0)" stroke-width="1" opacity="0.8" d="M 435.5 298 L 434.5 300 L 435.5 298 Z " /><path fill="rgb(0,0,0)" stroke="rgb(0,0,0)" stroke-width="1" opacity="0.8" d="M 24.5 301 L 23.5 303 L 24.5 301 Z " /><path fill="rgb(0,0,0)" stroke="rgb(0,0,0)" stroke-width="1" opacity="0.8" d="M 247.5 301 L 248.5 303 L 247.5 301 Z " /><path fill="rgb(0,0,0)" stroke="rgb(0,0,0)" stroke-width="1" opacity="0.8" d="M 22.5 304 L 21.5 306 L 22.5 304 Z " /><path fill="rgb(0,0,0)" stroke="rgb(0,0,0)" stroke-width="1" opacity="0.8" d="M 127.5 304 L 126.5 306 L 127.5 304 Z " /><path fill="rgb(0,0,0)" stroke="rgb(0,0,0)" stroke-width="1" opacity="0.8" d="M 144.5 304 L 145.5 306 L 144.5 304 Z " /><path fill="rgb(0,0,0)" stroke="rgb(0,0,0)" stroke-width="1" opacity="0.8" d="M 249.5 304 L 250.5 306 L 249.5 304 Z " /><path fill="rgb(0,0,0)" stroke="rgb(0,0,0)" stroke-width="1" opacity="0.8" d="M 124.5 307 L 123.5 309 L 124.5 307 Z " /><path fill="rgb(0,0,0)" stroke="rgb(0,0,0)" stroke-width="1" opacity="0.8" d="M 147.5 307 L 148.5 309 L 147.5 307 Z " /><path fill="rgb(0,0,0)" stroke="rgb(0,0,0)" stroke-width="1" opacity="0.8" d="M 19.5 309 L 18.5 311 L 19.5 309 Z " /><path fill="rgb(0,0,0)" stroke="rgb(0,0,0)" stroke-width="1" opacity="0.8" d="M 252.5 309 L 253.5 311 L 252.5 309 Z " /><path fill="rgb(0,0,0)" stroke="rgb(0,0,0)" stroke-width="1" opacity="0.8" d="M 297.5 341 L 298 343.5 L 297 343.5 L 297.5 341 Z " /><path fill="rgb(0,0,0)" stroke="rgb(0,0,0)" stroke-width="1" opacity="0.8" d="M 298.5 346 L 299 348.5 L 298 348.5 L 298.5 346 Z " /><path fill="rgb(0,0,0)" stroke="rgb(0,0,0)" stroke-width="1" opacity="0.8" d="M 299.5 352 L 300 355.5 L 299 355.5 L 299.5 352 Z " /><path fill="rgb(0,0,0)" stroke="rgb(0,0,0)" stroke-width="1" opacity="0.8" d="M 2.5 356 L 3 359.5 L 2 359.5 L 2.5 356 Z " /><path fill="rgb(0,0,0)" stroke="rgb(0,0,0)" stroke-width="1" opacity="0.8" d="M 269.5 356 L 270 359.5 L 269 359.5 L 269.5 356 Z " /><path fill="rgb(0,0,0)" stroke="rgb(0,0,0)" stroke-width="1" opacity="0.8" d="M 1.5 364 L 2 372.5 L 1 372.5 L 1.5 364 Z " /><path fill="rgb(0,0,0)" stroke="rgb(0,0,0)" stroke-width="1" opacity="0.8" d="M 184.5 364 L 185.5 366 L 184.5 364 Z " /><path fill="rgb(0,0,0)" stroke="rgb(0,0,0)" stroke-width="1" opacity="0.8" d="M 434.5 364 L 435.5 366 L 434.5 364 Z " /><path fill="rgb(0,0,0)" stroke="rgb(0,0,0)" stroke-width="1" opacity="0.8" d="M 270.5 365 L 271 372.5 L 270 372.5 L 270.5 365 Z " /><path fill="rgb(0,0,0)" stroke="rgb(0,0,0)" stroke-width="1" opacity="0.8" d="M 187.5 367 L 188.5 369 L 187.5 367 Z " /><path fill="rgb(0,0,0)" stroke="rgb(0,0,0)" stroke-width="1" opacity="0.8" d="M 437.5 367 L 438.5 369 L 437.5 367 Z " /><path fill="rgb(0,0,0)" stroke="rgb(0,0,0)" stroke-width="1" opacity="0.8" d="M 1.5 381 L 2 389.5 L 1 389.5 L 1.5 381 Z " /><path fill="rgb(0,0,0)" stroke="rgb(0,0,0)" stroke-width="1" opacity="0.8" d="M 270.5 381 L 271 388.5 L 270 388.5 L 270.5 381 Z " /><path fill="rgb(0,0,0)" stroke="rgb(0,0,0)" stroke-width="1" opacity="0.8" d="M 123.5 385 L 124.5 387 L 123.5 385 Z " /><path fill="rgb(0,0,0)" stroke="rgb(0,0,0)" stroke-width="1" opacity="0.8" d="M 188.5 385 L 187.5 387 L 188.5 385 Z " /><path fill="rgb(0,0,0)" stroke="rgb(0,0,0)" stroke-width="1" opacity="0.8" d="M 438.5 385 L 437.5 387 L 438.5 385 Z " /><path fill="rgb(0,0,0)" stroke="rgb(0,0,0)" stroke-width="1" opacity="0.8" d="M 126.5 388 L 127.5 390 L 126.5 388 Z " /><path fill="rgb(0,0,0)" stroke="rgb(0,0,0)" stroke-width="1" opacity="0.8" d="M 185.5 388 L 184.5 390 L 185.5 388 Z " /><path fill="rgb(0,0,0)" stroke="rgb(0,0,0)" stroke-width="1" opacity="0.8" d="M 435.5 388 L 434.5 390 L 435.5 388 Z " /><path fill="rgb(0,0,0)" stroke="rgb(0,0,0)" stroke-width="1" opacity="0.8" d="M 2.5 394 L 3 397.5 L 2 397.5 L 2.5 394 Z " /><path fill="rgb(0,0,0)" stroke="rgb(0,0,0)" stroke-width="1" opacity="0.8" d="M 269.5 394 L 270 397.5 L 269 397.5 L 269.5 394 Z " /><path fill="rgb(0,0,0)" stroke="rgb(0,0,0)" stroke-width="1" opacity="0.8" d="M 299.5 398 L 300 401.5 L 299 401.5 L 299.5 398 Z " /><path fill="rgb(0,0,0)" stroke="rgb(0,0,0)" stroke-width="1" opacity="0.8" d="M 268.5 400 L 269 402.5 L 268 402.5 L 268.5 400 Z " /><path fill="rgb(0,0,0)" stroke="rgb(0,0,0)" stroke-width="1" opacity="0.8" d="M 18.5 443 L 19.5 445 L 18.5 443 Z " /><path fill="rgb(0,0,0)" stroke="rgb(0,0,0)" stroke-width="1" opacity="0.8" d="M 285.5 446 L 286 447.5 L 284.5 450 L 284 448.5 L 285.5 446 Z " /><path fill="rgb(0,0,0)" stroke="rgb(0,0,0)" stroke-width="1" opacity="0.8" d="M 21.5 448 L 22.5 450 L 21.5 448 Z " /><path fill="rgb(0,0,0)" stroke="rgb(0,0,0)" stroke-width="1" opacity="0.8" d="M 250.5 448 L 249.5 450 L 250.5 448 Z " /><path fill="rgb(0,0,0)" stroke="rgb(0,0,0)" stroke-width="1" opacity="0.8" d="M 23.5 451 L 24.5 453 L 23.5 451 Z " /><path fill="rgb(0,0,0)" stroke="rgb(0,0,0)" stroke-width="1" opacity="0.8" d="M 248.5 451 L 247.5 453 L 248.5 451 Z " /><path fill="rgb(0,0,0)" stroke="rgb(0,0,0)" stroke-width="1" opacity="0.8" d="M 282.5 453 L 281.5 455 L 282.5 453 Z " /><path fill="rgb(0,0,0)" stroke="rgb(0,0,0)" stroke-width="1" opacity="0.8" d="M 25.5 454 L 26.5 456 L 25.5 454 Z " /><path fill="rgb(0,0,0)" stroke="rgb(0,0,0)" stroke-width="1" opacity="0.8" d="M 246.5 454 L 245.5 456 L 246.5 454 Z " /><path fill="rgb(0,0,0)" stroke="rgb(0,0,0)" stroke-width="1" opacity="0.8" d="M 28.5 458 L 30.5 461 L 28.5 458 Z " /><path fill="rgb(0,0,0)" stroke="rgb(0,0,0)" stroke-width="1" opacity="0.8" d="M 243.5 458 L 241.5 461 L 243.5 458 Z " /><path fill="rgb(0,0,0)" stroke="rgb(0,0,0)" stroke-width="1" opacity="0.8" d="M 32.5 463 L 35.5 467 L 32.5 463 Z " /><path fill="rgb(0,0,0)" stroke="rgb(0,0,0)" stroke-width="1" opacity="0.8" d="M 239.5 463 L 236.5 467 L 239.5 463 Z " /><path fill="rgb(0,0,0)" stroke="rgb(0,0,0)" stroke-width="1" opacity="0.8" d="M 275.5 465 L 274.5 467 L 275.5 465 Z " /><path fill="rgb(0,0,0)" stroke="rgb(0,0,0)" stroke-width="1" opacity="0.8" d="M 273.5 468 L 272.5 470 L 273.5 468 Z " /><path fill="rgb(0,0,0)" stroke="rgb(0,0,0)" stroke-width="1" opacity="0.8" d="M 510.5 469 L 511 473.5 L 510 473.5 L 510.5 469 Z " /><path fill="rgb(0,0,0)" stroke="rgb(0,0,0)" stroke-width="1" opacity="0.8" d="M 271.5 471 L 270.5 473 L 271.5 471 Z " /><path fill="rgb(0,0,0)" stroke="rgb(0,0,0)" stroke-width="1" opacity="0.8" d="M 268.5 475 L 267.5 477 L 268.5 475 Z " /><path fill="rgb(0,0,0)" stroke="rgb(0,0,0)" stroke-width="1" opacity="0.8" d="M 46.5 477 L 49.5 481 L 46.5 477 Z " /><path fill="rgb(0,0,0)" stroke="rgb(0,0,0)" stroke-width="1" opacity="0.8" d="M 225.5 477 L 222.5 481 L 225.5 477 Z " /><path fill="rgb(0,0,0)" stroke="rgb(0,0,0)" stroke-width="1" opacity="0.8" d="M 265.5 479 L 263.5 482 L 265.5 479 Z " /><path fill="rgb(0,0,0)" stroke="rgb(0,0,0)" stroke-width="1" opacity="0.8" d="M 52.5 482 L 54.5 485 L 52.5 482 Z " /><path fill="rgb(0,0,0)" stroke="rgb(0,0,0)" stroke-width="1" opacity="0.8" d="M 219.5 482 L 217.5 485 L 219.5 482 Z " /><path fill="rgb(0,0,0)" stroke="rgb(0,0,0)" stroke-width="1" opacity="0.8" d="M 260.5 485 L 255.5 491 L 260.5 485 Z " /><path fill="rgb(0,0,0)" stroke="rgb(0,0,0)" stroke-width="1" opacity="0.8" d="M 57.5 486 L 58.5 488 L 57.5 486 Z " /><path fill="rgb(0,0,0)" stroke="rgb(0,0,0)" stroke-width="1" opacity="0.8" d="M 214.5 486 L 213.5 488 L 214.5 486 Z " /><path fill="rgb(0,0,0)" stroke="rgb(0,0,0)" stroke-width="1" opacity="0.8" d="M 60.5 488 L 61.5 490 L 60.5 488 Z " /><path fill="rgb(0,0,0)" stroke="rgb(0,0,0)" stroke-width="1" opacity="0.8" d="M 211.5 488 L 210.5 490 L 211.5 488 Z " /><path fill="rgb(0,0,0)" stroke="rgb(0,0,0)" stroke-width="1" opacity="0.8" d="M 505.5 488 L 504.5 490 L 505.5 488 Z " /><path fill="rgb(0,0,0)" stroke="rgb(0,0,0)" stroke-width="1" opacity="0.8" d="M 63.5 490 L 64.5 492 L 63.5 490 Z " /><path fill="rgb(0,0,0)" stroke="rgb(0,0,0)" stroke-width="1" opacity="0.8" d="M 208.5 490 L 207.5 492 L 208.5 490 Z " /><path fill="rgb(0,0,0)" stroke="rgb(0,0,0)" stroke-width="1" opacity="0.8" d="M 203.5 493 L 202.5 495 L 203.5 493 Z " /><path fill="rgb(0,0,0)" stroke="rgb(0,0,0)" stroke-width="1" opacity="0.8" d="M 501.5 494 L 498.5 498 L 501.5 494 Z " /><path fill="rgb(0,0,0)" stroke="rgb(0,0,0)" stroke-width="1" opacity="0.8" d="M 249.5 496 L 243.5 503 L 249.5 496 Z " /><path fill="rgb(0,0,0)" stroke="rgb(0,0,0)" stroke-width="1" opacity="0.8" d="M 496.5 499 L 493.5 503 L 496.5 499 Z " /><path fill="rgb(0,0,0)" stroke="rgb(0,0,0)" stroke-width="1" opacity="0.8" d="M 240.5 504 L 238.5 507 L 240.5 504 Z " /><path fill="rgb(0,0,0)" stroke="rgb(0,0,0)" stroke-width="1" opacity="0.8" d="M 488.5 505 L 487.5 507 L 488.5 505 Z " /><path fill="rgb(0,0,0)" stroke="rgb(0,0,0)" stroke-width="1" opacity="0.8" d="M 235.5 508 L 234.5 510 L 235.5 508 Z " /><path fill="rgb(0,0,0)" stroke="rgb(0,0,0)" stroke-width="1" opacity="0.8" d="M 115.5 510 L 119 510.5 L 115.5 511 L 115.5 510 Z " /><path fill="rgb(0,0,0)" stroke="rgb(0,0,0)" stroke-width="1" opacity="0.8" d="M 153.5 510 L 157 510.5 L 153.5 511 L 153.5 510 Z " /><path fill="rgb(0,0,0)" stroke="rgb(0,0,0)" stroke-width="1" opacity="0.8" d="M 124.5 511 L 132 511.5 L 124.5 512 L 124.5 511 Z " /><path fill="rgb(0,0,0)" stroke="rgb(0,0,0)" stroke-width="1" opacity="0.8" d="M 140.5 511 L 148 511.5 L 140.5 512 L 140.5 511 Z " /><path fill="rgb(0,0,0)" stroke="rgb(0,0,0)" stroke-width="1" opacity="0.8" d="M 468.5 511 L 473 511.5 L 468.5 512 L 468.5 511 Z " /><path fill="rgb(0,0,0)" stroke="rgb(0,0,0)" stroke-width="1" opacity="0" d="M 0 0 L 159 0.5 Q 139.3 3.8 130 17.5 Q 123.1 25.6 121 38.5 L 121 213 L 125.5 212 L 146.5 212 L 147.5 213 L 163.5 214 L 181.5 218 L 205.5 227 Q 234.8 241.2 256 263.5 L 263.5 272 L 428.5 272 L 437 276 L 441 284.5 L 441 289.5 L 437 298 L 428.5 302 L 283 302.5 Q 297.2 327.1 300 362 L 428.5 362 L 437 366 L 441 374.5 L 441 379.5 L 437 388 L 428.5 392 L 300 392 L 296 418.5 L 284 450.5 Q 270.6 476.6 250.5 496 L 230.5 512 L 148.5 512 L 148.5 511 L 156.5 511 L 174.5 507 L 202.5 495 Q 224.3 482.3 240 463.5 Q 256.1 444.6 265 418.5 L 270 397.5 L 271 365.5 L 265 335.5 L 254 310.5 Q 241.3 288.7 222.5 273 Q 202.6 255.9 174.5 247 L 148.5 242 L 123.5 242 L 94.5 248 L 69.5 259 Q 47.7 271.7 32 290.5 Q 15.8 309.3 7 335.5 L 1 364.5 L 1 389.5 L 7 418.5 L 18 443.5 Q 30.7 465.3 49.5 481 Q 63.5 493 81.5 501 L 105.5 509 L 124 511.5 L 0 512 L 0 0 Z " /><path fill="rgb(0,0,0)" stroke="rgb(0,0,0)" stroke-width="1" opacity="0" d="M 381 0 L 511.5 0 L 512 0.5 L 512 512 L 473 511.5 Q 492.7 508.2 502 494.5 Q 508.9 486.4 511 473.5 L 511 130 L 393.5 130 L 385 126 L 381 117.5 L 381 0 Z M 412 9 L 411 100 L 502 100 L 412 9 Z " /><path fill="rgb(0,0,0)" stroke="rgb(0,0,0)" stroke-width="1" opacity="0" d="M 203.5 182 L 428.5 182 L 437 186 L 441 194.5 L 441 199.5 L 437 208 L 428.5 212 L 203.5 212 L 195 208 L 191 199.5 L 191 194.5 L 195 186 L 203.5 182 Z " /><path fill="rgb(0,0,0)" stroke="rgb(0,0,0)" stroke-width="1" opacity="0" d="M 133.5 302 L 138.5 302 L 147 306 L 151 314.5 L 151 362 L 178.5 362 L 187 366 L 191 374.5 L 191 379.5 L 187 388 L 178.5 392 L 133.5 392 L 125 388 L 121 379.5 L 121 314.5 L 125 306 L 133.5 302 Z " /><path fill="rgb(0,0,0)" stroke="rgb(0,0,0)" stroke-width="1" opacity="1" d="M 164.5 0 L 381 0 L 381 119.5 L 387.5 128 L 391.5 130 L 511 130 L 511 468.5 Q 508.3 470.3 510 476.5 L 507 485.5 L 498 499 L 484.5 508 L 475.5 511 Q 469.3 509.2 467.5 512 L 232.5 512 L 233.5 510 Q 249.5 500 261 485.5 Q 275.8 468.8 286 447.5 L 296 420.5 L 301 392 L 430.5 392 L 439 385.5 Q 442.5 381.5 441 372.5 L 434.5 364 L 430.5 362 L 301 362 L 296 333.5 L 284 302 L 430.5 302 L 439 295.5 Q 442.5 291.5 441 282.5 L 434.5 274 L 430.5 272 L 263.5 272 L 262 270.5 L 243.5 251 Q 217.5 228 179.5 217 L 152.5 212 L 121 212 L 121 43.5 Q 123.7 41.8 122 35.5 L 125 26.5 L 134 13 L 147.5 4 L 156.5 1 Q 162.8 2.8 164.5 0 Z M 202 182 L 198 184 L 191 193 Q 190 202 193 206 L 202 212 L 431 212 L 435 210 L 441 202 Q 442 193 439 189 L 431 182 L 202 182 Z " /><path fill="rgb(0,0,0)" stroke="rgb(0,0,0)" stroke-width="1" opacity="1" d="M 411.5 10 L 500.5 100 L 411 100 L 411.5 10 Z " /><path fill="rgb(0,0,0)" stroke="rgb(0,0,0)" stroke-width="1" opacity="1" d="M 132.5 242 L 159.5 244 L 189.5 253 Q 217.1 265.4 236 286.5 Q 252.2 304.3 262 328.5 L 269 353.5 L 271 380.5 L 270 381.5 L 270 393.5 L 269 394.5 L 268 405.5 L 259 432.5 Q 246.8 458.8 226.5 477 Q 208.7 493.2 184.5 503 L 159.5 510 L 132.5 512 L 131.5 511 L 119.5 511 L 118.5 510 L 107.5 509 L 80.5 500 Q 54.2 487.8 36 467.5 Q 19.8 449.7 10 425.5 L 3 400.5 L 1 373.5 L 2 372.5 L 2 360.5 L 3 359.5 L 4 348.5 L 12 323.5 Q 24.4 295.9 45.5 277 Q 63.3 260.8 87.5 251 L 107.5 245 L 118.5 244 L 119.5 243 L 131.5 243 L 132.5 242 Z M 132 302 L 128 304 L 121 313 L 121 382 L 123 386 L 132 392 L 181 392 L 185 390 L 191 382 Q 193 373 189 369 L 181 362 L 151 362 L 151 313 L 149 309 L 141 302 L 132 302 Z " /></svg>