<svg width="64" height="64" version="1.1" xmlns="http://www.w3.org/2000/svg" desc="Created with imagetracer.js version 1.2.6" ><path fill="rgb(0,0,0)" stroke="rgb(0,0,0)" stroke-width="1" opacity="0" d="M 0 0 L 18 0.5 L 16 1 L 15 3.5 L 15 27 Q 27.4 26.3 32.5 34 L 53.5 34 L 55 35.5 L 54.5 37 L 35.5 37 L 35 38.5 L 37 46 L 54.5 46 L 55 47.5 L 53.5 49 L 37 49 Q 36 59.3 28.5 64 L 22 63.5 L 31 57.5 Q 35.5 53 34 42.5 L 27.5 33 Q 23 28.5 12.5 30 L 3 36.5 L 0.5 42 L 0 0 Z " /><path fill="rgb(0,0,0)" stroke="rgb(0,0,0)" stroke-width="1" opacity="0" d="M 48 0 L 64 0 L 64 16 L 49.5 16 L 48 14.5 L 48 0 Z M 52 1 L 51 13 L 63 13 L 52 1 Z " /><path fill="rgb(0,0,0)" stroke="rgb(0,0,0)" stroke-width="1" opacity="0" d="M 25.5 23 L 53.5 23 L 55 24.5 L 53.5 26 L 25.5 26 Q 22.5 24.5 25.5 23 Z " /><path fill="rgb(0,0,0)" stroke="rgb(0,0,0)" stroke-width="1" opacity="0" d="M 16 38 Q 19.5 36.9 18 44.5 Q 19.2 47 23 46 L 21.5 49 Q 17 50 16 47.5 L 16 38 Z " /><path fill="rgb(0,0,0)" stroke="rgb(0,0,0)" stroke-width="1" opacity="0" d="M 0.5 52 Q 2.4 58.6 7.5 62 L 12 63.5 L 0 64 L 0.5 52 Z " /><path fill="rgb(0,0,0)" stroke="rgb(0,0,0)" stroke-width="1" opacity="0" d="M 63.5 61 L 64 64 L 61 63.5 L 63 63 L 63.5 61 Z " /><path fill="rgb(0,0,0)" stroke="rgb(0,0,0)" stroke-width="1" opacity="0.8941176470588236" d="M 17.5 1 L 16.5 3 L 17.5 1 Z " /><path fill="rgb(0,0,0)" stroke="rgb(0,0,0)" stroke-width="1" opacity="0.8941176470588236" d="M 52.5 2 L 61.5 12 L 52.5 2 Z " /><path fill="rgb(0,0,0)" stroke="rgb(0,0,0)" stroke-width="1" opacity="0.8941176470588236" d="M 15.5 5 L 16 25.5 L 15 25.5 L 15.5 5 Z " /><path fill="rgb(0,0,0)" stroke="rgb(0,0,0)" stroke-width="1" opacity="0.8941176470588236" d="M 63.5 17 L 64 58.5 L 63 58.5 L 63.5 17 Z " /><path fill="rgb(0,0,0)" stroke="rgb(0,0,0)" stroke-width="1" opacity="0.8941176470588236" d="M 7.5 33 L 6.5 35 L 7.5 33 Z " /><path fill="rgb(0,0,0)" stroke="rgb(0,0,0)" stroke-width="1" opacity="0.8941176470588236" d="M 26.5 33 L 27.5 35 L 26.5 33 Z " /><path fill="rgb(0,0,0)" stroke="rgb(0,0,0)" stroke-width="1" opacity="0.8941176470588236" d="M 4.5 36 L 3.5 38 L 4.5 36 Z " /><path fill="rgb(0,0,0)" stroke="rgb(0,0,0)" stroke-width="1" opacity="0.8941176470588236" d="M 29.5 36 L 30.5 38 L 29.5 36 Z " /><path fill="rgb(0,0,0)" stroke="rgb(0,0,0)" stroke-width="1" opacity="0.8941176470588236" d="M 0.5 45 L 1 48.5 L 0 48.5 L 0.5 45 Z " /><path fill="rgb(0,0,0)" stroke="rgb(0,0,0)" stroke-width="1" opacity="0.8941176470588236" d="M 33.5 45 L 34 48.5 L 33 48.5 L 33.5 45 Z " /><path fill="rgb(0,0,0)" stroke="rgb(0,0,0)" stroke-width="1" opacity="0.8941176470588236" d="M 62.5 61 L 61.5 63 L 62.5 61 Z " /><path fill="rgb(0,0,0)" stroke="rgb(0,0,0)" stroke-width="1" opacity="1" d="M 20.5 0 L 47 0 L 47 15.5 L 48.5 16 L 49.5 17 L 63 17 L 63 60.5 L 60.5 63 L 58.5 64 L 30.5 64 L 35 58.5 L 38 49 L 54.5 49 L 55 45 L 38.5 45 L 38 42.5 L 36 38.5 L 55 38 L 54.5 34 L 33.5 34 L 25 27.5 L 55 27 L 56 24.5 L 53.5 22 L 25.5 22 Q 21.3 23.8 24 25.5 Q 24.8 28.1 21.5 27 L 16 26 L 16 3.5 L 18.5 1 L 20.5 0 Z " /><path fill="rgb(0,0,0)" stroke="rgb(0,0,0)" stroke-width="1" opacity="1" d="M 52.5 3 L 60.5 12 L 52 12 L 52.5 3 Z " /><path fill="rgb(0,0,0)" stroke="rgb(0,0,0)" stroke-width="1" opacity="1" d="M 12.5 31 L 21.5 31 L 29 35 L 33 42.5 L 33 51.5 L 27.5 60 L 22.5 63 L 16.5 64 L 9.5 62 L 4 57.5 Q -0.5 53 1 42.5 L 5 35 L 12.5 31 Z M 17 37 L 15 39 L 15 49 L 24 49 Q 26 43 19 45 L 19 39 L 17 37 Z " /><path fill="rgb(0,0,0)" stroke="rgb(0,0,0)" stroke-width="1" opacity="0.6078431372549019" d="M 47.5 0 L 48 14.5 L 47 14.5 L 47.5 0 Z " /><path fill="rgb(0,0,0)" stroke="rgb(0,0,0)" stroke-width="1" opacity="0.6078431372549019" d="M 51.5 2 L 52 12 L 62 12.5 L 52.5 13 L 51 11.5 L 51.5 2 Z " /><path fill="rgb(0,0,0)" stroke="rgb(0,0,0)" stroke-width="1" opacity="0.6078431372549019" d="M 50.5 16 L 64 16.5 L 50.5 17 L 50.5 16 Z " /><path fill="rgb(0,0,0)" stroke="rgb(0,0,0)" stroke-width="1" opacity="0.6078431372549019" d="M 26.5 22 L 53 22.5 L 26.5 23 L 26.5 22 Z " /><path fill="rgb(0,0,0)" stroke="rgb(0,0,0)" stroke-width="1" opacity="0.6078431372549019" d="M 15.5 26 L 20 26.5 L 15.5 27 L 15.5 26 Z " /><path fill="rgb(0,0,0)" stroke="rgb(0,0,0)" stroke-width="1" opacity="0.6078431372549019" d="M 25.5 26 L 54 26.5 L 25.5 27 L 25.5 26 Z " /><path fill="rgb(0,0,0)" stroke="rgb(0,0,0)" stroke-width="1" opacity="0.6078431372549019" d="M 14.5 30 L 20 30.5 L 14.5 31 L 14.5 30 Z " /><path fill="rgb(0,0,0)" stroke="rgb(0,0,0)" stroke-width="1" opacity="0.6078431372549019" d="M 29.5 30 L 32.5 34 L 29.5 30 Z " /><path fill="rgb(0,0,0)" stroke="rgb(0,0,0)" stroke-width="1" opacity="0.6078431372549019" d="M 4.5 58 L 5.5 60 L 4.5 58 Z " /><path fill="rgb(0,0,0)" stroke="rgb(0,0,0)" stroke-width="1" opacity="0.6078431372549019" d="M 29.5 58 L 28.5 60 L 29.5 58 Z " /><path fill="rgb(0,0,0)" stroke="rgb(0,0,0)" stroke-width="1" opacity="0.2235294117647059" d="M 6.5 33 L 3.5 37 L 6.5 33 Z " /><path fill="rgb(0,0,0)" stroke="rgb(0,0,0)" stroke-width="1" opacity="0.2235294117647059" d="M 27.5 33 L 30.5 37 L 27.5 33 Z " /><path fill="rgb(0,0,0)" stroke="rgb(0,0,0)" stroke-width="1" opacity="0.2235294117647059" d="M 35 37 L 54 37.5 L 36.5 38 L 35.5 39 L 35 37 Z " /><path fill="rgb(0,0,0)" stroke="rgb(0,0,0)" stroke-width="1" opacity="0.2235294117647059" d="M 15.5 39 L 16 47.5 L 17 48.5 L 15 47.5 L 15.5 39 Z " /><path fill="rgb(0,0,0)" stroke="rgb(0,0,0)" stroke-width="1" opacity="0.2235294117647059" d="M 18.5 39 L 19 45 Q 22.8 44 24 46.5 L 22.5 49 L 23 47.5 Q 23.9 44.5 19.5 46 Q 16.4 44.4 18.5 39 Z " /><path fill="rgb(0,0,0)" stroke="rgb(0,0,0)" stroke-width="1" opacity="0.2235294117647059" d="M 37.5 45 L 54 45.5 L 37.5 46 L 37.5 45 Z " /><path fill="rgb(0,0,0)" stroke="rgb(0,0,0)" stroke-width="1" opacity="0.2235294117647059" d="M 6.5 60 L 7.5 62 L 6.5 60 Z " /><path fill="rgb(0,0,0)" stroke="rgb(0,0,0)" stroke-width="1" opacity="0.2235294117647059" d="M 32.5 60 L 30.5 63 L 32.5 60 Z " /></svg>