<svg width="32" height="32" version="1.1" xmlns="http://www.w3.org/2000/svg" desc="Created with imagetracer.js version 1.2.6" ><path fill="rgb(0,0,0)" stroke="rgb(0,0,0)" stroke-width="1" opacity="0" d="M 0 0 L 10 0.5 L 2 6.5 L 0.5 10 L 0 0 Z " /><path fill="rgb(0,0,0)" stroke="rgb(0,0,0)" stroke-width="1" opacity="0" d="M 22.5 0 L 32 0 L 32 9.5 L 31 9.5 L 25.5 2 Q 21.7 1.7 22.5 0 Z " /><path fill="rgb(0,0,0)" stroke="rgb(0,0,0)" stroke-width="1" opacity="0" d="M 13.5 3 Q 22.5 2.5 26 7.5 Q 29.8 10.7 29 18.5 L 24.5 26 Q 21.3 29.8 13.5 29 L 6 24.5 Q 2.2 21.3 3 13.5 L 7.5 6 L 13.5 3 Z M 16 8 Q 13 9 14 14 Q 9 13 8 16 L 10 18 Q 16 16 14 23 L 17 24 Q 19 23 18 18 Q 23 19 24 17 L 23 14 Q 16 16 18 10 L 16 8 Z " /><path fill="rgb(0,0,0)" stroke="rgb(0,0,0)" stroke-width="1" opacity="0" d="M 0.5 22 L 6.5 30 L 10 31.5 L 0 32 L 0.5 22 Z " /><path fill="rgb(0,0,0)" stroke="rgb(0,0,0)" stroke-width="1" opacity="0" d="M 31.5 22 L 32 32 L 22 31.5 L 30 25.5 L 31.5 22 Z " /><path fill="rgb(255,255,255)" stroke="rgb(255,255,255)" stroke-width="1" opacity="0.5725490196078431" d="M 14.5 2 L 18 2.5 L 14.5 3 L 14.5 2 Z " /><path fill="rgb(255,255,255)" stroke="rgb(255,255,255)" stroke-width="1" opacity="0.5725490196078431" d="M 2.5 14 L 3 17.5 L 2 17.5 L 2.5 14 Z " /><path fill="rgb(255,255,255)" stroke="rgb(255,255,255)" stroke-width="1" opacity="0.5725490196078431" d="M 29.5 14 L 30 17.5 L 29 17.5 L 29.5 14 Z " /><path fill="rgb(255,255,255)" stroke="rgb(255,255,255)" stroke-width="1" opacity="0.5725490196078431" d="M 14.5 29 L 18 29.5 L 14.5 30 L 14.5 29 Z " /><path fill="rgb(255,255,255)" stroke="rgb(255,255,255)" stroke-width="1" opacity="0.12941176470588237" d="M 6.5 2 L 2.5 7 L 6.5 2 Z " /><path fill="rgb(255,255,255)" stroke="rgb(255,255,255)" stroke-width="1" opacity="0.12941176470588237" d="M 25.5 2 L 29.5 7 L 25.5 2 Z " /><path fill="rgb(255,255,255)" stroke="rgb(255,255,255)" stroke-width="1" opacity="0.12941176470588237" d="M 9.5 4 L 8.5 6 L 9.5 4 Z " /><path fill="rgb(255,255,255)" stroke="rgb(255,255,255)" stroke-width="1" opacity="0.12941176470588237" d="M 22.5 4 L 23.5 6 L 22.5 4 Z " /><path fill="rgb(255,255,255)" stroke="rgb(255,255,255)" stroke-width="1" opacity="0.12941176470588237" d="M 5.5 8 L 4.5 10 L 5.5 8 Z " /><path fill="rgb(255,255,255)" stroke="rgb(255,255,255)" stroke-width="1" opacity="0.12941176470588237" d="M 26.5 8 L 27.5 10 L 26.5 8 Z " /><path fill="rgb(255,255,255)" stroke="rgb(255,255,255)" stroke-width="1" opacity="0.12941176470588237" d="M 8.5 16 L 14 17.5 L 9.5 18 L 8.5 16 Z " /><path fill="rgb(255,255,255)" stroke="rgb(255,255,255)" stroke-width="1" opacity="0.12941176470588237" d="M 23.5 16 L 22.5 18 L 18 17.5 L 23.5 16 Z " /><path fill="rgb(255,255,255)" stroke="rgb(255,255,255)" stroke-width="1" opacity="0.12941176470588237" d="M 4.5 22 L 5.5 24 L 4.5 22 Z " /><path fill="rgb(255,255,255)" stroke="rgb(255,255,255)" stroke-width="1" opacity="0.12941176470588237" d="M 14.5 22 L 16.5 23 L 18 22.5 L 15.5 24 L 14.5 22 Z " /><path fill="rgb(255,255,255)" stroke="rgb(255,255,255)" stroke-width="1" opacity="0.12941176470588237" d="M 27.5 22 L 26.5 24 L 27.5 22 Z " /><path fill="rgb(255,255,255)" stroke="rgb(255,255,255)" stroke-width="1" opacity="0.12941176470588237" d="M 2.5 25 L 6.5 30 L 2.5 25 Z " /><path fill="rgb(255,255,255)" stroke="rgb(255,255,255)" stroke-width="1" opacity="0.12941176470588237" d="M 29.5 25 L 25.5 30 L 29.5 25 Z " /><path fill="rgb(255,255,255)" stroke="rgb(255,255,255)" stroke-width="1" opacity="0.12941176470588237" d="M 8.5 26 L 9.5 28 L 8.5 26 Z " /><path fill="rgb(255,255,255)" stroke="rgb(255,255,255)" stroke-width="1" opacity="0.12941176470588237" d="M 23.5 26 L 22.5 28 L 23.5 26 Z " /><path fill="rgb(255,255,255)" stroke="rgb(255,255,255)" stroke-width="1" opacity="0.34509803921568627" d="M 14.5 10 L 15 13.5 L 8.5 16 L 9.5 14 Q 16 16 14.5 10 Z " /><path fill="rgb(255,255,255)" stroke="rgb(255,255,255)" stroke-width="1" opacity="0.34509803921568627" d="M 17.5 10 L 18 14 Q 22.6 12.8 24 15.5 L 22.5 15 Q 18 16 17 13.5 L 17.5 10 Z " /><path fill="rgb(255,255,255)" stroke="rgb(255,255,255)" stroke-width="1" opacity="0.34509803921568627" d="M 14.5 17 L 15 21.5 L 14 21.5 L 14.5 17 Z " /><path fill="rgb(255,255,255)" stroke="rgb(255,255,255)" stroke-width="1" opacity="0.34509803921568627" d="M 17.5 17 L 18 21.5 L 17 21.5 L 17.5 17 Z " /><path fill="rgb(255,255,255)" stroke="rgb(255,255,255)" stroke-width="1" opacity="0.984313725490196" d="M 14.5 0 Q 23.9 0.1 28 5.5 Q 32 9.5 32 17.5 Q 30.8 24.3 26.5 28 Q 22.5 32 14.5 32 Q 7.8 30.8 4 26.5 Q 0 22.5 0 14.5 Q 1.3 7.8 5.5 4 L 14.5 0 Z M 14 2 L 9 4 Q 4 7 2 14 Q 1 20 4 24 Q 7 28 14 30 Q 20 31 24 28 Q 28 25 30 19 Q 31 12 28 9 Q 24 2 14 2 Z " /><path fill="rgb(255,255,255)" stroke="rgb(255,255,255)" stroke-width="1" opacity="0.984313725490196" d="M 15 9 L 17 9 L 17 15 L 23 15 L 23 17 L 17 17 L 17 23 L 15 23 L 15 17 L 9 17 L 9 15 L 15 15 L 15 9 Z " /></svg>