<svg width="64" height="64" version="1.1" xmlns="http://www.w3.org/2000/svg" desc="Created with imagetracer.js version 1.2.6" ><path fill="rgb(0,0,0)" stroke="rgb(0,0,0)" stroke-width="1" opacity="0" d="M 0 0 L 24 0.5 Q 12.9 2.9 7 10.5 Q 2 15.5 0.5 24 L 0 0 Z " /><path fill="rgb(0,0,0)" stroke="rgb(0,0,0)" stroke-width="1" opacity="0" d="M 40.5 0 L 64 0 L 64 23.5 L 63 23.5 Q 61 12.5 53.5 7 Q 49.1 1.9 40.5 1 L 40.5 0 Z " /><path fill="rgb(0,0,0)" stroke="rgb(0,0,0)" stroke-width="1" opacity="0" d="M 31.5 5 L 41.5 7 L 53 15.5 L 57 22.5 L 59 32.5 L 55 45.5 L 48.5 53 L 41.5 57 L 31.5 59 L 18.5 55 L 11 48.5 L 7 41.5 L 5 31.5 L 9 18.5 L 15.5 11 L 22.5 7 L 31.5 5 Z M 32 16 L 29 19 L 29 29 L 17 29 Q 16 34 19 35 L 29 35 L 29 46 Q 30 48 34 47 L 35 46 L 35 35 L 46 35 L 47 34 L 47 29 L 35 29 L 35 19 L 32 16 Z " /><path fill="rgb(0,0,0)" stroke="rgb(0,0,0)" stroke-width="1" opacity="0" d="M 0.5 40 Q 2.9 51.1 10.5 57 Q 15.5 62 24 63.5 L 0 64 L 0.5 40 Z " /><path fill="rgb(0,0,0)" stroke="rgb(0,0,0)" stroke-width="1" opacity="0" d="M 63.5 40 L 64 64 L 40 63.5 Q 51.1 61.1 57 53.5 Q 62 48.5 63.5 40 Z " /><path fill="rgb(255,255,255)" stroke="rgb(255,255,255)" stroke-width="1" opacity="0.2980392156862745" d="M 14.5 11 L 11.5 15 L 14.5 11 Z " /><path fill="rgb(255,255,255)" stroke="rgb(255,255,255)" stroke-width="1" opacity="0.2980392156862745" d="M 49.5 11 L 52.5 15 L 49.5 11 Z " /><path fill="rgb(255,255,255)" stroke="rgb(255,255,255)" stroke-width="1" opacity="0.2980392156862745" d="M 19.5 34 L 29 34.5 L 19.5 35 L 19.5 34 Z " /><path fill="rgb(255,255,255)" stroke="rgb(255,255,255)" stroke-width="1" opacity="0.2980392156862745" d="M 35.5 34 L 45 34.5 L 35.5 35 L 35.5 34 Z " /><path fill="rgb(255,255,255)" stroke="rgb(255,255,255)" stroke-width="1" opacity="0.2980392156862745" d="M 11.5 49 L 14.5 53 L 11.5 49 Z " /><path fill="rgb(255,255,255)" stroke="rgb(255,255,255)" stroke-width="1" opacity="0.2980392156862745" d="M 52.5 49 L 49.5 53 L 52.5 49 Z " /><path fill="rgb(255,255,255)" stroke="rgb(255,255,255)" stroke-width="1" opacity="0.5764705882352941" d="M 11.5 7 L 7.5 12 L 11.5 7 Z " /><path fill="rgb(255,255,255)" stroke="rgb(255,255,255)" stroke-width="1" opacity="0.5764705882352941" d="M 52.5 7 L 56.5 12 L 52.5 7 Z " /><path fill="rgb(255,255,255)" stroke="rgb(255,255,255)" stroke-width="1" opacity="0.5764705882352941" d="M 29.5 19 L 30 28.5 L 28.5 30 L 19.5 30 L 19.5 29 L 29 29 L 29.5 19 Z " /><path fill="rgb(255,255,255)" stroke="rgb(255,255,255)" stroke-width="1" opacity="0.5764705882352941" d="M 34.5 19 L 35 29 L 45 29.5 L 35.5 30 L 34 28.5 L 34.5 19 Z " /><path fill="rgb(255,255,255)" stroke="rgb(255,255,255)" stroke-width="1" opacity="0.5764705882352941" d="M 29.5 34 L 30 43.5 L 29 43.5 L 29.5 34 Z " /><path fill="rgb(255,255,255)" stroke="rgb(255,255,255)" stroke-width="1" opacity="0.5764705882352941" d="M 34.5 34 L 35 43.5 L 34 43.5 L 34.5 34 Z " /><path fill="rgb(255,255,255)" stroke="rgb(255,255,255)" stroke-width="1" opacity="0.5764705882352941" d="M 7.5 52 L 11.5 57 L 7.5 52 Z " /><path fill="rgb(255,255,255)" stroke="rgb(255,255,255)" stroke-width="1" opacity="0.5764705882352941" d="M 56.5 52 L 52.5 57 L 56.5 52 Z " /><path fill="rgb(255,255,255)" stroke="rgb(255,255,255)" stroke-width="1" opacity="0.058823529411764705" d="M 14.5 4 L 13.5 6 L 14.5 4 Z " /><path fill="rgb(255,255,255)" stroke="rgb(255,255,255)" stroke-width="1" opacity="0.058823529411764705" d="M 49.5 4 L 50.5 6 L 49.5 4 Z " /><path fill="rgb(255,255,255)" stroke="rgb(255,255,255)" stroke-width="1" opacity="0.058823529411764705" d="M 10.5 7 L 7.5 11 L 10.5 7 Z " /><path fill="rgb(255,255,255)" stroke="rgb(255,255,255)" stroke-width="1" opacity="0.058823529411764705" d="M 53.5 7 L 56.5 11 L 53.5 7 Z " /><path fill="rgb(255,255,255)" stroke="rgb(255,255,255)" stroke-width="1" opacity="0.058823529411764705" d="M 5.5 13 L 4.5 15 L 5.5 13 Z " /><path fill="rgb(255,255,255)" stroke="rgb(255,255,255)" stroke-width="1" opacity="0.058823529411764705" d="M 58.5 13 L 59.5 15 L 58.5 13 Z " /><path fill="rgb(255,255,255)" stroke="rgb(255,255,255)" stroke-width="1" opacity="0.058823529411764705" d="M 46.5 33 L 45.5 35 L 46.5 33 Z " /><path fill="rgb(255,255,255)" stroke="rgb(255,255,255)" stroke-width="1" opacity="0.058823529411764705" d="M 29.5 45 L 30.5 47 L 29.5 45 Z " /><path fill="rgb(255,255,255)" stroke="rgb(255,255,255)" stroke-width="1" opacity="0.058823529411764705" d="M 34.5 45 L 33.5 47 L 34.5 45 Z " /><path fill="rgb(255,255,255)" stroke="rgb(255,255,255)" stroke-width="1" opacity="0.058823529411764705" d="M 4.5 49 L 5.5 51 L 4.5 49 Z " /><path fill="rgb(255,255,255)" stroke="rgb(255,255,255)" stroke-width="1" opacity="0.058823529411764705" d="M 7.5 53 L 10.5 57 L 7.5 53 Z " /><path fill="rgb(255,255,255)" stroke="rgb(255,255,255)" stroke-width="1" opacity="0.058823529411764705" d="M 56.5 53 L 53.5 57 L 56.5 53 Z " /><path fill="rgb(255,255,255)" stroke="rgb(255,255,255)" stroke-width="1" opacity="0.058823529411764705" d="M 13.5 58 L 14.5 60 L 13.5 58 Z " /><path fill="rgb(255,255,255)" stroke="rgb(255,255,255)" stroke-width="1" opacity="0.984313725490196" d="M 28.5 0 L 35.5 0 L 43.5 2 Q 52.5 6 58 13.5 Q 64.6 20.9 64 35.5 Q 61.3 50.8 50.5 58 Q 43.1 64.6 28.5 64 Q 13.2 61.3 6 50.5 Q -0.6 43.1 0 28.5 Q 2.7 13.2 13.5 6 L 20.5 2 L 28.5 0 Z M 26 5 L 16 10 Q 8 16 5 26 Q 3 42 10 49 Q 16 56 27 59 Q 42 61 49 54 Q 56 48 59 38 Q 61 22 54 16 Q 49 9 42 6 Q 36 3 26 5 Z " /><path fill="rgb(255,255,255)" stroke="rgb(255,255,255)" stroke-width="1" opacity="0.984313725490196" d="M 31.5 17 L 34 18.5 L 34 28.5 L 35.5 30 L 45.5 30 L 47 31.5 L 46 34 L 34 34 L 34 46 L 30 46 L 30 34 L 18.5 34 L 18 32.5 Q 15.8 31.3 18.5 30 L 28.5 30 L 30 28.5 L 30 18.5 L 31.5 17 Z " /></svg>