<svg width="32" height="32" version="1.1" xmlns="http://www.w3.org/2000/svg" desc="Created with imagetracer.js version 1.2.6" ><path fill="rgb(255,255,255)" stroke="rgb(255,255,255)" stroke-width="1" opacity="0.5254901960784314" d="M 12.5 1 L 20 1.5 L 12.5 2 L 12.5 1 Z " /><path fill="rgb(255,255,255)" stroke="rgb(255,255,255)" stroke-width="1" opacity="0.5254901960784314" d="M 22.5 8 L 23 30 L 29.5 30 L 30 29.5 L 30 8.5 L 31 8.5 L 31 31 L 22 31 L 22.5 8 Z " /><path fill="rgb(255,255,255)" stroke="rgb(255,255,255)" stroke-width="1" opacity="0.5254901960784314" d="M 1.5 16 L 2 30 L 9 30 L 9 16.5 L 10 16.5 L 10 31 L 1 31 L 1.5 16 Z " /><path fill="rgb(255,255,255)" stroke="rgb(255,255,255)" stroke-width="1" opacity="0.5254901960784314" d="M 12.5 30 L 20 30.5 L 12.5 31 L 12.5 30 Z " /><path fill="rgb(0,0,0)" stroke="rgb(0,0,0)" stroke-width="1" opacity="0" d="M 0 0 L 32 0 L 32 32 L 0 32 L 0 0 Z M 12 1 L 12 31 L 13 31 L 20 31 L 20 2 L 20 1 L 12 1 Z M 22 8 L 22 31 L 31 31 L 31 8 L 22 8 Z M 1 16 L 1 31 L 10 31 L 10 16 L 1 16 Z " /><path fill="rgb(255,255,255)" stroke="rgb(255,255,255)" stroke-width="1" opacity="1" d="M 12 2 L 19.5 2 L 20 2.5 L 20 30 L 12.5 30 L 12 29.5 L 12 2 Z " /><path fill="rgb(255,255,255)" stroke="rgb(255,255,255)" stroke-width="1" opacity="1" d="M 23 8 L 29.5 8 L 30 8.5 L 30 30 L 23.5 30 L 23 29.5 L 23 8 Z " /><path fill="rgb(255,255,255)" stroke="rgb(255,255,255)" stroke-width="1" opacity="1" d="M 2 16 L 9 16 L 9 30 L 2 30 L 2 16 Z " /></svg>