<svg width="512" height="512" version="1.1" xmlns="http://www.w3.org/2000/svg" desc="Created with imagetracer.js version 1.2.6" ><path fill="rgb(255,255,255)" stroke="rgb(255,255,255)" stroke-width="1" opacity="0.5294117647058824" d="M 208.5 21 L 304 21.5 L 208.5 22 L 208.5 21 Z " /><path fill="rgb(255,255,255)" stroke="rgb(255,255,255)" stroke-width="1" opacity="0.5294117647058824" d="M 205.5 22 L 207 22.5 Q 199 25 195 31.5 L 192.5 40 L 192 36.5 L 198.5 26 L 205.5 22 Z " /><path fill="rgb(255,255,255)" stroke="rgb(255,255,255)" stroke-width="1" opacity="0.5294117647058824" d="M 305.5 22 L 315 27.5 Q 319.7 31.3 320 39.5 L 319 39.5 Q 318.2 28.8 310.5 25 L 305.5 23 L 305.5 22 Z " /><path fill="rgb(255,255,255)" stroke="rgb(255,255,255)" stroke-width="1" opacity="0.5294117647058824" d="M 377.5 128 L 381 128.5 Q 371.5 130 367 136.5 L 364.5 141 L 364 139.5 L 371.5 131 L 377.5 128 Z " /><path fill="rgb(255,255,255)" stroke="rgb(255,255,255)" stroke-width="1" opacity="0.5294117647058824" d="M 472.5 128 Q 482.1 128.4 486 134.5 L 490 142.5 L 489 142.5 Q 486.9 134.6 480.5 131 L 472.5 129 L 472.5 128 Z " /><path fill="rgb(255,255,255)" stroke="rgb(255,255,255)" stroke-width="1" opacity="0.5294117647058824" d="M 490.5 144 L 491 474.5 Q 488.5 483.5 481.5 488 L 474.5 491 L 378.5 491 Q 370.5 488.5 366 482.5 L 363 474.5 L 364 474.5 Q 365.4 482.1 370.5 486 L 378.5 490 L 474.5 490 Q 482.9 487.9 487 481.5 L 490 474.5 L 490.5 144 Z " /><path fill="rgb(255,255,255)" stroke="rgb(255,255,255)" stroke-width="1" opacity="0.5294117647058824" d="M 362.5 145 L 363 472.5 L 362 472.5 L 362.5 145 Z " /><path fill="rgb(255,255,255)" stroke="rgb(255,255,255)" stroke-width="1" opacity="0.5294117647058824" d="M 36.5 256 L 40 256.5 Q 29.2 257.7 25 265.5 L 22.5 271 L 22 269.5 L 27.5 261 L 36.5 256 Z " /><path fill="rgb(255,255,255)" stroke="rgb(255,255,255)" stroke-width="1" opacity="0.5294117647058824" d="M 131.5 256 Q 141.6 257.4 146 264.5 L 148 268.5 L 147 268.5 L 140.5 260 L 134.5 257 L 131.5 257 L 131.5 256 Z " /><path fill="rgb(255,255,255)" stroke="rgb(255,255,255)" stroke-width="1" opacity="0.5294117647058824" d="M 148.5 270 L 150 273.5 L 150 472.5 L 149 472.5 L 149 273.5 L 148.5 270 Z " /><path fill="rgb(255,255,255)" stroke="rgb(255,255,255)" stroke-width="1" opacity="0.5294117647058824" d="M 21.5 272 L 22 474.5 Q 24.2 482.9 30.5 487 L 37.5 490 L 133.5 490 L 144 483.5 L 148.5 474 L 149 476.5 Q 146.8 483.3 141.5 487 L 133.5 491 L 37.5 491 Q 28.4 488.5 24 481.5 L 21 474.5 L 21.5 272 Z " /><path fill="rgb(255,255,255)" stroke="rgb(255,255,255)" stroke-width="1" opacity="0.5294117647058824" d="M 192.5 472 Q 193.7 482.8 201.5 487 L 207 489.5 L 205.5 490 L 197 484.5 Q 191.7 480.2 192.5 472 Z " /><path fill="rgb(255,255,255)" stroke="rgb(255,255,255)" stroke-width="1" opacity="0.5294117647058824" d="M 319.5 472 L 320 475.5 L 313.5 486 L 305.5 490 L 305.5 489 Q 313.4 486.9 317 480.5 L 319.5 472 Z " /><path fill="rgb(255,255,255)" stroke="rgb(255,255,255)" stroke-width="1" opacity="0.5294117647058824" d="M 208.5 490 L 304 490.5 L 208.5 491 L 208.5 490 Z " /><path fill="rgb(0,0,0)" stroke="rgb(0,0,0)" stroke-width="1" opacity="0" d="M 0 0 L 512 0 L 512 512 L 0 512 L 0 0 Z M 209 21 L 199 26 L 192 37 L 192 476 L 197 485 L 209 491 L 304 491 L 314 486 L 320 476 L 320 37 L 315 28 L 304 21 L 209 21 Z M 378 128 L 372 131 Q 364 136 362 146 L 362 473 L 366 483 Q 371 489 379 491 L 475 491 L 482 488 Q 489 484 491 475 L 491 145 L 486 135 L 476 128 L 378 128 Z M 37 256 L 28 261 L 21 273 L 21 475 L 24 482 Q 28 489 38 491 L 134 491 L 142 487 Q 148 482 150 473 L 150 274 L 146 265 Q 142 259 135 256 L 37 256 Z " /><path fill="rgb(255,255,255)" stroke="rgb(255,255,255)" stroke-width="1" opacity="1" d="M 207.5 22 L 304.5 22 Q 312.6 24.9 317 31.5 L 320 40.5 L 320 471.5 Q 318.4 482.4 310.5 487 L 304.5 490 L 207.5 490 Q 199.4 487.1 195 480.5 L 192 471.5 L 192 40.5 Q 193.6 29.6 201.5 25 L 207.5 22 Z " /><path fill="rgb(255,255,255)" stroke="rgb(255,255,255)" stroke-width="1" opacity="1" d="M 381.5 128 L 471.5 128 Q 482.4 129.6 487 137.5 L 490 143.5 L 490 474.5 Q 487.9 482.9 481.5 487 L 474.5 490 L 378.5 490 L 368 483.5 L 363 473.5 L 363 144.5 Q 365.5 136.5 371.5 132 L 381.5 128 Z " /><path fill="rgb(255,255,255)" stroke="rgb(255,255,255)" stroke-width="1" opacity="1" d="M 40.5 256 L 130.5 256 Q 140.2 257.8 145 264.5 L 149 273.5 L 149 473.5 Q 146.8 481.3 141.5 486 L 133.5 490 L 37.5 490 Q 29.2 487.9 25 481.5 L 22 474.5 L 22 271.5 Q 24.9 263.4 31.5 259 L 40.5 256 Z " /></svg>