<svg width="64" height="64" version="1.1" xmlns="http://www.w3.org/2000/svg" desc="Created with imagetracer.js version 1.2.6" ><path fill="rgb(0,0,0)" stroke="rgb(0,0,0)" stroke-width="1" opacity="0" d="M 0 0 L 64 0 L 64 64 L 0 64 L 0 0 Z M 26 2 L 24 4 L 24 61 L 26 62 L 39 62 L 40 61 L 40 4 L 39 2 L 26 2 Z M 47 16 L 45 18 L 45 61 L 47 62 L 60 62 L 62 60 L 62 18 L 61 16 L 47 16 Z M 4 32 L 2 34 L 2 60 L 5 62 L 18 62 L 19 61 L 19 34 L 18 32 L 4 32 Z " /><path fill="rgb(255,255,255)" stroke="rgb(255,255,255)" stroke-width="1" opacity="0.45098039215686275" d="M 25.5 2 L 38.5 2 L 40 3.5 L 38.5 3 L 25.5 3 L 24.5 4 L 25.5 2 Z " /><path fill="rgb(255,255,255)" stroke="rgb(255,255,255)" stroke-width="1" opacity="0.45098039215686275" d="M 46.5 16 L 46 17.5 L 46 60.5 L 46.5 61 L 59.5 61 L 61 59.5 L 61 17.5 L 60.5 16 L 62 17.5 L 62 59.5 L 59.5 62 L 46.5 62 L 45 60.5 L 45 17.5 L 46.5 16 Z " /><path fill="rgb(255,255,255)" stroke="rgb(255,255,255)" stroke-width="1" opacity="0.45098039215686275" d="M 3.5 32 L 3 33.5 L 3 59.5 L 4.5 61 L 18 61 L 18 33.5 L 17.5 32 L 19 33.5 L 19 60.5 L 17.5 62 L 4.5 62 L 2 59.5 L 2 33.5 L 3.5 32 Z " /><path fill="rgb(255,255,255)" stroke="rgb(255,255,255)" stroke-width="1" opacity="0.45098039215686275" d="M 24.5 60 L 25.5 61 L 38.5 61 L 40 60.5 L 38.5 62 L 25.5 62 L 24.5 60 Z " /><path fill="rgb(255,255,255)" stroke="rgb(255,255,255)" stroke-width="1" opacity="0.996078431372549" d="M 25.5 3 L 25 4.5 L 24.5 6 L 24 4.5 L 25.5 3 Z " /><path fill="rgb(255,255,255)" stroke="rgb(255,255,255)" stroke-width="1" opacity="0.996078431372549" d="M 38.5 3 L 40 5.5 L 39 5.5 L 38.5 3 Z " /><path fill="rgb(255,255,255)" stroke="rgb(255,255,255)" stroke-width="1" opacity="0.996078431372549" d="M 58.5 16 L 61 17.5 L 59.5 17 L 58.5 16 Z " /><path fill="rgb(255,255,255)" stroke="rgb(255,255,255)" stroke-width="1" opacity="0.996078431372549" d="M 4.5 32 L 6 32.5 L 3.5 34 L 4.5 32 Z " /><path fill="rgb(255,255,255)" stroke="rgb(255,255,255)" stroke-width="1" opacity="0.996078431372549" d="M 24.5 58 L 26 60.5 L 24 59.5 L 24.5 58 Z " /><path fill="rgb(255,255,255)" stroke="rgb(255,255,255)" stroke-width="1" opacity="0.996078431372549" d="M 39.5 58 L 40 59.5 L 38 60.5 L 39.5 58 Z " /><path fill="rgb(255,255,255)" stroke="rgb(255,255,255)" stroke-width="1" opacity="0.996078431372549" d="M 3.5 59 L 4.5 61 L 3.5 59 Z " /><path fill="rgb(255,255,255)" stroke="rgb(255,255,255)" stroke-width="1" opacity="0.996078431372549" d="M 60.5 59 L 59.5 61 L 60.5 59 Z " /><path fill="rgb(255,255,255)" stroke="rgb(255,255,255)" stroke-width="1" opacity="1" d="M 26.5 3 L 37.5 3 L 39 4.5 L 40 6.5 L 40 57.5 L 37.5 61 L 26.5 61 L 25 59.5 L 24 57.5 L 24 6.5 L 26.5 3 Z " /><path fill="rgb(255,255,255)" stroke="rgb(255,255,255)" stroke-width="1" opacity="1" d="M 48.5 16 Q 57.9 14.1 61 18.5 L 61 58.5 L 58.5 61 L 47.5 61 L 46 59.5 L 46 17.5 L 47.5 17 L 48.5 16 Z " /><path fill="rgb(255,255,255)" stroke="rgb(255,255,255)" stroke-width="1" opacity="1" d="M 6.5 32 Q 14.7 30.9 18 33 L 18 59.5 L 16.5 61 L 5.5 61 L 3 58.5 L 3 34.5 L 4.5 33 L 6.5 32 Z " /></svg>