<?xml version="1.0" encoding="UTF-8"?>
<svg version="1.1" xmlns="http://www.w3.org/2000/svg" width="64" height="64">
<path d="M0 0 C15.84 0 31.68 0 48 0 C48 8.30877196 47.82027199 16.21357381 47.125 24.4375 C47.04636719 25.48615234 46.96773437 26.53480469 46.88671875 27.61523438 C46.80292969 28.62779297 46.71914063 29.64035156 46.6328125 30.68359375 C46.55949707 31.58650146 46.48618164 32.48940918 46.41064453 33.41967773 C45.92401019 36.47748886 45.2548558 39.7451442 43 42 C40.21176262 42.1134515 37.44922655 42.16418263 34.66015625 42.16796875 C33.82286484 42.17129715 32.98557343 42.17462555 32.12290955 42.17805481 C30.34830272 42.18312756 28.57368633 42.18546303 26.79907227 42.18530273 C24.07747744 42.18748797 21.35628857 42.20563633 18.63476562 42.22460938 C16.91406389 42.22754342 15.19336023 42.22952814 13.47265625 42.23046875 C12.65491226 42.23765427 11.83716827 42.24483978 10.99464417 42.25224304 C5.22882204 42.22882204 5.22882204 42.22882204 3 40 C2.54767829 37.5225778 2.20387237 35.12303199 1.9375 32.625 C1.85516113 31.90473633 1.77282227 31.18447266 1.68798828 30.44238281 C1.4474319 28.29595302 1.22118453 26.14850378 1 24 C0.82791016 22.36417969 0.82791016 22.36417969 0.65234375 20.6953125 C-0.00443194 13.72053963 0 7.06467885 0 0 Z M12 5 C10.70454552 6.07029129 10.70454552 6.07029129 10.88647461 8.59204102 C10.89171143 9.71795654 10.89694824 10.84387207 10.90234375 12.00390625 C10.90556641 13.21884766 10.90878906 14.43378906 10.91210938 15.68554688 C10.92048828 16.96494141 10.92886719 18.24433594 10.9375 19.5625 C10.94201172 20.84576172 10.94652344 22.12902344 10.95117188 23.45117188 C10.96300455 26.63416022 10.97948932 29.81705762 11 33 C11.99 33.33 12.98 33.66 14 34 C14 24.43 14 14.86 14 5 C13.34 5 12.68 5 12 5 Z M23 5 C23 14.57 23 24.14 23 34 C23.66 34 24.32 34 25 34 C25 24.43 25 14.86 25 5 C24.34 5 23.68 5 23 5 Z M34 5 C34 14.57 34 24.14 34 34 C34.99 33.67 35.98 33.34 37 33 C37 24.09 37 15.18 37 6 C36.01 5.67 35.02 5.34 34 5 Z " fill="#000000" transform="translate(8,22)"/>
<path d="M0 0 C0.73347656 -0.020625 1.46695313 -0.04125 2.22265625 -0.0625 C7.60978896 -0.10175051 7.60978896 -0.10175051 10.0703125 1.578125 C11.125 3.25 11.125 3.25 12.125 6.25 C13.48044922 6.32347656 13.48044922 6.32347656 14.86328125 6.3984375 C16.04277344 6.47320313 17.22226562 6.54796875 18.4375 6.625 C19.60925781 6.69460937 20.78101563 6.76421875 21.98828125 6.8359375 C25.125 7.25 25.125 7.25 28.125 9.25 C28.671875 11.37890625 28.671875 11.37890625 28.875 13.8125 C28.95234375 14.61816406 29.0296875 15.42382812 29.109375 16.25390625 C29.11710937 17.24197266 29.11710937 17.24197266 29.125 18.25 C27.41934382 19.95565618 25.21766505 19.37752055 22.88671875 19.37939453 C21.76885986 19.38254669 20.65100098 19.38569885 19.49926758 19.38894653 C18.28263428 19.3869223 17.06600098 19.38489807 15.8125 19.3828125 C14.57330811 19.38376923 13.33411621 19.38472595 12.05737305 19.38571167 C9.43111719 19.38639374 6.80495367 19.38503538 4.17871094 19.38037109 C0.80571286 19.37467381 -2.56720565 19.37795302 -5.94020081 19.38394356 C-9.14763677 19.3884177 -12.355063 19.38528882 -15.5625 19.3828125 C-16.7791333 19.38483673 -17.9957666 19.38686096 -19.24926758 19.38894653 C-20.92605591 19.38421829 -20.92605591 19.38421829 -22.63671875 19.37939453 C-23.62631592 19.37859894 -24.61591309 19.37780334 -25.63549805 19.37698364 C-27.875 19.25 -27.875 19.25 -28.875 18.25 C-28.859375 16.25390625 -28.859375 16.25390625 -28.625 13.8125 C-28.55796875 13.00941406 -28.4909375 12.20632813 -28.421875 11.37890625 C-27.875 9.25 -27.875 9.25 -24.875 7.25 C-21.54725247 6.9884116 -18.24347864 6.93557457 -14.90625 6.88671875 C-11.67885453 6.55842524 -11.67885453 6.55842524 -10.03125 3.76953125 C-9.6496875 2.93808594 -9.268125 2.10664062 -8.875 1.25 C-6.83274789 -0.79225211 -2.79584523 0.01944936 0 0 Z M-4.875 4.25 C-5.205 5.24 -5.535 6.23 -5.875 7.25 C-1.915 7.25 2.045 7.25 6.125 7.25 C5.795 6.26 5.465 5.27 5.125 4.25 C1.825 4.25 -1.475 4.25 -4.875 4.25 Z " fill="#000000" transform="translate(31.875,-0.25)"/>
</svg>
