<svg width="512" height="512" version="1.1" xmlns="http://www.w3.org/2000/svg" desc="Created with imagetracer.js version 1.2.6" ><path fill="rgb(255,255,255)" stroke="rgb(255,255,255)" stroke-width="1" opacity="0.49411764705882355" d="M 156.5 0 L 161 0.5 L 150.5 3 L 150.5 2 L 156.5 0 Z " /><path fill="rgb(255,255,255)" stroke="rgb(255,255,255)" stroke-width="1" opacity="0.49411764705882355" d="M 147.5 3 L 149 3.5 Q 137.8 7.8 131 16.5 L 124.5 28 L 124 26.5 Q 128.8 15.8 137.5 9 L 147.5 3 Z " /><path fill="rgb(255,255,255)" stroke="rgb(255,255,255)" stroke-width="1" opacity="0.49411764705882355" d="M 411.5 8 L 502.5 100 L 411 9.5 L 411.5 8 Z " /><path fill="rgb(255,255,255)" stroke="rgb(255,255,255)" stroke-width="1" opacity="0.49411764705882355" d="M 123.5 29 L 124 30.5 L 121.5 40 L 121 35.5 L 123.5 29 Z " /><path fill="rgb(255,255,255)" stroke="rgb(255,255,255)" stroke-width="1" opacity="0.49411764705882355" d="M 381.5 115 L 382 118.5 L 381 118.5 L 381.5 115 Z " /><path fill="rgb(255,255,255)" stroke="rgb(255,255,255)" stroke-width="1" opacity="0.49411764705882355" d="M 382.5 120 L 386.5 126 L 391 128.5 L 389.5 129 L 383 123.5 L 382.5 120 Z " /><path fill="rgb(255,255,255)" stroke="rgb(255,255,255)" stroke-width="1" opacity="0.49411764705882355" d="M 392.5 129 L 396 129.5 L 392.5 130 L 392.5 129 Z " /><path fill="rgb(255,255,255)" stroke="rgb(255,255,255)" stroke-width="1" opacity="0.49411764705882355" d="M 202.5 182 L 206 182.5 L 202.5 183 L 202.5 182 Z " /><path fill="rgb(255,255,255)" stroke="rgb(255,255,255)" stroke-width="1" opacity="0.49411764705882355" d="M 426.5 182 L 430 182.5 L 426.5 183 L 426.5 182 Z " /><path fill="rgb(255,255,255)" stroke="rgb(255,255,255)" stroke-width="1" opacity="0.49411764705882355" d="M 199.5 183 L 201 183.5 L 194 188.5 L 192.5 192 L 192 190.5 L 197.5 184 L 199.5 183 Z " /><path fill="rgb(255,255,255)" stroke="rgb(255,255,255)" stroke-width="1" opacity="0.49411764705882355" d="M 431.5 183 L 439 188.5 L 440 191.5 L 439 191.5 L 435.5 186 Q 430.8 185.2 431.5 183 Z " /><path fill="rgb(255,255,255)" stroke="rgb(255,255,255)" stroke-width="1" opacity="0.49411764705882355" d="M 191.5 193 L 192 200.5 L 191 200.5 L 191.5 193 Z " /><path fill="rgb(255,255,255)" stroke="rgb(255,255,255)" stroke-width="1" opacity="0.49411764705882355" d="M 440.5 193 L 441 200.5 L 440 200.5 L 440.5 193 Z " /><path fill="rgb(255,255,255)" stroke="rgb(255,255,255)" stroke-width="1" opacity="0.49411764705882355" d="M 192.5 202 L 196.5 208 L 201 210.5 L 199.5 211 L 193 205.5 L 192.5 202 Z " /><path fill="rgb(255,255,255)" stroke="rgb(255,255,255)" stroke-width="1" opacity="0.49411764705882355" d="M 439.5 202 L 440 203.5 L 434.5 210 L 431.5 211 L 431.5 210 L 437 206.5 L 439.5 202 Z " /><path fill="rgb(255,255,255)" stroke="rgb(255,255,255)" stroke-width="1" opacity="0.49411764705882355" d="M 202.5 211 L 206 211.5 L 202.5 212 L 202.5 211 Z " /><path fill="rgb(255,255,255)" stroke="rgb(255,255,255)" stroke-width="1" opacity="0.49411764705882355" d="M 426.5 211 L 430 211.5 L 426.5 212 L 426.5 211 Z " /><path fill="rgb(255,255,255)" stroke="rgb(255,255,255)" stroke-width="1" opacity="0.49411764705882355" d="M 121.5 212 L 135 212.5 L 121.5 213 L 121.5 212 Z " /><path fill="rgb(255,255,255)" stroke="rgb(255,255,255)" stroke-width="1" opacity="0.49411764705882355" d="M 137.5 212 L 151 212.5 L 137.5 213 L 137.5 212 Z " /><path fill="rgb(255,255,255)" stroke="rgb(255,255,255)" stroke-width="1" opacity="0.49411764705882355" d="M 154.5 213 L 160 213.5 L 154.5 214 L 154.5 213 Z " /><path fill="rgb(255,255,255)" stroke="rgb(255,255,255)" stroke-width="1" opacity="0.49411764705882355" d="M 161.5 214 L 166 214.5 L 161.5 215 L 161.5 214 Z " /><path fill="rgb(255,255,255)" stroke="rgb(255,255,255)" stroke-width="1" opacity="0.49411764705882355" d="M 167.5 215 L 171 215.5 L 167.5 216 L 167.5 215 Z " /><path fill="rgb(255,255,255)" stroke="rgb(255,255,255)" stroke-width="1" opacity="0.49411764705882355" d="M 172.5 216 L 175 216.5 L 172.5 217 L 172.5 216 Z " /><path fill="rgb(255,255,255)" stroke="rgb(255,255,255)" stroke-width="1" opacity="0.49411764705882355" d="M 176.5 217 L 179 217.5 L 176.5 218 L 176.5 217 Z " /><path fill="rgb(255,255,255)" stroke="rgb(255,255,255)" stroke-width="1" opacity="0.49411764705882355" d="M 180.5 218 Q 230.3 232.7 260 267.5 L 263 271.5 L 258 267.5 L 247.5 256 Q 234 243.5 217.5 234 Q 201.4 224.1 180.5 219 L 180.5 218 Z " /><path fill="rgb(255,255,255)" stroke="rgb(255,255,255)" stroke-width="1" opacity="0.49411764705882355" d="M 120.5 242 L 128 242.5 L 120.5 243 L 120.5 242 Z " /><path fill="rgb(255,255,255)" stroke="rgb(255,255,255)" stroke-width="1" opacity="0.49411764705882355" d="M 144.5 242 L 152 242.5 L 144.5 243 L 144.5 242 Z " /><path fill="rgb(255,255,255)" stroke="rgb(255,255,255)" stroke-width="1" opacity="0.49411764705882355" d="M 113.5 243 L 118 243.5 L 113.5 244 L 113.5 243 Z " /><path fill="rgb(255,255,255)" stroke="rgb(255,255,255)" stroke-width="1" opacity="0.49411764705882355" d="M 154.5 243 L 159 243.5 L 154.5 244 L 154.5 243 Z " /><path fill="rgb(255,255,255)" stroke="rgb(255,255,255)" stroke-width="1" opacity="0.49411764705882355" d="M 107.5 244 L 112 244.5 L 103.5 246 L 103.5 245 L 107.5 244 Z " /><path fill="rgb(255,255,255)" stroke="rgb(255,255,255)" stroke-width="1" opacity="0.49411764705882355" d="M 160.5 244 L 165 244.5 L 160.5 245 L 160.5 244 Z " /><path fill="rgb(255,255,255)" stroke="rgb(255,255,255)" stroke-width="1" opacity="0.49411764705882355" d="M 166.5 245 L 169 245.5 L 166.5 246 L 166.5 245 Z " /><path fill="rgb(255,255,255)" stroke="rgb(255,255,255)" stroke-width="1" opacity="0.49411764705882355" d="M 99.5 246 L 102 246.5 L 96.5 248 L 96.5 247 L 99.5 246 Z " /><path fill="rgb(255,255,255)" stroke="rgb(255,255,255)" stroke-width="1" opacity="0.49411764705882355" d="M 170.5 246 L 176 247.5 L 173.5 248 L 170.5 247 L 170.5 246 Z " /><path fill="rgb(255,255,255)" stroke="rgb(255,255,255)" stroke-width="1" opacity="0.49411764705882355" d="M 180.5 249 L 187 251.5 L 185.5 252 L 180.5 250 L 180.5 249 Z " /><path fill="rgb(255,255,255)" stroke="rgb(255,255,255)" stroke-width="1" opacity="0.49411764705882355" d="M 87.5 250 L 89 250.5 L 85.5 252 L 85.5 251 L 87.5 250 Z " /><path fill="rgb(255,255,255)" stroke="rgb(255,255,255)" stroke-width="1" opacity="0.49411764705882355" d="M 82.5 252 L 84 252.5 Q 53.7 265.2 34 288.5 Q 20.1 304.1 11.5 325 L 11 323.5 Q 24.4 292.9 48.5 273 Q 63.3 260.3 82.5 252 Z " /><path fill="rgb(255,255,255)" stroke="rgb(255,255,255)" stroke-width="1" opacity="0.49411764705882355" d="M 188.5 252 Q 220 265 240 289.5 Q 253 304.5 261 324.5 L 260 324.5 Q 247.7 294.3 224.5 275 L 208.5 263 L 188.5 253 L 188.5 252 Z " /><path fill="rgb(255,255,255)" stroke="rgb(255,255,255)" stroke-width="1" opacity="0.49411764705882355" d="M 426.5 272 L 430 272.5 L 426.5 273 L 426.5 272 Z " /><path fill="rgb(255,255,255)" stroke="rgb(255,255,255)" stroke-width="1" opacity="0.49411764705882355" d="M 431.5 273 L 439 278.5 L 440 281.5 L 439 281.5 L 435.5 276 Q 430.8 275.2 431.5 273 Z " /><path fill="rgb(255,255,255)" stroke="rgb(255,255,255)" stroke-width="1" opacity="0.49411764705882355" d="M 440.5 283 L 441 290.5 L 440 290.5 L 440.5 283 Z " /><path fill="rgb(255,255,255)" stroke="rgb(255,255,255)" stroke-width="1" opacity="0.49411764705882355" d="M 439.5 292 L 440 293.5 L 434.5 300 L 431.5 301 L 431.5 300 L 437 296.5 L 439.5 292 Z " /><path fill="rgb(255,255,255)" stroke="rgb(255,255,255)" stroke-width="1" opacity="0.49411764705882355" d="M 426.5 301 L 430 301.5 L 426.5 302 L 426.5 301 Z " /><path fill="rgb(255,255,255)" stroke="rgb(255,255,255)" stroke-width="1" opacity="0.49411764705882355" d="M 132.5 302 L 140 302.5 L 132.5 303 L 132.5 302 Z " /><path fill="rgb(255,255,255)" stroke="rgb(255,255,255)" stroke-width="1" opacity="0.49411764705882355" d="M 129.5 303 L 131 303.5 L 124 308.5 L 122.5 312 L 122 310.5 L 127.5 304 L 129.5 303 Z " /><path fill="rgb(255,255,255)" stroke="rgb(255,255,255)" stroke-width="1" opacity="0.49411764705882355" d="M 141.5 303 L 149 308.5 L 150 311.5 L 149 311.5 L 145.5 306 Q 140.8 305.2 141.5 303 Z " /><path fill="rgb(255,255,255)" stroke="rgb(255,255,255)" stroke-width="1" opacity="0.49411764705882355" d="M 283.5 303 L 288 312.5 L 287 312.5 L 283 304.5 L 283.5 303 Z " /><path fill="rgb(255,255,255)" stroke="rgb(255,255,255)" stroke-width="1" opacity="0.49411764705882355" d="M 121.5 313 L 122 316.5 L 121 316.5 L 121.5 313 Z " /><path fill="rgb(255,255,255)" stroke="rgb(255,255,255)" stroke-width="1" opacity="0.49411764705882355" d="M 150.5 313 L 151 316.5 L 150 316.5 L 150.5 313 Z " /><path fill="rgb(255,255,255)" stroke="rgb(255,255,255)" stroke-width="1" opacity="0.49411764705882355" d="M 288.5 314 L 290 317.5 L 289 317.5 L 288.5 314 Z " /><path fill="rgb(255,255,255)" stroke="rgb(255,255,255)" stroke-width="1" opacity="0.49411764705882355" d="M 290.5 319 L 295 332.5 L 294 332.5 L 290.5 319 Z " /><path fill="rgb(255,255,255)" stroke="rgb(255,255,255)" stroke-width="1" opacity="0.49411764705882355" d="M 10.5 326 L 11 327.5 L 9.5 330 L 9 328.5 L 10.5 326 Z " /><path fill="rgb(255,255,255)" stroke="rgb(255,255,255)" stroke-width="1" opacity="0.49411764705882355" d="M 261.5 326 L 264 332.5 L 263 332.5 L 261.5 326 Z " /><path fill="rgb(255,255,255)" stroke="rgb(255,255,255)" stroke-width="1" opacity="0.49411764705882355" d="M 295.5 334 L 296 336.5 L 295 336.5 L 295.5 334 Z " /><path fill="rgb(255,255,255)" stroke="rgb(255,255,255)" stroke-width="1" opacity="0.49411764705882355" d="M 6.5 337 L 7 339.5 L 5.5 343 L 5 340.5 L 6.5 337 Z " /><path fill="rgb(255,255,255)" stroke="rgb(255,255,255)" stroke-width="1" opacity="0.49411764705882355" d="M 265.5 337 L 267 342.5 L 266 342.5 L 265.5 337 Z " /><path fill="rgb(255,255,255)" stroke="rgb(255,255,255)" stroke-width="1" opacity="0.49411764705882355" d="M 296.5 338 L 297 340.5 L 296 340.5 L 296.5 338 Z " /><path fill="rgb(255,255,255)" stroke="rgb(255,255,255)" stroke-width="1" opacity="0.49411764705882355" d="M 297.5 342 L 298 345.5 L 297 345.5 L 297.5 342 Z " /><path fill="rgb(255,255,255)" stroke="rgb(255,255,255)" stroke-width="1" opacity="0.49411764705882355" d="M 4.5 344 L 5 347.5 L 3.5 353 L 3 348.5 L 4.5 344 Z " /><path fill="rgb(255,255,255)" stroke="rgb(255,255,255)" stroke-width="1" opacity="0.49411764705882355" d="M 267.5 344 L 269 352.5 L 268 352.5 L 267.5 344 Z " /><path fill="rgb(255,255,255)" stroke="rgb(255,255,255)" stroke-width="1" opacity="0.49411764705882355" d="M 298.5 347 L 299 351.5 L 298 351.5 L 298.5 347 Z " /><path fill="rgb(255,255,255)" stroke="rgb(255,255,255)" stroke-width="1" opacity="0.49411764705882355" d="M 299.5 353 L 300 359.5 L 299 359.5 L 299.5 353 Z " /><path fill="rgb(255,255,255)" stroke="rgb(255,255,255)" stroke-width="1" opacity="0.49411764705882355" d="M 2.5 354 L 3 358.5 L 2 358.5 L 2.5 354 Z " /><path fill="rgb(255,255,255)" stroke="rgb(255,255,255)" stroke-width="1" opacity="0.49411764705882355" d="M 269.5 354 L 270 358.5 L 269 358.5 L 269.5 354 Z " /><path fill="rgb(255,255,255)" stroke="rgb(255,255,255)" stroke-width="1" opacity="0.49411764705882355" d="M 1.5 361 L 2 368.5 L 1 368.5 L 1.5 361 Z " /><path fill="rgb(255,255,255)" stroke="rgb(255,255,255)" stroke-width="1" opacity="0.49411764705882355" d="M 270.5 361 L 271 368.5 L 270 368.5 L 270.5 361 Z " /><path fill="rgb(255,255,255)" stroke="rgb(255,255,255)" stroke-width="1" opacity="0.49411764705882355" d="M 176.5 362 L 180 362.5 L 176.5 363 L 176.5 362 Z " /><path fill="rgb(255,255,255)" stroke="rgb(255,255,255)" stroke-width="1" opacity="0.49411764705882355" d="M 426.5 362 L 430 362.5 L 426.5 363 L 426.5 362 Z " /><path fill="rgb(255,255,255)" stroke="rgb(255,255,255)" stroke-width="1" opacity="0.49411764705882355" d="M 181.5 363 L 189 368.5 L 190 371.5 L 189 371.5 L 185.5 366 Q 180.8 365.2 181.5 363 Z " /><path fill="rgb(255,255,255)" stroke="rgb(255,255,255)" stroke-width="1" opacity="0.49411764705882355" d="M 431.5 363 L 439 368.5 L 440 371.5 L 439 371.5 L 435.5 366 Q 430.8 365.2 431.5 363 Z " /><path fill="rgb(255,255,255)" stroke="rgb(255,255,255)" stroke-width="1" opacity="0.49411764705882355" d="M 190.5 373 L 191 380.5 L 190 380.5 L 190.5 373 Z " /><path fill="rgb(255,255,255)" stroke="rgb(255,255,255)" stroke-width="1" opacity="0.49411764705882355" d="M 440.5 373 L 441 380.5 L 440 380.5 L 440.5 373 Z " /><path fill="rgb(255,255,255)" stroke="rgb(255,255,255)" stroke-width="1" opacity="0.49411764705882355" d="M 121.5 377 L 122 380.5 L 121 380.5 L 121.5 377 Z " /><path fill="rgb(255,255,255)" stroke="rgb(255,255,255)" stroke-width="1" opacity="0.49411764705882355" d="M 122.5 382 L 126.5 388 L 131 390.5 L 129.5 391 L 123 385.5 L 122.5 382 Z " /><path fill="rgb(255,255,255)" stroke="rgb(255,255,255)" stroke-width="1" opacity="0.49411764705882355" d="M 189.5 382 L 190 383.5 L 184.5 390 L 181.5 391 L 181.5 390 L 187 386.5 L 189.5 382 Z " /><path fill="rgb(255,255,255)" stroke="rgb(255,255,255)" stroke-width="1" opacity="0.49411764705882355" d="M 439.5 382 L 440 383.5 L 434.5 390 L 431.5 391 L 431.5 390 L 437 386.5 L 439.5 382 Z " /><path fill="rgb(255,255,255)" stroke="rgb(255,255,255)" stroke-width="1" opacity="0.49411764705882355" d="M 1.5 385 L 2 392.5 L 1 392.5 L 1.5 385 Z " /><path fill="rgb(255,255,255)" stroke="rgb(255,255,255)" stroke-width="1" opacity="0.49411764705882355" d="M 270.5 385 L 271 392.5 L 270 392.5 L 270.5 385 Z " /><path fill="rgb(255,255,255)" stroke="rgb(255,255,255)" stroke-width="1" opacity="0.49411764705882355" d="M 132.5 391 L 136 391.5 L 132.5 392 L 132.5 391 Z " /><path fill="rgb(255,255,255)" stroke="rgb(255,255,255)" stroke-width="1" opacity="0.49411764705882355" d="M 176.5 391 L 180 391.5 L 176.5 392 L 176.5 391 Z " /><path fill="rgb(255,255,255)" stroke="rgb(255,255,255)" stroke-width="1" opacity="0.49411764705882355" d="M 426.5 391 L 430 391.5 L 426.5 392 L 426.5 391 Z " /><path fill="rgb(255,255,255)" stroke="rgb(255,255,255)" stroke-width="1" opacity="0.49411764705882355" d="M 299.5 394 L 300 400.5 L 299 400.5 L 299.5 394 Z " /><path fill="rgb(255,255,255)" stroke="rgb(255,255,255)" stroke-width="1" opacity="0.49411764705882355" d="M 2.5 395 L 3 399.5 L 2 399.5 L 2.5 395 Z " /><path fill="rgb(255,255,255)" stroke="rgb(255,255,255)" stroke-width="1" opacity="0.49411764705882355" d="M 269.5 395 L 270 399.5 L 269 399.5 L 269.5 395 Z " /><path fill="rgb(255,255,255)" stroke="rgb(255,255,255)" stroke-width="1" opacity="0.49411764705882355" d="M 3.5 401 L 5 409.5 L 4 409.5 L 3.5 401 Z " /><path fill="rgb(255,255,255)" stroke="rgb(255,255,255)" stroke-width="1" opacity="0.49411764705882355" d="M 268.5 401 L 269 405.5 L 267.5 410 L 267 406.5 L 268.5 401 Z " /><path fill="rgb(255,255,255)" stroke="rgb(255,255,255)" stroke-width="1" opacity="0.49411764705882355" d="M 298.5 402 L 299 406.5 L 298 406.5 L 298.5 402 Z " /><path fill="rgb(255,255,255)" stroke="rgb(255,255,255)" stroke-width="1" opacity="0.49411764705882355" d="M 297.5 408 L 298 411.5 L 297 411.5 L 297.5 408 Z " /><path fill="rgb(255,255,255)" stroke="rgb(255,255,255)" stroke-width="1" opacity="0.49411764705882355" d="M 5.5 411 L 7 416.5 L 6 416.5 L 5.5 411 Z " /><path fill="rgb(255,255,255)" stroke="rgb(255,255,255)" stroke-width="1" opacity="0.49411764705882355" d="M 266.5 411 L 267 413.5 L 265.5 417 L 265 414.5 L 266.5 411 Z " /><path fill="rgb(255,255,255)" stroke="rgb(255,255,255)" stroke-width="1" opacity="0.49411764705882355" d="M 296.5 413 L 297 415.5 L 296 415.5 L 296.5 413 Z " /><path fill="rgb(255,255,255)" stroke="rgb(255,255,255)" stroke-width="1" opacity="0.49411764705882355" d="M 295.5 417 L 296 419.5 L 295 419.5 L 295.5 417 Z " /><path fill="rgb(255,255,255)" stroke="rgb(255,255,255)" stroke-width="1" opacity="0.49411764705882355" d="M 8.5 421 L 11 427.5 L 10 427.5 L 8.5 421 Z " /><path fill="rgb(255,255,255)" stroke="rgb(255,255,255)" stroke-width="1" opacity="0.49411764705882355" d="M 263.5 421 L 264 422.5 L 261.5 428 L 261 426.5 L 263.5 421 Z " /><path fill="rgb(255,255,255)" stroke="rgb(255,255,255)" stroke-width="1" opacity="0.49411764705882355" d="M 293.5 424 L 294 426.5 L 290.5 435 L 290 433.5 L 293.5 424 Z " /><path fill="rgb(255,255,255)" stroke="rgb(255,255,255)" stroke-width="1" opacity="0.49411764705882355" d="M 11.5 429 Q 24.2 459.3 47.5 479 Q 63.1 492.9 84 501.5 L 82.5 502 Q 51.9 488.6 32 464.5 Q 18.1 449.2 11.5 429 Z " /><path fill="rgb(255,255,255)" stroke="rgb(255,255,255)" stroke-width="1" opacity="0.49411764705882355" d="M 260.5 429 L 261 430.5 Q 247.6 461.1 223.5 481 Q 208.5 494 188.5 502 L 188.5 501 Q 218.7 488.7 238 465.5 Q 251.9 449.9 260.5 429 Z " /><path fill="rgb(255,255,255)" stroke="rgb(255,255,255)" stroke-width="1" opacity="0.49411764705882355" d="M 289.5 436 L 290 437.5 L 288.5 440 L 288 438.5 L 289.5 436 Z " /><path fill="rgb(255,255,255)" stroke="rgb(255,255,255)" stroke-width="1" opacity="0.49411764705882355" d="M 287.5 441 L 288 442.5 Q 272.5 477.5 245.5 501 L 230.5 512 L 230.5 511 Q 245.5 501.5 257 488.5 Q 275.9 468.4 287.5 441 Z " /><path fill="rgb(255,255,255)" stroke="rgb(255,255,255)" stroke-width="1" opacity="0.49411764705882355" d="M 510.5 472 L 511 476.5 L 508.5 483 L 508 481.5 L 510.5 472 Z " /><path fill="rgb(255,255,255)" stroke="rgb(255,255,255)" stroke-width="1" opacity="0.49411764705882355" d="M 507.5 484 L 508 485.5 Q 503.2 496.2 494.5 503 L 483.5 509 L 483.5 508 Q 494.5 504 501 495.5 L 507.5 484 Z " /><path fill="rgb(255,255,255)" stroke="rgb(255,255,255)" stroke-width="1" opacity="0.49411764705882355" d="M 85.5 502 L 95 505.5 L 93.5 506 L 85.5 503 L 85.5 502 Z " /><path fill="rgb(255,255,255)" stroke="rgb(255,255,255)" stroke-width="1" opacity="0.49411764705882355" d="M 185.5 502 L 187 502.5 L 180.5 505 L 180.5 504 L 185.5 502 Z " /><path fill="rgb(255,255,255)" stroke="rgb(255,255,255)" stroke-width="1" opacity="0.49411764705882355" d="M 96.5 506 L 102 507.5 L 99.5 508 L 96.5 507 L 96.5 506 Z " /><path fill="rgb(255,255,255)" stroke="rgb(255,255,255)" stroke-width="1" opacity="0.49411764705882355" d="M 173.5 506 L 176 506.5 L 170.5 508 L 170.5 507 L 173.5 506 Z " /><path fill="rgb(255,255,255)" stroke="rgb(255,255,255)" stroke-width="1" opacity="0.49411764705882355" d="M 103.5 508 L 112 509.5 L 107.5 510 L 103.5 509 L 103.5 508 Z " /><path fill="rgb(255,255,255)" stroke="rgb(255,255,255)" stroke-width="1" opacity="0.49411764705882355" d="M 165.5 508 L 169 508.5 L 160.5 510 L 160.5 509 L 165.5 508 Z " /><path fill="rgb(255,255,255)" stroke="rgb(255,255,255)" stroke-width="1" opacity="0.49411764705882355" d="M 480.5 509 L 482 509.5 L 475.5 512 L 471.5 512 L 471.5 511 Q 477.6 511.6 480.5 509 Z " /><path fill="rgb(255,255,255)" stroke="rgb(255,255,255)" stroke-width="1" opacity="0.49411764705882355" d="M 113.5 510 L 118 510.5 L 113.5 511 L 113.5 510 Z " /><path fill="rgb(255,255,255)" stroke="rgb(255,255,255)" stroke-width="1" opacity="0.49411764705882355" d="M 154.5 510 L 159 510.5 L 154.5 511 L 154.5 510 Z " /><path fill="rgb(255,255,255)" stroke="rgb(255,255,255)" stroke-width="1" opacity="0.49411764705882355" d="M 120.5 511 L 128 511.5 L 120.5 512 L 120.5 511 Z " /><path fill="rgb(255,255,255)" stroke="rgb(255,255,255)" stroke-width="1" opacity="0.49411764705882355" d="M 144.5 511 L 152 511.5 L 144.5 512 L 144.5 511 Z " /><path fill="rgb(0,0,0)" stroke="rgb(0,0,0)" stroke-width="1" opacity="0" d="M 0 0 L 156 0.5 Q 138.9 4.4 130 16.5 Q 123.8 24.3 121 35.5 L 121 213 L 134.5 213 L 136.5 212 L 137.5 213 L 153.5 213 L 154.5 214 L 171.5 216 L 199.5 225 Q 234.3 240.3 258 266.5 L 262.5 272 L 425.5 272 L 430.5 273 L 437 277.5 Q 441.7 281.3 440 291.5 L 435.5 298 L 430.5 301 L 425.5 302 L 283 302 L 295 333.5 L 300 362 L 425.5 362 L 430.5 363 L 437 367.5 Q 441.7 371.3 440 381.5 L 435.5 388 L 430.5 391 L 425.5 392 L 300 392 L 295 420.5 L 288 440.5 Q 273.1 474.6 247.5 498 L 229.5 512 L 152.5 512 L 152.5 511 L 158.5 511 L 172.5 508 Q 189.6 503.1 203.5 495 Q 224.7 482.7 240 464.5 Q 258 443.5 267 413.5 L 271 392.5 L 271 361.5 L 267 340.5 Q 262.1 323.4 254 309.5 Q 241.7 288.3 223.5 273 Q 202.5 255 172.5 246 L 151.5 242 L 120.5 242 L 99.5 246 Q 82.4 250.9 68.5 259 Q 47.3 271.3 32 289.5 Q 14 310.5 5 340.5 L 1 361.5 L 1 392.5 L 5 413.5 Q 9.9 430.6 18 444.5 Q 30.3 465.7 48.5 481 Q 63.3 493.7 82.5 502 L 99.5 508 L 120 511.5 L 0 512 L 0 0 Z " /><path fill="rgb(0,0,0)" stroke="rgb(0,0,0)" stroke-width="1" opacity="0" d="M 381 0 L 511.5 0 L 512 0.5 L 512 512 L 476 511.5 Q 493.1 507.6 502 495.5 Q 508.3 487.8 511 476.5 L 511 130 L 396.5 130 L 391.5 129 L 385 124.5 L 382 119.5 L 381 114.5 L 381 0 Z M 412 8 L 411 100 L 503 100 L 412 8 Z " /><path fill="rgb(0,0,0)" stroke="rgb(0,0,0)" stroke-width="1" opacity="0" d="M 206.5 182 L 425.5 182 L 430.5 183 L 437 187.5 Q 441.7 191.3 440 201.5 L 435.5 208 L 430.5 211 L 425.5 212 L 206.5 212 L 201.5 211 L 195 206.5 Q 190.3 202.7 192 192.5 L 196.5 186 L 201.5 183 L 206.5 182 Z " /><path fill="rgb(0,0,0)" stroke="rgb(0,0,0)" stroke-width="1" opacity="0" d="M 131.5 303 L 140.5 303 L 147 307.5 L 150 312.5 L 151 317.5 L 151 362 L 175.5 362 L 180.5 363 L 187 367.5 Q 191.7 371.3 190 381.5 L 185.5 388 L 180.5 391 L 175.5 392 L 136.5 392 L 131.5 391 L 125 386.5 L 122 381.5 L 121 376.5 L 121 317.5 L 122 312.5 L 126.5 306 L 131.5 303 Z " /><path fill="rgb(255,255,255)" stroke="rgb(255,255,255)" stroke-width="1" opacity="1" d="M 161.5 0 L 381 0 L 381 118.5 Q 382.5 125 387.5 128 L 392.5 130 L 511 130 L 511 471.5 Q 507.6 491.6 494.5 502 L 482.5 509 L 470.5 512 L 232.5 512 L 234.5 509 Q 249.1 499.6 260 486.5 Q 276.9 467.4 288 442.5 L 298 411.5 L 300 392 L 429.5 392 Q 436 390.5 439 385.5 Q 442 381.5 441 373.5 Q 439.5 367 434.5 364 L 429.5 362 L 301.5 362 L 300 360.5 L 300 353.5 L 295 330.5 L 288 311.5 L 283 302.5 L 429.5 302 Q 436 300.5 439 295.5 Q 442 291.5 441 283.5 Q 439.5 277 434.5 274 L 429.5 272 L 263.5 272 L 260 268.5 L 245.5 253 Q 219.7 229.8 182.5 218 L 150.5 212 L 121 212 L 121 40.5 Q 124.4 20.4 137.5 10 L 149.5 3 L 161.5 0 Z M 203 182 L 198 184 Q 193 187 191 194 Q 190 202 193 206 Q 196 210 203 212 L 430 212 L 435 210 Q 439 207 441 201 Q 442 193 439 189 Q 436 184 430 182 L 203 182 Z " /><path fill="rgb(255,255,255)" stroke="rgb(255,255,255)" stroke-width="1" opacity="1" d="M 411.5 10 L 500.5 100 L 411 100 L 411.5 10 Z " /><path fill="rgb(255,255,255)" stroke="rgb(255,255,255)" stroke-width="1" opacity="1" d="M 128.5 242 L 143.5 242 L 144.5 243 L 153.5 243 L 154.5 244 L 165.5 245 L 187.5 252 Q 217.9 265.1 238 288.5 Q 254.6 307.4 264 333.5 L 270 359.5 L 271 384.5 L 270 385.5 L 270 394.5 L 267 410.5 L 261 428.5 Q 247.9 458.9 224.5 479 Q 205.6 495.6 179.5 505 L 153.5 511 L 128.5 512 L 127.5 511 L 118.5 511 L 102.5 508 L 84.5 502 Q 54.1 488.9 34 465.5 Q 17.4 446.6 8 420.5 L 2 394.5 L 1 369.5 L 2 368.5 L 2 359.5 L 5 343.5 L 11 325.5 Q 24.1 295.1 47.5 275 Q 63.5 261 84.5 252 L 102.5 246 L 118.5 243 L 127.5 243 L 128.5 242 Z M 133 302 L 128 304 Q 123 307 121 314 L 121 381 L 123 386 Q 126 390 133 392 L 180 392 L 185 390 Q 189 387 191 381 Q 192 373 189 369 Q 186 364 180 362 L 151 362 L 151 314 L 149 309 Q 145 301 133 302 Z " /></svg>