<svg width="64" height="64" version="1.1" xmlns="http://www.w3.org/2000/svg" desc="Created with imagetracer.js version 1.2.6" ><path fill="rgb(0,0,0)" stroke="rgb(0,0,0)" stroke-width="1" opacity="0" d="M 0 0 L 17 0.5 L 15 2.5 L 15 27 Q 26.9 26.8 32.5 34 L 52.5 34 L 54 35.5 L 53.5 37 L 35.5 37 L 35 39.5 L 37 46 L 53.5 46 L 54 47.5 L 52.5 49 L 37 49 Q 36.1 58.3 29.5 63 L 23.5 64 L 23.5 63 Q 29.6 61.6 32 56.5 Q 35.8 51.8 34 41.5 L 26.5 32 Q 21.8 28.7 12.5 30 Q 5.3 31.8 2 37.5 L 0.5 41 L 0 0 Z " /><path fill="rgb(0,0,0)" stroke="rgb(0,0,0)" stroke-width="1" opacity="0" d="M 48 0 L 64 0 L 64 16 L 49.5 16 L 48 14.5 L 48 0 Z M 51 1 L 51 13 L 63 13 L 63 12 L 53 1 L 51 1 Z " /><path fill="rgb(0,0,0)" stroke="rgb(0,0,0)" stroke-width="1" opacity="0" d="M 25.5 23 L 53.5 23 L 55 24.5 L 53.5 26 L 25.5 26 Q 22.5 24.5 25.5 23 Z " /><path fill="rgb(0,0,0)" stroke="rgb(0,0,0)" stroke-width="1" opacity="0" d="M 16 39 L 18 39.5 L 18 46 L 23 46 L 23 47.5 Q 22 50 17.5 49 L 16 47.5 L 16 39 Z " /><path fill="rgb(0,0,0)" stroke="rgb(0,0,0)" stroke-width="1" opacity="0" d="M 0.5 53 L 7.5 62 L 11 63.5 L 0 64 L 0.5 53 Z " /><path fill="rgb(0,0,0)" stroke="rgb(0,0,0)" stroke-width="1" opacity="0" d="M 63.5 62 L 64 64 L 62 63.5 L 63.5 62 Z " /><path fill="rgb(255,255,255)" stroke="rgb(255,255,255)" stroke-width="1" opacity="0.8941176470588236" d="M 17.5 1 L 16.5 3 L 17.5 1 Z " /><path fill="rgb(255,255,255)" stroke="rgb(255,255,255)" stroke-width="1" opacity="0.8941176470588236" d="M 52.5 2 L 61.5 12 L 52.5 2 Z " /><path fill="rgb(255,255,255)" stroke="rgb(255,255,255)" stroke-width="1" opacity="0.8941176470588236" d="M 15.5 5 L 16 25.5 L 15 25.5 L 15.5 5 Z " /><path fill="rgb(255,255,255)" stroke="rgb(255,255,255)" stroke-width="1" opacity="0.8941176470588236" d="M 63.5 17 L 64 58.5 L 63 58.5 L 63.5 17 Z " /><path fill="rgb(255,255,255)" stroke="rgb(255,255,255)" stroke-width="1" opacity="0.8941176470588236" d="M 7.5 33 L 6.5 35 L 7.5 33 Z " /><path fill="rgb(255,255,255)" stroke="rgb(255,255,255)" stroke-width="1" opacity="0.8941176470588236" d="M 26.5 33 L 27.5 35 L 26.5 33 Z " /><path fill="rgb(255,255,255)" stroke="rgb(255,255,255)" stroke-width="1" opacity="0.8941176470588236" d="M 4.5 36 L 3.5 38 L 4.5 36 Z " /><path fill="rgb(255,255,255)" stroke="rgb(255,255,255)" stroke-width="1" opacity="0.8941176470588236" d="M 29.5 36 L 30.5 38 L 29.5 36 Z " /><path fill="rgb(255,255,255)" stroke="rgb(255,255,255)" stroke-width="1" opacity="0.8941176470588236" d="M 0.5 45 L 1 48.5 L 0 48.5 L 0.5 45 Z " /><path fill="rgb(255,255,255)" stroke="rgb(255,255,255)" stroke-width="1" opacity="0.8941176470588236" d="M 33.5 45 L 34 48.5 L 33 48.5 L 33.5 45 Z " /><path fill="rgb(255,255,255)" stroke="rgb(255,255,255)" stroke-width="1" opacity="0.8941176470588236" d="M 62.5 61 L 61.5 63 L 62.5 61 Z " /><path fill="rgb(255,255,255)" stroke="rgb(255,255,255)" stroke-width="1" opacity="1" d="M 20.5 0 L 47 0 L 47 15.5 L 48.5 16 L 49.5 17 L 63 17 L 63 60.5 L 60.5 63 L 58.5 64 L 30.5 64 L 35 58.5 L 38 49 L 54.5 49 L 55 45 L 38.5 45 L 38 42.5 L 36 38.5 L 55 38 L 54.5 34 L 33.5 34 L 25 27.5 L 55 27 L 56 24.5 L 53.5 22 L 25.5 22 Q 21.3 23.8 24 25.5 Q 24.8 28.1 21.5 27 L 16 26 L 16 3.5 L 18.5 1 L 20.5 0 Z " /><path fill="rgb(255,255,255)" stroke="rgb(255,255,255)" stroke-width="1" opacity="1" d="M 52.5 3 L 60.5 12 L 52 12 L 52.5 3 Z " /><path fill="rgb(255,255,255)" stroke="rgb(255,255,255)" stroke-width="1" opacity="1" d="M 12.5 31 L 21.5 31 L 29 35 L 33 42.5 L 33 51.5 L 27.5 60 L 22.5 63 L 16.5 64 L 9.5 62 L 4 57.5 Q -0.5 53 1 42.5 L 5 35 L 12.5 31 Z M 17 37 L 15 39 L 15 49 L 24 49 Q 26 43 19 45 L 19 39 L 17 37 Z " /><path fill="rgb(255,255,255)" stroke="rgb(255,255,255)" stroke-width="1" opacity="0.6039215686274509" d="M 47.5 0 L 48 14.5 L 47 14.5 L 47.5 0 Z " /><path fill="rgb(255,255,255)" stroke="rgb(255,255,255)" stroke-width="1" opacity="0.6039215686274509" d="M 51.5 2 L 52 12 L 62 12.5 L 52.5 13 L 51 11.5 L 51.5 2 Z " /><path fill="rgb(255,255,255)" stroke="rgb(255,255,255)" stroke-width="1" opacity="0.6039215686274509" d="M 50.5 16 L 64 16.5 L 50.5 17 L 50.5 16 Z " /><path fill="rgb(255,255,255)" stroke="rgb(255,255,255)" stroke-width="1" opacity="0.6039215686274509" d="M 26.5 22 L 53 22.5 L 26.5 23 L 26.5 22 Z " /><path fill="rgb(255,255,255)" stroke="rgb(255,255,255)" stroke-width="1" opacity="0.6039215686274509" d="M 15.5 26 L 20 26.5 L 15.5 27 L 15.5 26 Z " /><path fill="rgb(255,255,255)" stroke="rgb(255,255,255)" stroke-width="1" opacity="0.6039215686274509" d="M 25.5 26 L 54 26.5 L 25.5 27 L 25.5 26 Z " /><path fill="rgb(255,255,255)" stroke="rgb(255,255,255)" stroke-width="1" opacity="0.6039215686274509" d="M 14.5 30 L 20 30.5 L 14.5 31 L 14.5 30 Z " /><path fill="rgb(255,255,255)" stroke="rgb(255,255,255)" stroke-width="1" opacity="0.6039215686274509" d="M 29.5 30 L 32.5 34 L 29.5 30 Z " /><path fill="rgb(255,255,255)" stroke="rgb(255,255,255)" stroke-width="1" opacity="0.6039215686274509" d="M 4.5 58 L 5.5 60 L 4.5 58 Z " /><path fill="rgb(255,255,255)" stroke="rgb(255,255,255)" stroke-width="1" opacity="0.6039215686274509" d="M 29.5 58 L 28.5 60 L 29.5 58 Z " /><path fill="rgb(255,255,255)" stroke="rgb(255,255,255)" stroke-width="1" opacity="0.16470588235294117" d="M 17.5 0 L 15.5 3 L 17.5 0 Z " /><path fill="rgb(255,255,255)" stroke="rgb(255,255,255)" stroke-width="1" opacity="0.16470588235294117" d="M 51.5 1 L 63 11.5 L 62.5 13 L 52.5 2 L 51.5 1 Z " /><path fill="rgb(255,255,255)" stroke="rgb(255,255,255)" stroke-width="1" opacity="0.16470588235294117" d="M 24.5 28 L 27 29.5 L 25.5 29 L 24.5 28 Z " /><path fill="rgb(255,255,255)" stroke="rgb(255,255,255)" stroke-width="1" opacity="0.16470588235294117" d="M 28.5 30 L 29.5 32 L 28.5 30 Z " /><path fill="rgb(255,255,255)" stroke="rgb(255,255,255)" stroke-width="1" opacity="0.16470588235294117" d="M 7.5 32 L 2.5 38 L 7.5 32 Z " /><path fill="rgb(255,255,255)" stroke="rgb(255,255,255)" stroke-width="1" opacity="0.16470588235294117" d="M 26.5 32 L 31.5 38 L 26.5 32 Z " /><path fill="rgb(255,255,255)" stroke="rgb(255,255,255)" stroke-width="1" opacity="0.16470588235294117" d="M 53.5 34 L 55 36.5 L 53.5 38 L 36 38 L 35.5 40 L 35 37 L 53.5 37 L 54 35.5 L 53.5 34 Z " /><path fill="rgb(255,255,255)" stroke="rgb(255,255,255)" stroke-width="1" opacity="0.16470588235294117" d="M 16.5 38 L 19 39.5 Q 16.4 46.8 22.5 45 L 24 47.5 L 22 48.5 L 23 46 L 18 46 L 18 39.5 L 16 39 L 16 47.5 L 17 48.5 L 15 47.5 L 15 39.5 L 16.5 38 Z " /><path fill="rgb(255,255,255)" stroke="rgb(255,255,255)" stroke-width="1" opacity="0.16470588235294117" d="M 37.5 45 L 53.5 45 L 55 46.5 L 53.5 49 L 54 47.5 L 53.5 46 L 37.5 46 L 37.5 45 Z " /><path fill="rgb(255,255,255)" stroke="rgb(255,255,255)" stroke-width="1" opacity="0.16470588235294117" d="M 2.5 56 L 3.5 58 L 2.5 56 Z " /><path fill="rgb(255,255,255)" stroke="rgb(255,255,255)" stroke-width="1" opacity="0.16470588235294117" d="M 31.5 56 L 30.5 58 L 31.5 56 Z " /><path fill="rgb(255,255,255)" stroke="rgb(255,255,255)" stroke-width="1" opacity="0.16470588235294117" d="M 34.5 57 L 33.5 59 L 34.5 57 Z " /><path fill="rgb(255,255,255)" stroke="rgb(255,255,255)" stroke-width="1" opacity="0.16470588235294117" d="M 6.5 60 L 7.5 62 L 6.5 60 Z " /><path fill="rgb(255,255,255)" stroke="rgb(255,255,255)" stroke-width="1" opacity="0.16470588235294117" d="M 27.5 60 L 26.5 62 L 27.5 60 Z " /><path fill="rgb(255,255,255)" stroke="rgb(255,255,255)" stroke-width="1" opacity="0.16470588235294117" d="M 32.5 60 L 30.5 63 L 32.5 60 Z " /><path fill="rgb(255,255,255)" stroke="rgb(255,255,255)" stroke-width="1" opacity="0.16470588235294117" d="M 63.5 61 L 61.5 64 L 63.5 61 Z " /></svg>