<svg width="512" height="512" version="1.1" xmlns="http://www.w3.org/2000/svg" desc="Created with imagetracer.js version 1.2.6" ><path fill="rgb(0,0,0)" stroke="rgb(0,0,0)" stroke-width="1" opacity="0" d="M 0 0 L 512 0 L 512 207.5 L 511 207.5 L 510 201.5 L 503 190 L 491.5 183 L 483.5 181 L 172.5 181 L 162.5 183 L 153.5 187 L 139 199.5 L 133 209.5 L 129 221.5 L 125 238.5 L 122 245.5 L 70 425.5 Q 64.9 438.9 54.5 447 Q 44.2 456.2 27 458.5 L 407.5 459 L 425.5 454 L 440 444 L 449 431.5 L 454 418.5 L 511.5 219 L 512 512 L 0.5 512 L 0 511.5 L 0 421.5 L 1 421.5 Q 2.6 430.4 9.5 434 Q 15.3 439.2 28.5 437 Q 39.6 433.6 46 425.5 L 51 416.5 L 112 205.5 Q 118.9 187.4 132.5 176 L 150.5 165 L 170.5 160 L 448 160 Q 450.1 143.1 445 132.5 Q 440.6 122.4 432.5 116 Q 425 109.5 413.5 107 L 242.5 107 Q 241.3 104.8 236.5 106 L 230.5 103 L 224 96.5 Q 212.2 78.3 196.5 64 L 184.5 57 L 168.5 53 L 38.5 53 Q 37.3 55.3 32.5 54 L 20.5 59 L 8 70.5 Q 1.8 77.3 0.5 89 L 0 0 Z " /><path fill="rgb(0,0,0)" stroke="rgb(0,0,0)" stroke-width="1" opacity="0.7294117647058823" d="M 38.5 53 L 169 53.5 L 38.5 54 L 38.5 53 Z " /><path fill="rgb(0,0,0)" stroke="rgb(0,0,0)" stroke-width="1" opacity="0.7294117647058823" d="M 173.5 54 L 176 54.5 L 173.5 55 L 173.5 54 Z " /><path fill="rgb(0,0,0)" stroke="rgb(0,0,0)" stroke-width="1" opacity="0.7294117647058823" d="M 20.5 59 L 19.5 61 L 20.5 59 Z " /><path fill="rgb(0,0,0)" stroke="rgb(0,0,0)" stroke-width="1" opacity="0.7294117647058823" d="M 17.5 61 L 15.5 64 L 17.5 61 Z " /><path fill="rgb(0,0,0)" stroke="rgb(0,0,0)" stroke-width="1" opacity="0.7294117647058823" d="M 196.5 64 L 198.5 67 L 196.5 64 Z " /><path fill="rgb(0,0,0)" stroke="rgb(0,0,0)" stroke-width="1" opacity="0.7294117647058823" d="M 10.5 68 L 8.5 71 L 10.5 68 Z " /><path fill="rgb(0,0,0)" stroke="rgb(0,0,0)" stroke-width="1" opacity="0.7294117647058823" d="M 203.5 71 L 206.5 75 L 203.5 71 Z " /><path fill="rgb(0,0,0)" stroke="rgb(0,0,0)" stroke-width="1" opacity="0.7294117647058823" d="M 208.5 77 L 210.5 80 L 208.5 77 Z " /><path fill="rgb(0,0,0)" stroke="rgb(0,0,0)" stroke-width="1" opacity="0.7294117647058823" d="M 212.5 82 L 214.5 85 L 212.5 82 Z " /><path fill="rgb(0,0,0)" stroke="rgb(0,0,0)" stroke-width="1" opacity="0.7294117647058823" d="M 217.5 88 L 219.5 91 L 217.5 88 Z " /><path fill="rgb(0,0,0)" stroke="rgb(0,0,0)" stroke-width="1" opacity="0.7294117647058823" d="M 0.5 89 L 1 92.5 L 0 92.5 L 0.5 89 Z " /><path fill="rgb(0,0,0)" stroke="rgb(0,0,0)" stroke-width="1" opacity="0.7294117647058823" d="M 221.5 93 L 223.5 96 L 221.5 93 Z " /><path fill="rgb(0,0,0)" stroke="rgb(0,0,0)" stroke-width="1" opacity="0.7294117647058823" d="M 225.5 98 L 228.5 102 L 225.5 98 Z " /><path fill="rgb(0,0,0)" stroke="rgb(0,0,0)" stroke-width="1" opacity="0.7294117647058823" d="M 238.5 106 L 242 106.5 L 238.5 107 L 238.5 106 Z " /><path fill="rgb(0,0,0)" stroke="rgb(0,0,0)" stroke-width="1" opacity="0.7294117647058823" d="M 411.5 107 L 414 107.5 L 411.5 108 L 411.5 107 Z " /><path fill="rgb(0,0,0)" stroke="rgb(0,0,0)" stroke-width="1" opacity="0.7294117647058823" d="M 428.5 113 L 429.5 115 L 428.5 113 Z " /><path fill="rgb(0,0,0)" stroke="rgb(0,0,0)" stroke-width="1" opacity="0.7294117647058823" d="M 432.5 116 L 438.5 123 L 432.5 116 Z " /><path fill="rgb(0,0,0)" stroke="rgb(0,0,0)" stroke-width="1" opacity="0.7294117647058823" d="M 447.5 142 L 448 146.5 L 447 146.5 L 447.5 142 Z " /><path fill="rgb(0,0,0)" stroke="rgb(0,0,0)" stroke-width="1" opacity="0.7294117647058823" d="M 166.5 160 L 170 160.5 L 166.5 161 L 166.5 160 Z " /><path fill="rgb(0,0,0)" stroke="rgb(0,0,0)" stroke-width="1" opacity="0.7294117647058823" d="M 161.5 161 L 164 161.5 L 161.5 162 L 161.5 161 Z " /><path fill="rgb(0,0,0)" stroke="rgb(0,0,0)" stroke-width="1" opacity="0.7294117647058823" d="M 141.5 169 L 140.5 171 L 141.5 169 Z " /><path fill="rgb(0,0,0)" stroke="rgb(0,0,0)" stroke-width="1" opacity="0.7294117647058823" d="M 138.5 171 L 137.5 173 L 138.5 171 Z " /><path fill="rgb(0,0,0)" stroke="rgb(0,0,0)" stroke-width="1" opacity="0.7294117647058823" d="M 135.5 173 L 133.5 176 L 135.5 173 Z " /><path fill="rgb(0,0,0)" stroke="rgb(0,0,0)" stroke-width="1" opacity="0.7294117647058823" d="M 172.5 181 L 484 181.5 L 172.5 182 L 172.5 181 Z " /><path fill="rgb(0,0,0)" stroke="rgb(0,0,0)" stroke-width="1" opacity="0.7294117647058823" d="M 123.5 185 L 122.5 187 L 123.5 185 Z " /><path fill="rgb(0,0,0)" stroke="rgb(0,0,0)" stroke-width="1" opacity="0.7294117647058823" d="M 497.5 186 L 498.5 188 L 497.5 186 Z " /><path fill="rgb(0,0,0)" stroke="rgb(0,0,0)" stroke-width="1" opacity="0.7294117647058823" d="M 120.5 189 L 119.5 191 L 120.5 189 Z " /><path fill="rgb(0,0,0)" stroke="rgb(0,0,0)" stroke-width="1" opacity="0.7294117647058823" d="M 147.5 191 L 139.5 200 L 147.5 191 Z " /><path fill="rgb(0,0,0)" stroke="rgb(0,0,0)" stroke-width="1" opacity="0.7294117647058823" d="M 118.5 192 L 117.5 194 L 118.5 192 Z " /><path fill="rgb(0,0,0)" stroke="rgb(0,0,0)" stroke-width="1" opacity="0.7294117647058823" d="M 505.5 194 L 506.5 196 L 505.5 194 Z " /><path fill="rgb(0,0,0)" stroke="rgb(0,0,0)" stroke-width="1" opacity="0.7294117647058823" d="M 136.5 204 L 135.5 206 L 136.5 204 Z " /><path fill="rgb(0,0,0)" stroke="rgb(0,0,0)" stroke-width="1" opacity="0.7294117647058823" d="M 511.5 208 L 512 212.5 L 511 212.5 L 511.5 208 Z " /><path fill="rgb(0,0,0)" stroke="rgb(0,0,0)" stroke-width="1" opacity="0.7294117647058823" d="M 511.5 214 L 512 218.5 L 511 218.5 L 511.5 214 Z " /><path fill="rgb(0,0,0)" stroke="rgb(0,0,0)" stroke-width="1" opacity="0.7294117647058823" d="M 0.5 418 L 1 420.5 L 0 420.5 L 0.5 418 Z " /><path fill="rgb(0,0,0)" stroke="rgb(0,0,0)" stroke-width="1" opacity="0.7294117647058823" d="M 45.5 425 L 40.5 431 L 45.5 425 Z " /><path fill="rgb(0,0,0)" stroke="rgb(0,0,0)" stroke-width="1" opacity="0.7294117647058823" d="M 68.5 428 L 69 429.5 L 67 430.5 L 68.5 428 Z " /><path fill="rgb(0,0,0)" stroke="rgb(0,0,0)" stroke-width="1" opacity="0.7294117647058823" d="M 448.5 431 L 447.5 433 L 448.5 431 Z " /><path fill="rgb(0,0,0)" stroke="rgb(0,0,0)" stroke-width="1" opacity="0.7294117647058823" d="M 63.5 437 L 62.5 439 L 63.5 437 Z " /><path fill="rgb(0,0,0)" stroke="rgb(0,0,0)" stroke-width="1" opacity="0.7294117647058823" d="M 444.5 437 L 443.5 439 L 444.5 437 Z " /><path fill="rgb(0,0,0)" stroke="rgb(0,0,0)" stroke-width="1" opacity="0.7294117647058823" d="M 59.5 442 L 57.5 445 L 59.5 442 Z " /><path fill="rgb(0,0,0)" stroke="rgb(0,0,0)" stroke-width="1" opacity="0.7294117647058823" d="M 53.5 447 L 52.5 449 L 53.5 447 Z " /><path fill="rgb(0,0,0)" stroke="rgb(0,0,0)" stroke-width="1" opacity="0.7294117647058823" d="M 434.5 447 L 433.5 449 L 434.5 447 Z " /><path fill="rgb(0,0,0)" stroke="rgb(0,0,0)" stroke-width="1" opacity="0.7294117647058823" d="M 47.5 451 L 46.5 453 L 47.5 451 Z " /><path fill="rgb(0,0,0)" stroke="rgb(0,0,0)" stroke-width="1" opacity="0.7294117647058823" d="M 426.5 452 L 425.5 454 L 424 453.5 L 426.5 452 Z " /><path fill="rgb(0,0,0)" stroke="rgb(0,0,0)" stroke-width="1" opacity="0.7294117647058823" d="M 31.5 457 L 34.5 458 L 408 458.5 L 27.5 459 L 27.5 458 L 31.5 457 Z " /><path fill="rgb(0,0,0)" stroke="rgb(0,0,0)" stroke-width="1" opacity="1" d="M 34.5 54 L 172.5 54 Q 192.1 57.9 203 70.5 L 228.5 102 L 238.5 107 L 410.5 107 Q 430.4 110.6 440 124.5 Q 445.1 130.9 447 140.5 L 448 160 L 166.5 160 Q 152 162.5 141.5 169 L 127 180 L 117 193.5 L 113 201.5 L 52 411.5 Q 48.8 425.3 38.5 432 L 26.5 437 L 17.5 437 Q 8.4 435.1 4 428.5 L 0 417.5 L 0 93.5 L 3 80.5 Q 6.9 70.4 14.5 64 Q 22.4 56.9 34.5 54 Z " /><path fill="rgb(0,0,0)" stroke="rgb(0,0,0)" stroke-width="1" opacity="1" d="M 168.5 182 L 486.5 182 Q 498.5 185 505 193.5 L 510 202.5 L 512 213.5 Q 509.2 215.2 511 221.5 L 471 355.5 L 467 372.5 L 464 379.5 L 460 396.5 L 457 403.5 L 453 420.5 Q 447.8 437.3 435.5 447 Q 425.8 454.8 411.5 458 L 34.5 458 L 34.5 457 Q 51 453.5 60 442.5 Q 69.1 433.1 73 418.5 L 132 213.5 Q 137.3 198.3 149.5 190 Q 157.3 184.3 168.5 182 Z " /></svg>