<svg width="64" height="64" version="1.1" xmlns="http://www.w3.org/2000/svg" desc="Created with imagetracer.js version 1.2.6" ><path fill="rgb(0,0,0)" stroke="rgb(0,0,0)" stroke-width="1" opacity="0.9686274509803922" d="M 16.5 21 L 14.5 24 L 16.5 21 Z " /><path fill="rgb(0,0,0)" stroke="rgb(0,0,0)" stroke-width="1" opacity="0.9686274509803922" d="M 5.5 52 L 4.5 54 L 5.5 52 Z " /><path fill="rgb(0,0,0)" stroke="rgb(0,0,0)" stroke-width="1" opacity="1" d="M 4.5 7 L 21.5 7 L 29.5 14 L 52.5 14 L 55 16.5 L 56 19.5 L 18.5 20 L 14 23.5 L 7 49.5 L 3.5 54 Q 0.2 55.1 1 52.5 L 0 51.5 L 0 12.5 L 2.5 8 L 4.5 7 Z " /><path fill="rgb(0,0,0)" stroke="rgb(0,0,0)" stroke-width="1" opacity="1" d="M 20.5 23 L 60.5 23 L 63 24 L 63 30.5 Q 59 37.5 58 47.5 L 56 53.5 L 53.5 56 L 51.5 57 L 7.5 57 L 9 54.5 L 17 26.5 L 20.5 23 Z " /><path fill="rgb(0,0,0)" stroke="rgb(0,0,0)" stroke-width="1" opacity="0.43529411764705883" d="M 4.5 6 L 22 6.5 L 4.5 7 L 4.5 6 Z " /><path fill="rgb(0,0,0)" stroke="rgb(0,0,0)" stroke-width="1" opacity="0.43529411764705883" d="M 27.5 11 L 28.5 13 L 27.5 11 Z " /><path fill="rgb(0,0,0)" stroke="rgb(0,0,0)" stroke-width="1" opacity="0.43529411764705883" d="M 21.5 22 L 61 22.5 L 21.5 23 L 21.5 22 Z " /><path fill="rgb(0,0,0)" stroke="rgb(0,0,0)" stroke-width="1" opacity="0.43529411764705883" d="M 15.5 23 L 14.5 25 L 15.5 23 Z " /><path fill="rgb(0,0,0)" stroke="rgb(0,0,0)" stroke-width="1" opacity="0.43529411764705883" d="M 62.5 23 L 63.5 25 L 62.5 23 Z " /><path fill="rgb(0,0,0)" stroke="rgb(0,0,0)" stroke-width="1" opacity="0.43529411764705883" d="M 0.5 53 L 4 54.5 L 1.5 55 L 0.5 53 Z " /><path fill="rgb(0,0,0)" stroke="rgb(0,0,0)" stroke-width="1" opacity="0.43529411764705883" d="M 5.5 56 L 6.5 57 L 51 57.5 L 4.5 58 L 5.5 56 Z " /><path fill="rgb(0,0,0)" stroke="rgb(0,0,0)" stroke-width="1" opacity="0.00392156862745098" d="M 0 0 L 64 0 L 64 23.5 L 62.5 23 L 60.5 22 L 21.5 22 L 16 26.5 L 10 49.5 L 6.5 56 L 4 57.5 L 50.5 58 L 57 53.5 L 63.5 30 L 64 64 L 0.5 64 L 0 63.5 L 0 54.5 L 1.5 55 L 6 54 L 13 28.5 L 16 22 L 20.5 20 L 56 20 Q 57 14.4 52.5 13 L 29.5 13 L 21.5 6 L 4.5 6 L 0.5 9 L 0 0 Z " /><path fill="rgb(0,0,0)" stroke="rgb(0,0,0)" stroke-width="1" opacity="0.8470588235294118" d="M 24.5 8 L 26.5 11 L 24.5 8 Z " /><path fill="rgb(0,0,0)" stroke="rgb(0,0,0)" stroke-width="1" opacity="0.8470588235294118" d="M 29.5 13 L 51 13.5 L 29.5 14 L 29.5 13 Z " /><path fill="rgb(0,0,0)" stroke="rgb(0,0,0)" stroke-width="1" opacity="0.8470588235294118" d="M 53.5 14 L 54.5 16 L 53.5 14 Z " /><path fill="rgb(0,0,0)" stroke="rgb(0,0,0)" stroke-width="1" opacity="0.8470588235294118" d="M 55.5 54 L 54.5 56 L 55.5 54 Z " /><path fill="rgb(0,0,0)" stroke="rgb(0,0,0)" stroke-width="1" opacity="0.8470588235294118" d="M 7.5 55 L 6.5 57 L 7.5 55 Z " /></svg>