<svg width="32" height="32" version="1.1" xmlns="http://www.w3.org/2000/svg" desc="Created with imagetracer.js version 1.2.6" ><path fill="rgb(0,0,0)" stroke="rgb(0,0,0)" stroke-width="1" opacity="0" d="M 0 0 L 31.5 0 L 32 1.5 L 30.5 1 L 6.5 1 L 4 3.5 L 4 21.5 L 0 22 L 0 0 Z " /><path fill="rgb(0,0,0)" stroke="rgb(0,0,0)" stroke-width="1" opacity="0" d="M 7 4 L 24 4 L 24 26.5 L 20 28 L 19 22 L 7 22 L 7 4 Z M 10 6 L 8 8 L 9 9 L 16 9 L 16 6 L 10 6 Z M 10 10 L 8 12 L 9 13 L 22 13 L 22 10 L 10 10 Z M 10 14 L 8 16 L 9 17 L 22 17 L 22 14 L 10 14 Z M 10 18 L 8 20 L 9 21 L 22 21 L 22 18 L 10 18 Z " /><path fill="rgb(0,0,0)" stroke="rgb(0,0,0)" stroke-width="1" opacity="0" d="M 27 4 L 30 5.5 Q 31.1 9.7 27 8 L 27 4 Z " /><path fill="rgb(0,0,0)" stroke="rgb(0,0,0)" stroke-width="1" opacity="0" d="M 27 11 L 32 11.5 L 32 32 L 0.5 32 L 0 29.5 L 2.5 31 L 24.5 31 L 26 29.5 L 27 27.5 L 27 11 Z " /><path fill="rgb(0,0,0)" stroke="rgb(0,0,0)" stroke-width="1" opacity="0" d="M 2.5 25 L 15.5 25 L 16 26.5 L 16.5 28 L 3.5 28 L 3 26.5 L 2.5 25 Z " /><path fill="rgb(255,255,255)" stroke="rgb(255,255,255)" stroke-width="1" opacity="0.9686274509803922" d="M 18.5 23 L 19 26.5 L 18 26.5 L 18.5 23 Z " /><path fill="rgb(255,255,255)" stroke="rgb(255,255,255)" stroke-width="1" opacity="0.9686274509803922" d="M 24.5 27 L 23.5 29 L 24.5 27 Z " /><path fill="rgb(255,255,255)" stroke="rgb(255,255,255)" stroke-width="1" opacity="0.5686274509803921" d="M 7.5 3 L 7 4.5 L 6.5 23 L 6 4.5 L 7.5 3 Z " /><path fill="rgb(255,255,255)" stroke="rgb(255,255,255)" stroke-width="1" opacity="0.5686274509803921" d="M 27.5 3 L 27 4.5 Q 25.3 9.3 29.5 8 L 29.5 9 L 26 7.5 Q 25.3 3.8 27.5 3 Z " /><path fill="rgb(255,255,255)" stroke="rgb(255,255,255)" stroke-width="1" opacity="0.5686274509803921" d="M 24.5 4 L 25 26.5 L 24 26.5 L 24.5 4 Z " /><path fill="rgb(255,255,255)" stroke="rgb(255,255,255)" stroke-width="1" opacity="0.5686274509803921" d="M 4.5 5 L 5 21.5 L 4 21.5 L 4.5 5 Z " /><path fill="rgb(255,255,255)" stroke="rgb(255,255,255)" stroke-width="1" opacity="0.5686274509803921" d="M 27.5 10 L 31 10.5 L 27 11 L 26.5 26 L 26 11.5 L 27.5 10 Z " /><path fill="rgb(255,255,255)" stroke="rgb(255,255,255)" stroke-width="1" opacity="0.5686274509803921" d="M 2.5 24 L 17 24.5 L 2.5 25 L 2.5 24 Z " /><path fill="rgb(255,255,255)" stroke="rgb(255,255,255)" stroke-width="1" opacity="0.5686274509803921" d="M 2.5 27 L 3.5 29 L 2.5 27 Z " /><path fill="rgb(255,255,255)" stroke="rgb(255,255,255)" stroke-width="1" opacity="0.27058823529411763" d="M 30.5 1 L 31.5 3 L 30.5 1 Z " /><path fill="rgb(255,255,255)" stroke="rgb(255,255,255)" stroke-width="1" opacity="0.27058823529411763" d="M 8.5 3 L 25 3.5 L 8.5 4 L 8.5 3 Z " /><path fill="rgb(255,255,255)" stroke="rgb(255,255,255)" stroke-width="1" opacity="0.27058823529411763" d="M 28.5 3 L 29.5 5 L 28.5 3 Z " /><path fill="rgb(255,255,255)" stroke="rgb(255,255,255)" stroke-width="1" opacity="0.27058823529411763" d="M 9.5 6 L 16 6.5 L 9 7 L 8.5 9 L 8 7.5 L 9.5 6 Z " /><path fill="rgb(255,255,255)" stroke="rgb(255,255,255)" stroke-width="1" opacity="0.27058823529411763" d="M 9.5 10 L 22 10.5 L 9 11 L 8.5 13 L 8 11.5 L 9.5 10 Z " /><path fill="rgb(255,255,255)" stroke="rgb(255,255,255)" stroke-width="1" opacity="0.27058823529411763" d="M 9.5 14 L 22 14.5 L 9 15 L 8.5 17 L 8 15.5 L 9.5 14 Z " /><path fill="rgb(255,255,255)" stroke="rgb(255,255,255)" stroke-width="1" opacity="0.27058823529411763" d="M 9.5 18 L 22 18.5 L 9 19 L 8.5 21 L 8 19.5 L 9.5 18 Z " /><path fill="rgb(255,255,255)" stroke="rgb(255,255,255)" stroke-width="1" opacity="0.27058823529411763" d="M 0.5 22 L 4 22.5 L 0.5 23 L 0.5 22 Z " /><path fill="rgb(255,255,255)" stroke="rgb(255,255,255)" stroke-width="1" opacity="0.27058823529411763" d="M 7.5 22 L 19 22.5 L 7.5 23 L 7.5 22 Z " /><path fill="rgb(255,255,255)" stroke="rgb(255,255,255)" stroke-width="1" opacity="0.27058823529411763" d="M 23.5 27 L 22.5 29 L 21 28.5 L 23.5 27 Z " /><path fill="rgb(255,255,255)" stroke="rgb(255,255,255)" stroke-width="1" opacity="0.27058823529411763" d="M 4.5 28 L 17 28.5 L 4.5 29 L 4.5 28 Z " /><path fill="rgb(255,255,255)" stroke="rgb(255,255,255)" stroke-width="1" opacity="0.27058823529411763" d="M 25.5 29 L 24.5 31 L 23 30.5 L 25.5 29 Z " /><path fill="rgb(255,255,255)" stroke="rgb(255,255,255)" stroke-width="1" opacity="1" d="M 6.5 2 L 29.5 2 L 31 3.5 L 32 8.5 Q 30.6 11.3 26 10 L 26 27.5 L 23.5 30 L 5 29.5 L 18 29 L 17 24 L 2.5 24 L 2 27.5 L 3.5 30 L 1 28.5 L 0 24.5 Q 1.2 22 5 23 L 5 3.5 L 6.5 2 Z M 6 3 L 6 23 L 18 23 Q 17 28 21 29 Q 24 30 25 28 L 25 3 L 6 3 Z M 26 3 L 26 9 L 30 9 L 30 3 L 26 3 Z " /><path fill="rgb(255,255,255)" stroke="rgb(255,255,255)" stroke-width="1" opacity="1" d="M 9.5 7 L 15 7.5 L 9.5 8 L 9.5 7 Z " /><path fill="rgb(255,255,255)" stroke="rgb(255,255,255)" stroke-width="1" opacity="1" d="M 9.5 11 L 21 11.5 L 9.5 12 L 9.5 11 Z " /><path fill="rgb(255,255,255)" stroke="rgb(255,255,255)" stroke-width="1" opacity="1" d="M 9.5 15 L 21 15.5 L 9.5 16 L 9.5 15 Z " /><path fill="rgb(255,255,255)" stroke="rgb(255,255,255)" stroke-width="1" opacity="1" d="M 9.5 19 L 21 19.5 L 9.5 20 L 9.5 19 Z " /><path fill="rgb(255,255,255)" stroke="rgb(255,255,255)" stroke-width="1" opacity="0.7725490196078432" d="M 8.5 1 L 27 1.5 L 8.5 2 L 8.5 1 Z " /><path fill="rgb(255,255,255)" stroke="rgb(255,255,255)" stroke-width="1" opacity="0.7725490196078432" d="M 15.5 7 L 14.5 9 L 9 8.5 L 15.5 7 Z " /><path fill="rgb(255,255,255)" stroke="rgb(255,255,255)" stroke-width="1" opacity="0.7725490196078432" d="M 21.5 11 L 20.5 13 L 9 12.5 L 20.5 12 L 21.5 11 Z " /><path fill="rgb(255,255,255)" stroke="rgb(255,255,255)" stroke-width="1" opacity="0.7725490196078432" d="M 21.5 15 L 20.5 17 L 10 16.5 L 20.5 16 L 21.5 15 Z " /><path fill="rgb(255,255,255)" stroke="rgb(255,255,255)" stroke-width="1" opacity="0.7725490196078432" d="M 21.5 19 L 20.5 21 L 10 20.5 L 20.5 20 L 21.5 19 Z " /><path fill="rgb(255,255,255)" stroke="rgb(255,255,255)" stroke-width="1" opacity="0.7725490196078432" d="M 25.5 28 L 24.5 30 L 25.5 28 Z " /><path fill="rgb(255,255,255)" stroke="rgb(255,255,255)" stroke-width="1" opacity="0.7725490196078432" d="M 4.5 29 L 5.5 30 L 20 30.5 L 4 31 L 4.5 29 Z " /></svg>