<svg width="512" height="512" version="1.1" xmlns="http://www.w3.org/2000/svg" desc="Created with imagetracer.js version 1.2.6" ><path fill="rgb(0,0,0)" stroke="rgb(0,0,0)" stroke-width="1" opacity="0" d="M 0 0 L 511.5 0 L 512 0.5 L 512 68.5 L 511 68.5 Q 506.3 44.2 489.5 32 L 476.5 24 L 457.5 19 L 125.5 19 L 111.5 22 L 102.5 26 Q 92.2 31.6 85 40.5 L 77 53.5 L 74 61.5 L 72 72.5 L 71 325.5 L 70 326.5 L 70 361 L 13.5 361 Q 5.4 362.4 2 368.5 L 0.5 372 L 0 0 Z " /><path fill="rgb(0,0,0)" stroke="rgb(0,0,0)" stroke-width="1" opacity="0" d="M 126.5 52 L 397 52.5 L 392 64.5 L 391 76.5 L 390 77.5 L 390 424.5 Q 385.9 441.9 373.5 451 L 357.5 459 L 341.5 460 Q 320.9 456.1 311 441.5 L 306 432.5 L 303 420.5 L 303 372.5 L 296.5 364 L 289.5 361 L 103 361 L 103 307.5 L 104 306.5 L 105 74.5 Q 107.2 62.7 115.5 57 L 126.5 52 Z M 151 108 L 146 110 Q 140 114 138 121 Q 137 131 142 136 Q 146 140 153 141 L 240 141 L 247 138 L 253 130 L 253 120 L 249 112 L 242 108 L 151 108 Z M 150 172 L 146 174 Q 140 177 138 185 Q 137 193 140 197 L 150 204 L 338 204 L 341 203 Q 347 199 349 192 Q 350 184 347 180 L 338 172 L 150 172 Z M 153 235 L 144 239 L 138 249 Q 137 258 141 262 Q 144 266 151 268 L 337 268 L 342 266 Q 347 263 349 256 Q 350 245 345 241 Q 341 236 335 235 L 153 235 Z M 151 299 L 145 302 Q 140 306 138 313 Q 137 321 141 326 Q 145 330 152 332 L 336 332 L 343 329 Q 347 325 349 319 Q 350 310 346 306 L 337 299 L 151 299 Z " /><path fill="rgb(0,0,0)" stroke="rgb(0,0,0)" stroke-width="1" opacity="0" d="M 447.5 52 L 455.5 52 L 462.5 54 L 475 64.5 L 480 78.5 L 480 135 L 423 135 L 423 77.5 Q 425.2 63.2 435.5 57 L 447.5 52 Z " /><path fill="rgb(0,0,0)" stroke="rgb(0,0,0)" stroke-width="1" opacity="0" d="M 511.5 157 L 512 512 L 0.5 512 L 0 511.5 L 0 429.5 L 1 429.5 L 2 437.5 L 8 452.5 Q 15.6 466.4 27.5 476 L 45.5 487 L 53.5 490 L 69.5 493 L 353.5 493 L 354.5 492 L 365.5 491 L 383.5 484 Q 396.8 476.8 406 465.5 L 418 445.5 L 423 426.5 L 423 168 L 498.5 168 Q 507.4 166.4 511 159.5 L 511.5 157 Z " /><path fill="rgb(0,0,0)" stroke="rgb(0,0,0)" stroke-width="1" opacity="0" d="M 32 394 L 269.5 394 L 270 394.5 L 270 420.5 L 271 421.5 L 272 434.5 L 276 446.5 L 284 459.5 L 70.5 460 Q 50.6 456.4 41 442.5 Q 35.3 435.7 33 425.5 L 32 394 Z " /><path fill="rgb(255,255,255)" stroke="rgb(255,255,255)" stroke-width="1" opacity="0.4823529411764706" d="M 125.5 19 L 458 19.5 L 125.5 20 L 125.5 19 Z " /><path fill="rgb(255,255,255)" stroke="rgb(255,255,255)" stroke-width="1" opacity="0.4823529411764706" d="M 118.5 20 L 123 20.5 L 115.5 22 L 115.5 21 L 118.5 20 Z " /><path fill="rgb(255,255,255)" stroke="rgb(255,255,255)" stroke-width="1" opacity="0.4823529411764706" d="M 460.5 20 L 464 20.5 L 460.5 21 L 460.5 20 Z " /><path fill="rgb(255,255,255)" stroke="rgb(255,255,255)" stroke-width="1" opacity="0.4823529411764706" d="M 465.5 21 L 468 21.5 L 465.5 22 L 465.5 21 Z " /><path fill="rgb(255,255,255)" stroke="rgb(255,255,255)" stroke-width="1" opacity="0.4823529411764706" d="M 111.5 22 L 114 22.5 L 109.5 24 L 109.5 23 L 111.5 22 Z " /><path fill="rgb(255,255,255)" stroke="rgb(255,255,255)" stroke-width="1" opacity="0.4823529411764706" d="M 469.5 22 L 474 23.5 L 472.5 24 L 469.5 23 L 469.5 22 Z " /><path fill="rgb(255,255,255)" stroke="rgb(255,255,255)" stroke-width="1" opacity="0.4823529411764706" d="M 106.5 24 L 108 24.5 Q 96.2 29.7 88 38.5 L 77.5 55 L 77 53.5 Q 83 40.5 93.5 32 L 106.5 24 Z " /><path fill="rgb(255,255,255)" stroke="rgb(255,255,255)" stroke-width="1" opacity="0.4823529411764706" d="M 475.5 24 Q 490.7 30.3 500 42.5 L 509 58.5 L 511 67.5 L 510 67.5 Q 505.1 44.9 489.5 33 L 475.5 25 L 475.5 24 Z " /><path fill="rgb(255,255,255)" stroke="rgb(255,255,255)" stroke-width="1" opacity="0.4823529411764706" d="M 128.5 51 L 397.5 51 L 398 52.5 L 396.5 55 L 396 53.5 L 396.5 52 L 128.5 52 L 128.5 51 Z " /><path fill="rgb(255,255,255)" stroke="rgb(255,255,255)" stroke-width="1" opacity="0.4823529411764706" d="M 451.5 51 L 455 51.5 L 451.5 52 L 451.5 51 Z " /><path fill="rgb(255,255,255)" stroke="rgb(255,255,255)" stroke-width="1" opacity="0.4823529411764706" d="M 123.5 52 L 126 52.5 Q 115.2 54.7 110 62.5 Q 106.3 66.8 105.5 74 L 105 70.5 Q 108.2 61.2 115.5 56 L 123.5 52 Z " /><path fill="rgb(255,255,255)" stroke="rgb(255,255,255)" stroke-width="1" opacity="0.4823529411764706" d="M 443.5 52 L 447 52.5 Q 433.7 54.7 428 64.5 L 426.5 67 L 427 65.5 L 432.5 58 L 443.5 52 Z " /><path fill="rgb(255,255,255)" stroke="rgb(255,255,255)" stroke-width="1" opacity="0.4823529411764706" d="M 456.5 52 L 462 53.5 L 460.5 54 L 456.5 53 L 456.5 52 Z " /><path fill="rgb(255,255,255)" stroke="rgb(255,255,255)" stroke-width="1" opacity="0.4823529411764706" d="M 463.5 54 L 473 60.5 Q 479.5 66 480 77.5 L 479 77.5 Q 477.5 63 467.5 57 Q 462.8 56.2 463.5 54 Z " /><path fill="rgb(255,255,255)" stroke="rgb(255,255,255)" stroke-width="1" opacity="0.4823529411764706" d="M 76.5 56 L 77 57.5 L 73.5 70 L 73 65.5 L 76.5 56 Z " /><path fill="rgb(255,255,255)" stroke="rgb(255,255,255)" stroke-width="1" opacity="0.4823529411764706" d="M 395.5 56 L 396 57.5 L 394.5 60 L 394 58.5 L 395.5 56 Z " /><path fill="rgb(255,255,255)" stroke="rgb(255,255,255)" stroke-width="1" opacity="0.4823529411764706" d="M 392.5 64 L 393 66.5 L 392 66.5 L 392.5 64 Z " /><path fill="rgb(255,255,255)" stroke="rgb(255,255,255)" stroke-width="1" opacity="0.4823529411764706" d="M 391.5 68 L 392 73.5 L 391 73.5 L 391.5 68 Z " /><path fill="rgb(255,255,255)" stroke="rgb(255,255,255)" stroke-width="1" opacity="0.4823529411764706" d="M 425.5 68 L 426 69.5 L 424.5 72 L 424 70.5 L 425.5 68 Z " /><path fill="rgb(255,255,255)" stroke="rgb(255,255,255)" stroke-width="1" opacity="0.4823529411764706" d="M 511.5 69 L 512 74.5 L 511 74.5 L 511.5 69 Z " /><path fill="rgb(255,255,255)" stroke="rgb(255,255,255)" stroke-width="1" opacity="0.4823529411764706" d="M 72.5 72 L 73 147.5 L 72 147.5 L 72.5 72 Z " /><path fill="rgb(255,255,255)" stroke="rgb(255,255,255)" stroke-width="1" opacity="0.4823529411764706" d="M 423.5 73 L 424 76.5 L 423 76.5 L 423.5 73 Z " /><path fill="rgb(255,255,255)" stroke="rgb(255,255,255)" stroke-width="1" opacity="0.4823529411764706" d="M 104.5 75 L 105 165.5 L 104 165.5 L 104.5 75 Z " /><path fill="rgb(255,255,255)" stroke="rgb(255,255,255)" stroke-width="1" opacity="0.4823529411764706" d="M 390.5 77 L 391 423.5 L 390 423.5 L 390.5 77 Z " /><path fill="rgb(255,255,255)" stroke="rgb(255,255,255)" stroke-width="1" opacity="0.4823529411764706" d="M 150.5 108 L 241.5 108 L 249 112 L 251 115.5 L 245.5 111 L 241.5 109 L 150.5 109 L 150.5 108 Z " /><path fill="rgb(255,255,255)" stroke="rgb(255,255,255)" stroke-width="1" opacity="0.4823529411764706" d="M 147.5 109 L 149 109.5 L 142 114.5 Q 137.9 118.9 138.5 128 L 138 120.5 Q 140.3 113.8 145.5 110 L 147.5 109 Z " /><path fill="rgb(255,255,255)" stroke="rgb(255,255,255)" stroke-width="1" opacity="0.4823529411764706" d="M 251.5 117 L 253 122.5 L 252 122.5 L 251.5 117 Z " /><path fill="rgb(255,255,255)" stroke="rgb(255,255,255)" stroke-width="1" opacity="0.4823529411764706" d="M 252.5 126 L 253 129.5 L 246.5 138 L 244.5 139 L 245.5 137 L 250 133.5 L 252.5 126 Z " /><path fill="rgb(255,255,255)" stroke="rgb(255,255,255)" stroke-width="1" opacity="0.4823529411764706" d="M 139.5 129 L 146.5 138 L 151 139.5 L 148.5 140 L 142 135.5 L 139 130.5 L 139.5 129 Z " /><path fill="rgb(255,255,255)" stroke="rgb(255,255,255)" stroke-width="1" opacity="0.4823529411764706" d="M 423.5 135 L 480 135.5 L 423.5 136 L 423.5 135 Z " /><path fill="rgb(255,255,255)" stroke="rgb(255,255,255)" stroke-width="1" opacity="0.4823529411764706" d="M 152.5 140 L 240 140.5 L 152.5 141 L 152.5 140 Z " /><path fill="rgb(255,255,255)" stroke="rgb(255,255,255)" stroke-width="1" opacity="0.4823529411764706" d="M 511.5 154 L 512 156.5 L 511 156.5 L 511.5 154 Z " /><path fill="rgb(255,255,255)" stroke="rgb(255,255,255)" stroke-width="1" opacity="0.4823529411764706" d="M 510.5 158 L 511 159.5 Q 508.4 165.9 500.5 167 L 500.5 166 Q 507.6 165.2 510 159.5 L 510.5 158 Z " /><path fill="rgb(255,255,255)" stroke="rgb(255,255,255)" stroke-width="1" opacity="0.4823529411764706" d="M 423.5 167 L 499 167.5 L 423.5 168 L 423.5 167 Z " /><path fill="rgb(255,255,255)" stroke="rgb(255,255,255)" stroke-width="1" opacity="0.4823529411764706" d="M 149.5 172 L 152 172.5 Q 144.5 174 141 179.5 Q 138 183.5 139 191.5 Q 140.7 198.3 146 201.5 L 140 196.5 Q 137 192.5 138 184.5 Q 139.8 177.3 145.5 174 L 149.5 172 Z " /><path fill="rgb(255,255,255)" stroke="rgb(255,255,255)" stroke-width="1" opacity="0.4823529411764706" d="M 335.5 172 Q 343.6 173.4 347 179.5 L 348 182.5 L 347 182.5 L 341.5 175 L 335.5 173 L 335.5 172 Z " /><path fill="rgb(255,255,255)" stroke="rgb(255,255,255)" stroke-width="1" opacity="0.4823529411764706" d="M 348.5 184 L 349 191.5 L 348 191.5 L 348.5 184 Z " /><path fill="rgb(255,255,255)" stroke="rgb(255,255,255)" stroke-width="1" opacity="0.4823529411764706" d="M 71.5 185 L 72 288.5 L 71 288.5 L 71.5 185 Z " /><path fill="rgb(255,255,255)" stroke="rgb(255,255,255)" stroke-width="1" opacity="0.4823529411764706" d="M 347.5 193 L 348 194.5 L 340.5 203 L 339 202.5 L 346 196.5 L 347.5 193 Z " /><path fill="rgb(255,255,255)" stroke="rgb(255,255,255)" stroke-width="1" opacity="0.4823529411764706" d="M 103.5 203 L 104 306.5 L 103 306.5 L 103.5 203 Z " /><path fill="rgb(255,255,255)" stroke="rgb(255,255,255)" stroke-width="1" opacity="0.4823529411764706" d="M 149.5 203 L 152 203.5 L 149.5 204 L 149.5 203 Z " /><path fill="rgb(255,255,255)" stroke="rgb(255,255,255)" stroke-width="1" opacity="0.4823529411764706" d="M 335.5 203 L 338 203.5 L 335.5 204 L 335.5 203 Z " /><path fill="rgb(255,255,255)" stroke="rgb(255,255,255)" stroke-width="1" opacity="0.4823529411764706" d="M 152.5 235 L 335 235.5 L 152.5 236 L 152.5 235 Z " /><path fill="rgb(255,255,255)" stroke="rgb(255,255,255)" stroke-width="1" opacity="0.4823529411764706" d="M 148.5 236 L 151 236.5 Q 143.9 237.9 141 243.5 L 139.5 247 L 139 245.5 L 143.5 239 L 148.5 236 Z " /><path fill="rgb(255,255,255)" stroke="rgb(255,255,255)" stroke-width="1" opacity="0.4823529411764706" d="M 336.5 236 Q 342.3 236.7 345 240.5 L 348 246.5 L 347 246.5 Q 345.6 240.4 340.5 238 L 336.5 237 L 336.5 236 Z " /><path fill="rgb(255,255,255)" stroke="rgb(255,255,255)" stroke-width="1" opacity="0.4823529411764706" d="M 138.5 248 Q 138 260.5 145.5 265 L 149 266.5 L 147.5 267 L 141 261.5 Q 136.4 257.1 138.5 248 Z " /><path fill="rgb(255,255,255)" stroke="rgb(255,255,255)" stroke-width="1" opacity="0.4823529411764706" d="M 348.5 248 L 349 255.5 Q 347.2 262.7 341.5 266 L 338.5 267 L 338.5 266 L 346 260.5 Q 348.9 255.9 348.5 248 Z " /><path fill="rgb(255,255,255)" stroke="rgb(255,255,255)" stroke-width="1" opacity="0.4823529411764706" d="M 150.5 267 L 337 267.5 L 150.5 268 L 150.5 267 Z " /><path fill="rgb(255,255,255)" stroke="rgb(255,255,255)" stroke-width="1" opacity="0.4823529411764706" d="M 150.5 299 L 336.5 299 L 339 300.5 L 337.5 301 L 336.5 300 L 150.5 300 L 148.5 301 L 148.5 300 L 150.5 299 Z " /><path fill="rgb(255,255,255)" stroke="rgb(255,255,255)" stroke-width="1" opacity="0.4823529411764706" d="M 146.5 301 L 145.5 303 L 142 305.5 L 139.5 311 L 139 309.5 L 144.5 302 L 146.5 301 Z " /><path fill="rgb(255,255,255)" stroke="rgb(255,255,255)" stroke-width="1" opacity="0.4823529411764706" d="M 340.5 301 L 346 305.5 L 347 307.5 L 345 306.5 L 342.5 303 L 340.5 301 Z " /><path fill="rgb(255,255,255)" stroke="rgb(255,255,255)" stroke-width="1" opacity="0.4823529411764706" d="M 138.5 312 L 139 318.5 L 138 318.5 L 138.5 312 Z " /><path fill="rgb(255,255,255)" stroke="rgb(255,255,255)" stroke-width="1" opacity="0.4823529411764706" d="M 348.5 312 L 349 318.5 L 348 318.5 L 348.5 312 Z " /><path fill="rgb(255,255,255)" stroke="rgb(255,255,255)" stroke-width="1" opacity="0.4823529411764706" d="M 139.5 320 L 143 327 L 147 329.5 L 145.5 329 L 141 325.5 L 139.5 320 Z " /><path fill="rgb(255,255,255)" stroke="rgb(255,255,255)" stroke-width="1" opacity="0.4823529411764706" d="M 346.5 323 L 346 324.5 L 342.5 329 L 340.5 330 L 341.5 328 L 345 325.5 L 346.5 323 Z " /><path fill="rgb(255,255,255)" stroke="rgb(255,255,255)" stroke-width="1" opacity="0.4823529411764706" d="M 70.5 326 L 71 362 L 13 361.5 L 70 361 L 70.5 326 Z " /><path fill="rgb(255,255,255)" stroke="rgb(255,255,255)" stroke-width="1" opacity="0.4823529411764706" d="M 151.5 331 L 336 331.5 L 151.5 332 L 151.5 331 Z " /><path fill="rgb(255,255,255)" stroke="rgb(255,255,255)" stroke-width="1" opacity="0.4823529411764706" d="M 102.5 344 L 103 361 L 290 361.5 L 103.5 362 L 102 360.5 L 102.5 344 Z " /><path fill="rgb(255,255,255)" stroke="rgb(255,255,255)" stroke-width="1" opacity="0.4823529411764706" d="M 9.5 362 L 12 362.5 Q 5.6 363.6 3 368.5 L 1.5 371 L 2 369.5 L 7.5 363 L 9.5 362 Z " /><path fill="rgb(255,255,255)" stroke="rgb(255,255,255)" stroke-width="1" opacity="0.4823529411764706" d="M 291.5 362 Q 298 363.5 301 368.5 L 303 372.5 L 303 415.5 L 302 415.5 L 302 372.5 L 296.5 365 L 291.5 363 L 291.5 362 Z " /><path fill="rgb(255,255,255)" stroke="rgb(255,255,255)" stroke-width="1" opacity="0.4823529411764706" d="M 0.5 372 L 1 374.5 L 0 374.5 L 0.5 372 Z " /><path fill="rgb(255,255,255)" stroke="rgb(255,255,255)" stroke-width="1" opacity="0.4823529411764706" d="M 32.5 393 L 270.5 393 L 271 393.5 L 271 420.5 L 270 420.5 L 270 394.5 L 269.5 394 L 32.5 394 L 32.5 393 Z " /><path fill="rgb(255,255,255)" stroke="rgb(255,255,255)" stroke-width="1" opacity="0.4823529411764706" d="M 422.5 417 L 423 426.5 L 422 426.5 L 422.5 417 Z " /><path fill="rgb(255,255,255)" stroke="rgb(255,255,255)" stroke-width="1" opacity="0.4823529411764706" d="M 32.5 419 L 33 424.5 L 32 424.5 L 32.5 419 Z " /><path fill="rgb(255,255,255)" stroke="rgb(255,255,255)" stroke-width="1" opacity="0.4823529411764706" d="M 303.5 421 L 306 431.5 L 305 431.5 L 303 425.5 L 303.5 421 Z " /><path fill="rgb(255,255,255)" stroke="rgb(255,255,255)" stroke-width="1" opacity="0.4823529411764706" d="M 0.5 422 L 1 428.5 L 0 428.5 L 0.5 422 Z " /><path fill="rgb(255,255,255)" stroke="rgb(255,255,255)" stroke-width="1" opacity="0.4823529411764706" d="M 271.5 424 L 272 429.5 L 271 429.5 L 271.5 424 Z " /><path fill="rgb(255,255,255)" stroke="rgb(255,255,255)" stroke-width="1" opacity="0.4823529411764706" d="M 389.5 425 L 390 427.5 L 389 427.5 L 389.5 425 Z " /><path fill="rgb(255,255,255)" stroke="rgb(255,255,255)" stroke-width="1" opacity="0.4823529411764706" d="M 33.5 426 L 34 428.5 L 33 428.5 L 33.5 426 Z " /><path fill="rgb(255,255,255)" stroke="rgb(255,255,255)" stroke-width="1" opacity="0.4823529411764706" d="M 421.5 429 L 422 432.5 L 421 432.5 L 421.5 429 Z " /><path fill="rgb(255,255,255)" stroke="rgb(255,255,255)" stroke-width="1" opacity="0.4823529411764706" d="M 1.5 430 L 2 433.5 L 1 433.5 L 1.5 430 Z " /><path fill="rgb(255,255,255)" stroke="rgb(255,255,255)" stroke-width="1" opacity="0.4823529411764706" d="M 34.5 430 L 37 435.5 L 36 435.5 L 34.5 430 Z " /><path fill="rgb(255,255,255)" stroke="rgb(255,255,255)" stroke-width="1" opacity="0.4823529411764706" d="M 272.5 431 L 274 437.5 L 273 437.5 L 272.5 431 Z " /><path fill="rgb(255,255,255)" stroke="rgb(255,255,255)" stroke-width="1" opacity="0.4823529411764706" d="M 387.5 432 L 388 433.5 Q 382.8 444.8 373.5 452 L 364.5 457 L 364.5 456 Q 374.8 451.8 381 443.5 L 387.5 432 Z " /><path fill="rgb(255,255,255)" stroke="rgb(255,255,255)" stroke-width="1" opacity="0.4823529411764706" d="M 306.5 433 Q 311.4 445.1 321.5 452 L 336 458.5 L 333.5 459 Q 321.5 455 314 446.5 Q 307.6 441 306.5 433 Z " /><path fill="rgb(255,255,255)" stroke="rgb(255,255,255)" stroke-width="1" opacity="0.4823529411764706" d="M 420.5 434 L 421 436.5 L 420 436.5 L 420.5 434 Z " /><path fill="rgb(255,255,255)" stroke="rgb(255,255,255)" stroke-width="1" opacity="0.4823529411764706" d="M 2.5 435 L 6 445.5 L 5 445.5 L 2 437.5 L 2.5 435 Z " /><path fill="rgb(255,255,255)" stroke="rgb(255,255,255)" stroke-width="1" opacity="0.4823529411764706" d="M 37.5 437 L 50.5 452 L 53 453.5 L 51.5 453 L 44 448 L 37.5 437 Z " /><path fill="rgb(255,255,255)" stroke="rgb(255,255,255)" stroke-width="1" opacity="0.4823529411764706" d="M 275.5 442 L 285 461 L 76 460.5 L 284 459.5 L 276 446.5 L 275.5 442 Z " /><path fill="rgb(255,255,255)" stroke="rgb(255,255,255)" stroke-width="1" opacity="0.4823529411764706" d="M 417.5 444 L 418 445.5 Q 410 464 395.5 476 Q 386.4 483.9 373.5 488 L 373.5 487 Q 392.5 480.5 404 466.5 Q 412.5 457 417.5 444 Z " /><path fill="rgb(255,255,255)" stroke="rgb(255,255,255)" stroke-width="1" opacity="0.4823529411764706" d="M 6.5 447 Q 13.9 464.1 27.5 475 L 47 486.5 L 45.5 487 Q 27.6 478.9 16 464.5 L 8 452.5 L 6.5 447 Z " /><path fill="rgb(255,255,255)" stroke="rgb(255,255,255)" stroke-width="1" opacity="0.4823529411764706" d="M 54.5 454 L 59 456.5 L 57.5 457 L 54.5 454 Z " /><path fill="rgb(255,255,255)" stroke="rgb(255,255,255)" stroke-width="1" opacity="0.4823529411764706" d="M 60.5 457 L 65 458.5 L 62.5 459 L 60.5 457 Z " /><path fill="rgb(255,255,255)" stroke="rgb(255,255,255)" stroke-width="1" opacity="0.4823529411764706" d="M 361.5 457 L 363 457.5 L 358.5 459 L 358.5 458 L 361.5 457 Z " /><path fill="rgb(255,255,255)" stroke="rgb(255,255,255)" stroke-width="1" opacity="0.4823529411764706" d="M 66.5 459 L 70 459.5 L 66.5 460 L 66.5 459 Z " /><path fill="rgb(255,255,255)" stroke="rgb(255,255,255)" stroke-width="1" opacity="0.4823529411764706" d="M 337.5 459 L 341 459.5 L 337.5 460 L 337.5 459 Z " /><path fill="rgb(255,255,255)" stroke="rgb(255,255,255)" stroke-width="1" opacity="0.4823529411764706" d="M 353.5 459 L 357 459.5 L 353.5 460 L 353.5 459 Z " /><path fill="rgb(255,255,255)" stroke="rgb(255,255,255)" stroke-width="1" opacity="0.4823529411764706" d="M 343.5 460 L 351 460.5 L 343.5 461 L 343.5 460 Z " /><path fill="rgb(255,255,255)" stroke="rgb(255,255,255)" stroke-width="1" opacity="0.4823529411764706" d="M 48.5 487 L 56 489.5 L 53.5 490 L 48.5 488 L 48.5 487 Z " /><path fill="rgb(255,255,255)" stroke="rgb(255,255,255)" stroke-width="1" opacity="0.4823529411764706" d="M 366.5 489 L 369 489.5 L 362.5 491 L 362.5 490 L 366.5 489 Z " /><path fill="rgb(255,255,255)" stroke="rgb(255,255,255)" stroke-width="1" opacity="0.4823529411764706" d="M 57.5 490 L 60 490.5 L 57.5 491 L 57.5 490 Z " /><path fill="rgb(255,255,255)" stroke="rgb(255,255,255)" stroke-width="1" opacity="0.4823529411764706" d="M 62.5 491 L 67 491.5 L 62.5 492 L 62.5 491 Z " /><path fill="rgb(255,255,255)" stroke="rgb(255,255,255)" stroke-width="1" opacity="0.4823529411764706" d="M 356.5 491 L 361 491.5 L 356.5 492 L 356.5 491 Z " /><path fill="rgb(255,255,255)" stroke="rgb(255,255,255)" stroke-width="1" opacity="0.4823529411764706" d="M 69.5 492 L 354 492.5 L 69.5 493 L 69.5 492 Z " /><path fill="rgb(255,255,255)" stroke="rgb(255,255,255)" stroke-width="1" opacity="0.996078431372549" d="M 102.5 27 L 101.5 29 L 102.5 27 Z " /><path fill="rgb(255,255,255)" stroke="rgb(255,255,255)" stroke-width="1" opacity="0.996078431372549" d="M 485.5 30 L 486.5 32 L 485.5 30 Z " /><path fill="rgb(255,255,255)" stroke="rgb(255,255,255)" stroke-width="1" opacity="0.996078431372549" d="M 96.5 31 L 95.5 33 L 96.5 31 Z " /><path fill="rgb(255,255,255)" stroke="rgb(255,255,255)" stroke-width="1" opacity="0.996078431372549" d="M 489.5 33 L 498.5 43 L 489.5 33 Z " /><path fill="rgb(255,255,255)" stroke="rgb(255,255,255)" stroke-width="1" opacity="0.996078431372549" d="M 91.5 35 L 88.5 39 L 91.5 35 Z " /><path fill="rgb(255,255,255)" stroke="rgb(255,255,255)" stroke-width="1" opacity="0.996078431372549" d="M 85.5 42 L 84.5 44 L 85.5 42 Z " /><path fill="rgb(255,255,255)" stroke="rgb(255,255,255)" stroke-width="1" opacity="0.996078431372549" d="M 499.5 44 L 500.5 46 L 499.5 44 Z " /><path fill="rgb(255,255,255)" stroke="rgb(255,255,255)" stroke-width="1" opacity="0.996078431372549" d="M 446.5 51 L 451 51.5 L 446.5 52 L 446.5 51 Z " /><path fill="rgb(255,255,255)" stroke="rgb(255,255,255)" stroke-width="1" opacity="0.996078431372549" d="M 437.5 54 L 436.5 56 L 437.5 54 Z " /><path fill="rgb(255,255,255)" stroke="rgb(255,255,255)" stroke-width="1" opacity="0.996078431372549" d="M 465.5 54 L 466.5 56 L 465.5 54 Z " /><path fill="rgb(255,255,255)" stroke="rgb(255,255,255)" stroke-width="1" opacity="0.996078431372549" d="M 434.5 56 L 433.5 58 L 434.5 56 Z " /><path fill="rgb(255,255,255)" stroke="rgb(255,255,255)" stroke-width="1" opacity="0.996078431372549" d="M 468.5 56 L 470.5 59 L 468.5 56 Z " /><path fill="rgb(255,255,255)" stroke="rgb(255,255,255)" stroke-width="1" opacity="0.996078431372549" d="M 113.5 57 L 109.5 62 L 113.5 57 Z " /><path fill="rgb(255,255,255)" stroke="rgb(255,255,255)" stroke-width="1" opacity="0.996078431372549" d="M 473.5 61 L 475.5 64 L 473.5 61 Z " /><path fill="rgb(255,255,255)" stroke="rgb(255,255,255)" stroke-width="1" opacity="0.996078431372549" d="M 428.5 62 L 427.5 64 L 428.5 62 Z " /><path fill="rgb(255,255,255)" stroke="rgb(255,255,255)" stroke-width="1" opacity="0.996078431372549" d="M 108.5 63 L 107.5 65 L 108.5 63 Z " /><path fill="rgb(255,255,255)" stroke="rgb(255,255,255)" stroke-width="1" opacity="0.996078431372549" d="M 73.5 70 L 74 72.5 L 73 72.5 L 73.5 70 Z " /><path fill="rgb(255,255,255)" stroke="rgb(255,255,255)" stroke-width="1" opacity="0.996078431372549" d="M 391.5 74 L 392 76.5 L 391 76.5 L 391.5 74 Z " /><path fill="rgb(255,255,255)" stroke="rgb(255,255,255)" stroke-width="1" opacity="0.996078431372549" d="M 511.5 75 L 512 79.5 L 511 79.5 L 511.5 75 Z " /><path fill="rgb(255,255,255)" stroke="rgb(255,255,255)" stroke-width="1" opacity="0.996078431372549" d="M 422.5 76 L 423 135.5 L 422 135.5 L 422.5 76 Z " /><path fill="rgb(255,255,255)" stroke="rgb(255,255,255)" stroke-width="1" opacity="0.996078431372549" d="M 480.5 77 L 481 135.5 L 480 135.5 L 480.5 77 Z " /><path fill="rgb(255,255,255)" stroke="rgb(255,255,255)" stroke-width="1" opacity="0.996078431372549" d="M 145.5 111 L 142.5 115 L 145.5 111 Z " /><path fill="rgb(255,255,255)" stroke="rgb(255,255,255)" stroke-width="1" opacity="0.996078431372549" d="M 249.5 115 L 250.5 117 L 249.5 115 Z " /><path fill="rgb(255,255,255)" stroke="rgb(255,255,255)" stroke-width="1" opacity="0.996078431372549" d="M 252.5 123 L 253 125.5 L 252 125.5 L 252.5 123 Z " /><path fill="rgb(255,255,255)" stroke="rgb(255,255,255)" stroke-width="1" opacity="0.996078431372549" d="M 249.5 133 L 246.5 137 L 249.5 133 Z " /><path fill="rgb(255,255,255)" stroke="rgb(255,255,255)" stroke-width="1" opacity="0.996078431372549" d="M 72.5 148 L 73 184.5 L 72 184.5 L 72.5 148 Z " /><path fill="rgb(255,255,255)" stroke="rgb(255,255,255)" stroke-width="1" opacity="0.996078431372549" d="M 511.5 151 L 512 153.5 L 511 153.5 L 511.5 151 Z " /><path fill="rgb(255,255,255)" stroke="rgb(255,255,255)" stroke-width="1" opacity="0.996078431372549" d="M 509.5 159 L 504.5 165 L 509.5 159 Z " /><path fill="rgb(255,255,255)" stroke="rgb(255,255,255)" stroke-width="1" opacity="0.996078431372549" d="M 103.5 167 L 104 202.5 L 103 202.5 L 103.5 167 Z " /><path fill="rgb(255,255,255)" stroke="rgb(255,255,255)" stroke-width="1" opacity="0.996078431372549" d="M 422.5 167 L 423 416.5 L 422 416.5 L 422.5 167 Z " /><path fill="rgb(255,255,255)" stroke="rgb(255,255,255)" stroke-width="1" opacity="0.996078431372549" d="M 152.5 172 L 335 172.5 L 152.5 173 L 152.5 172 Z " /><path fill="rgb(255,255,255)" stroke="rgb(255,255,255)" stroke-width="1" opacity="0.996078431372549" d="M 145.5 175 L 141.5 180 L 145.5 175 Z " /><path fill="rgb(255,255,255)" stroke="rgb(255,255,255)" stroke-width="1" opacity="0.996078431372549" d="M 341.5 175 L 342.5 177 L 341.5 175 Z " /><path fill="rgb(255,255,255)" stroke="rgb(255,255,255)" stroke-width="1" opacity="0.996078431372549" d="M 344.5 178 L 345.5 180 L 344.5 178 Z " /><path fill="rgb(255,255,255)" stroke="rgb(255,255,255)" stroke-width="1" opacity="0.996078431372549" d="M 141.5 196 L 142.5 198 L 141.5 196 Z " /><path fill="rgb(255,255,255)" stroke="rgb(255,255,255)" stroke-width="1" opacity="0.996078431372549" d="M 345.5 196 L 344.5 198 L 345.5 196 Z " /><path fill="rgb(255,255,255)" stroke="rgb(255,255,255)" stroke-width="1" opacity="0.996078431372549" d="M 144.5 199 L 146.5 202 L 144.5 199 Z " /><path fill="rgb(255,255,255)" stroke="rgb(255,255,255)" stroke-width="1" opacity="0.996078431372549" d="M 342.5 199 L 340.5 202 L 342.5 199 Z " /><path fill="rgb(255,255,255)" stroke="rgb(255,255,255)" stroke-width="1" opacity="0.996078431372549" d="M 152.5 203 L 335 203.5 L 152.5 204 L 152.5 203 Z " /><path fill="rgb(255,255,255)" stroke="rgb(255,255,255)" stroke-width="1" opacity="0.996078431372549" d="M 146.5 238 L 145.5 240 L 146.5 238 Z " /><path fill="rgb(255,255,255)" stroke="rgb(255,255,255)" stroke-width="1" opacity="0.996078431372549" d="M 345.5 260 L 341.5 265 L 345.5 260 Z " /><path fill="rgb(255,255,255)" stroke="rgb(255,255,255)" stroke-width="1" opacity="0.996078431372549" d="M 142.5 261 L 145.5 265 L 142.5 261 Z " /><path fill="rgb(255,255,255)" stroke="rgb(255,255,255)" stroke-width="1" opacity="0.996078431372549" d="M 71.5 289 L 72 325.5 L 71 325.5 L 71.5 289 Z " /><path fill="rgb(255,255,255)" stroke="rgb(255,255,255)" stroke-width="1" opacity="0.996078431372549" d="M 147.5 301 L 146.5 303 L 147.5 301 Z " /><path fill="rgb(255,255,255)" stroke="rgb(255,255,255)" stroke-width="1" opacity="0.996078431372549" d="M 339.5 301 L 340.5 303 L 339.5 301 Z " /><path fill="rgb(255,255,255)" stroke="rgb(255,255,255)" stroke-width="1" opacity="0.996078431372549" d="M 144.5 303 L 142.5 306 L 144.5 303 Z " /><path fill="rgb(255,255,255)" stroke="rgb(255,255,255)" stroke-width="1" opacity="0.996078431372549" d="M 342.5 303 L 344.5 306 L 342.5 303 Z " /><path fill="rgb(255,255,255)" stroke="rgb(255,255,255)" stroke-width="1" opacity="0.996078431372549" d="M 345.5 307 L 346.5 309 L 345.5 307 Z " /><path fill="rgb(255,255,255)" stroke="rgb(255,255,255)" stroke-width="1" opacity="0.996078431372549" d="M 102.5 308 L 103 343.5 L 102 343.5 L 102.5 308 Z " /><path fill="rgb(255,255,255)" stroke="rgb(255,255,255)" stroke-width="1" opacity="0.996078431372549" d="M 346.5 322 L 345.5 324 L 346.5 322 Z " /><path fill="rgb(255,255,255)" stroke="rgb(255,255,255)" stroke-width="1" opacity="0.996078431372549" d="M 344.5 325 L 342.5 328 L 344.5 325 Z " /><path fill="rgb(255,255,255)" stroke="rgb(255,255,255)" stroke-width="1" opacity="0.996078431372549" d="M 146.5 328 L 147.5 330 L 146.5 328 Z " /><path fill="rgb(255,255,255)" stroke="rgb(255,255,255)" stroke-width="1" opacity="0.996078431372549" d="M 340.5 328 L 339.5 330 L 340.5 328 Z " /><path fill="rgb(255,255,255)" stroke="rgb(255,255,255)" stroke-width="1" opacity="0.996078431372549" d="M 7.5 364 L 3.5 369 L 7.5 364 Z " /><path fill="rgb(255,255,255)" stroke="rgb(255,255,255)" stroke-width="1" opacity="0.996078431372549" d="M 296.5 365 L 299.5 369 L 296.5 365 Z " /><path fill="rgb(255,255,255)" stroke="rgb(255,255,255)" stroke-width="1" opacity="0.996078431372549" d="M 0.5 375 L 1 377.5 L 0 377.5 L 0.5 375 Z " /><path fill="rgb(255,255,255)" stroke="rgb(255,255,255)" stroke-width="1" opacity="0.996078431372549" d="M 31.5 393 L 32 418.5 L 31 418.5 L 31.5 393 Z " /><path fill="rgb(255,255,255)" stroke="rgb(255,255,255)" stroke-width="1" opacity="0.996078431372549" d="M 0.5 416 L 1 421.5 L 0 421.5 L 0.5 416 Z " /><path fill="rgb(255,255,255)" stroke="rgb(255,255,255)" stroke-width="1" opacity="0.996078431372549" d="M 302.5 416 L 303 420.5 L 302 420.5 L 302.5 416 Z " /><path fill="rgb(255,255,255)" stroke="rgb(255,255,255)" stroke-width="1" opacity="0.996078431372549" d="M 271.5 420 L 272 423.5 L 271 423.5 L 271.5 420 Z " /><path fill="rgb(255,255,255)" stroke="rgb(255,255,255)" stroke-width="1" opacity="0.996078431372549" d="M 38.5 440 L 39.5 442 L 38.5 440 Z " /><path fill="rgb(255,255,255)" stroke="rgb(255,255,255)" stroke-width="1" opacity="0.996078431372549" d="M 383.5 441 L 382.5 443 L 383.5 441 Z " /><path fill="rgb(255,255,255)" stroke="rgb(255,255,255)" stroke-width="1" opacity="0.996078431372549" d="M 40.5 443 L 43.5 447 L 40.5 443 Z " /><path fill="rgb(255,255,255)" stroke="rgb(255,255,255)" stroke-width="1" opacity="0.996078431372549" d="M 311.5 443 L 313.5 446 L 311.5 443 Z " /><path fill="rgb(255,255,255)" stroke="rgb(255,255,255)" stroke-width="1" opacity="0.996078431372549" d="M 381.5 444 L 375.5 451 L 381.5 444 Z " /><path fill="rgb(255,255,255)" stroke="rgb(255,255,255)" stroke-width="1" opacity="0.996078431372549" d="M 45.5 448 L 48.5 452 L 45.5 448 Z " /><path fill="rgb(255,255,255)" stroke="rgb(255,255,255)" stroke-width="1" opacity="0.996078431372549" d="M 317.5 449 L 319.5 452 L 317.5 449 Z " /><path fill="rgb(255,255,255)" stroke="rgb(255,255,255)" stroke-width="1" opacity="0.996078431372549" d="M 372.5 452 L 371.5 454 L 372.5 452 Z " /><path fill="rgb(255,255,255)" stroke="rgb(255,255,255)" stroke-width="1" opacity="0.996078431372549" d="M 53.5 454 L 54.5 456 L 53.5 454 Z " /><path fill="rgb(255,255,255)" stroke="rgb(255,255,255)" stroke-width="1" opacity="0.996078431372549" d="M 411.5 455 L 410.5 457 L 411.5 455 Z " /><path fill="rgb(255,255,255)" stroke="rgb(255,255,255)" stroke-width="1" opacity="0.996078431372549" d="M 12.5 457 L 13.5 459 L 12.5 457 Z " /><path fill="rgb(255,255,255)" stroke="rgb(255,255,255)" stroke-width="1" opacity="0.996078431372549" d="M 409.5 458 L 408.5 460 L 409.5 458 Z " /><path fill="rgb(255,255,255)" stroke="rgb(255,255,255)" stroke-width="1" opacity="0.996078431372549" d="M 14.5 460 L 15.5 462 L 14.5 460 Z " /><path fill="rgb(255,255,255)" stroke="rgb(255,255,255)" stroke-width="1" opacity="0.996078431372549" d="M 73.5 460 L 76 460.5 L 73.5 461 L 73.5 460 Z " /><path fill="rgb(255,255,255)" stroke="rgb(255,255,255)" stroke-width="1" opacity="0.996078431372549" d="M 340.5 460 L 343 460.5 L 340.5 461 L 340.5 460 Z " /><path fill="rgb(255,255,255)" stroke="rgb(255,255,255)" stroke-width="1" opacity="0.996078431372549" d="M 407.5 461 L 405.5 464 L 407.5 461 Z " /><path fill="rgb(255,255,255)" stroke="rgb(255,255,255)" stroke-width="1" opacity="0.996078431372549" d="M 17.5 464 L 27.5 475 L 17.5 464 Z " /><path fill="rgb(255,255,255)" stroke="rgb(255,255,255)" stroke-width="1" opacity="0.996078431372549" d="M 403.5 466 L 396.5 474 L 403.5 466 Z " /><path fill="rgb(255,255,255)" stroke="rgb(255,255,255)" stroke-width="1" opacity="0.996078431372549" d="M 393.5 475 L 391.5 478 L 393.5 475 Z " /><path fill="rgb(255,255,255)" stroke="rgb(255,255,255)" stroke-width="1" opacity="0.996078431372549" d="M 30.5 476 L 31.5 478 L 30.5 476 Z " /><path fill="rgb(255,255,255)" stroke="rgb(255,255,255)" stroke-width="1" opacity="0.996078431372549" d="M 389.5 478 L 388.5 480 L 389.5 478 Z " /><path fill="rgb(255,255,255)" stroke="rgb(255,255,255)" stroke-width="1" opacity="0.996078431372549" d="M 36.5 480 L 37.5 482 L 36.5 480 Z " /><path fill="rgb(255,255,255)" stroke="rgb(255,255,255)" stroke-width="1" opacity="1" d="M 125.5 20 L 457.5 20 Q 485.4 24.6 499 43.5 Q 507.9 54.1 511 70.5 L 511 79.5 L 512 80.5 L 512 150.5 L 510 158.5 L 503.5 165 L 498.5 167 L 422 167 L 422 426.5 Q 415.8 458.3 394.5 475 L 376.5 486 L 368.5 489 L 353.5 492 L 69.5 492 L 54.5 489 L 38.5 482 Q 25.2 474.4 16 462.5 Q 4.7 448.8 1 427.5 L 1 416.5 L 0 415.5 L 0 378.5 L 2 370.5 L 8.5 364 L 13.5 362 L 71 362 L 71 326.5 L 72 325.5 L 73 73.5 L 75 62.5 L 81 48.5 L 94.5 33 L 109.5 24 L 125.5 20 Z M 127 51 L 114 57 Q 106 62 104 74 L 103 308 L 102 309 L 102 362 L 290 362 L 295 364 L 302 374 L 302 421 L 304 431 L 311 444 Q 321 457 341 461 L 353 461 L 362 459 L 376 451 Q 387 442 391 426 L 391 78 L 392 77 L 393 66 L 399 52 L 127 51 Z M 447 51 L 435 56 Q 425 63 422 77 L 422 136 L 481 136 L 481 78 L 476 64 Q 468 50 447 51 Z M 31 393 L 32 427 L 40 444 Q 50 458 71 461 L 286 461 L 282 456 L 275 441 L 271 420 L 271 394 L 271 393 L 31 393 Z " /><path fill="rgb(255,255,255)" stroke="rgb(255,255,255)" stroke-width="1" opacity="1" d="M 150.5 109 L 240.5 109 L 249 114.5 Q 253.3 118.7 252 128.5 L 244.5 138 L 238.5 140 L 152.5 140 Q 145.5 138.4 142 133.5 L 139 126.5 L 139 121.5 Q 140.8 114.3 146.5 111 L 150.5 109 Z " /><path fill="rgb(255,255,255)" stroke="rgb(255,255,255)" stroke-width="1" opacity="1" d="M 150.5 173 L 336.5 173 L 344 177 L 348 185.5 L 348 190.5 L 344 199 L 336.5 203 L 150.5 203 L 143 199 L 139 190.5 L 139 185.5 Q 140.8 178.3 146.5 175 L 150.5 173 Z " /><path fill="rgb(255,255,255)" stroke="rgb(255,255,255)" stroke-width="1" opacity="1" d="M 152.5 236 L 334.5 236 Q 341.5 237.5 345 242.5 L 348 249.5 L 348 254.5 Q 346.2 261.7 340.5 265 L 336.5 267 L 150.5 267 L 141 259.5 Q 138.3 256.2 139 249.5 L 144.5 240 L 152.5 236 Z " /><path fill="rgb(255,255,255)" stroke="rgb(255,255,255)" stroke-width="1" opacity="1" d="M 151.5 300 L 335.5 300 L 345 306.5 Q 349 310 348 318.5 L 341.5 328 L 335.5 331 L 151.5 331 L 142 324.5 Q 138 321 139 312.5 L 145.5 303 L 151.5 300 Z " /></svg>