<svg width="64" height="64" version="1.1" xmlns="http://www.w3.org/2000/svg" desc="Created with imagetracer.js version 1.2.6" ><path fill="rgb(0,0,0)" stroke="rgb(0,0,0)" stroke-width="1" opacity="0" d="M 0 0 L 63.5 0 Q 64.6 0.1 64 5.5 L 59.5 2 L 13.5 2 L 10 4.5 L 9 6.5 L 9 22.5 L 8 23.5 L 8 45 L 0.5 45 L 0 44.5 L 0 0 Z " /><path fill="rgb(0,0,0)" stroke="rgb(0,0,0)" stroke-width="1" opacity="0" d="M 15.5 7 L 49 7.5 L 48 8.5 L 48 54.5 L 46.5 56 L 41.5 57 Q 36.3 54 38 45 L 13 45 L 13 20.5 L 14 19.5 L 14 8.5 L 15.5 7 Z M 19 13 L 17 17 L 19 18 L 31 18 L 32 15 L 31 13 L 19 13 Z M 19 21 L 17 25 L 19 26 L 43 26 L 44 23 L 43 21 L 19 21 Z M 19 29 L 17 33 L 19 34 L 43 34 L 44 31 L 43 29 L 19 29 Z M 19 37 L 17 41 L 19 42 L 43 42 L 44 39 L 43 37 L 19 37 Z " /><path fill="rgb(0,0,0)" stroke="rgb(0,0,0)" stroke-width="1" opacity="0" d="M 55.5 7 L 59 8.5 L 60 16 L 53 16 L 53 10.5 L 55.5 7 Z " /><path fill="rgb(0,0,0)" stroke="rgb(0,0,0)" stroke-width="1" opacity="0" d="M 53 21 L 63.5 21 L 64 21.5 L 64 64 L 0.5 64 Q -0.8 63.8 0 57.5 L 4.5 61 L 6.5 62 L 46.5 62 L 52 57.5 L 53 55.5 L 53 21 Z " /><path fill="rgb(0,0,0)" stroke="rgb(0,0,0)" stroke-width="1" opacity="0" d="M 4 50 L 32.5 50 L 33 53.5 L 34 57 L 8.5 57 L 5 54.5 L 4 50 Z " /><path fill="rgb(255,255,255)" stroke="rgb(255,255,255)" stroke-width="1" opacity="0.9882352941176471" d="M 60.5 10 L 61 16.5 L 60 16.5 L 60.5 10 Z " /><path fill="rgb(255,255,255)" stroke="rgb(255,255,255)" stroke-width="1" opacity="0.9882352941176471" d="M 9.5 19 L 10 21.5 L 9 21.5 L 9.5 19 Z " /><path fill="rgb(255,255,255)" stroke="rgb(255,255,255)" stroke-width="1" opacity="0.9882352941176471" d="M 12.5 21 L 13 23.5 L 12 23.5 L 12.5 21 Z " /><path fill="rgb(255,255,255)" stroke="rgb(255,255,255)" stroke-width="1" opacity="0.9882352941176471" d="M 3.5 49 L 4 51.5 L 3 51.5 L 3.5 49 Z " /><path fill="rgb(255,255,255)" stroke="rgb(255,255,255)" stroke-width="1" opacity="0.3607843137254902" d="M 13.5 2 L 54 2.5 L 13.5 3 L 11 4 L 9.5 8 L 9 6.5 L 11.5 3 L 13.5 2 Z " /><path fill="rgb(255,255,255)" stroke="rgb(255,255,255)" stroke-width="1" opacity="0.3607843137254902" d="M 57.5 2 L 59.5 2 L 64 6.5 L 63.5 8 L 59.5 3 Q 56.5 3.5 57.5 2 Z " /><path fill="rgb(255,255,255)" stroke="rgb(255,255,255)" stroke-width="1" opacity="0.3607843137254902" d="M 16.5 6 L 49 6.5 L 16.5 7 L 16.5 6 Z " /><path fill="rgb(255,255,255)" stroke="rgb(255,255,255)" stroke-width="1" opacity="0.3607843137254902" d="M 14.5 7 L 14 8.5 L 13.5 20 L 13 8.5 L 14.5 7 Z " /><path fill="rgb(255,255,255)" stroke="rgb(255,255,255)" stroke-width="1" opacity="0.3607843137254902" d="M 54.5 7 L 54 8.5 L 53.5 10 L 53 8.5 L 54.5 7 Z " /><path fill="rgb(255,255,255)" stroke="rgb(255,255,255)" stroke-width="1" opacity="0.3607843137254902" d="M 58.5 7 L 60 9.5 L 59 9.5 L 58.5 7 Z " /><path fill="rgb(255,255,255)" stroke="rgb(255,255,255)" stroke-width="1" opacity="0.3607843137254902" d="M 48.5 8 L 49 53.5 L 48 53.5 L 48.5 8 Z " /><path fill="rgb(255,255,255)" stroke="rgb(255,255,255)" stroke-width="1" opacity="0.3607843137254902" d="M 18.5 13 L 30.5 13 L 32 14.5 L 30.5 18 L 18.5 18 L 17 16.5 L 18.5 17 L 30.5 17 L 31 14 L 18.5 14 L 17.5 15 L 18.5 13 Z " /><path fill="rgb(255,255,255)" stroke="rgb(255,255,255)" stroke-width="1" opacity="0.3607843137254902" d="M 53.5 16 L 60 16.5 L 53.5 17 L 53.5 16 Z " /><path fill="rgb(255,255,255)" stroke="rgb(255,255,255)" stroke-width="1" opacity="0.3607843137254902" d="M 18.5 21 L 42.5 21 L 44 22.5 L 42.5 26 L 18.5 26 L 17 24.5 L 18.5 25 L 42.5 25 L 43 22 L 18.5 22 L 17.5 23 L 18.5 21 Z " /><path fill="rgb(255,255,255)" stroke="rgb(255,255,255)" stroke-width="1" opacity="0.3607843137254902" d="M 8.5 23 L 9 44.5 L 8 44.5 L 8.5 23 Z " /><path fill="rgb(255,255,255)" stroke="rgb(255,255,255)" stroke-width="1" opacity="0.3607843137254902" d="M 18.5 29 L 42.5 29 L 44 30.5 L 42.5 34 L 18.5 34 L 17 32.5 L 18.5 33 L 42.5 33 L 43 30 L 18.5 30 L 17.5 31 L 18.5 29 Z " /><path fill="rgb(255,255,255)" stroke="rgb(255,255,255)" stroke-width="1" opacity="0.3607843137254902" d="M 18.5 37 L 42.5 37 L 44 38.5 L 42.5 42 L 18.5 42 L 17 40.5 L 18.5 41 L 42.5 41 L 43 38 L 18.5 38 L 17.5 39 L 18.5 37 Z " /><path fill="rgb(255,255,255)" stroke="rgb(255,255,255)" stroke-width="1" opacity="0.3607843137254902" d="M 4.5 49 L 33.5 49 Q 34.5 49 34 53.5 L 33 53.5 L 32.5 50 L 4.5 50 L 4.5 49 Z " /><path fill="rgb(255,255,255)" stroke="rgb(255,255,255)" stroke-width="1" opacity="0.3607843137254902" d="M 38.5 53 L 41 56.5 L 38 54.5 L 38.5 53 Z " /><path fill="rgb(255,255,255)" stroke="rgb(255,255,255)" stroke-width="1" opacity="0.3607843137254902" d="M 0.5 55 L 5 60.5 L 0 56.5 L 0.5 55 Z " /><path fill="rgb(255,255,255)" stroke="rgb(255,255,255)" stroke-width="1" opacity="0.3607843137254902" d="M 5.5 55 L 8.5 57 L 34 57 L 34.5 55 L 35 58 L 8.5 58 L 5.5 55 Z " /><path fill="rgb(255,255,255)" stroke="rgb(255,255,255)" stroke-width="1" opacity="0.3607843137254902" d="M 47.5 55 L 46.5 57 L 45 56.5 L 47.5 55 Z " /><path fill="rgb(255,255,255)" stroke="rgb(255,255,255)" stroke-width="1" opacity="0.3607843137254902" d="M 51.5 57 L 48.5 61 L 43.5 62 L 43.5 61 Q 50.2 61.7 51.5 57 Z " /><path fill="rgb(255,255,255)" stroke="rgb(255,255,255)" stroke-width="1" opacity="0.3607843137254902" d="M 6.5 61 L 9 61.5 L 6.5 62 L 6.5 61 Z " /><path fill="rgb(255,255,255)" stroke="rgb(255,255,255)" stroke-width="1" opacity="0.3607843137254902" d="M 10.5 61 L 41 61.5 L 10.5 62 L 10.5 61 Z " /><path fill="rgb(255,255,255)" stroke="rgb(255,255,255)" stroke-width="1" opacity="1" d="M 14.5 3 L 58.5 3 L 62 5.5 Q 65.1 9.9 64 18.5 L 62.5 20 L 52 20 L 52 55.5 L 47.5 60 L 45.5 61 L 10 61 L 10.5 58 L 35.5 58 L 36 56.5 L 34 49 L 3.5 49 L 3 51.5 L 5.5 57 L 9 58 Q 10.5 61.7 7.5 61 L 3 59 Q -0.2 55.5 0 47.5 L 1.5 46 L 9 46 L 10 7.5 L 12.5 4 L 14.5 3 Z M 15 6 L 13 8 L 13 21 L 12 22 L 12 46 L 37 46 L 38 56 L 42 58 L 48 57 L 49 55 L 49 10 L 50 9 L 50 6 L 15 6 Z M 55 6 L 52 10 L 52 17 L 61 17 L 60 8 Q 59 5 55 6 Z " /><path fill="rgb(255,255,255)" stroke="rgb(255,255,255)" stroke-width="1" opacity="1" d="M 18 14 L 29.5 14 L 31 15.5 L 30.5 17 L 18 17 L 18 14 Z " /><path fill="rgb(255,255,255)" stroke="rgb(255,255,255)" stroke-width="1" opacity="1" d="M 18 22 L 41.5 22 L 43 23.5 L 41.5 25 L 18 25 L 18 22 Z " /><path fill="rgb(255,255,255)" stroke="rgb(255,255,255)" stroke-width="1" opacity="1" d="M 18 30 L 42.5 30 L 43 31.5 L 41.5 33 L 18 33 L 18 30 Z " /><path fill="rgb(255,255,255)" stroke="rgb(255,255,255)" stroke-width="1" opacity="1" d="M 18 38 L 42.5 38 L 43 39.5 L 41.5 41 L 19.5 41 L 18 38 Z " /><path fill="rgb(255,255,255)" stroke="rgb(255,255,255)" stroke-width="1" opacity="0.9607843137254902" d="M 9.5 14 L 10 18.5 L 9 18.5 L 9.5 14 Z " /><path fill="rgb(255,255,255)" stroke="rgb(255,255,255)" stroke-width="1" opacity="0.9607843137254902" d="M 12.5 24 L 13 28.5 L 12 28.5 L 12.5 24 Z " /><path fill="rgb(255,255,255)" stroke="rgb(255,255,255)" stroke-width="1" opacity="0.9607843137254902" d="M 9.5 58 L 10 60.5 L 9 60.5 L 9.5 58 Z " /><path fill="rgb(255,255,255)" stroke="rgb(255,255,255)" stroke-width="1" opacity="0.792156862745098" d="M 54.5 2 L 57 2.5 L 54.5 3 L 54.5 2 Z " /><path fill="rgb(255,255,255)" stroke="rgb(255,255,255)" stroke-width="1" opacity="0.792156862745098" d="M 55.5 6 L 58 6.5 L 55.5 7 L 55.5 6 Z " /><path fill="rgb(255,255,255)" stroke="rgb(255,255,255)" stroke-width="1" opacity="0.792156862745098" d="M 52.5 10 L 53 15.5 L 52 15.5 L 52.5 10 Z " /><path fill="rgb(255,255,255)" stroke="rgb(255,255,255)" stroke-width="1" opacity="0.792156862745098" d="M 52.5 21 L 53 53.5 L 52 53.5 L 52.5 21 Z " /><path fill="rgb(255,255,255)" stroke="rgb(255,255,255)" stroke-width="1" opacity="0.792156862745098" d="M 12.5 41 L 13 45 L 36.5 45 L 38 46.5 L 37.5 52 L 37 46 L 13.5 46 L 12 44.5 L 12.5 41 Z " /><path fill="rgb(255,255,255)" stroke="rgb(255,255,255)" stroke-width="1" opacity="0.792156862745098" d="M 1.5 45 L 9 45.5 L 0.5 47 L 1.5 45 Z " /><path fill="rgb(255,255,255)" stroke="rgb(255,255,255)" stroke-width="1" opacity="0.9176470588235294" d="M 9.5 9 L 10 13.5 L 9 13.5 L 9.5 9 Z " /><path fill="rgb(255,255,255)" stroke="rgb(255,255,255)" stroke-width="1" opacity="0.9176470588235294" d="M 53.5 20 L 62 20.5 L 53.5 21 L 53.5 20 Z " /><path fill="rgb(255,255,255)" stroke="rgb(255,255,255)" stroke-width="1" opacity="0.9176470588235294" d="M 12.5 29 L 13 40.5 L 12 40.5 L 12.5 29 Z " /></svg>