<svg width="32" height="32" version="1.1" xmlns="http://www.w3.org/2000/svg" desc="Created with imagetracer.js version 1.2.6" ><path fill="rgb(255,255,255)" stroke="rgb(255,255,255)" stroke-width="1" opacity="0.23529411764705882" d="M 11.5 3 L 14 4.5 L 12.5 4 L 11.5 3 Z " /><path fill="rgb(255,255,255)" stroke="rgb(255,255,255)" stroke-width="1" opacity="0.23529411764705882" d="M 15.5 6 L 26.5 6 L 28 7.5 L 26.5 7 L 15.5 7 L 15.5 6 Z " /><path fill="rgb(255,255,255)" stroke="rgb(255,255,255)" stroke-width="1" opacity="0.23529411764705882" d="M 9.5 10 L 11 10.5 L 7.5 13 L 9.5 10 Z " /><path fill="rgb(255,255,255)" stroke="rgb(255,255,255)" stroke-width="1" opacity="0.23529411764705882" d="M 7.5 14 L 8 15.5 L 5.5 20 L 5 18.5 L 7.5 14 Z " /><path fill="rgb(255,255,255)" stroke="rgb(255,255,255)" stroke-width="1" opacity="0.23529411764705882" d="M 5.5 21 L 6 22.5 L 2.5 29 L 0 27.5 L 3 27 L 5.5 21 Z " /><path fill="rgb(0,0,0)" stroke="rgb(0,0,0)" stroke-width="1" opacity="0" d="M 0 0 L 32 0 L 32 11 L 11 10.5 L 28 10 L 26.5 6 L 14.5 6 L 14 4.5 L 12.5 3 L 1.5 3 L 0 3.5 L 0 0 Z " /><path fill="rgb(0,0,0)" stroke="rgb(0,0,0)" stroke-width="1" opacity="0" d="M 31.5 17 L 32 32 L 0.5 32 L 0 28.5 L 1.5 29 L 27.5 29 L 28 27.5 L 31.5 17 Z " /><path fill="rgb(255,255,255)" stroke="rgb(255,255,255)" stroke-width="1" opacity="1" d="M 1 4 L 11.5 4 L 14.5 7 L 25.5 7 L 28 9.5 L 8.5 10 L 7 11.5 L 3 25.5 L 1.5 27 L 0 25.5 L 0 6.5 L 1 4 Z " /><path fill="rgb(255,255,255)" stroke="rgb(255,255,255)" stroke-width="1" opacity="1" d="M 10.5 12 L 30.5 12 Q 31.5 12 31 16.5 L 26.5 28 L 4 27.5 L 6 24.5 L 8 14.5 L 10.5 12 Z " /><path fill="rgb(255,255,255)" stroke="rgb(255,255,255)" stroke-width="1" opacity="0.6588235294117647" d="M 2.5 3 L 11 3.5 L 2.5 4 L 2.5 3 Z " /><path fill="rgb(255,255,255)" stroke="rgb(255,255,255)" stroke-width="1" opacity="0.6588235294117647" d="M 12.5 4 L 14.5 7 L 12.5 4 Z " /><path fill="rgb(255,255,255)" stroke="rgb(255,255,255)" stroke-width="1" opacity="0.6588235294117647" d="M 10.5 11 L 30.5 11 L 32 12.5 L 30.5 12 L 10.5 12 L 10.5 11 Z " /><path fill="rgb(255,255,255)" stroke="rgb(255,255,255)" stroke-width="1" opacity="0.6588235294117647" d="M 3.5 28 L 26 28.5 L 3.5 29 L 3.5 28 Z " /><path fill="rgb(255,255,255)" stroke="rgb(255,255,255)" stroke-width="1" opacity="0.8431372549019608" d="M 8.5 10 L 7.5 12 L 8.5 10 Z " /></svg>