<svg width="512" height="512" version="1.1" xmlns="http://www.w3.org/2000/svg" desc="Created with imagetracer.js version 1.2.6" ><path fill="rgb(0,0,0)" stroke="rgb(0,0,0)" stroke-width="1" opacity="0" d="M 0 0 L 512 0 L 512 205.5 L 511 205.5 L 509 197.5 L 498.5 186 L 486.5 181 L 169.5 181 Q 149.5 185 139 198.5 L 130 216.5 L 70 424.5 Q 64.6 438.6 53.5 447 Q 42 457 22 458.5 L 410.5 459 Q 433.7 454.7 445 438.5 L 454 420.5 L 511.5 221 L 512 512 L 0.5 512 L 0 511.5 L 0 423.5 L 1 423.5 Q 2.8 430.7 8.5 434 L 17.5 438 L 25.5 438 Q 39.2 435.7 46 426.5 L 53 411.5 L 113 204.5 Q 120 187 133.5 176 Q 142.4 168.4 154.5 164 L 176.5 160 L 448 160 L 448 140.5 L 447 136.5 Q 442.7 123.8 433.5 116 L 419.5 108 L 410.5 106 L 238.5 106 Q 228.8 103.3 224 95.5 L 206 72.5 L 197.5 64 L 183.5 56 L 171.5 53 L 35.5 53 Q 17.3 56.8 8 69.5 L 0.5 86 L 0 0 Z " /><path fill="rgb(255,255,255)" stroke="rgb(255,255,255)" stroke-width="1" opacity="0.5411764705882353" d="M 35.5 53 L 172 53.5 L 35.5 54 L 35.5 53 Z " /><path fill="rgb(255,255,255)" stroke="rgb(255,255,255)" stroke-width="1" opacity="0.5411764705882353" d="M 31.5 54 L 34 54.5 L 31.5 55 L 31.5 54 Z " /><path fill="rgb(255,255,255)" stroke="rgb(255,255,255)" stroke-width="1" opacity="0.5411764705882353" d="M 174.5 54 L 177 54.5 L 174.5 55 L 174.5 54 Z " /><path fill="rgb(255,255,255)" stroke="rgb(255,255,255)" stroke-width="1" opacity="0.5411764705882353" d="M 178.5 55 Q 196.4 59.6 206 72.5 L 231.5 103 L 238 105.5 L 235.5 106 L 227 101 L 198.5 66 Q 190.6 58.9 178.5 56 L 178.5 55 Z " /><path fill="rgb(255,255,255)" stroke="rgb(255,255,255)" stroke-width="1" opacity="0.5411764705882353" d="M 25.5 56 L 27 56.5 Q 16.3 60.3 10 68.5 L 2.5 82 L 2 80.5 Q 6.4 68.9 15.5 62 L 25.5 56 Z " /><path fill="rgb(255,255,255)" stroke="rgb(255,255,255)" stroke-width="1" opacity="0.5411764705882353" d="M 1.5 83 L 2 85.5 L 0.5 92 L 0 86.5 L 1.5 83 Z " /><path fill="rgb(255,255,255)" stroke="rgb(255,255,255)" stroke-width="1" opacity="0.5411764705882353" d="M 239.5 106 L 411 106.5 L 239.5 107 L 239.5 106 Z " /><path fill="rgb(255,255,255)" stroke="rgb(255,255,255)" stroke-width="1" opacity="0.5411764705882353" d="M 412.5 107 L 416 107.5 L 412.5 108 L 412.5 107 Z " /><path fill="rgb(255,255,255)" stroke="rgb(255,255,255)" stroke-width="1" opacity="0.5411764705882353" d="M 417.5 108 Q 431.4 111.6 439 121.5 L 446 133.5 L 447 138.5 L 446 138.5 Q 441.9 122.1 429.5 114 L 417.5 109 L 417.5 108 Z " /><path fill="rgb(255,255,255)" stroke="rgb(255,255,255)" stroke-width="1" opacity="0.5411764705882353" d="M 447.5 140 L 448 144.5 L 447 144.5 L 447.5 140 Z " /><path fill="rgb(255,255,255)" stroke="rgb(255,255,255)" stroke-width="1" opacity="0.5411764705882353" d="M 167.5 160 L 176 160.5 L 167.5 161 L 167.5 160 Z " /><path fill="rgb(255,255,255)" stroke="rgb(255,255,255)" stroke-width="1" opacity="0.5411764705882353" d="M 162.5 161 L 166 161.5 L 162.5 162 L 162.5 161 Z " /><path fill="rgb(255,255,255)" stroke="rgb(255,255,255)" stroke-width="1" opacity="0.5411764705882353" d="M 158.5 162 L 161 162.5 L 158.5 163 L 158.5 162 Z " /><path fill="rgb(255,255,255)" stroke="rgb(255,255,255)" stroke-width="1" opacity="0.5411764705882353" d="M 154.5 163 L 157 163.5 Q 135.9 169.9 124 185.5 Q 113.6 197.6 109.5 216 L 109 213.5 Q 115.8 187.8 134.5 174 L 154.5 163 Z " /><path fill="rgb(255,255,255)" stroke="rgb(255,255,255)" stroke-width="1" opacity="0.5411764705882353" d="M 169.5 181 L 486.5 181 L 490 182.5 L 487.5 183 L 486.5 182 L 169.5 182 L 169.5 181 Z " /><path fill="rgb(255,255,255)" stroke="rgb(255,255,255)" stroke-width="1" opacity="0.5411764705882353" d="M 164.5 182 L 168 182.5 Q 151.3 185.8 142 196.5 Q 133.6 205.1 130.5 219 L 130 216.5 Q 134.8 200.3 146.5 191 L 164.5 182 Z " /><path fill="rgb(255,255,255)" stroke="rgb(255,255,255)" stroke-width="1" opacity="0.5411764705882353" d="M 491.5 183 Q 501.9 186 507 194.5 L 509 198.5 L 507 197.5 Q 505.4 190.6 499.5 188 L 491.5 184 L 491.5 183 Z " /><path fill="rgb(255,255,255)" stroke="rgb(255,255,255)" stroke-width="1" opacity="0.5411764705882353" d="M 509.5 200 L 511 204.5 L 510 204.5 L 509.5 200 Z " /><path fill="rgb(255,255,255)" stroke="rgb(255,255,255)" stroke-width="1" opacity="0.5411764705882353" d="M 511.5 206 L 512 210.5 L 511 210.5 L 511.5 206 Z " /><path fill="rgb(255,255,255)" stroke="rgb(255,255,255)" stroke-width="1" opacity="0.5411764705882353" d="M 511.5 216 L 512 220.5 L 511 220.5 L 511.5 216 Z " /><path fill="rgb(255,255,255)" stroke="rgb(255,255,255)" stroke-width="1" opacity="0.5411764705882353" d="M 108.5 217 L 109 219.5 L 107.5 223 L 107 220.5 L 108.5 217 Z " /><path fill="rgb(255,255,255)" stroke="rgb(255,255,255)" stroke-width="1" opacity="0.5411764705882353" d="M 129.5 220 L 130 222.5 L 128.5 226 L 128 223.5 L 129.5 220 Z " /><path fill="rgb(255,255,255)" stroke="rgb(255,255,255)" stroke-width="1" opacity="0.5411764705882353" d="M 510.5 222 L 511 224.5 L 510 224.5 L 510.5 222 Z " /><path fill="rgb(255,255,255)" stroke="rgb(255,255,255)" stroke-width="1" opacity="0.5411764705882353" d="M 106.5 224 L 107 226.5 L 102.5 240 L 102 237.5 L 106.5 224 Z " /><path fill="rgb(255,255,255)" stroke="rgb(255,255,255)" stroke-width="1" opacity="0.5411764705882353" d="M 509.5 226 L 510 228.5 L 507.5 235 L 507 232.5 L 509.5 226 Z " /><path fill="rgb(255,255,255)" stroke="rgb(255,255,255)" stroke-width="1" opacity="0.5411764705882353" d="M 127.5 227 L 128 229.5 L 126.5 233 L 126 230.5 L 127.5 227 Z " /><path fill="rgb(255,255,255)" stroke="rgb(255,255,255)" stroke-width="1" opacity="0.5411764705882353" d="M 125.5 234 L 126 236.5 L 123.5 243 L 123 240.5 L 125.5 234 Z " /><path fill="rgb(255,255,255)" stroke="rgb(255,255,255)" stroke-width="1" opacity="0.5411764705882353" d="M 506.5 236 L 507 238.5 L 505.5 242 L 505 239.5 L 506.5 236 Z " /><path fill="rgb(255,255,255)" stroke="rgb(255,255,255)" stroke-width="1" opacity="0.5411764705882353" d="M 101.5 241 L 102 243.5 L 100.5 247 L 100 244.5 L 101.5 241 Z " /><path fill="rgb(255,255,255)" stroke="rgb(255,255,255)" stroke-width="1" opacity="0.5411764705882353" d="M 504.5 243 L 505 245.5 L 503.5 249 L 503 246.5 L 504.5 243 Z " /><path fill="rgb(255,255,255)" stroke="rgb(255,255,255)" stroke-width="1" opacity="0.5411764705882353" d="M 122.5 244 L 123 246.5 L 121.5 250 L 121 247.5 L 122.5 244 Z " /><path fill="rgb(255,255,255)" stroke="rgb(255,255,255)" stroke-width="1" opacity="0.5411764705882353" d="M 99.5 248 L 100 250.5 L 95.5 264 L 95 261.5 L 99.5 248 Z " /><path fill="rgb(255,255,255)" stroke="rgb(255,255,255)" stroke-width="1" opacity="0.5411764705882353" d="M 502.5 250 L 503 252.5 L 500.5 259 L 500 256.5 L 502.5 250 Z " /><path fill="rgb(255,255,255)" stroke="rgb(255,255,255)" stroke-width="1" opacity="0.5411764705882353" d="M 120.5 251 L 121 253.5 L 119.5 257 L 119 254.5 L 120.5 251 Z " /><path fill="rgb(255,255,255)" stroke="rgb(255,255,255)" stroke-width="1" opacity="0.5411764705882353" d="M 118.5 258 L 119 260.5 L 116.5 267 L 116 264.5 L 118.5 258 Z " /><path fill="rgb(255,255,255)" stroke="rgb(255,255,255)" stroke-width="1" opacity="0.5411764705882353" d="M 499.5 260 L 500 262.5 L 498.5 266 L 498 263.5 L 499.5 260 Z " /><path fill="rgb(255,255,255)" stroke="rgb(255,255,255)" stroke-width="1" opacity="0.5411764705882353" d="M 94.5 265 L 95 267.5 L 93.5 271 L 93 268.5 L 94.5 265 Z " /><path fill="rgb(255,255,255)" stroke="rgb(255,255,255)" stroke-width="1" opacity="0.5411764705882353" d="M 497.5 267 L 498 269.5 L 496.5 273 L 496 270.5 L 497.5 267 Z " /><path fill="rgb(255,255,255)" stroke="rgb(255,255,255)" stroke-width="1" opacity="0.5411764705882353" d="M 115.5 268 L 116 270.5 L 114.5 274 L 114 271.5 L 115.5 268 Z " /><path fill="rgb(255,255,255)" stroke="rgb(255,255,255)" stroke-width="1" opacity="0.5411764705882353" d="M 92.5 272 L 93 274.5 L 88.5 288 L 88 285.5 L 92.5 272 Z " /><path fill="rgb(255,255,255)" stroke="rgb(255,255,255)" stroke-width="1" opacity="0.5411764705882353" d="M 495.5 274 L 496 276.5 L 493.5 283 L 493 280.5 L 495.5 274 Z " /><path fill="rgb(255,255,255)" stroke="rgb(255,255,255)" stroke-width="1" opacity="0.5411764705882353" d="M 113.5 275 L 114 277.5 L 112.5 281 L 112 278.5 L 113.5 275 Z " /><path fill="rgb(255,255,255)" stroke="rgb(255,255,255)" stroke-width="1" opacity="0.5411764705882353" d="M 111.5 282 L 112 284.5 L 109.5 291 L 109 288.5 L 111.5 282 Z " /><path fill="rgb(255,255,255)" stroke="rgb(255,255,255)" stroke-width="1" opacity="0.5411764705882353" d="M 492.5 284 L 493 286.5 L 491.5 290 L 491 287.5 L 492.5 284 Z " /><path fill="rgb(255,255,255)" stroke="rgb(255,255,255)" stroke-width="1" opacity="0.5411764705882353" d="M 87.5 289 L 88 291.5 L 86.5 295 L 86 292.5 L 87.5 289 Z " /><path fill="rgb(255,255,255)" stroke="rgb(255,255,255)" stroke-width="1" opacity="0.5411764705882353" d="M 490.5 291 L 491 293.5 L 489.5 297 L 489 294.5 L 490.5 291 Z " /><path fill="rgb(255,255,255)" stroke="rgb(255,255,255)" stroke-width="1" opacity="0.5411764705882353" d="M 108.5 292 L 109 294.5 L 107.5 298 L 107 295.5 L 108.5 292 Z " /><path fill="rgb(255,255,255)" stroke="rgb(255,255,255)" stroke-width="1" opacity="0.5411764705882353" d="M 85.5 296 L 86 298.5 L 83.5 305 L 83 302.5 L 85.5 296 Z " /><path fill="rgb(255,255,255)" stroke="rgb(255,255,255)" stroke-width="1" opacity="0.5411764705882353" d="M 488.5 298 L 489 300.5 L 486.5 307 L 486 304.5 L 488.5 298 Z " /><path fill="rgb(255,255,255)" stroke="rgb(255,255,255)" stroke-width="1" opacity="0.5411764705882353" d="M 106.5 299 L 107 301.5 L 105.5 305 L 105 302.5 L 106.5 299 Z " /><path fill="rgb(255,255,255)" stroke="rgb(255,255,255)" stroke-width="1" opacity="0.5411764705882353" d="M 82.5 306 L 83 308.5 L 81.5 312 L 81 309.5 L 82.5 306 Z " /><path fill="rgb(255,255,255)" stroke="rgb(255,255,255)" stroke-width="1" opacity="0.5411764705882353" d="M 104.5 306 L 105 308.5 L 102.5 315 L 102 312.5 L 104.5 306 Z " /><path fill="rgb(255,255,255)" stroke="rgb(255,255,255)" stroke-width="1" opacity="0.5411764705882353" d="M 485.5 308 L 486 310.5 L 484.5 314 L 484 311.5 L 485.5 308 Z " /><path fill="rgb(255,255,255)" stroke="rgb(255,255,255)" stroke-width="1" opacity="0.5411764705882353" d="M 80.5 313 L 81 315.5 L 79.5 319 L 79 316.5 L 80.5 313 Z " /><path fill="rgb(255,255,255)" stroke="rgb(255,255,255)" stroke-width="1" opacity="0.5411764705882353" d="M 483.5 315 L 484 317.5 L 482.5 321 L 482 318.5 L 483.5 315 Z " /><path fill="rgb(255,255,255)" stroke="rgb(255,255,255)" stroke-width="1" opacity="0.5411764705882353" d="M 101.5 316 L 102 318.5 L 100.5 322 L 100 319.5 L 101.5 316 Z " /><path fill="rgb(255,255,255)" stroke="rgb(255,255,255)" stroke-width="1" opacity="0.5411764705882353" d="M 78.5 320 L 79 322.5 L 76.5 329 L 76 326.5 L 78.5 320 Z " /><path fill="rgb(255,255,255)" stroke="rgb(255,255,255)" stroke-width="1" opacity="0.5411764705882353" d="M 481.5 322 L 482 324.5 L 479.5 331 L 479 328.5 L 481.5 322 Z " /><path fill="rgb(255,255,255)" stroke="rgb(255,255,255)" stroke-width="1" opacity="0.5411764705882353" d="M 99.5 323 L 100 325.5 L 98.5 329 L 98 326.5 L 99.5 323 Z " /><path fill="rgb(255,255,255)" stroke="rgb(255,255,255)" stroke-width="1" opacity="0.5411764705882353" d="M 75.5 330 L 76 332.5 L 74.5 336 L 74 333.5 L 75.5 330 Z " /><path fill="rgb(255,255,255)" stroke="rgb(255,255,255)" stroke-width="1" opacity="0.5411764705882353" d="M 97.5 330 L 98 332.5 L 95.5 339 L 95 336.5 L 97.5 330 Z " /><path fill="rgb(255,255,255)" stroke="rgb(255,255,255)" stroke-width="1" opacity="0.5411764705882353" d="M 478.5 332 L 479 334.5 L 477.5 338 L 477 335.5 L 478.5 332 Z " /><path fill="rgb(255,255,255)" stroke="rgb(255,255,255)" stroke-width="1" opacity="0.5411764705882353" d="M 73.5 337 L 74 339.5 L 72.5 343 L 72 340.5 L 73.5 337 Z " /><path fill="rgb(255,255,255)" stroke="rgb(255,255,255)" stroke-width="1" opacity="0.5411764705882353" d="M 476.5 339 L 477 341.5 L 475.5 345 L 475 342.5 L 476.5 339 Z " /><path fill="rgb(255,255,255)" stroke="rgb(255,255,255)" stroke-width="1" opacity="0.5411764705882353" d="M 94.5 340 L 95 342.5 L 93.5 346 L 93 343.5 L 94.5 340 Z " /><path fill="rgb(255,255,255)" stroke="rgb(255,255,255)" stroke-width="1" opacity="0.5411764705882353" d="M 71.5 344 L 72 346.5 L 69.5 353 L 69 350.5 L 71.5 344 Z " /><path fill="rgb(255,255,255)" stroke="rgb(255,255,255)" stroke-width="1" opacity="0.5411764705882353" d="M 474.5 346 L 475 348.5 L 472.5 355 L 472 352.5 L 474.5 346 Z " /><path fill="rgb(255,255,255)" stroke="rgb(255,255,255)" stroke-width="1" opacity="0.5411764705882353" d="M 92.5 347 L 93 349.5 L 91.5 353 L 91 350.5 L 92.5 347 Z " /><path fill="rgb(255,255,255)" stroke="rgb(255,255,255)" stroke-width="1" opacity="0.5411764705882353" d="M 68.5 354 L 69 356.5 L 67.5 360 L 67 357.5 L 68.5 354 Z " /><path fill="rgb(255,255,255)" stroke="rgb(255,255,255)" stroke-width="1" opacity="0.5411764705882353" d="M 90.5 354 L 91 356.5 L 88.5 363 L 88 360.5 L 90.5 354 Z " /><path fill="rgb(255,255,255)" stroke="rgb(255,255,255)" stroke-width="1" opacity="0.5411764705882353" d="M 471.5 356 L 472 358.5 L 470.5 362 L 470 359.5 L 471.5 356 Z " /><path fill="rgb(255,255,255)" stroke="rgb(255,255,255)" stroke-width="1" opacity="0.5411764705882353" d="M 66.5 361 L 67 363.5 L 65.5 367 L 65 364.5 L 66.5 361 Z " /><path fill="rgb(255,255,255)" stroke="rgb(255,255,255)" stroke-width="1" opacity="0.5411764705882353" d="M 469.5 363 L 470 365.5 L 465.5 379 L 465 376.5 L 469.5 363 Z " /><path fill="rgb(255,255,255)" stroke="rgb(255,255,255)" stroke-width="1" opacity="0.5411764705882353" d="M 87.5 364 L 88 366.5 L 86.5 370 L 86 367.5 L 87.5 364 Z " /><path fill="rgb(255,255,255)" stroke="rgb(255,255,255)" stroke-width="1" opacity="0.5411764705882353" d="M 64.5 368 L 65 370.5 L 62.5 377 L 62 374.5 L 64.5 368 Z " /><path fill="rgb(255,255,255)" stroke="rgb(255,255,255)" stroke-width="1" opacity="0.5411764705882353" d="M 85.5 371 L 86 373.5 L 84.5 377 L 84 374.5 L 85.5 371 Z " /><path fill="rgb(255,255,255)" stroke="rgb(255,255,255)" stroke-width="1" opacity="0.5411764705882353" d="M 61.5 378 L 62 380.5 L 60.5 384 L 60 381.5 L 61.5 378 Z " /><path fill="rgb(255,255,255)" stroke="rgb(255,255,255)" stroke-width="1" opacity="0.5411764705882353" d="M 83.5 378 L 84 380.5 L 81.5 387 L 81 384.5 L 83.5 378 Z " /><path fill="rgb(255,255,255)" stroke="rgb(255,255,255)" stroke-width="1" opacity="0.5411764705882353" d="M 464.5 380 L 465 382.5 L 463.5 386 L 463 383.5 L 464.5 380 Z " /><path fill="rgb(255,255,255)" stroke="rgb(255,255,255)" stroke-width="1" opacity="0.5411764705882353" d="M 59.5 385 L 60 387.5 L 58.5 391 L 58 388.5 L 59.5 385 Z " /><path fill="rgb(255,255,255)" stroke="rgb(255,255,255)" stroke-width="1" opacity="0.5411764705882353" d="M 462.5 387 L 463 389.5 L 458.5 403 L 458 400.5 L 462.5 387 Z " /><path fill="rgb(255,255,255)" stroke="rgb(255,255,255)" stroke-width="1" opacity="0.5411764705882353" d="M 80.5 388 L 81 390.5 L 79.5 394 L 79 391.5 L 80.5 388 Z " /><path fill="rgb(255,255,255)" stroke="rgb(255,255,255)" stroke-width="1" opacity="0.5411764705882353" d="M 57.5 392 L 58 394.5 L 55.5 401 L 55 398.5 L 57.5 392 Z " /><path fill="rgb(255,255,255)" stroke="rgb(255,255,255)" stroke-width="1" opacity="0.5411764705882353" d="M 78.5 395 L 79 397.5 L 77.5 401 L 77 398.5 L 78.5 395 Z " /><path fill="rgb(255,255,255)" stroke="rgb(255,255,255)" stroke-width="1" opacity="0.5411764705882353" d="M 54.5 402 L 55 404.5 L 53.5 408 L 53 405.5 L 54.5 402 Z " /><path fill="rgb(255,255,255)" stroke="rgb(255,255,255)" stroke-width="1" opacity="0.5411764705882353" d="M 76.5 402 L 77 404.5 L 74.5 411 L 74 408.5 L 76.5 402 Z " /><path fill="rgb(255,255,255)" stroke="rgb(255,255,255)" stroke-width="1" opacity="0.5411764705882353" d="M 457.5 404 L 458 406.5 L 456.5 410 L 456 407.5 L 457.5 404 Z " /><path fill="rgb(255,255,255)" stroke="rgb(255,255,255)" stroke-width="1" opacity="0.5411764705882353" d="M 52.5 409 L 53 411.5 Q 49.9 423.9 41.5 431 L 34.5 435 L 34.5 434 L 44 427.5 Q 50.2 420.2 52.5 409 Z " /><path fill="rgb(255,255,255)" stroke="rgb(255,255,255)" stroke-width="1" opacity="0.5411764705882353" d="M 455.5 411 L 456 413.5 L 449 432.5 L 434.5 449 L 424.5 455 L 417.5 457 L 417.5 456 Q 434.7 451.2 444 438.5 L 450 428.5 L 455.5 411 Z " /><path fill="rgb(255,255,255)" stroke="rgb(255,255,255)" stroke-width="1" opacity="0.5411764705882353" d="M 73.5 412 L 74 414.5 L 72.5 418 L 72 415.5 L 73.5 412 Z " /><path fill="rgb(255,255,255)" stroke="rgb(255,255,255)" stroke-width="1" opacity="0.5411764705882353" d="M 0.5 419 Q 2 428.5 8.5 433 L 13 435.5 L 11.5 436 L 3 428.5 L 0 422.5 L 0.5 419 Z " /><path fill="rgb(255,255,255)" stroke="rgb(255,255,255)" stroke-width="1" opacity="0.5411764705882353" d="M 71.5 419 L 72 421.5 Q 66.2 439.2 52.5 449 L 39.5 456 L 34.5 457 L 34.5 456 Q 52.6 451.6 62 438.5 Q 68.9 430.9 71.5 419 Z " /><path fill="rgb(255,255,255)" stroke="rgb(255,255,255)" stroke-width="1" opacity="0.5411764705882353" d="M 14.5 436 L 26 437.5 L 17.5 438 L 14.5 437 L 14.5 436 Z " /><path fill="rgb(255,255,255)" stroke="rgb(255,255,255)" stroke-width="1" opacity="0.5411764705882353" d="M 27.5 436 L 30 436.5 L 27.5 437 L 27.5 436 Z " /><path fill="rgb(255,255,255)" stroke="rgb(255,255,255)" stroke-width="1" opacity="0.5411764705882353" d="M 29.5 457 L 33.5 458 L 411 458.5 L 22.5 459 L 22.5 458 Q 28 459.5 29.5 457 Z " /><path fill="rgb(255,255,255)" stroke="rgb(255,255,255)" stroke-width="1" opacity="0.5411764705882353" d="M 412.5 457 L 416 457.5 L 412.5 458 L 412.5 457 Z " /><path fill="rgb(255,255,255)" stroke="rgb(255,255,255)" stroke-width="1" opacity="1" d="M 34.5 54 L 173.5 54 Q 193 58.5 204 71.5 L 227 101 L 239.5 107 L 411.5 107 Q 430.8 110.7 440 124.5 L 447 139.5 L 448 160 L 167.5 160 Q 137.1 165.6 122 186.5 Q 113.1 197.6 109 213.5 L 53 408.5 L 47 423.5 L 42.5 429 L 30.5 436 L 17.5 437 Q 8.4 435.1 4 428.5 L 0 418.5 L 0 92.5 L 2 82.5 L 7 72.5 L 15.5 63 Q 23 56.5 34.5 54 Z " /><path fill="rgb(255,255,255)" stroke="rgb(255,255,255)" stroke-width="1" opacity="1" d="M 168.5 182 L 486.5 182 Q 499.2 185.3 506 194.5 Q 512 202 512 215.5 L 453 420.5 Q 448 437.5 435.5 447 Q 426.2 455.2 411.5 458 L 33.5 458 L 33.5 457 Q 54 452.5 64 437.5 L 72 421.5 L 130 219.5 Q 134.3 202.8 145.5 193 Q 154.4 184.9 168.5 182 Z " /></svg>