<svg width="64" height="64" version="1.1" xmlns="http://www.w3.org/2000/svg" desc="Created with imagetracer.js version 1.2.6" ><path fill="rgb(255,255,255)" stroke="rgb(255,255,255)" stroke-width="1" opacity="0.9686274509803922" d="M 16.5 21 L 14.5 24 L 16.5 21 Z " /><path fill="rgb(255,255,255)" stroke="rgb(255,255,255)" stroke-width="1" opacity="0.9686274509803922" d="M 5.5 52 L 4.5 54 L 5.5 52 Z " /><path fill="rgb(255,255,255)" stroke="rgb(255,255,255)" stroke-width="1" opacity="1" d="M 4.5 7 L 21.5 7 L 29.5 14 L 52.5 14 L 55 16.5 L 56 19.5 L 18.5 20 L 14 23.5 L 7 49.5 L 3.5 54 Q 0.2 55.1 1 52.5 L 0 51.5 L 0 12.5 L 2.5 8 L 4.5 7 Z " /><path fill="rgb(255,255,255)" stroke="rgb(255,255,255)" stroke-width="1" opacity="1" d="M 20.5 23 L 60.5 23 L 63 24 L 63 29.5 L 58 47.5 L 56 53.5 L 53.5 56 L 51.5 57 L 7.5 57 L 9 54.5 L 17 26.5 L 20.5 23 Z " /><path fill="rgb(255,255,255)" stroke="rgb(255,255,255)" stroke-width="1" opacity="0.34509803921568627" d="M 3.5 6 L 22.5 6 L 28 10.5 Q 27.3 12.8 29.5 12 L 29.5 13 L 27 11.5 L 24.5 8 L 22.5 7 L 3.5 7 L 1 8 L 0.5 10 L 0 8.5 L 3.5 6 Z " /><path fill="rgb(255,255,255)" stroke="rgb(255,255,255)" stroke-width="1" opacity="0.34509803921568627" d="M 51.5 13 Q 55.5 12.5 56 15.5 L 55.5 17 L 53.5 14 Q 50.5 14.5 51.5 13 Z " /><path fill="rgb(255,255,255)" stroke="rgb(255,255,255)" stroke-width="1" opacity="0.34509803921568627" d="M 19.5 20 L 22 20.5 L 19.5 21 L 19.5 20 Z " /><path fill="rgb(255,255,255)" stroke="rgb(255,255,255)" stroke-width="1" opacity="0.34509803921568627" d="M 17.5 21 L 15 24.5 L 14.5 26 L 14 24.5 L 17.5 21 Z " /><path fill="rgb(255,255,255)" stroke="rgb(255,255,255)" stroke-width="1" opacity="0.34509803921568627" d="M 20.5 22 L 61.5 22 L 64 24.5 L 61.5 23 L 20.5 23 L 20.5 22 Z " /><path fill="rgb(255,255,255)" stroke="rgb(255,255,255)" stroke-width="1" opacity="0.34509803921568627" d="M 18.5 23 L 17 25.5 L 16.5 27 L 16 25.5 L 18.5 23 Z " /><path fill="rgb(255,255,255)" stroke="rgb(255,255,255)" stroke-width="1" opacity="0.34509803921568627" d="M 13.5 27 L 14 29.5 L 13 29.5 L 13.5 27 Z " /><path fill="rgb(255,255,255)" stroke="rgb(255,255,255)" stroke-width="1" opacity="0.34509803921568627" d="M 14.5 31 L 15 33.5 L 14 33.5 L 14.5 31 Z " /><path fill="rgb(255,255,255)" stroke="rgb(255,255,255)" stroke-width="1" opacity="0.34509803921568627" d="M 61.5 35 L 62 37.5 L 61 37.5 L 61.5 35 Z " /><path fill="rgb(255,255,255)" stroke="rgb(255,255,255)" stroke-width="1" opacity="0.34509803921568627" d="M 10.5 37 L 11 39.5 L 10 39.5 L 10.5 37 Z " /><path fill="rgb(255,255,255)" stroke="rgb(255,255,255)" stroke-width="1" opacity="0.34509803921568627" d="M 12.5 38 L 13 40.5 L 12 40.5 L 12.5 38 Z " /><path fill="rgb(255,255,255)" stroke="rgb(255,255,255)" stroke-width="1" opacity="0.34509803921568627" d="M 59.5 42 L 60 44.5 L 59 44.5 L 59.5 42 Z " /><path fill="rgb(255,255,255)" stroke="rgb(255,255,255)" stroke-width="1" opacity="0.34509803921568627" d="M 8.5 44 L 9 46.5 L 8 46.5 L 8.5 44 Z " /><path fill="rgb(255,255,255)" stroke="rgb(255,255,255)" stroke-width="1" opacity="0.34509803921568627" d="M 10.5 45 L 11 47.5 L 10 47.5 L 10.5 45 Z " /><path fill="rgb(255,255,255)" stroke="rgb(255,255,255)" stroke-width="1" opacity="0.34509803921568627" d="M 57.5 49 L 58 51.5 L 57 51.5 L 57.5 49 Z " /><path fill="rgb(255,255,255)" stroke="rgb(255,255,255)" stroke-width="1" opacity="0.34509803921568627" d="M 6.5 51 L 7 52.5 L 3.5 55 L 3.5 54 L 6 52.5 L 6.5 51 Z " /><path fill="rgb(255,255,255)" stroke="rgb(255,255,255)" stroke-width="1" opacity="0.34509803921568627" d="M 8.5 52 L 9 53.5 L 6.5 57 L 52.5 57 L 55.5 55 L 54.5 57 L 52.5 58 L 3.5 58 L 4.5 56 L 8 53.5 L 8.5 52 Z " /><path fill="rgb(255,255,255)" stroke="rgb(255,255,255)" stroke-width="1" opacity="0.34509803921568627" d="M 0.5 53 L 1.5 55 L 0.5 53 Z " /><path fill="rgb(0,0,0)" stroke="rgb(0,0,0)" stroke-width="1" opacity="0" d="M 0 0 L 64 0 L 64 23.5 L 61.5 22 L 20.5 22 L 16 25.5 L 9 51.5 L 5.5 56 L 3 57.5 L 52.5 58 L 56 55.5 L 63.5 31 L 64 64 L 0.5 64 L 0 63.5 L 0 54.5 L 1.5 55 Q 6.3 55.8 7 52.5 L 14 26.5 L 18.5 21 L 22.5 20 L 56 20 Q 57.3 14.5 53.5 13 L 30.5 13 L 28 12 L 24.5 7 L 22.5 6 L 3.5 6 L 0.5 8 L 0 0 Z " /><path fill="rgb(255,255,255)" stroke="rgb(255,255,255)" stroke-width="1" opacity="0.8509803921568627" d="M 24.5 8 L 26.5 11 L 24.5 8 Z " /><path fill="rgb(255,255,255)" stroke="rgb(255,255,255)" stroke-width="1" opacity="0.8509803921568627" d="M 29.5 13 L 51 13.5 L 29.5 14 L 29.5 13 Z " /><path fill="rgb(255,255,255)" stroke="rgb(255,255,255)" stroke-width="1" opacity="0.8509803921568627" d="M 53.5 14 L 54.5 16 L 53.5 14 Z " /><path fill="rgb(255,255,255)" stroke="rgb(255,255,255)" stroke-width="1" opacity="0.8509803921568627" d="M 55.5 54 L 54.5 56 L 55.5 54 Z " /><path fill="rgb(255,255,255)" stroke="rgb(255,255,255)" stroke-width="1" opacity="0.8509803921568627" d="M 7.5 55 L 6.5 57 L 7.5 55 Z " /></svg>