<svg width="32" height="32" version="1.1" xmlns="http://www.w3.org/2000/svg" desc="Created with imagetracer.js version 1.2.6" ><path fill="rgb(0,0,0)" stroke="rgb(0,0,0)" stroke-width="1" opacity="0.09803921568627451" d="M 9.5 6 L 9 7.5 L 8.5 9 L 8 7.5 L 9.5 6 Z " /><path fill="rgb(0,0,0)" stroke="rgb(0,0,0)" stroke-width="1" opacity="0.09803921568627451" d="M 9.5 10 L 9 11.5 L 8.5 13 L 8 11.5 L 9.5 10 Z " /><path fill="rgb(0,0,0)" stroke="rgb(0,0,0)" stroke-width="1" opacity="0.09803921568627451" d="M 9.5 14 L 9 15.5 L 8.5 17 L 8 15.5 L 9.5 14 Z " /><path fill="rgb(0,0,0)" stroke="rgb(0,0,0)" stroke-width="1" opacity="0.9490196078431372" d="M 18.5 24 L 19 25.5 L 17 26.5 L 18.5 24 Z " /><path fill="rgb(0,0,0)" stroke="rgb(0,0,0)" stroke-width="1" opacity="0" d="M 0 0 L 31.5 0 L 32 2 L 29.5 1 L 6.5 1 L 4 3.5 L 4 22 L 0 21.5 L 0 0 Z " /><path fill="rgb(0,0,0)" stroke="rgb(0,0,0)" stroke-width="1" opacity="0" d="M 7 4 L 24 4 L 24 26.5 L 20 28 L 19 22 L 7 22 L 7 4 Z M 10 6 L 8 9 L 16 9 L 16 8 Q 15 5 10 6 Z M 10 10 L 8 13 L 22 13 L 22 12 L 21 10 L 10 10 Z M 10 14 L 8 17 L 22 17 L 22 16 L 21 14 L 10 14 Z M 10 18 L 8 21 L 22 21 L 22 20 L 21 18 L 10 18 Z " /><path fill="rgb(0,0,0)" stroke="rgb(0,0,0)" stroke-width="1" opacity="0" d="M 27 4 L 30 5.5 Q 31.1 9.7 27 8 L 27 4 Z " /><path fill="rgb(0,0,0)" stroke="rgb(0,0,0)" stroke-width="1" opacity="0" d="M 27 11 L 32 11.5 L 32 32 L 0.5 32 L 0 29.5 L 2.5 31 L 23.5 31 L 26 30 L 27 27.5 L 27 11 Z " /><path fill="rgb(0,0,0)" stroke="rgb(0,0,0)" stroke-width="1" opacity="0" d="M 2.5 25 L 15.5 25 L 17 26.5 L 16.5 28 L 3 28 L 2.5 25 Z " /><path fill="rgb(0,0,0)" stroke="rgb(0,0,0)" stroke-width="1" opacity="0.5647058823529412" d="M 27.5 3 L 26.5 5 L 27.5 3 Z " /><path fill="rgb(0,0,0)" stroke="rgb(0,0,0)" stroke-width="1" opacity="0.5647058823529412" d="M 24.5 4 L 25 25.5 L 24 25.5 L 24.5 4 Z " /><path fill="rgb(0,0,0)" stroke="rgb(0,0,0)" stroke-width="1" opacity="0.5647058823529412" d="M 4.5 5 L 5 21.5 L 4 21.5 L 4.5 5 Z " /><path fill="rgb(0,0,0)" stroke="rgb(0,0,0)" stroke-width="1" opacity="0.5647058823529412" d="M 6.5 5 L 7 17.5 L 6 17.5 L 6.5 5 Z " /><path fill="rgb(0,0,0)" stroke="rgb(0,0,0)" stroke-width="1" opacity="0.5647058823529412" d="M 27.5 8 L 30 8.5 L 27.5 9 L 27.5 8 Z " /><path fill="rgb(0,0,0)" stroke="rgb(0,0,0)" stroke-width="1" opacity="0.5647058823529412" d="M 27.5 10 L 31 10.5 L 27.5 11 L 27.5 10 Z " /><path fill="rgb(0,0,0)" stroke="rgb(0,0,0)" stroke-width="1" opacity="0.5647058823529412" d="M 2.5 24 L 17 24.5 L 2.5 25 L 2.5 24 Z " /><path fill="rgb(0,0,0)" stroke="rgb(0,0,0)" stroke-width="1" opacity="0.3176470588235294" d="M 8.5 3 L 25 3.5 L 8.5 4 L 8.5 3 Z " /><path fill="rgb(0,0,0)" stroke="rgb(0,0,0)" stroke-width="1" opacity="0.3176470588235294" d="M 28.5 3 L 29.5 5 L 28.5 3 Z " /><path fill="rgb(0,0,0)" stroke="rgb(0,0,0)" stroke-width="1" opacity="0.3176470588235294" d="M 26.5 5 L 27 7.5 L 26 7.5 L 26.5 5 Z " /><path fill="rgb(0,0,0)" stroke="rgb(0,0,0)" stroke-width="1" opacity="0.3176470588235294" d="M 10.5 6 L 15 6.5 L 10.5 7 L 10.5 6 Z " /><path fill="rgb(0,0,0)" stroke="rgb(0,0,0)" stroke-width="1" opacity="0.3176470588235294" d="M 10.5 10 L 21 10.5 L 10.5 11 L 10.5 10 Z " /><path fill="rgb(0,0,0)" stroke="rgb(0,0,0)" stroke-width="1" opacity="0.3176470588235294" d="M 26.5 11 L 27 26.5 L 26 26.5 L 26.5 11 Z " /><path fill="rgb(0,0,0)" stroke="rgb(0,0,0)" stroke-width="1" opacity="0.3176470588235294" d="M 10.5 14 L 21 14.5 L 10.5 15 L 10.5 14 Z " /><path fill="rgb(0,0,0)" stroke="rgb(0,0,0)" stroke-width="1" opacity="0.3176470588235294" d="M 6.5 18 L 7 22 L 18 22.5 L 7.5 23 Q 4.8 21.8 6.5 18 Z " /><path fill="rgb(0,0,0)" stroke="rgb(0,0,0)" stroke-width="1" opacity="0.3176470588235294" d="M 10.5 18 L 21 18.5 L 10.5 19 L 10.5 18 Z " /><path fill="rgb(0,0,0)" stroke="rgb(0,0,0)" stroke-width="1" opacity="0.3176470588235294" d="M 1.5 22 L 4 22.5 L 1.5 23 L 1.5 22 Z " /><path fill="rgb(0,0,0)" stroke="rgb(0,0,0)" stroke-width="1" opacity="0.3176470588235294" d="M 0.5 28 L 1.5 30 L 0.5 28 Z " /><path fill="rgb(0,0,0)" stroke="rgb(0,0,0)" stroke-width="1" opacity="0.3176470588235294" d="M 4.5 28 L 18 28.5 L 4.5 29 L 4.5 28 Z " /><path fill="rgb(0,0,0)" stroke="rgb(0,0,0)" stroke-width="1" opacity="1" d="M 6.5 2 L 29.5 2 L 31 3.5 L 32 8.5 Q 30.6 11.3 26 10 L 26 27.5 L 23.5 30 L 5 29.5 L 18 29 L 17 24 L 2.5 24 L 2 27.5 L 3.5 30 L 1 29 L 0 24.5 Q 1.2 22 5 23 L 5 3.5 L 6.5 2 Z M 8 3 L 6 5 L 6 23 L 18 23 L 19 28 Q 20 30 24 29 L 25 27 L 25 3 L 8 3 Z M 28 3 L 26 5 Q 24 11 30 9 L 30 3 L 28 3 Z " /><path fill="rgb(0,0,0)" stroke="rgb(0,0,0)" stroke-width="1" opacity="1" d="M 9.5 7 L 15 7.5 L 9.5 8 L 9.5 7 Z " /><path fill="rgb(0,0,0)" stroke="rgb(0,0,0)" stroke-width="1" opacity="1" d="M 9.5 11 L 21 11.5 L 9.5 12 L 9.5 11 Z " /><path fill="rgb(0,0,0)" stroke="rgb(0,0,0)" stroke-width="1" opacity="1" d="M 9.5 15 L 21 15.5 L 9.5 16 L 9.5 15 Z " /><path fill="rgb(0,0,0)" stroke="rgb(0,0,0)" stroke-width="1" opacity="1" d="M 9.5 19 L 21 19.5 L 9.5 20 L 9.5 19 Z " /><path fill="rgb(0,0,0)" stroke="rgb(0,0,0)" stroke-width="1" opacity="0.7568627450980392" d="M 8.5 1 L 27 1.5 L 8.5 2 L 8.5 1 Z " /><path fill="rgb(0,0,0)" stroke="rgb(0,0,0)" stroke-width="1" opacity="0.7568627450980392" d="M 15.5 7 L 14.5 9 L 9 8.5 L 15.5 7 Z " /><path fill="rgb(0,0,0)" stroke="rgb(0,0,0)" stroke-width="1" opacity="0.7568627450980392" d="M 9.5 12 L 21 12.5 L 9.5 13 L 9.5 12 Z " /><path fill="rgb(0,0,0)" stroke="rgb(0,0,0)" stroke-width="1" opacity="0.7568627450980392" d="M 10.5 16 L 21 16.5 L 10.5 17 L 10.5 16 Z " /><path fill="rgb(0,0,0)" stroke="rgb(0,0,0)" stroke-width="1" opacity="0.7568627450980392" d="M 10.5 20 L 21 20.5 L 10.5 21 L 10.5 20 Z " /><path fill="rgb(0,0,0)" stroke="rgb(0,0,0)" stroke-width="1" opacity="0.7568627450980392" d="M 4.5 30 L 20 30.5 L 4.5 31 L 4.5 30 Z " /></svg>