<svg width="512" height="512" version="1.1" xmlns="http://www.w3.org/2000/svg" desc="Created with imagetracer.js version 1.2.6" ><path fill="rgb(0,0,0)" stroke="rgb(0,0,0)" stroke-width="1" opacity="0.25882352941176473" d="M 127.5 19 L 449 19.5 L 127.5 20 L 127.5 19 Z " /><path fill="rgb(0,0,0)" stroke="rgb(0,0,0)" stroke-width="1" opacity="0.25882352941176473" d="M 451.5 19 L 456 19.5 L 451.5 20 L 451.5 19 Z " /><path fill="rgb(0,0,0)" stroke="rgb(0,0,0)" stroke-width="1" opacity="0.25882352941176473" d="M 119.5 20 L 122 20.5 L 119.5 21 L 119.5 20 Z " /><path fill="rgb(0,0,0)" stroke="rgb(0,0,0)" stroke-width="1" opacity="0.25882352941176473" d="M 461.5 20 L 464 20.5 L 461.5 21 L 461.5 20 Z " /><path fill="rgb(0,0,0)" stroke="rgb(0,0,0)" stroke-width="1" opacity="0.25882352941176473" d="M 486.5 30 L 487.5 32 L 486.5 30 Z " /><path fill="rgb(0,0,0)" stroke="rgb(0,0,0)" stroke-width="1" opacity="0.25882352941176473" d="M 95.5 31 L 94.5 33 L 95.5 31 Z " /><path fill="rgb(0,0,0)" stroke="rgb(0,0,0)" stroke-width="1" opacity="0.25882352941176473" d="M 491.5 34 L 497.5 41 L 491.5 34 Z " /><path fill="rgb(0,0,0)" stroke="rgb(0,0,0)" stroke-width="1" opacity="0.25882352941176473" d="M 85.5 41 L 84.5 43 L 85.5 41 Z " /><path fill="rgb(0,0,0)" stroke="rgb(0,0,0)" stroke-width="1" opacity="0.25882352941176473" d="M 435.5 56 L 434.5 58 L 435.5 56 Z " /><path fill="rgb(0,0,0)" stroke="rgb(0,0,0)" stroke-width="1" opacity="0.25882352941176473" d="M 114.5 57 L 110.5 62 L 114.5 57 Z " /><path fill="rgb(0,0,0)" stroke="rgb(0,0,0)" stroke-width="1" opacity="0.25882352941176473" d="M 468.5 57 L 469.5 59 L 468.5 57 Z " /><path fill="rgb(0,0,0)" stroke="rgb(0,0,0)" stroke-width="1" opacity="0.25882352941176473" d="M 429.5 62 L 428.5 64 L 429.5 62 Z " /><path fill="rgb(0,0,0)" stroke="rgb(0,0,0)" stroke-width="1" opacity="0.25882352941176473" d="M 473.5 62 L 474.5 64 L 473.5 62 Z " /><path fill="rgb(0,0,0)" stroke="rgb(0,0,0)" stroke-width="1" opacity="0.25882352941176473" d="M 73.5 66 L 74 68.5 L 73 68.5 L 73.5 66 Z " /><path fill="rgb(0,0,0)" stroke="rgb(0,0,0)" stroke-width="1" opacity="0.25882352941176473" d="M 511.5 70 L 512 72.5 L 511 72.5 L 511.5 70 Z " /><path fill="rgb(0,0,0)" stroke="rgb(0,0,0)" stroke-width="1" opacity="0.25882352941176473" d="M 423.5 74 L 424 76.5 L 423 76.5 L 423.5 74 Z " /><path fill="rgb(0,0,0)" stroke="rgb(0,0,0)" stroke-width="1" opacity="0.25882352941176473" d="M 479.5 74 L 480 77.5 L 479 77.5 L 479.5 74 Z " /><path fill="rgb(0,0,0)" stroke="rgb(0,0,0)" stroke-width="1" opacity="0.25882352941176473" d="M 72.5 75 L 73 111.5 L 72 111.5 L 72.5 75 Z " /><path fill="rgb(0,0,0)" stroke="rgb(0,0,0)" stroke-width="1" opacity="0.25882352941176473" d="M 104.5 96 L 105 146.5 L 104 146.5 L 104.5 96 Z " /><path fill="rgb(0,0,0)" stroke="rgb(0,0,0)" stroke-width="1" opacity="0.25882352941176473" d="M 238.5 108 L 241 108.5 L 238.5 109 L 238.5 108 Z " /><path fill="rgb(0,0,0)" stroke="rgb(0,0,0)" stroke-width="1" opacity="0.25882352941176473" d="M 143.5 112 L 142.5 114 L 143.5 112 Z " /><path fill="rgb(0,0,0)" stroke="rgb(0,0,0)" stroke-width="1" opacity="0.25882352941176473" d="M 249.5 114 L 250.5 116 L 249.5 114 Z " /><path fill="rgb(0,0,0)" stroke="rgb(0,0,0)" stroke-width="1" opacity="0.25882352941176473" d="M 138.5 122 L 139 126.5 L 138 126.5 L 138.5 122 Z " /><path fill="rgb(0,0,0)" stroke="rgb(0,0,0)" stroke-width="1" opacity="0.25882352941176473" d="M 248.5 135 L 247.5 137 L 248.5 135 Z " /><path fill="rgb(0,0,0)" stroke="rgb(0,0,0)" stroke-width="1" opacity="0.25882352941176473" d="M 154.5 140 L 238 140.5 L 154.5 141 L 154.5 140 Z " /><path fill="rgb(0,0,0)" stroke="rgb(0,0,0)" stroke-width="1" opacity="0.25882352941176473" d="M 509.5 160 L 505.5 165 L 509.5 160 Z " /><path fill="rgb(0,0,0)" stroke="rgb(0,0,0)" stroke-width="1" opacity="0.25882352941176473" d="M 423.5 167 L 498 167.5 L 423.5 168 L 423.5 167 Z " /><path fill="rgb(0,0,0)" stroke="rgb(0,0,0)" stroke-width="1" opacity="0.25882352941176473" d="M 341.5 174 L 345.5 179 L 341.5 174 Z " /><path fill="rgb(0,0,0)" stroke="rgb(0,0,0)" stroke-width="1" opacity="0.25882352941176473" d="M 144.5 175 L 141.5 179 L 144.5 175 Z " /><path fill="rgb(0,0,0)" stroke="rgb(0,0,0)" stroke-width="1" opacity="0.25882352941176473" d="M 138.5 185 L 139 190.5 L 138 190.5 L 138.5 185 Z " /><path fill="rgb(0,0,0)" stroke="rgb(0,0,0)" stroke-width="1" opacity="0.25882352941176473" d="M 348.5 185 L 349 190.5 L 348 190.5 L 348.5 185 Z " /><path fill="rgb(0,0,0)" stroke="rgb(0,0,0)" stroke-width="1" opacity="0.25882352941176473" d="M 141.5 197 L 145.5 202 L 141.5 197 Z " /><path fill="rgb(0,0,0)" stroke="rgb(0,0,0)" stroke-width="1" opacity="0.25882352941176473" d="M 345.5 197 L 341.5 202 L 345.5 197 Z " /><path fill="rgb(0,0,0)" stroke="rgb(0,0,0)" stroke-width="1" opacity="0.25882352941176473" d="M 71.5 201 L 72 252.5 L 71 252.5 L 71.5 201 Z " /><path fill="rgb(0,0,0)" stroke="rgb(0,0,0)" stroke-width="1" opacity="0.25882352941176473" d="M 154.5 235 L 333 235.5 L 154.5 236 L 154.5 235 Z " /><path fill="rgb(0,0,0)" stroke="rgb(0,0,0)" stroke-width="1" opacity="0.25882352941176473" d="M 103.5 237 L 104 288.5 L 103 288.5 L 103.5 237 Z " /><path fill="rgb(0,0,0)" stroke="rgb(0,0,0)" stroke-width="1" opacity="0.25882352941176473" d="M 138.5 249 L 139 253.5 L 138 253.5 L 138.5 249 Z " /><path fill="rgb(0,0,0)" stroke="rgb(0,0,0)" stroke-width="1" opacity="0.25882352941176473" d="M 348.5 249 L 349 254.5 L 348 254.5 L 348.5 249 Z " /><path fill="rgb(0,0,0)" stroke="rgb(0,0,0)" stroke-width="1" opacity="0.25882352941176473" d="M 142.5 262 L 143.5 264 L 142.5 262 Z " /><path fill="rgb(0,0,0)" stroke="rgb(0,0,0)" stroke-width="1" opacity="0.25882352941176473" d="M 344.5 262 L 342.5 265 L 344.5 262 Z " /><path fill="rgb(0,0,0)" stroke="rgb(0,0,0)" stroke-width="1" opacity="0.25882352941176473" d="M 152.5 299 L 336 299.5 L 152.5 300 L 152.5 299 Z " /><path fill="rgb(0,0,0)" stroke="rgb(0,0,0)" stroke-width="1" opacity="0.25882352941176473" d="M 138.5 313 L 139 317.5 L 138 317.5 L 138.5 313 Z " /><path fill="rgb(0,0,0)" stroke="rgb(0,0,0)" stroke-width="1" opacity="0.25882352941176473" d="M 348.5 313 L 349 317.5 L 348 317.5 L 348.5 313 Z " /><path fill="rgb(0,0,0)" stroke="rgb(0,0,0)" stroke-width="1" opacity="0.25882352941176473" d="M 152.5 331 L 335 331.5 L 152.5 332 L 152.5 331 Z " /><path fill="rgb(0,0,0)" stroke="rgb(0,0,0)" stroke-width="1" opacity="0.25882352941176473" d="M 70.5 342 L 71 360.5 L 69.5 362 L 14.5 362 L 14.5 361 L 70 361 L 70.5 342 Z " /><path fill="rgb(0,0,0)" stroke="rgb(0,0,0)" stroke-width="1" opacity="0.25882352941176473" d="M 103.5 361 L 289 361.5 L 103.5 362 L 103.5 361 Z " /><path fill="rgb(0,0,0)" stroke="rgb(0,0,0)" stroke-width="1" opacity="0.25882352941176473" d="M 6.5 364 L 2.5 369 L 6.5 364 Z " /><path fill="rgb(0,0,0)" stroke="rgb(0,0,0)" stroke-width="1" opacity="0.25882352941176473" d="M 297.5 365 L 298.5 367 L 297.5 365 Z " /><path fill="rgb(0,0,0)" stroke="rgb(0,0,0)" stroke-width="1" opacity="0.25882352941176473" d="M 390.5 417 L 391 419.5 L 390 419.5 L 390.5 417 Z " /><path fill="rgb(0,0,0)" stroke="rgb(0,0,0)" stroke-width="1" opacity="0.25882352941176473" d="M 32.5 419 L 33 422.5 L 32 422.5 L 32.5 419 Z " /><path fill="rgb(0,0,0)" stroke="rgb(0,0,0)" stroke-width="1" opacity="0.25882352941176473" d="M 303.5 420 L 304 423.5 L 303 423.5 L 303.5 420 Z " /><path fill="rgb(0,0,0)" stroke="rgb(0,0,0)" stroke-width="1" opacity="0.25882352941176473" d="M 422.5 422 L 423 425.5 L 422 425.5 L 422.5 422 Z " /><path fill="rgb(0,0,0)" stroke="rgb(0,0,0)" stroke-width="1" opacity="0.25882352941176473" d="M 311.5 442 L 313.5 445 L 311.5 442 Z " /><path fill="rgb(0,0,0)" stroke="rgb(0,0,0)" stroke-width="1" opacity="0.25882352941176473" d="M 41.5 443 L 43.5 446 L 41.5 443 Z " /><path fill="rgb(0,0,0)" stroke="rgb(0,0,0)" stroke-width="1" opacity="0.25882352941176473" d="M 379.5 445 L 375.5 450 L 379.5 445 Z " /><path fill="rgb(0,0,0)" stroke="rgb(0,0,0)" stroke-width="1" opacity="0.25882352941176473" d="M 47.5 449 L 48.5 451 L 47.5 449 Z " /><path fill="rgb(0,0,0)" stroke="rgb(0,0,0)" stroke-width="1" opacity="0.25882352941176473" d="M 318.5 449 L 320.5 452 L 318.5 449 Z " /><path fill="rgb(0,0,0)" stroke="rgb(0,0,0)" stroke-width="1" opacity="0.25882352941176473" d="M 67.5 459 L 70 459.5 L 67.5 460 L 67.5 459 Z " /><path fill="rgb(0,0,0)" stroke="rgb(0,0,0)" stroke-width="1" opacity="0.25882352941176473" d="M 338.5 459 L 341 459.5 L 338.5 460 L 338.5 459 Z " /><path fill="rgb(0,0,0)" stroke="rgb(0,0,0)" stroke-width="1" opacity="0.25882352941176473" d="M 353.5 459 L 356 459.5 L 353.5 460 L 353.5 459 Z " /><path fill="rgb(0,0,0)" stroke="rgb(0,0,0)" stroke-width="1" opacity="0.25882352941176473" d="M 19.5 467 L 24.5 473 L 19.5 467 Z " /><path fill="rgb(0,0,0)" stroke="rgb(0,0,0)" stroke-width="1" opacity="0.25882352941176473" d="M 394.5 475 L 393.5 477 L 394.5 475 Z " /><path fill="rgb(0,0,0)" stroke="rgb(0,0,0)" stroke-width="1" opacity="0.25882352941176473" d="M 29.5 476 L 30.5 478 L 29.5 476 Z " /><path fill="rgb(0,0,0)" stroke="rgb(0,0,0)" stroke-width="1" opacity="0.25882352941176473" d="M 390.5 478 L 389.5 480 L 390.5 478 Z " /><path fill="rgb(0,0,0)" stroke="rgb(0,0,0)" stroke-width="1" opacity="0.25882352941176473" d="M 71.5 492 L 74 492.5 L 71.5 493 L 71.5 492 Z " /><path fill="rgb(0,0,0)" stroke="rgb(0,0,0)" stroke-width="1" opacity="0.25882352941176473" d="M 76.5 492 L 351 492.5 L 76.5 493 L 76.5 492 Z " /><path fill="rgb(0,0,0)" stroke="rgb(0,0,0)" stroke-width="1" opacity="0.7254901960784313" d="M 488.5 32 L 489.5 34 L 488.5 32 Z " /><path fill="rgb(0,0,0)" stroke="rgb(0,0,0)" stroke-width="1" opacity="0.7254901960784313" d="M 93.5 33 L 86.5 41 L 93.5 33 Z " /><path fill="rgb(0,0,0)" stroke="rgb(0,0,0)" stroke-width="1" opacity="0.7254901960784313" d="M 498.5 42 L 499.5 44 L 498.5 42 Z " /><path fill="rgb(0,0,0)" stroke="rgb(0,0,0)" stroke-width="1" opacity="0.7254901960784313" d="M 128.5 51 L 398 51.5 L 128.5 52 L 128.5 51 Z " /><path fill="rgb(0,0,0)" stroke="rgb(0,0,0)" stroke-width="1" opacity="0.7254901960784313" d="M 450.5 51 L 455 51.5 L 450.5 52 L 450.5 51 Z " /><path fill="rgb(0,0,0)" stroke="rgb(0,0,0)" stroke-width="1" opacity="0.7254901960784313" d="M 432.5 58 L 429.5 62 L 432.5 58 Z " /><path fill="rgb(0,0,0)" stroke="rgb(0,0,0)" stroke-width="1" opacity="0.7254901960784313" d="M 471.5 59 L 472.5 61 L 471.5 59 Z " /><path fill="rgb(0,0,0)" stroke="rgb(0,0,0)" stroke-width="1" opacity="0.7254901960784313" d="M 391.5 72 L 392 75.5 L 391 75.5 L 391.5 72 Z " /><path fill="rgb(0,0,0)" stroke="rgb(0,0,0)" stroke-width="1" opacity="0.7254901960784313" d="M 511.5 73 L 512 76.5 L 511 76.5 L 511.5 73 Z " /><path fill="rgb(0,0,0)" stroke="rgb(0,0,0)" stroke-width="1" opacity="0.7254901960784313" d="M 104.5 75 L 105 95.5 L 104 95.5 L 104.5 75 Z " /><path fill="rgb(0,0,0)" stroke="rgb(0,0,0)" stroke-width="1" opacity="0.7254901960784313" d="M 422.5 79 L 423 135 L 480 135.5 L 423.5 136 L 422 134.5 L 422.5 79 Z " /><path fill="rgb(0,0,0)" stroke="rgb(0,0,0)" stroke-width="1" opacity="0.7254901960784313" d="M 153.5 108 L 238 108.5 L 153.5 109 L 153.5 108 Z " /><path fill="rgb(0,0,0)" stroke="rgb(0,0,0)" stroke-width="1" opacity="0.7254901960784313" d="M 72.5 112 L 73 162.5 L 72 162.5 L 72.5 112 Z " /><path fill="rgb(0,0,0)" stroke="rgb(0,0,0)" stroke-width="1" opacity="0.7254901960784313" d="M 247.5 112 L 248.5 114 L 247.5 112 Z " /><path fill="rgb(0,0,0)" stroke="rgb(0,0,0)" stroke-width="1" opacity="0.7254901960784313" d="M 252.5 121 L 253 126.5 L 252 126.5 L 252.5 121 Z " /><path fill="rgb(0,0,0)" stroke="rgb(0,0,0)" stroke-width="1" opacity="0.7254901960784313" d="M 142.5 134 L 144.5 137 L 142.5 134 Z " /><path fill="rgb(0,0,0)" stroke="rgb(0,0,0)" stroke-width="1" opacity="0.7254901960784313" d="M 246.5 136 L 245.5 138 L 246.5 136 Z " /><path fill="rgb(0,0,0)" stroke="rgb(0,0,0)" stroke-width="1" opacity="0.7254901960784313" d="M 422.5 167 L 423 421.5 L 422 421.5 L 422.5 167 Z " /><path fill="rgb(0,0,0)" stroke="rgb(0,0,0)" stroke-width="1" opacity="0.7254901960784313" d="M 151.5 172 L 154 172.5 L 151.5 173 L 151.5 172 Z " /><path fill="rgb(0,0,0)" stroke="rgb(0,0,0)" stroke-width="1" opacity="0.7254901960784313" d="M 333.5 172 L 336 172.5 L 333.5 173 L 333.5 172 Z " /><path fill="rgb(0,0,0)" stroke="rgb(0,0,0)" stroke-width="1" opacity="0.7254901960784313" d="M 103.5 186 L 104 236.5 L 103 236.5 L 103.5 186 Z " /><path fill="rgb(0,0,0)" stroke="rgb(0,0,0)" stroke-width="1" opacity="0.7254901960784313" d="M 151.5 203 L 154 203.5 L 151.5 204 L 151.5 203 Z " /><path fill="rgb(0,0,0)" stroke="rgb(0,0,0)" stroke-width="1" opacity="0.7254901960784313" d="M 333.5 203 L 336 203.5 L 333.5 204 L 333.5 203 Z " /><path fill="rgb(0,0,0)" stroke="rgb(0,0,0)" stroke-width="1" opacity="0.7254901960784313" d="M 144.5 239 L 142.5 242 L 144.5 239 Z " /><path fill="rgb(0,0,0)" stroke="rgb(0,0,0)" stroke-width="1" opacity="0.7254901960784313" d="M 342.5 239 L 344.5 242 L 342.5 239 Z " /><path fill="rgb(0,0,0)" stroke="rgb(0,0,0)" stroke-width="1" opacity="0.7254901960784313" d="M 71.5 253 L 72 303.5 L 71 303.5 L 71.5 253 Z " /><path fill="rgb(0,0,0)" stroke="rgb(0,0,0)" stroke-width="1" opacity="0.7254901960784313" d="M 153.5 267 L 334 267.5 L 153.5 268 L 153.5 267 Z " /><path fill="rgb(0,0,0)" stroke="rgb(0,0,0)" stroke-width="1" opacity="0.7254901960784313" d="M 145.5 302 L 144.5 304 L 145.5 302 Z " /><path fill="rgb(0,0,0)" stroke="rgb(0,0,0)" stroke-width="1" opacity="0.7254901960784313" d="M 341.5 302 L 342.5 304 L 341.5 302 Z " /><path fill="rgb(0,0,0)" stroke="rgb(0,0,0)" stroke-width="1" opacity="0.7254901960784313" d="M 142.5 305 L 141.5 307 L 142.5 305 Z " /><path fill="rgb(0,0,0)" stroke="rgb(0,0,0)" stroke-width="1" opacity="0.7254901960784313" d="M 344.5 305 L 345.5 307 L 344.5 305 Z " /><path fill="rgb(0,0,0)" stroke="rgb(0,0,0)" stroke-width="1" opacity="0.7254901960784313" d="M 141.5 324 L 145.5 329 L 141.5 324 Z " /><path fill="rgb(0,0,0)" stroke="rgb(0,0,0)" stroke-width="1" opacity="0.7254901960784313" d="M 345.5 324 L 344.5 326 L 345.5 324 Z " /><path fill="rgb(0,0,0)" stroke="rgb(0,0,0)" stroke-width="1" opacity="0.7254901960784313" d="M 102.5 327 L 103 361.5 L 102 361.5 L 102.5 327 Z " /><path fill="rgb(0,0,0)" stroke="rgb(0,0,0)" stroke-width="1" opacity="0.7254901960784313" d="M 342.5 327 L 341.5 329 L 342.5 327 Z " /><path fill="rgb(0,0,0)" stroke="rgb(0,0,0)" stroke-width="1" opacity="0.7254901960784313" d="M 302.5 375 L 303 417.5 L 302 417.5 L 302.5 375 Z " /><path fill="rgb(0,0,0)" stroke="rgb(0,0,0)" stroke-width="1" opacity="0.7254901960784313" d="M 32.5 393 L 271 393.5 L 32.5 394 L 32.5 393 Z " /><path fill="rgb(0,0,0)" stroke="rgb(0,0,0)" stroke-width="1" opacity="0.7254901960784313" d="M 0.5 419 L 1 424.5 L 0 424.5 L 0.5 419 Z " /><path fill="rgb(0,0,0)" stroke="rgb(0,0,0)" stroke-width="1" opacity="0.7254901960784313" d="M 390.5 420 L 391 423.5 L 390 423.5 L 390.5 420 Z " /><path fill="rgb(0,0,0)" stroke="rgb(0,0,0)" stroke-width="1" opacity="0.7254901960784313" d="M 271.5 422 L 272 425.5 L 271 425.5 L 271.5 422 Z " /><path fill="rgb(0,0,0)" stroke="rgb(0,0,0)" stroke-width="1" opacity="0.7254901960784313" d="M 32.5 423 L 33 425.5 L 32 425.5 L 32.5 423 Z " /><path fill="rgb(0,0,0)" stroke="rgb(0,0,0)" stroke-width="1" opacity="0.7254901960784313" d="M 39.5 441 L 40.5 443 L 39.5 441 Z " /><path fill="rgb(0,0,0)" stroke="rgb(0,0,0)" stroke-width="1" opacity="0.7254901960784313" d="M 382.5 442 L 380.5 445 L 382.5 442 Z " /><path fill="rgb(0,0,0)" stroke="rgb(0,0,0)" stroke-width="1" opacity="0.7254901960784313" d="M 43.5 446 L 45.5 449 L 43.5 446 Z " /><path fill="rgb(0,0,0)" stroke="rgb(0,0,0)" stroke-width="1" opacity="0.7254901960784313" d="M 314.5 446 L 317.5 450 L 314.5 446 Z " /><path fill="rgb(0,0,0)" stroke="rgb(0,0,0)" stroke-width="1" opacity="0.7254901960784313" d="M 374.5 450 L 373.5 452 L 374.5 450 Z " /><path fill="rgb(0,0,0)" stroke="rgb(0,0,0)" stroke-width="1" opacity="0.7254901960784313" d="M 49.5 451 L 50.5 453 L 49.5 451 Z " /><path fill="rgb(0,0,0)" stroke="rgb(0,0,0)" stroke-width="1" opacity="0.7254901960784313" d="M 13.5 459 L 14.5 461 L 13.5 459 Z " /><path fill="rgb(0,0,0)" stroke="rgb(0,0,0)" stroke-width="1" opacity="0.7254901960784313" d="M 284.5 459 L 285 461 L 74 460.5 L 283.5 460 L 284.5 459 Z " /><path fill="rgb(0,0,0)" stroke="rgb(0,0,0)" stroke-width="1" opacity="0.7254901960784313" d="M 344.5 460 L 350 460.5 L 344.5 461 L 344.5 460 Z " /><path fill="rgb(0,0,0)" stroke="rgb(0,0,0)" stroke-width="1" opacity="0.7254901960784313" d="M 408.5 460 L 407.5 462 L 408.5 460 Z " /><path fill="rgb(0,0,0)" stroke="rgb(0,0,0)" stroke-width="1" opacity="0.7254901960784313" d="M 16.5 463 L 18.5 466 L 16.5 463 Z " /><path fill="rgb(0,0,0)" stroke="rgb(0,0,0)" stroke-width="1" opacity="0.7254901960784313" d="M 405.5 464 L 401.5 469 L 405.5 464 Z " /><path fill="rgb(0,0,0)" stroke="rgb(0,0,0)" stroke-width="1" opacity="0.7254901960784313" d="M 398.5 471 L 395.5 475 L 398.5 471 Z " /><path fill="rgb(0,0,0)" stroke="rgb(0,0,0)" stroke-width="1" opacity="0.7254901960784313" d="M 26.5 473 L 28.5 476 L 26.5 473 Z " /><path fill="rgb(0,0,0)" stroke="rgb(0,0,0)" stroke-width="1" opacity="0.7254901960784313" d="M 392.5 476 L 391.5 478 L 392.5 476 Z " /><path fill="rgb(0,0,0)" stroke="rgb(0,0,0)" stroke-width="1" opacity="0.7254901960784313" d="M 31.5 477 L 32.5 479 L 31.5 477 Z " /><path fill="rgb(0,0,0)" stroke="rgb(0,0,0)" stroke-width="1" opacity="0.7254901960784313" d="M 355.5 491 L 358 491.5 L 355.5 492 L 355.5 491 Z " /><path fill="rgb(0,0,0)" stroke="rgb(0,0,0)" stroke-width="1" opacity="0" d="M 0 0 L 511.5 0 L 512 0.5 L 512 69.5 L 511 69.5 Q 507 46 491.5 34 L 473.5 23 L 455.5 19 L 127.5 19 L 126.5 20 L 115.5 21 L 101.5 27 L 84 42.5 L 76 56.5 L 73 66.5 L 73 74.5 L 72 75.5 L 71 341.5 L 70 342.5 L 70 361 L 14.5 361 Q 6 362.5 2 368.5 L 0.5 373 L 0 0 Z " /><path fill="rgb(0,0,0)" stroke="rgb(0,0,0)" stroke-width="1" opacity="0" d="M 126.5 52 L 396.5 52 L 397 53.5 L 391 70.5 L 391 416.5 L 390 417.5 L 390 425.5 L 387 434.5 Q 381.9 445.4 372.5 452 L 357.5 459 L 341.5 460 L 329.5 457 L 314 445.5 Q 306.9 438.1 304 426.5 Q 305.5 421 303 419.5 L 303 373.5 L 297.5 365 L 288.5 361 L 103 361 L 105 73.5 Q 107.6 61.6 116.5 56 L 126.5 52 Z M 152 108 L 144 112 Q 139 116 138 123 L 138 127 L 141 134 L 146 138 L 155 141 L 238 141 L 243 140 L 248 137 L 253 129 Q 254 120 251 116 Q 247 110 241 108 L 152 108 Z M 151 172 L 145 175 Q 140 179 138 186 L 138 191 L 141 198 Q 144 202 151 204 L 337 204 L 342 202 Q 347 198 349 191 L 349 186 L 346 179 Q 343 174 337 172 L 151 172 Z M 155 235 L 146 238 Q 140 242 138 250 Q 138 258 142 263 L 152 268 L 336 268 L 343 265 L 349 255 L 349 250 L 346 243 L 342 238 L 333 235 L 155 235 Z M 153 299 L 147 301 Q 140 305 138 314 L 140 324 Q 144 330 153 332 L 335 332 L 341 330 Q 347 326 349 318 L 347 308 Q 343 301 336 299 L 153 299 Z " /><path fill="rgb(0,0,0)" stroke="rgb(0,0,0)" stroke-width="1" opacity="0" d="M 446.5 52 L 460.5 53 L 473 61.5 L 478 69.5 L 480 78.5 L 480 135 L 423 135 L 423 77.5 Q 425 64.5 433.5 58 L 446.5 52 Z " /><path fill="rgb(0,0,0)" stroke="rgb(0,0,0)" stroke-width="1" opacity="0" d="M 511.5 156 L 512 512 L 0.5 512 L 0 511.5 L 0 427.5 L 1 427.5 L 2 436.5 L 9 453.5 L 24.5 473 Q 34.6 482.4 48.5 488 L 71.5 493 L 350.5 493 L 351.5 492 L 364.5 491 L 376.5 487 L 389.5 480 L 401 471 L 412 456.5 L 418 444.5 L 423 425.5 L 423 168 L 497.5 168 Q 506 166.5 510 160.5 L 511.5 156 Z " /><path fill="rgb(0,0,0)" stroke="rgb(0,0,0)" stroke-width="1" opacity="0" d="M 32 394 L 270.5 394 L 271 394.5 L 271 427.5 Q 274.2 446.8 284 459.5 L 70.5 460 Q 53.3 457.2 44 446.5 Q 36.1 438.4 33 425.5 L 32 394 Z " /><path fill="rgb(0,0,0)" stroke="rgb(0,0,0)" stroke-width="1" opacity="0.996078431372549" d="M 96.5 31 L 95.5 33 L 96.5 31 Z " /><path fill="rgb(0,0,0)" stroke="rgb(0,0,0)" stroke-width="1" opacity="0.996078431372549" d="M 490.5 34 L 497.5 42 L 490.5 34 Z " /><path fill="rgb(0,0,0)" stroke="rgb(0,0,0)" stroke-width="1" opacity="0.996078431372549" d="M 85.5 42 L 84.5 44 L 85.5 42 Z " /><path fill="rgb(0,0,0)" stroke="rgb(0,0,0)" stroke-width="1" opacity="0.996078431372549" d="M 499.5 44 L 500.5 46 L 499.5 44 Z " /><path fill="rgb(0,0,0)" stroke="rgb(0,0,0)" stroke-width="1" opacity="0.996078431372549" d="M 447.5 51 L 450 51.5 L 447.5 52 L 447.5 51 Z " /><path fill="rgb(0,0,0)" stroke="rgb(0,0,0)" stroke-width="1" opacity="0.996078431372549" d="M 434.5 56 L 433.5 58 L 434.5 56 Z " /><path fill="rgb(0,0,0)" stroke="rgb(0,0,0)" stroke-width="1" opacity="0.996078431372549" d="M 468.5 56 L 470.5 59 L 468.5 56 Z " /><path fill="rgb(0,0,0)" stroke="rgb(0,0,0)" stroke-width="1" opacity="0.996078431372549" d="M 113.5 57 L 110.5 61 L 113.5 57 Z " /><path fill="rgb(0,0,0)" stroke="rgb(0,0,0)" stroke-width="1" opacity="0.996078431372549" d="M 473.5 61 L 474.5 63 L 473.5 61 Z " /><path fill="rgb(0,0,0)" stroke="rgb(0,0,0)" stroke-width="1" opacity="0.996078431372549" d="M 428.5 62 L 427.5 64 L 428.5 62 Z " /><path fill="rgb(0,0,0)" stroke="rgb(0,0,0)" stroke-width="1" opacity="0.996078431372549" d="M 511.5 77 L 512 79.5 L 511 79.5 L 511.5 77 Z " /><path fill="rgb(0,0,0)" stroke="rgb(0,0,0)" stroke-width="1" opacity="0.996078431372549" d="M 480.5 79 L 481 135.5 L 480 135.5 L 480.5 79 Z " /><path fill="rgb(0,0,0)" stroke="rgb(0,0,0)" stroke-width="1" opacity="0.996078431372549" d="M 144.5 112 L 142.5 115 L 144.5 112 Z " /><path fill="rgb(0,0,0)" stroke="rgb(0,0,0)" stroke-width="1" opacity="0.996078431372549" d="M 248.5 134 L 247.5 136 L 248.5 134 Z " /><path fill="rgb(0,0,0)" stroke="rgb(0,0,0)" stroke-width="1" opacity="0.996078431372549" d="M 508.5 160 L 505.5 164 L 508.5 160 Z " /><path fill="rgb(0,0,0)" stroke="rgb(0,0,0)" stroke-width="1" opacity="0.996078431372549" d="M 72.5 163 L 73 182.5 L 72 182.5 L 72.5 163 Z " /><path fill="rgb(0,0,0)" stroke="rgb(0,0,0)" stroke-width="1" opacity="0.996078431372549" d="M 103.5 166 L 104 185.5 L 103 185.5 L 103.5 166 Z " /><path fill="rgb(0,0,0)" stroke="rgb(0,0,0)" stroke-width="1" opacity="0.996078431372549" d="M 154.5 172 L 333 172.5 L 154.5 173 L 154.5 172 Z " /><path fill="rgb(0,0,0)" stroke="rgb(0,0,0)" stroke-width="1" opacity="0.996078431372549" d="M 145.5 175 L 144.5 177 L 145.5 175 Z " /><path fill="rgb(0,0,0)" stroke="rgb(0,0,0)" stroke-width="1" opacity="0.996078431372549" d="M 341.5 175 L 342.5 177 L 341.5 175 Z " /><path fill="rgb(0,0,0)" stroke="rgb(0,0,0)" stroke-width="1" opacity="0.996078431372549" d="M 344.5 178 L 345.5 180 L 344.5 178 Z " /><path fill="rgb(0,0,0)" stroke="rgb(0,0,0)" stroke-width="1" opacity="0.996078431372549" d="M 141.5 196 L 142.5 198 L 141.5 196 Z " /><path fill="rgb(0,0,0)" stroke="rgb(0,0,0)" stroke-width="1" opacity="0.996078431372549" d="M 345.5 196 L 344.5 198 L 345.5 196 Z " /><path fill="rgb(0,0,0)" stroke="rgb(0,0,0)" stroke-width="1" opacity="0.996078431372549" d="M 144.5 199 L 145.5 201 L 144.5 199 Z " /><path fill="rgb(0,0,0)" stroke="rgb(0,0,0)" stroke-width="1" opacity="0.996078431372549" d="M 342.5 199 L 341.5 201 L 342.5 199 Z " /><path fill="rgb(0,0,0)" stroke="rgb(0,0,0)" stroke-width="1" opacity="0.996078431372549" d="M 154.5 203 L 333 203.5 L 154.5 204 L 154.5 203 Z " /><path fill="rgb(0,0,0)" stroke="rgb(0,0,0)" stroke-width="1" opacity="0.996078431372549" d="M 142.5 261 L 144.5 264 L 142.5 261 Z " /><path fill="rgb(0,0,0)" stroke="rgb(0,0,0)" stroke-width="1" opacity="0.996078431372549" d="M 344.5 261 L 342.5 264 L 344.5 261 Z " /><path fill="rgb(0,0,0)" stroke="rgb(0,0,0)" stroke-width="1" opacity="0.996078431372549" d="M 71.5 304 L 72 323.5 L 71 323.5 L 71.5 304 Z " /><path fill="rgb(0,0,0)" stroke="rgb(0,0,0)" stroke-width="1" opacity="0.996078431372549" d="M 102.5 307 L 103 326.5 L 102 326.5 L 102.5 307 Z " /><path fill="rgb(0,0,0)" stroke="rgb(0,0,0)" stroke-width="1" opacity="0.996078431372549" d="M 6.5 365 L 3.5 369 L 6.5 365 Z " /><path fill="rgb(0,0,0)" stroke="rgb(0,0,0)" stroke-width="1" opacity="0.996078431372549" d="M 296.5 365 L 298.5 368 L 296.5 365 Z " /><path fill="rgb(0,0,0)" stroke="rgb(0,0,0)" stroke-width="1" opacity="0.996078431372549" d="M 31.5 393 L 32 417.5 L 31 417.5 L 31.5 393 Z " /><path fill="rgb(0,0,0)" stroke="rgb(0,0,0)" stroke-width="1" opacity="0.996078431372549" d="M 0.5 416 L 1 418.5 L 0 418.5 L 0.5 416 Z " /><path fill="rgb(0,0,0)" stroke="rgb(0,0,0)" stroke-width="1" opacity="0.996078431372549" d="M 271.5 419 L 272 421.5 L 271 421.5 L 271.5 419 Z " /><path fill="rgb(0,0,0)" stroke="rgb(0,0,0)" stroke-width="1" opacity="0.996078431372549" d="M 311.5 443 L 313.5 446 L 311.5 443 Z " /><path fill="rgb(0,0,0)" stroke="rgb(0,0,0)" stroke-width="1" opacity="0.996078431372549" d="M 41.5 444 L 42.5 446 L 41.5 444 Z " /><path fill="rgb(0,0,0)" stroke="rgb(0,0,0)" stroke-width="1" opacity="0.996078431372549" d="M 380.5 445 L 376.5 450 L 380.5 445 Z " /><path fill="rgb(0,0,0)" stroke="rgb(0,0,0)" stroke-width="1" opacity="0.996078431372549" d="M 46.5 449 L 47.5 451 L 46.5 449 Z " /><path fill="rgb(0,0,0)" stroke="rgb(0,0,0)" stroke-width="1" opacity="0.996078431372549" d="M 318.5 450 L 319.5 452 L 318.5 450 Z " /><path fill="rgb(0,0,0)" stroke="rgb(0,0,0)" stroke-width="1" opacity="0.996078431372549" d="M 372.5 452 L 371.5 454 L 372.5 452 Z " /><path fill="rgb(0,0,0)" stroke="rgb(0,0,0)" stroke-width="1" opacity="0.996078431372549" d="M 409.5 458 L 408.5 460 L 409.5 458 Z " /><path fill="rgb(0,0,0)" stroke="rgb(0,0,0)" stroke-width="1" opacity="0.996078431372549" d="M 71.5 460 L 74 460.5 L 71.5 461 L 71.5 460 Z " /><path fill="rgb(0,0,0)" stroke="rgb(0,0,0)" stroke-width="1" opacity="0.996078431372549" d="M 15.5 461 L 16.5 463 L 15.5 461 Z " /><path fill="rgb(0,0,0)" stroke="rgb(0,0,0)" stroke-width="1" opacity="0.996078431372549" d="M 406.5 462 L 405.5 464 L 406.5 462 Z " /><path fill="rgb(0,0,0)" stroke="rgb(0,0,0)" stroke-width="1" opacity="0.996078431372549" d="M 19.5 466 L 25.5 473 L 19.5 466 Z " /><path fill="rgb(0,0,0)" stroke="rgb(0,0,0)" stroke-width="1" opacity="0.996078431372549" d="M 400.5 469 L 399.5 471 L 400.5 469 Z " /><path fill="rgb(0,0,0)" stroke="rgb(0,0,0)" stroke-width="1" opacity="1" d="M 125.5 20 L 457.5 20 Q 485.4 24.6 499 43.5 Q 507.9 54.1 511 70.5 L 511 79.5 L 512 80.5 L 512 150.5 L 510 158.5 L 503.5 165 L 498.5 167 L 422 167 L 422 425.5 Q 416.1 458.1 394.5 475 L 376.5 486 L 368.5 489 L 353.5 492 L 69.5 492 L 54.5 489 L 38.5 482 Q 25.8 474.8 17 463.5 Q 6.2 451.3 2 432.5 L 1 416.5 L 0 415.5 L 0 378.5 L 2 370.5 L 8.5 364 L 13.5 362 L 71 362 L 71 324.5 L 72 323.5 L 73 73.5 L 75 62.5 L 81 48.5 L 94.5 33 L 109.5 24 L 125.5 20 Z M 127 51 L 114 57 Q 106 63 104 75 L 103 307 L 102 308 L 102 362 L 289 362 L 295 364 L 302 374 L 302 419 Q 305 420 303 427 L 311 444 Q 318 452 328 457 L 343 461 L 358 460 Q 369 457 377 450 Q 387 441 391 426 L 391 79 L 392 78 L 393 66 L 399 52 L 127 51 Z M 448 51 L 435 56 L 427 64 L 423 73 Q 424 77 422 79 L 422 136 L 481 136 L 481 80 L 479 70 L 475 63 Q 467 51 448 51 Z M 31 393 L 32 426 Q 34 437 41 445 Q 48 453 59 458 L 72 461 L 286 461 Q 279 452 275 441 L 271 419 L 271 394 L 271 393 L 31 393 Z " /><path fill="rgb(0,0,0)" stroke="rgb(0,0,0)" stroke-width="1" opacity="1" d="M 151.5 109 L 240.5 109 L 249 114.5 Q 253.3 118.7 252 128.5 L 245.5 137 L 238.5 140 L 153.5 140 Q 145.7 138.8 142 133.5 L 139 126.5 L 139 121.5 Q 140.8 114.3 146.5 111 L 151.5 109 Z " /><path fill="rgb(0,0,0)" stroke="rgb(0,0,0)" stroke-width="1" opacity="1" d="M 150.5 173 L 336.5 173 L 344 177 L 348 185.5 L 348 190.5 L 344 199 L 336.5 203 L 150.5 203 L 143 199 L 139 190.5 L 139 185.5 L 143 177 L 150.5 173 Z " /><path fill="rgb(0,0,0)" stroke="rgb(0,0,0)" stroke-width="1" opacity="1" d="M 153.5 236 L 333.5 236 Q 341.3 237.2 345 242.5 L 348 249.5 L 348 254.5 Q 346.2 261.7 340.5 265 L 336.5 267 L 150.5 267 L 141 259.5 Q 138.3 256.2 139 249.5 Q 140.5 242.6 145.5 239 L 153.5 236 Z " /><path fill="rgb(0,0,0)" stroke="rgb(0,0,0)" stroke-width="1" opacity="1" d="M 151.5 300 L 335.5 300 L 345 306.5 Q 349 310 348 318.5 L 341.5 328 L 335.5 331 L 151.5 331 L 142 324.5 Q 138 321 139 312.5 L 145.5 303 L 151.5 300 Z " /></svg>