<svg width="64" height="64" version="1.1" xmlns="http://www.w3.org/2000/svg" desc="Created with imagetracer.js version 1.2.6" ><path fill="rgb(0,0,0)" stroke="rgb(0,0,0)" stroke-width="1" opacity="0.12156862745098039" d="M 54.5 7 L 53.5 9 L 54.5 7 Z " /><path fill="rgb(0,0,0)" stroke="rgb(0,0,0)" stroke-width="1" opacity="0.12156862745098039" d="M 13.5 9 L 14 13.5 L 13 13.5 L 13.5 9 Z " /><path fill="rgb(0,0,0)" stroke="rgb(0,0,0)" stroke-width="1" opacity="0.12156862745098039" d="M 48.5 10 L 49 52.5 L 48 52.5 L 48.5 10 Z " /><path fill="rgb(0,0,0)" stroke="rgb(0,0,0)" stroke-width="1" opacity="0.12156862745098039" d="M 18.5 13 L 17.5 15 L 18.5 13 Z " /><path fill="rgb(0,0,0)" stroke="rgb(0,0,0)" stroke-width="1" opacity="0.12156862745098039" d="M 30.5 13 L 31.5 15 L 30.5 13 Z " /><path fill="rgb(0,0,0)" stroke="rgb(0,0,0)" stroke-width="1" opacity="0.12156862745098039" d="M 17.5 16 L 18.5 18 L 17.5 16 Z " /><path fill="rgb(0,0,0)" stroke="rgb(0,0,0)" stroke-width="1" opacity="0.12156862745098039" d="M 31.5 16 L 30.5 18 L 31.5 16 Z " /><path fill="rgb(0,0,0)" stroke="rgb(0,0,0)" stroke-width="1" opacity="0.12156862745098039" d="M 53.5 16 L 60 16.5 L 53.5 17 L 53.5 16 Z " /><path fill="rgb(0,0,0)" stroke="rgb(0,0,0)" stroke-width="1" opacity="0.12156862745098039" d="M 18.5 21 L 17.5 23 L 18.5 21 Z " /><path fill="rgb(0,0,0)" stroke="rgb(0,0,0)" stroke-width="1" opacity="0.12156862745098039" d="M 42.5 21 L 43.5 23 L 42.5 21 Z " /><path fill="rgb(0,0,0)" stroke="rgb(0,0,0)" stroke-width="1" opacity="0.12156862745098039" d="M 17.5 24 L 18.5 26 L 17.5 24 Z " /><path fill="rgb(0,0,0)" stroke="rgb(0,0,0)" stroke-width="1" opacity="0.12156862745098039" d="M 43.5 24 L 42.5 26 L 43.5 24 Z " /><path fill="rgb(0,0,0)" stroke="rgb(0,0,0)" stroke-width="1" opacity="0.12156862745098039" d="M 18.5 29 L 17.5 31 L 18.5 29 Z " /><path fill="rgb(0,0,0)" stroke="rgb(0,0,0)" stroke-width="1" opacity="0.12156862745098039" d="M 42.5 29 L 43.5 31 L 42.5 29 Z " /><path fill="rgb(0,0,0)" stroke="rgb(0,0,0)" stroke-width="1" opacity="0.12156862745098039" d="M 17.5 32 L 18.5 34 L 17.5 32 Z " /><path fill="rgb(0,0,0)" stroke="rgb(0,0,0)" stroke-width="1" opacity="0.12156862745098039" d="M 43.5 32 L 42.5 34 L 43.5 32 Z " /><path fill="rgb(0,0,0)" stroke="rgb(0,0,0)" stroke-width="1" opacity="0.12156862745098039" d="M 8.5 33 L 9 44.5 L 8 44.5 L 8.5 33 Z " /><path fill="rgb(0,0,0)" stroke="rgb(0,0,0)" stroke-width="1" opacity="0.12156862745098039" d="M 18.5 37 L 17.5 39 L 18.5 37 Z " /><path fill="rgb(0,0,0)" stroke="rgb(0,0,0)" stroke-width="1" opacity="0.12156862745098039" d="M 42.5 37 L 43.5 39 L 42.5 37 Z " /><path fill="rgb(0,0,0)" stroke="rgb(0,0,0)" stroke-width="1" opacity="0.12156862745098039" d="M 17.5 40 L 18.5 42 L 17.5 40 Z " /><path fill="rgb(0,0,0)" stroke="rgb(0,0,0)" stroke-width="1" opacity="0.12156862745098039" d="M 43.5 40 L 42.5 42 L 43.5 40 Z " /><path fill="rgb(0,0,0)" stroke="rgb(0,0,0)" stroke-width="1" opacity="0.12156862745098039" d="M 4.5 49 L 32.5 49 L 34 50.5 L 33.5 53 L 33 50 L 4.5 50 L 4.5 49 Z " /><path fill="rgb(0,0,0)" stroke="rgb(0,0,0)" stroke-width="1" opacity="0.12156862745098039" d="M 50.5 58 L 49.5 60 L 50.5 58 Z " /><path fill="rgb(0,0,0)" stroke="rgb(0,0,0)" stroke-width="1" opacity="0.9882352941176471" d="M 9.5 20 L 10 22.5 L 9 22.5 L 9.5 20 Z " /><path fill="rgb(0,0,0)" stroke="rgb(0,0,0)" stroke-width="1" opacity="0.9882352941176471" d="M 12.5 23 L 13 25.5 L 12 25.5 L 12.5 23 Z " /><path fill="rgb(0,0,0)" stroke="rgb(0,0,0)" stroke-width="1" opacity="0.48627450980392156" d="M 15.5 2 L 55 2.5 L 15.5 3 L 15.5 2 Z " /><path fill="rgb(0,0,0)" stroke="rgb(0,0,0)" stroke-width="1" opacity="0.48627450980392156" d="M 11.5 4 L 10.5 6 L 11.5 4 Z " /><path fill="rgb(0,0,0)" stroke="rgb(0,0,0)" stroke-width="1" opacity="0.48627450980392156" d="M 61.5 4 L 62.5 6 L 61.5 4 Z " /><path fill="rgb(0,0,0)" stroke="rgb(0,0,0)" stroke-width="1" opacity="0.48627450980392156" d="M 15.5 6 L 49.5 6 L 50 7.5 L 48.5 7 L 15.5 7 L 15.5 6 Z " /><path fill="rgb(0,0,0)" stroke="rgb(0,0,0)" stroke-width="1" opacity="0.48627450980392156" d="M 19.5 13 L 30 13.5 L 19.5 14 L 19.5 13 Z " /><path fill="rgb(0,0,0)" stroke="rgb(0,0,0)" stroke-width="1" opacity="0.48627450980392156" d="M 19.5 17 L 30 17.5 L 19.5 18 L 19.5 17 Z " /><path fill="rgb(0,0,0)" stroke="rgb(0,0,0)" stroke-width="1" opacity="0.48627450980392156" d="M 19.5 21 L 42 21.5 L 19.5 22 L 19.5 21 Z " /><path fill="rgb(0,0,0)" stroke="rgb(0,0,0)" stroke-width="1" opacity="0.48627450980392156" d="M 19.5 25 L 42 25.5 L 19.5 26 L 19.5 25 Z " /><path fill="rgb(0,0,0)" stroke="rgb(0,0,0)" stroke-width="1" opacity="0.48627450980392156" d="M 19.5 29 L 42 29.5 L 19.5 30 L 19.5 29 Z " /><path fill="rgb(0,0,0)" stroke="rgb(0,0,0)" stroke-width="1" opacity="0.48627450980392156" d="M 19.5 33 L 42 33.5 L 19.5 34 L 19.5 33 Z " /><path fill="rgb(0,0,0)" stroke="rgb(0,0,0)" stroke-width="1" opacity="0.48627450980392156" d="M 19.5 37 L 42 37.5 L 19.5 38 L 19.5 37 Z " /><path fill="rgb(0,0,0)" stroke="rgb(0,0,0)" stroke-width="1" opacity="0.48627450980392156" d="M 19.5 41 L 42 41.5 L 19.5 42 L 19.5 41 Z " /><path fill="rgb(0,0,0)" stroke="rgb(0,0,0)" stroke-width="1" opacity="0.48627450980392156" d="M 36.5 45 L 37.5 47 L 36.5 45 Z " /><path fill="rgb(0,0,0)" stroke="rgb(0,0,0)" stroke-width="1" opacity="0.48627450980392156" d="M 47.5 55 L 46.5 57 L 47.5 55 Z " /><path fill="rgb(0,0,0)" stroke="rgb(0,0,0)" stroke-width="1" opacity="0.48627450980392156" d="M 8.5 57 L 36 57.5 L 8.5 58 L 8.5 57 Z " /><path fill="rgb(0,0,0)" stroke="rgb(0,0,0)" stroke-width="1" opacity="0.48627450980392156" d="M 8.5 61 L 42 61.5 L 8.5 62 L 8.5 61 Z " /><path fill="rgb(0,0,0)" stroke="rgb(0,0,0)" stroke-width="1" opacity="0" d="M 0 0 L 63.5 0 Q 64.6 0.1 64 5.5 L 60.5 3 L 58.5 2 L 14.5 2 L 9 6.5 L 9 32.5 L 8 33.5 L 8 45 L 0.5 45 L 0 44.5 L 0 0 Z " /><path fill="rgb(0,0,0)" stroke="rgb(0,0,0)" stroke-width="1" opacity="0" d="M 15.5 7 L 48.5 7 L 49 9.5 L 48 10.5 L 48 54.5 L 45.5 57 Q 40 58 39 54.5 L 38 45 L 13 45 L 13 14.5 Q 15.3 13.2 14 8.5 L 15.5 7 Z M 19 13 L 17 17 L 19 18 L 31 18 L 32 15 L 31 13 L 19 13 Z M 19 21 L 17 25 L 19 26 L 43 26 L 44 23 L 43 21 L 19 21 Z M 19 29 L 17 33 L 19 34 L 43 34 L 44 31 L 43 29 L 19 29 Z M 19 37 L 17 41 L 19 42 L 43 42 L 44 39 L 43 37 L 19 37 Z " /><path fill="rgb(0,0,0)" stroke="rgb(0,0,0)" stroke-width="1" opacity="0" d="M 55.5 7 L 59 8.5 L 60 16 L 53 16 L 53 9.5 L 55.5 7 Z " /><path fill="rgb(0,0,0)" stroke="rgb(0,0,0)" stroke-width="1" opacity="0" d="M 53 21 L 63.5 21 L 64 21.5 L 64 64 L 0.5 64 L 0 63.5 L 0 56.5 L 1 56.5 L 3.5 60 L 7.5 62 L 45.5 62 L 51 58.5 L 53 55.5 L 53 21 Z " /><path fill="rgb(0,0,0)" stroke="rgb(0,0,0)" stroke-width="1" opacity="0" d="M 4 50 L 32.5 50 L 33 52.5 L 35 56.5 L 7.5 57 Q 3.9 54.9 4 50 Z " /><path fill="rgb(0,0,0)" stroke="rgb(0,0,0)" stroke-width="1" opacity="1" d="M 14.5 3 L 58.5 3 L 62 5 Q 65 9.3 64 18.5 L 62.5 20 L 52 20 L 52 55.5 L 47.5 60 L 45.5 61 L 10 61 L 10.5 58 L 36.5 58 L 35 55.5 L 34 49 L 3.5 49 L 3 51.5 L 5 57 L 9 58 Q 10.5 61.7 7.5 61 L 1 55.5 L 0 48.5 L 1 46 L 9 46 L 9 23.5 L 10 22.5 L 10 7.5 L 12.5 4 L 14.5 3 Z M 15 6 L 13 8 L 13 23 L 12 24 L 12 46 L 37 46 L 38 56 L 42 58 L 48 57 L 49 55 L 49 11 L 51 7 L 15 6 Z M 55 6 L 52 10 L 52 17 L 61 17 L 60 8 Q 59 5 55 6 Z " /><path fill="rgb(0,0,0)" stroke="rgb(0,0,0)" stroke-width="1" opacity="1" d="M 19.5 14 L 29.5 14 L 31 15.5 L 30.5 17 L 18 17 L 19.5 14 Z " /><path fill="rgb(0,0,0)" stroke="rgb(0,0,0)" stroke-width="1" opacity="1" d="M 18 22 L 41.5 22 L 43 23.5 L 41.5 25 L 18 25 L 18 22 Z " /><path fill="rgb(0,0,0)" stroke="rgb(0,0,0)" stroke-width="1" opacity="1" d="M 18 30 L 42.5 30 L 43 31.5 L 41.5 33 L 19.5 33 L 18 30 Z " /><path fill="rgb(0,0,0)" stroke="rgb(0,0,0)" stroke-width="1" opacity="1" d="M 18 38 L 42.5 38 L 43 39.5 L 41.5 41 L 19.5 41 L 18 38 Z " /><path fill="rgb(0,0,0)" stroke="rgb(0,0,0)" stroke-width="1" opacity="0.9607843137254902" d="M 60.5 10 L 61 16.5 L 60 16.5 L 60.5 10 Z " /><path fill="rgb(0,0,0)" stroke="rgb(0,0,0)" stroke-width="1" opacity="0.9607843137254902" d="M 9.5 13 L 10 19.5 L 9 19.5 L 9.5 13 Z " /><path fill="rgb(0,0,0)" stroke="rgb(0,0,0)" stroke-width="1" opacity="0.9607843137254902" d="M 12.5 26 L 13 31.5 L 12 31.5 L 12.5 26 Z " /><path fill="rgb(0,0,0)" stroke="rgb(0,0,0)" stroke-width="1" opacity="0.9607843137254902" d="M 9.5 58 L 10 60.5 L 9 60.5 L 9.5 58 Z " /><path fill="rgb(0,0,0)" stroke="rgb(0,0,0)" stroke-width="1" opacity="0.803921568627451" d="M 52.5 10 L 53 16.5 L 52 16.5 L 52.5 10 Z " /><path fill="rgb(0,0,0)" stroke="rgb(0,0,0)" stroke-width="1" opacity="0.803921568627451" d="M 63.5 19 L 62.5 21 L 63.5 19 Z " /><path fill="rgb(0,0,0)" stroke="rgb(0,0,0)" stroke-width="1" opacity="0.803921568627451" d="M 52.5 21 L 53 52.5 L 52 52.5 L 52.5 21 Z " /><path fill="rgb(0,0,0)" stroke="rgb(0,0,0)" stroke-width="1" opacity="0.803921568627451" d="M 12.5 41 L 13 45 L 36 45.5 L 13.5 46 Q 10.8 44.8 12.5 41 Z " /><path fill="rgb(0,0,0)" stroke="rgb(0,0,0)" stroke-width="1" opacity="0.803921568627451" d="M 2.5 45 L 9 45.5 L 2.5 46 L 2.5 45 Z " /><path fill="rgb(0,0,0)" stroke="rgb(0,0,0)" stroke-width="1" opacity="0.803921568627451" d="M 37.5 47 L 38 51.5 L 37 51.5 L 37.5 47 Z " /><path fill="rgb(0,0,0)" stroke="rgb(0,0,0)" stroke-width="1" opacity="0.9058823529411765" d="M 9.5 9 L 10 12.5 L 9 12.5 L 9.5 9 Z " /><path fill="rgb(0,0,0)" stroke="rgb(0,0,0)" stroke-width="1" opacity="0.9058823529411765" d="M 53.5 20 L 62 20.5 L 53.5 21 L 53.5 20 Z " /><path fill="rgb(0,0,0)" stroke="rgb(0,0,0)" stroke-width="1" opacity="0.9058823529411765" d="M 12.5 32 L 13 40.5 L 12 40.5 L 12.5 32 Z " /></svg>