<svg width="32" height="32" version="1.1" xmlns="http://www.w3.org/2000/svg" desc="Created with imagetracer.js version 1.2.6" ><path fill="rgb(0,0,0)" stroke="rgb(0,0,0)" stroke-width="1" opacity="0.6862745098039216" d="M 13.5 1 L 19 1.5 L 13.5 2 L 13.5 1 Z " /><path fill="rgb(0,0,0)" stroke="rgb(0,0,0)" stroke-width="1" opacity="0.6862745098039216" d="M 30.5 9 L 31 29.5 Q 29.5 32.5 23.5 31 L 23.5 30 Q 29.8 30.8 30 29.5 L 30.5 9 Z " /><path fill="rgb(0,0,0)" stroke="rgb(0,0,0)" stroke-width="1" opacity="0.6862745098039216" d="M 1.5 17 L 2 30 L 9 30.5 L 2.5 31 L 1 29.5 L 1.5 17 Z " /><path fill="rgb(0,0,0)" stroke="rgb(0,0,0)" stroke-width="1" opacity="0.6862745098039216" d="M 13.5 30 L 19 30.5 L 13.5 31 L 13.5 30 Z " /><path fill="rgb(0,0,0)" stroke="rgb(0,0,0)" stroke-width="1" opacity="0.3058823529411765" d="M 22.5 9 L 23 29.5 L 22 29.5 L 22.5 9 Z " /><path fill="rgb(0,0,0)" stroke="rgb(0,0,0)" stroke-width="1" opacity="0.3058823529411765" d="M 9.5 17 L 10 29.5 L 9 29.5 L 9.5 17 Z " /><path fill="rgb(0,0,0)" stroke="rgb(0,0,0)" stroke-width="1" opacity="0" d="M 0 0 L 32 0 L 32 32 L 0 32 L 0 0 Z M 12 1 L 12 31 L 13 31 L 20 31 L 20 2 L 20 1 L 12 1 Z M 24 8 L 22 10 L 22 30 L 24 31 Q 29 32 31 30 L 31 8 L 24 8 Z M 1 16 L 1 30 Q 2 32 9 31 L 10 30 L 10 18 L 9 16 L 1 16 Z " /><path fill="rgb(0,0,0)" stroke="rgb(0,0,0)" stroke-width="1" opacity="1" d="M 12 2 L 19.5 2 L 20 2.5 L 20 30 L 12.5 30 L 12 29.5 L 12 2 Z " /><path fill="rgb(0,0,0)" stroke="rgb(0,0,0)" stroke-width="1" opacity="1" d="M 23 8 L 29.5 8 L 30 8.5 L 30 30 L 23.5 30 L 23 29.5 L 23 8 Z " /><path fill="rgb(0,0,0)" stroke="rgb(0,0,0)" stroke-width="1" opacity="1" d="M 2 16 L 9 16 L 9 30 L 2 30 L 2 16 Z " /></svg>