<svg width="512" height="512" version="1.1" xmlns="http://www.w3.org/2000/svg" desc="Created with imagetracer.js version 1.2.6" ><path fill="rgb(0,0,0)" stroke="rgb(0,0,0)" stroke-width="1" opacity="0.6901960784313725" d="M 210.5 21 L 302 21.5 L 210.5 22 L 210.5 21 Z " /><path fill="rgb(0,0,0)" stroke="rgb(0,0,0)" stroke-width="1" opacity="0.6901960784313725" d="M 200.5 25 L 196.5 30 L 200.5 25 Z " /><path fill="rgb(0,0,0)" stroke="rgb(0,0,0)" stroke-width="1" opacity="0.6901960784313725" d="M 311.5 25 L 315.5 30 L 311.5 25 Z " /><path fill="rgb(0,0,0)" stroke="rgb(0,0,0)" stroke-width="1" opacity="0.6901960784313725" d="M 195.5 31 L 194.5 33 L 195.5 31 Z " /><path fill="rgb(0,0,0)" stroke="rgb(0,0,0)" stroke-width="1" opacity="0.6901960784313725" d="M 316.5 31 L 317.5 33 L 316.5 31 Z " /><path fill="rgb(0,0,0)" stroke="rgb(0,0,0)" stroke-width="1" opacity="0.6901960784313725" d="M 192.5 37 L 193 39.5 L 192 39.5 L 192.5 37 Z " /><path fill="rgb(0,0,0)" stroke="rgb(0,0,0)" stroke-width="1" opacity="0.6901960784313725" d="M 379.5 128 L 382 128.5 L 379.5 129 L 379.5 128 Z " /><path fill="rgb(0,0,0)" stroke="rgb(0,0,0)" stroke-width="1" opacity="0.6901960784313725" d="M 472.5 128 L 475 128.5 L 472.5 129 L 472.5 128 Z " /><path fill="rgb(0,0,0)" stroke="rgb(0,0,0)" stroke-width="1" opacity="0.6901960784313725" d="M 479.5 130 L 480.5 132 L 479.5 130 Z " /><path fill="rgb(0,0,0)" stroke="rgb(0,0,0)" stroke-width="1" opacity="0.6901960784313725" d="M 482.5 132 L 486.5 137 L 482.5 132 Z " /><path fill="rgb(0,0,0)" stroke="rgb(0,0,0)" stroke-width="1" opacity="0.6901960784313725" d="M 366.5 137 L 365.5 139 L 366.5 137 Z " /><path fill="rgb(0,0,0)" stroke="rgb(0,0,0)" stroke-width="1" opacity="0.6901960784313725" d="M 490.5 146 L 491 472.5 L 490 472.5 L 490.5 146 Z " /><path fill="rgb(0,0,0)" stroke="rgb(0,0,0)" stroke-width="1" opacity="0.6901960784313725" d="M 37.5 256 L 40 256.5 L 37.5 257 L 37.5 256 Z " /><path fill="rgb(0,0,0)" stroke="rgb(0,0,0)" stroke-width="1" opacity="0.6901960784313725" d="M 130.5 256 L 133 256.5 L 130.5 257 L 130.5 256 Z " /><path fill="rgb(0,0,0)" stroke="rgb(0,0,0)" stroke-width="1" opacity="0.6901960784313725" d="M 32.5 258 L 31.5 260 L 32.5 258 Z " /><path fill="rgb(0,0,0)" stroke="rgb(0,0,0)" stroke-width="1" opacity="0.6901960784313725" d="M 29.5 260 L 26.5 264 L 29.5 260 Z " /><path fill="rgb(0,0,0)" stroke="rgb(0,0,0)" stroke-width="1" opacity="0.6901960784313725" d="M 145.5 265 L 146.5 267 L 145.5 265 Z " /><path fill="rgb(0,0,0)" stroke="rgb(0,0,0)" stroke-width="1" opacity="0.6901960784313725" d="M 21.5 274 L 22 472.5 L 21 472.5 L 21.5 274 Z " /><path fill="rgb(0,0,0)" stroke="rgb(0,0,0)" stroke-width="1" opacity="0.6901960784313725" d="M 192.5 472 L 193 474.5 L 192 474.5 L 192.5 472 Z " /><path fill="rgb(0,0,0)" stroke="rgb(0,0,0)" stroke-width="1" opacity="0.6901960784313725" d="M 194.5 479 L 195.5 481 L 194.5 479 Z " /><path fill="rgb(0,0,0)" stroke="rgb(0,0,0)" stroke-width="1" opacity="0.6901960784313725" d="M 317.5 479 L 316.5 481 L 317.5 479 Z " /><path fill="rgb(0,0,0)" stroke="rgb(0,0,0)" stroke-width="1" opacity="0.6901960784313725" d="M 24.5 480 L 25.5 482 L 24.5 480 Z " /><path fill="rgb(0,0,0)" stroke="rgb(0,0,0)" stroke-width="1" opacity="0.6901960784313725" d="M 487.5 480 L 486.5 482 L 487.5 480 Z " /><path fill="rgb(0,0,0)" stroke="rgb(0,0,0)" stroke-width="1" opacity="0.6901960784313725" d="M 145.5 481 L 143.5 484 L 145.5 481 Z " /><path fill="rgb(0,0,0)" stroke="rgb(0,0,0)" stroke-width="1" opacity="0.6901960784313725" d="M 366.5 481 L 368.5 484 L 366.5 481 Z " /><path fill="rgb(0,0,0)" stroke="rgb(0,0,0)" stroke-width="1" opacity="0.6901960784313725" d="M 196.5 482 L 199.5 486 L 196.5 482 Z " /><path fill="rgb(0,0,0)" stroke="rgb(0,0,0)" stroke-width="1" opacity="0.6901960784313725" d="M 315.5 482 L 311.5 487 L 315.5 482 Z " /><path fill="rgb(0,0,0)" stroke="rgb(0,0,0)" stroke-width="1" opacity="0.6901960784313725" d="M 141.5 485 L 140.5 487 L 141.5 485 Z " /><path fill="rgb(0,0,0)" stroke="rgb(0,0,0)" stroke-width="1" opacity="0.6901960784313725" d="M 370.5 485 L 371.5 487 L 370.5 485 Z " /><path fill="rgb(0,0,0)" stroke="rgb(0,0,0)" stroke-width="1" opacity="0.6901960784313725" d="M 30.5 486 L 31.5 488 L 30.5 486 Z " /><path fill="rgb(0,0,0)" stroke="rgb(0,0,0)" stroke-width="1" opacity="0.6901960784313725" d="M 481.5 486 L 480.5 488 L 481.5 486 Z " /><path fill="rgb(0,0,0)" stroke="rgb(0,0,0)" stroke-width="1" opacity="0.6901960784313725" d="M 373.5 487 L 374.5 489 L 373.5 487 Z " /><path fill="rgb(0,0,0)" stroke="rgb(0,0,0)" stroke-width="1" opacity="0.6901960784313725" d="M 39.5 490 L 132 490.5 L 39.5 491 L 39.5 490 Z " /><path fill="rgb(0,0,0)" stroke="rgb(0,0,0)" stroke-width="1" opacity="0.6901960784313725" d="M 210.5 490 L 302 490.5 L 210.5 491 L 210.5 490 Z " /><path fill="rgb(0,0,0)" stroke="rgb(0,0,0)" stroke-width="1" opacity="0.6901960784313725" d="M 380.5 490 L 473 490.5 L 380.5 491 L 380.5 490 Z " /><path fill="rgb(0,0,0)" stroke="rgb(0,0,0)" stroke-width="1" opacity="0" d="M 0 0 L 512 0 L 512 512 L 0 512 L 0 0 Z M 211 21 L 201 25 Q 195 29 192 38 L 192 475 L 196 483 Q 201 489 211 491 L 302 491 L 312 487 Q 318 483 320 474 L 320 39 L 316 30 Q 311 23 302 21 L 211 21 Z M 380 128 L 373 131 Q 365 135 363 144 L 363 476 L 366 482 Q 371 489 381 491 L 473 491 L 481 488 Q 489 483 491 473 L 491 147 L 487 137 Q 483 130 475 128 L 380 128 Z M 38 256 L 30 260 Q 23 265 21 275 L 21 473 L 24 481 Q 29 489 40 491 L 132 491 L 141 487 Q 146 483 149 476 L 149 272 L 147 267 Q 142 259 133 256 L 38 256 Z " /><path fill="rgb(0,0,0)" stroke="rgb(0,0,0)" stroke-width="1" opacity="1" d="M 207.5 22 L 303.5 22 Q 311.8 24.2 316 30.5 L 320 40.5 L 320 471.5 Q 318.3 482.3 310.5 487 L 303.5 490 L 208.5 490 Q 200.2 487.9 196 481.5 L 192 471.5 L 192 40.5 Q 193.7 29.7 201.5 25 L 207.5 22 Z " /><path fill="rgb(0,0,0)" stroke="rgb(0,0,0)" stroke-width="1" opacity="1" d="M 382.5 128 L 471.5 128 Q 482.3 129.7 487 137.5 L 490 144.5 L 490 474.5 Q 487.9 481.9 482.5 486 L 474.5 490 L 378.5 490 L 369 485 L 363 473.5 L 363 145.5 Q 364.9 136.4 371.5 132 L 382.5 128 Z " /><path fill="rgb(0,0,0)" stroke="rgb(0,0,0)" stroke-width="1" opacity="1" d="M 40.5 256 L 129.5 256 L 140.5 260 L 145 264.5 L 149 273.5 L 149 473.5 L 143 485 L 133.5 490 L 37.5 490 Q 30.1 487.9 26 482.5 L 22 474.5 L 22 271.5 Q 24.6 264.1 30.5 260 L 40.5 256 Z " /></svg>