<svg width="64" height="64" version="1.1" xmlns="http://www.w3.org/2000/svg" desc="Created with imagetracer.js version 1.2.6" ><path fill="rgb(0,0,0)" stroke="rgb(0,0,0)" stroke-width="1" opacity="0.30196078431372547" d="M 26.5 2 L 38 2.5 L 26.5 3 L 26.5 2 Z " /><path fill="rgb(0,0,0)" stroke="rgb(0,0,0)" stroke-width="1" opacity="0.30196078431372547" d="M 46.5 16 L 45.5 18 L 46.5 16 Z " /><path fill="rgb(0,0,0)" stroke="rgb(0,0,0)" stroke-width="1" opacity="0.30196078431372547" d="M 61.5 18 L 62 58.5 L 61 58.5 L 61.5 18 Z " /><path fill="rgb(0,0,0)" stroke="rgb(0,0,0)" stroke-width="1" opacity="0.30196078431372547" d="M 17.5 32 L 18.5 34 L 17.5 32 Z " /><path fill="rgb(0,0,0)" stroke="rgb(0,0,0)" stroke-width="1" opacity="0.30196078431372547" d="M 2.5 34 L 3 58.5 L 2 58.5 L 2.5 34 Z " /><path fill="rgb(0,0,0)" stroke="rgb(0,0,0)" stroke-width="1" opacity="0.30196078431372547" d="M 5.5 61 L 17 61.5 L 5.5 62 L 5.5 61 Z " /><path fill="rgb(0,0,0)" stroke="rgb(0,0,0)" stroke-width="1" opacity="0.30196078431372547" d="M 26.5 61 L 38 61.5 L 26.5 62 L 26.5 61 Z " /><path fill="rgb(0,0,0)" stroke="rgb(0,0,0)" stroke-width="1" opacity="0.30196078431372547" d="M 47.5 61 L 59 61.5 L 47.5 62 L 47.5 61 Z " /><path fill="rgb(0,0,0)" stroke="rgb(0,0,0)" stroke-width="1" opacity="0" d="M 0 0 L 64 0 L 64 64 L 0 64 L 0 0 Z M 27 2 L 26 3 L 24 4 L 24 61 L 27 62 L 38 62 L 39 61 L 40 61 L 40 3 Q 36 1 27 2 Z M 47 16 L 45 18 L 45 60 L 48 62 Q 57 63 61 61 L 62 59 L 62 19 L 61 18 L 61 16 L 47 16 Z M 3 32 L 2 35 L 2 59 L 3 61 Q 7 63 17 62 L 19 60 L 19 34 L 18 32 L 3 32 Z " /><path fill="rgb(0,0,0)" stroke="rgb(0,0,0)" stroke-width="1" opacity="0.7176470588235294" d="M 45.5 18 L 46 58.5 L 45 58.5 L 45.5 18 Z " /><path fill="rgb(0,0,0)" stroke="rgb(0,0,0)" stroke-width="1" opacity="0.7176470588235294" d="M 18.5 34 L 19 58.5 L 18 58.5 L 18.5 34 Z " /><path fill="rgb(0,0,0)" stroke="rgb(0,0,0)" stroke-width="1" opacity="0.996078431372549" d="M 3.5 59 L 4.5 61 L 3.5 59 Z " /><path fill="rgb(0,0,0)" stroke="rgb(0,0,0)" stroke-width="1" opacity="0.996078431372549" d="M 60.5 59 L 59.5 61 L 60.5 59 Z " /><path fill="rgb(0,0,0)" stroke="rgb(0,0,0)" stroke-width="1" opacity="1" d="M 26.5 3 L 37.5 3 L 39 4.5 L 40 6.5 L 40 57.5 L 37.5 61 L 26.5 61 L 25 59.5 L 24 57.5 L 24 6.5 L 26.5 3 Z " /><path fill="rgb(0,0,0)" stroke="rgb(0,0,0)" stroke-width="1" opacity="1" d="M 48.5 16 Q 57.9 14.1 61 18.5 L 61 58.5 L 58.5 61 L 47.5 61 L 46 59.5 L 46 17.5 L 47.5 17 L 48.5 16 Z " /><path fill="rgb(0,0,0)" stroke="rgb(0,0,0)" stroke-width="1" opacity="1" d="M 6.5 32 Q 14.7 30.9 18 33 L 18 59.5 L 16.5 61 L 5.5 61 L 3 58.5 L 3 34.5 L 4.5 33 L 6.5 32 Z " /></svg>