<svg width="32" height="32" version="1.1" xmlns="http://www.w3.org/2000/svg" desc="Created with imagetracer.js version 1.2.6" ><path fill="rgb(0,0,0)" stroke="rgb(0,0,0)" stroke-width="1" opacity="0.058823529411764705" d="M 9.5 17 L 14 17.5 L 9.5 18 L 9.5 17 Z " /><path fill="rgb(0,0,0)" stroke="rgb(0,0,0)" stroke-width="1" opacity="0.058823529411764705" d="M 18.5 17 L 23 17.5 L 18.5 18 L 18.5 17 Z " /><path fill="rgb(0,0,0)" stroke="rgb(0,0,0)" stroke-width="1" opacity="0.058823529411764705" d="M 14.5 22 L 16.5 23 L 18 22.5 L 15.5 24 L 14.5 22 Z " /><path fill="rgb(0,0,0)" stroke="rgb(0,0,0)" stroke-width="1" opacity="0.5568627450980392" d="M 14.5 2 L 18 2.5 L 14.5 3 L 14.5 2 Z " /><path fill="rgb(0,0,0)" stroke="rgb(0,0,0)" stroke-width="1" opacity="0.5568627450980392" d="M 2.5 14 L 3 17.5 L 2 17.5 L 2.5 14 Z " /><path fill="rgb(0,0,0)" stroke="rgb(0,0,0)" stroke-width="1" opacity="0.5568627450980392" d="M 29.5 14 L 30 17.5 L 29 17.5 L 29.5 14 Z " /><path fill="rgb(0,0,0)" stroke="rgb(0,0,0)" stroke-width="1" opacity="0.5568627450980392" d="M 14.5 29 L 18 29.5 L 14.5 30 L 14.5 29 Z " /><path fill="rgb(0,0,0)" stroke="rgb(0,0,0)" stroke-width="1" opacity="0" d="M 0 0 L 11 0.5 L 3 5.5 L 0.5 11 L 0 0 Z " /><path fill="rgb(0,0,0)" stroke="rgb(0,0,0)" stroke-width="1" opacity="0" d="M 21.5 0 L 32 0 L 32 10.5 L 31 10.5 L 31 8.5 L 26.5 3 L 21.5 1 L 21.5 0 Z " /><path fill="rgb(0,0,0)" stroke="rgb(0,0,0)" stroke-width="1" opacity="0" d="M 13.5 3 Q 23.5 2.5 27 8.5 Q 29.7 11.8 29 18.5 Q 27.8 24.3 23.5 27 Q 20.2 29.7 13.5 29 Q 7.8 27.8 5 23.5 Q 2.3 20.2 3 13.5 Q 4.3 7.8 8.5 5 L 13.5 3 Z M 16 8 Q 13 9 14 14 Q 9 13 8 16 L 10 18 Q 16 16 14 23 L 17 24 Q 19 23 18 18 Q 23 19 24 17 L 23 14 Q 16 16 18 10 L 16 8 Z " /><path fill="rgb(0,0,0)" stroke="rgb(0,0,0)" stroke-width="1" opacity="0" d="M 0.5 21 L 5.5 29 L 11 31.5 L 0 32 L 0.5 21 Z " /><path fill="rgb(0,0,0)" stroke="rgb(0,0,0)" stroke-width="1" opacity="0" d="M 31.5 21 L 32 32 L 21 31.5 L 29 26.5 L 31.5 21 Z " /><path fill="rgb(0,0,0)" stroke="rgb(0,0,0)" stroke-width="1" opacity="0.24313725490196078" d="M 14.5 10 L 15 13.5 L 14 13.5 L 14.5 10 Z " /><path fill="rgb(0,0,0)" stroke="rgb(0,0,0)" stroke-width="1" opacity="0.24313725490196078" d="M 17.5 10 L 18 13.5 L 17 13.5 L 17.5 10 Z " /><path fill="rgb(0,0,0)" stroke="rgb(0,0,0)" stroke-width="1" opacity="0.24313725490196078" d="M 9.5 14 L 9 15.5 L 8.5 17 L 8 15.5 L 9.5 14 Z " /><path fill="rgb(0,0,0)" stroke="rgb(0,0,0)" stroke-width="1" opacity="0.24313725490196078" d="M 22.5 14 L 24 16.5 L 23 16.5 L 22.5 14 Z " /><path fill="rgb(0,0,0)" stroke="rgb(0,0,0)" stroke-width="1" opacity="0.24313725490196078" d="M 14.5 18 L 15 21.5 L 14 21.5 L 14.5 18 Z " /><path fill="rgb(0,0,0)" stroke="rgb(0,0,0)" stroke-width="1" opacity="0.24313725490196078" d="M 17.5 18 L 18 21.5 L 17 21.5 L 17.5 18 Z " /><path fill="rgb(0,0,0)" stroke="rgb(0,0,0)" stroke-width="1" opacity="0.36470588235294116" d="M 10.5 14 L 14 14.5 L 10.5 15 L 10.5 14 Z " /><path fill="rgb(0,0,0)" stroke="rgb(0,0,0)" stroke-width="1" opacity="0.36470588235294116" d="M 18.5 14 L 22 14.5 L 18.5 15 L 18.5 14 Z " /><path fill="rgb(0,0,0)" stroke="rgb(0,0,0)" stroke-width="1" opacity="0.9803921568627451" d="M 15.5 0 L 21.5 1 L 28 5.5 L 31 10.5 L 32 16.5 L 31 21.5 L 26.5 28 L 21.5 31 L 15.5 32 L 10.5 31 L 4 26.5 L 1 21.5 L 0 15.5 L 1 10.5 L 5.5 4 L 10.5 1 L 15.5 0 Z M 14 2 L 9 4 Q 4 7 2 14 Q 1 20 4 24 Q 7 28 14 30 Q 20 31 24 28 Q 28 25 30 19 Q 31 12 28 9 Q 24 2 14 2 Z " /><path fill="rgb(0,0,0)" stroke="rgb(0,0,0)" stroke-width="1" opacity="0.9803921568627451" d="M 15 9 L 17 9 L 17 15 L 23 15 L 23 17 L 17 17 L 17 23 L 15 23 L 15 17 L 9 17 L 9 15 L 15 15 L 15 9 Z " /></svg>