<svg width="512" height="512" version="1.1" xmlns="http://www.w3.org/2000/svg" desc="Created with imagetracer.js version 1.2.6" ><path fill="rgb(0,0,0)" stroke="rgb(0,0,0)" stroke-width="1" opacity="0" d="M 0 0 L 238 0.5 L 219.5 2 L 186.5 9 L 146.5 24 Q 104.1 44.6 73 76.5 Q 43.4 106.4 24 146.5 L 9 186.5 L 2 219.5 L 0.5 238 L 0 0 Z " /><path fill="rgb(0,0,0)" stroke="rgb(0,0,0)" stroke-width="1" opacity="0" d="M 274.5 0 L 512 0 L 512 237.5 L 511 237.5 L 510 219.5 L 503 186.5 L 488 146.5 Q 467.4 104.1 435.5 73 Q 405.6 43.4 365.5 24 L 325.5 9 L 292.5 2 L 274.5 1 L 274.5 0 Z " /><path fill="rgb(0,0,0)" stroke="rgb(0,0,0)" stroke-width="1" opacity="0" d="M 240.5 40 L 271.5 40 L 272.5 41 L 289.5 42 L 312.5 47 L 331.5 53 Q 381.8 72.8 415 109.5 Q 443.1 138.9 459 180.5 L 465 199.5 L 470 222.5 L 471 239.5 L 472 240.5 L 472 271.5 L 471 272.5 L 471 281.5 L 470 282.5 L 468 300.5 Q 462.8 323.8 454 343.5 Q 434.8 385.8 402.5 415 Q 373.1 443.1 331.5 459 L 312.5 465 L 289.5 470 L 272.5 471 L 271.5 472 L 240.5 472 L 239.5 471 L 230.5 471 L 229.5 470 L 211.5 468 Q 188.2 462.8 168.5 454 Q 126.2 434.8 97 402.5 Q 68.9 373.1 53 331.5 L 47 312.5 L 42 289.5 L 41 272.5 L 40 271.5 L 40 240.5 L 41 239.5 L 41 230.5 L 42 229.5 L 44 211.5 Q 49.2 188.2 58 168.5 Q 77.2 126.2 109.5 97 Q 134.5 73 168.5 58 L 199.5 47 L 222.5 42 L 239.5 41 L 240.5 40 Z M 253 135 L 243 140 L 237 148 L 236 152 L 236 234 L 155 234 L 144 239 L 137 250 Q 136 260 140 266 Q 144 272 153 274 L 236 274 L 236 358 L 239 365 Q 243 370 251 373 Q 262 375 268 370 Q 274 366 276 358 L 276 274 L 360 274 L 367 271 Q 373 267 375 259 Q 377 245 370 241 Q 365 236 358 234 L 276 234 L 276 152 L 271 142 Q 266 134 253 135 Z " /><path fill="rgb(0,0,0)" stroke="rgb(0,0,0)" stroke-width="1" opacity="0" d="M 0.5 274 L 2 292.5 L 9 325.5 L 24 365.5 Q 44.6 407.9 76.5 439 Q 106.4 468.6 146.5 488 L 186.5 503 L 219.5 510 L 238 511.5 L 0 512 L 0.5 274 Z " /><path fill="rgb(0,0,0)" stroke="rgb(0,0,0)" stroke-width="1" opacity="0" d="M 511.5 274 L 512 512 L 274 511.5 L 292.5 510 L 325.5 503 L 365.5 488 Q 407.9 467.4 439 435.5 Q 468.6 405.6 488 365.5 L 503 325.5 L 510 292.5 L 511.5 274 Z " /><path fill="rgb(0,0,0)" stroke="rgb(0,0,0)" stroke-width="1" opacity="0.9019607843137255" d="M 246.5 0 L 254 0.5 L 246.5 1 L 246.5 0 Z " /><path fill="rgb(0,0,0)" stroke="rgb(0,0,0)" stroke-width="1" opacity="0.9019607843137255" d="M 258.5 0 L 266 0.5 L 258.5 1 L 258.5 0 Z " /><path fill="rgb(0,0,0)" stroke="rgb(0,0,0)" stroke-width="1" opacity="0.9019607843137255" d="M 245.5 39 L 253 39.5 L 245.5 40 L 245.5 39 Z " /><path fill="rgb(0,0,0)" stroke="rgb(0,0,0)" stroke-width="1" opacity="0.9019607843137255" d="M 259.5 39 L 267 39.5 L 259.5 40 L 259.5 39 Z " /><path fill="rgb(0,0,0)" stroke="rgb(0,0,0)" stroke-width="1" opacity="0.9019607843137255" d="M 97.5 55 L 96.5 57 L 97.5 55 Z " /><path fill="rgb(0,0,0)" stroke="rgb(0,0,0)" stroke-width="1" opacity="0.9019607843137255" d="M 414.5 55 L 415.5 57 L 414.5 55 Z " /><path fill="rgb(0,0,0)" stroke="rgb(0,0,0)" stroke-width="1" opacity="0.9019607843137255" d="M 92.5 59 L 90.5 62 L 92.5 59 Z " /><path fill="rgb(0,0,0)" stroke="rgb(0,0,0)" stroke-width="1" opacity="0.9019607843137255" d="M 419.5 59 L 421.5 62 L 419.5 59 Z " /><path fill="rgb(0,0,0)" stroke="rgb(0,0,0)" stroke-width="1" opacity="0.9019607843137255" d="M 84.5 66 L 79.5 72 L 84.5 66 Z " /><path fill="rgb(0,0,0)" stroke="rgb(0,0,0)" stroke-width="1" opacity="0.9019607843137255" d="M 427.5 66 L 432.5 72 L 427.5 66 Z " /><path fill="rgb(0,0,0)" stroke="rgb(0,0,0)" stroke-width="1" opacity="0.9019607843137255" d="M 71.5 79 L 66.5 85 L 71.5 79 Z " /><path fill="rgb(0,0,0)" stroke="rgb(0,0,0)" stroke-width="1" opacity="0.9019607843137255" d="M 440.5 79 L 445.5 85 L 440.5 79 Z " /><path fill="rgb(0,0,0)" stroke="rgb(0,0,0)" stroke-width="1" opacity="0.9019607843137255" d="M 117.5 89 L 115.5 92 L 117.5 89 Z " /><path fill="rgb(0,0,0)" stroke="rgb(0,0,0)" stroke-width="1" opacity="0.9019607843137255" d="M 394.5 89 L 396.5 92 L 394.5 89 Z " /><path fill="rgb(0,0,0)" stroke="rgb(0,0,0)" stroke-width="1" opacity="0.9019607843137255" d="M 61.5 90 L 59.5 93 L 61.5 90 Z " /><path fill="rgb(0,0,0)" stroke="rgb(0,0,0)" stroke-width="1" opacity="0.9019607843137255" d="M 450.5 90 L 452.5 93 L 450.5 90 Z " /><path fill="rgb(0,0,0)" stroke="rgb(0,0,0)" stroke-width="1" opacity="0.9019607843137255" d="M 56.5 96 L 55.5 98 L 56.5 96 Z " /><path fill="rgb(0,0,0)" stroke="rgb(0,0,0)" stroke-width="1" opacity="0.9019607843137255" d="M 455.5 96 L 456.5 98 L 455.5 96 Z " /><path fill="rgb(0,0,0)" stroke="rgb(0,0,0)" stroke-width="1" opacity="0.9019607843137255" d="M 107.5 98 L 104.5 102 L 107.5 98 Z " /><path fill="rgb(0,0,0)" stroke="rgb(0,0,0)" stroke-width="1" opacity="0.9019607843137255" d="M 404.5 98 L 407.5 102 L 404.5 98 Z " /><path fill="rgb(0,0,0)" stroke="rgb(0,0,0)" stroke-width="1" opacity="0.9019607843137255" d="M 101.5 104 L 98.5 108 L 101.5 104 Z " /><path fill="rgb(0,0,0)" stroke="rgb(0,0,0)" stroke-width="1" opacity="0.9019607843137255" d="M 410.5 104 L 413.5 108 L 410.5 104 Z " /><path fill="rgb(0,0,0)" stroke="rgb(0,0,0)" stroke-width="1" opacity="0.9019607843137255" d="M 91.5 115 L 89.5 118 L 91.5 115 Z " /><path fill="rgb(0,0,0)" stroke="rgb(0,0,0)" stroke-width="1" opacity="0.9019607843137255" d="M 420.5 115 L 422.5 118 L 420.5 115 Z " /><path fill="rgb(0,0,0)" stroke="rgb(0,0,0)" stroke-width="1" opacity="0.9019607843137255" d="M 236.5 154 L 237 234.5 L 236 234.5 L 236.5 154 Z " /><path fill="rgb(0,0,0)" stroke="rgb(0,0,0)" stroke-width="1" opacity="0.9019607843137255" d="M 275.5 154 L 276 234.5 L 275 234.5 L 275.5 154 Z " /><path fill="rgb(0,0,0)" stroke="rgb(0,0,0)" stroke-width="1" opacity="0.9019607843137255" d="M 141.5 242 L 140.5 244 L 141.5 242 Z " /><path fill="rgb(0,0,0)" stroke="rgb(0,0,0)" stroke-width="1" opacity="0.9019607843137255" d="M 370.5 242 L 371.5 244 L 370.5 242 Z " /><path fill="rgb(0,0,0)" stroke="rgb(0,0,0)" stroke-width="1" opacity="0.9019607843137255" d="M 39.5 245 L 40 252.5 L 39 252.5 L 39.5 245 Z " /><path fill="rgb(0,0,0)" stroke="rgb(0,0,0)" stroke-width="1" opacity="0.9019607843137255" d="M 472.5 245 L 473 252.5 L 472 252.5 L 472.5 245 Z " /><path fill="rgb(0,0,0)" stroke="rgb(0,0,0)" stroke-width="1" opacity="0.9019607843137255" d="M 0.5 246 L 1 253.5 L 0 253.5 L 0.5 246 Z " /><path fill="rgb(0,0,0)" stroke="rgb(0,0,0)" stroke-width="1" opacity="0.9019607843137255" d="M 511.5 246 L 512 253.5 L 511 253.5 L 511.5 246 Z " /><path fill="rgb(0,0,0)" stroke="rgb(0,0,0)" stroke-width="1" opacity="0.9019607843137255" d="M 137.5 252 L 138 255.5 L 137 255.5 L 137.5 252 Z " /><path fill="rgb(0,0,0)" stroke="rgb(0,0,0)" stroke-width="1" opacity="0.9019607843137255" d="M 374.5 252 L 375 255.5 L 374 255.5 L 374.5 252 Z " /><path fill="rgb(0,0,0)" stroke="rgb(0,0,0)" stroke-width="1" opacity="0.9019607843137255" d="M 0.5 258 L 1 265.5 L 0 265.5 L 0.5 258 Z " /><path fill="rgb(0,0,0)" stroke="rgb(0,0,0)" stroke-width="1" opacity="0.9019607843137255" d="M 511.5 258 L 512 265.5 L 511 265.5 L 511.5 258 Z " /><path fill="rgb(0,0,0)" stroke="rgb(0,0,0)" stroke-width="1" opacity="0.9019607843137255" d="M 39.5 259 L 40 266.5 L 39 266.5 L 39.5 259 Z " /><path fill="rgb(0,0,0)" stroke="rgb(0,0,0)" stroke-width="1" opacity="0.9019607843137255" d="M 472.5 259 L 473 266.5 L 472 266.5 L 472.5 259 Z " /><path fill="rgb(0,0,0)" stroke="rgb(0,0,0)" stroke-width="1" opacity="0.9019607843137255" d="M 142.5 267 L 143.5 269 L 142.5 267 Z " /><path fill="rgb(0,0,0)" stroke="rgb(0,0,0)" stroke-width="1" opacity="0.9019607843137255" d="M 369.5 267 L 368.5 269 L 369.5 267 Z " /><path fill="rgb(0,0,0)" stroke="rgb(0,0,0)" stroke-width="1" opacity="0.9019607843137255" d="M 236.5 274 L 237 353.5 L 236 353.5 L 236.5 274 Z " /><path fill="rgb(0,0,0)" stroke="rgb(0,0,0)" stroke-width="1" opacity="0.9019607843137255" d="M 275.5 274 L 276 353.5 L 275 353.5 L 275.5 274 Z " /><path fill="rgb(0,0,0)" stroke="rgb(0,0,0)" stroke-width="1" opacity="0.9019607843137255" d="M 89.5 394 L 91.5 397 L 89.5 394 Z " /><path fill="rgb(0,0,0)" stroke="rgb(0,0,0)" stroke-width="1" opacity="0.9019607843137255" d="M 422.5 394 L 420.5 397 L 422.5 394 Z " /><path fill="rgb(0,0,0)" stroke="rgb(0,0,0)" stroke-width="1" opacity="0.9019607843137255" d="M 98.5 404 L 101.5 408 L 98.5 404 Z " /><path fill="rgb(0,0,0)" stroke="rgb(0,0,0)" stroke-width="1" opacity="0.9019607843137255" d="M 413.5 404 L 410.5 408 L 413.5 404 Z " /><path fill="rgb(0,0,0)" stroke="rgb(0,0,0)" stroke-width="1" opacity="0.9019607843137255" d="M 104.5 410 L 107.5 414 L 104.5 410 Z " /><path fill="rgb(0,0,0)" stroke="rgb(0,0,0)" stroke-width="1" opacity="0.9019607843137255" d="M 407.5 410 L 404.5 414 L 407.5 410 Z " /><path fill="rgb(0,0,0)" stroke="rgb(0,0,0)" stroke-width="1" opacity="0.9019607843137255" d="M 55.5 414 L 56.5 416 L 55.5 414 Z " /><path fill="rgb(0,0,0)" stroke="rgb(0,0,0)" stroke-width="1" opacity="0.9019607843137255" d="M 456.5 414 L 455.5 416 L 456.5 414 Z " /><path fill="rgb(0,0,0)" stroke="rgb(0,0,0)" stroke-width="1" opacity="0.9019607843137255" d="M 59.5 419 L 61.5 422 L 59.5 419 Z " /><path fill="rgb(0,0,0)" stroke="rgb(0,0,0)" stroke-width="1" opacity="0.9019607843137255" d="M 452.5 419 L 450.5 422 L 452.5 419 Z " /><path fill="rgb(0,0,0)" stroke="rgb(0,0,0)" stroke-width="1" opacity="0.9019607843137255" d="M 115.5 420 L 117.5 423 L 115.5 420 Z " /><path fill="rgb(0,0,0)" stroke="rgb(0,0,0)" stroke-width="1" opacity="0.9019607843137255" d="M 396.5 420 L 394.5 423 L 396.5 420 Z " /><path fill="rgb(0,0,0)" stroke="rgb(0,0,0)" stroke-width="1" opacity="0.9019607843137255" d="M 66.5 427 L 71.5 433 L 66.5 427 Z " /><path fill="rgb(0,0,0)" stroke="rgb(0,0,0)" stroke-width="1" opacity="0.9019607843137255" d="M 445.5 427 L 440.5 433 L 445.5 427 Z " /><path fill="rgb(0,0,0)" stroke="rgb(0,0,0)" stroke-width="1" opacity="0.9019607843137255" d="M 79.5 440 L 84.5 446 L 79.5 440 Z " /><path fill="rgb(0,0,0)" stroke="rgb(0,0,0)" stroke-width="1" opacity="0.9019607843137255" d="M 432.5 440 L 427.5 446 L 432.5 440 Z " /><path fill="rgb(0,0,0)" stroke="rgb(0,0,0)" stroke-width="1" opacity="0.9019607843137255" d="M 90.5 450 L 92.5 453 L 90.5 450 Z " /><path fill="rgb(0,0,0)" stroke="rgb(0,0,0)" stroke-width="1" opacity="0.9019607843137255" d="M 421.5 450 L 419.5 453 L 421.5 450 Z " /><path fill="rgb(0,0,0)" stroke="rgb(0,0,0)" stroke-width="1" opacity="0.9019607843137255" d="M 96.5 455 L 97.5 457 L 96.5 455 Z " /><path fill="rgb(0,0,0)" stroke="rgb(0,0,0)" stroke-width="1" opacity="0.9019607843137255" d="M 415.5 455 L 414.5 457 L 415.5 455 Z " /><path fill="rgb(0,0,0)" stroke="rgb(0,0,0)" stroke-width="1" opacity="0.9019607843137255" d="M 245.5 472 L 253 472.5 L 245.5 473 L 245.5 472 Z " /><path fill="rgb(0,0,0)" stroke="rgb(0,0,0)" stroke-width="1" opacity="0.9019607843137255" d="M 259.5 472 L 267 472.5 L 259.5 473 L 259.5 472 Z " /><path fill="rgb(0,0,0)" stroke="rgb(0,0,0)" stroke-width="1" opacity="0.9019607843137255" d="M 246.5 511 L 254 511.5 L 246.5 512 L 246.5 511 Z " /><path fill="rgb(0,0,0)" stroke="rgb(0,0,0)" stroke-width="1" opacity="0.9019607843137255" d="M 258.5 511 L 266 511.5 L 258.5 512 L 258.5 511 Z " /><path fill="rgb(0,0,0)" stroke="rgb(0,0,0)" stroke-width="1" opacity="0.5882352941176471" d="M 238.5 0 L 246 0.5 L 238.5 1 L 238.5 0 Z " /><path fill="rgb(0,0,0)" stroke="rgb(0,0,0)" stroke-width="1" opacity="0.5882352941176471" d="M 266.5 0 L 274 0.5 L 266.5 1 L 266.5 0 Z " /><path fill="rgb(0,0,0)" stroke="rgb(0,0,0)" stroke-width="1" opacity="0.5882352941176471" d="M 227.5 1 L 231 1.5 L 227.5 2 L 227.5 1 Z " /><path fill="rgb(0,0,0)" stroke="rgb(0,0,0)" stroke-width="1" opacity="0.5882352941176471" d="M 281.5 1 L 285 1.5 L 281.5 2 L 281.5 1 Z " /><path fill="rgb(0,0,0)" stroke="rgb(0,0,0)" stroke-width="1" opacity="0.5882352941176471" d="M 219.5 2 L 223 2.5 L 219.5 3 L 219.5 2 Z " /><path fill="rgb(0,0,0)" stroke="rgb(0,0,0)" stroke-width="1" opacity="0.5882352941176471" d="M 289.5 2 L 293 2.5 L 289.5 3 L 289.5 2 Z " /><path fill="rgb(0,0,0)" stroke="rgb(0,0,0)" stroke-width="1" opacity="0.5882352941176471" d="M 207.5 4 L 210 4.5 L 207.5 5 L 207.5 4 Z " /><path fill="rgb(0,0,0)" stroke="rgb(0,0,0)" stroke-width="1" opacity="0.5882352941176471" d="M 302.5 4 L 305 4.5 L 302.5 5 L 302.5 4 Z " /><path fill="rgb(0,0,0)" stroke="rgb(0,0,0)" stroke-width="1" opacity="0.5882352941176471" d="M 122.5 37 L 121.5 39 L 122.5 37 Z " /><path fill="rgb(0,0,0)" stroke="rgb(0,0,0)" stroke-width="1" opacity="0.5882352941176471" d="M 389.5 37 L 390.5 39 L 389.5 37 Z " /><path fill="rgb(0,0,0)" stroke="rgb(0,0,0)" stroke-width="1" opacity="0.5882352941176471" d="M 253.5 39 L 259 39.5 L 253.5 40 L 253.5 39 Z " /><path fill="rgb(0,0,0)" stroke="rgb(0,0,0)" stroke-width="1" opacity="0.5882352941176471" d="M 234.5 40 L 240 40.5 L 234.5 41 L 234.5 40 Z " /><path fill="rgb(0,0,0)" stroke="rgb(0,0,0)" stroke-width="1" opacity="0.5882352941176471" d="M 272.5 40 L 278 40.5 L 272.5 41 L 272.5 40 Z " /><path fill="rgb(0,0,0)" stroke="rgb(0,0,0)" stroke-width="1" opacity="0.5882352941176471" d="M 226.5 41 L 230 41.5 L 226.5 42 L 226.5 41 Z " /><path fill="rgb(0,0,0)" stroke="rgb(0,0,0)" stroke-width="1" opacity="0.5882352941176471" d="M 282.5 41 L 286 41.5 L 282.5 42 L 282.5 41 Z " /><path fill="rgb(0,0,0)" stroke="rgb(0,0,0)" stroke-width="1" opacity="0.5882352941176471" d="M 214.5 43 L 217 43.5 L 214.5 44 L 214.5 43 Z " /><path fill="rgb(0,0,0)" stroke="rgb(0,0,0)" stroke-width="1" opacity="0.5882352941176471" d="M 295.5 43 L 298 43.5 L 295.5 44 L 295.5 43 Z " /><path fill="rgb(0,0,0)" stroke="rgb(0,0,0)" stroke-width="1" opacity="0.5882352941176471" d="M 110.5 45 L 109.5 47 L 110.5 45 Z " /><path fill="rgb(0,0,0)" stroke="rgb(0,0,0)" stroke-width="1" opacity="0.5882352941176471" d="M 401.5 45 L 402.5 47 L 401.5 45 Z " /><path fill="rgb(0,0,0)" stroke="rgb(0,0,0)" stroke-width="1" opacity="0.5882352941176471" d="M 107.5 47 L 106.5 49 L 107.5 47 Z " /><path fill="rgb(0,0,0)" stroke="rgb(0,0,0)" stroke-width="1" opacity="0.5882352941176471" d="M 404.5 47 L 405.5 49 L 404.5 47 Z " /><path fill="rgb(0,0,0)" stroke="rgb(0,0,0)" stroke-width="1" opacity="0.5882352941176471" d="M 103.5 50 L 102.5 52 L 103.5 50 Z " /><path fill="rgb(0,0,0)" stroke="rgb(0,0,0)" stroke-width="1" opacity="0.5882352941176471" d="M 408.5 50 L 409.5 52 L 408.5 50 Z " /><path fill="rgb(0,0,0)" stroke="rgb(0,0,0)" stroke-width="1" opacity="0.5882352941176471" d="M 99.5 53 L 98.5 55 L 99.5 53 Z " /><path fill="rgb(0,0,0)" stroke="rgb(0,0,0)" stroke-width="1" opacity="0.5882352941176471" d="M 412.5 53 L 413.5 55 L 412.5 53 Z " /><path fill="rgb(0,0,0)" stroke="rgb(0,0,0)" stroke-width="1" opacity="0.5882352941176471" d="M 94.5 57 L 93.5 59 L 94.5 57 Z " /><path fill="rgb(0,0,0)" stroke="rgb(0,0,0)" stroke-width="1" opacity="0.5882352941176471" d="M 417.5 57 L 418.5 59 L 417.5 57 Z " /><path fill="rgb(0,0,0)" stroke="rgb(0,0,0)" stroke-width="1" opacity="0.5882352941176471" d="M 88.5 62 L 85.5 66 L 88.5 62 Z " /><path fill="rgb(0,0,0)" stroke="rgb(0,0,0)" stroke-width="1" opacity="0.5882352941176471" d="M 423.5 62 L 426.5 66 L 423.5 62 Z " /><path fill="rgb(0,0,0)" stroke="rgb(0,0,0)" stroke-width="1" opacity="0.5882352941176471" d="M 76.5 73 L 73.5 77 L 76.5 73 Z " /><path fill="rgb(0,0,0)" stroke="rgb(0,0,0)" stroke-width="1" opacity="0.5882352941176471" d="M 435.5 73 L 438.5 77 L 435.5 73 Z " /><path fill="rgb(0,0,0)" stroke="rgb(0,0,0)" stroke-width="1" opacity="0.5882352941176471" d="M 132.5 78 L 131.5 80 L 132.5 78 Z " /><path fill="rgb(0,0,0)" stroke="rgb(0,0,0)" stroke-width="1" opacity="0.5882352941176471" d="M 379.5 78 L 380.5 80 L 379.5 78 Z " /><path fill="rgb(0,0,0)" stroke="rgb(0,0,0)" stroke-width="1" opacity="0.5882352941176471" d="M 128.5 81 L 127.5 83 L 128.5 81 Z " /><path fill="rgb(0,0,0)" stroke="rgb(0,0,0)" stroke-width="1" opacity="0.5882352941176471" d="M 383.5 81 L 384.5 83 L 383.5 81 Z " /><path fill="rgb(0,0,0)" stroke="rgb(0,0,0)" stroke-width="1" opacity="0.5882352941176471" d="M 124.5 84 L 123.5 86 L 124.5 84 Z " /><path fill="rgb(0,0,0)" stroke="rgb(0,0,0)" stroke-width="1" opacity="0.5882352941176471" d="M 387.5 84 L 388.5 86 L 387.5 84 Z " /><path fill="rgb(0,0,0)" stroke="rgb(0,0,0)" stroke-width="1" opacity="0.5882352941176471" d="M 65.5 85 L 62.5 89 L 65.5 85 Z " /><path fill="rgb(0,0,0)" stroke="rgb(0,0,0)" stroke-width="1" opacity="0.5882352941176471" d="M 446.5 85 L 449.5 89 L 446.5 85 Z " /><path fill="rgb(0,0,0)" stroke="rgb(0,0,0)" stroke-width="1" opacity="0.5882352941176471" d="M 120.5 87 L 119.5 89 L 120.5 87 Z " /><path fill="rgb(0,0,0)" stroke="rgb(0,0,0)" stroke-width="1" opacity="0.5882352941176471" d="M 391.5 87 L 392.5 89 L 391.5 87 Z " /><path fill="rgb(0,0,0)" stroke="rgb(0,0,0)" stroke-width="1" opacity="0.5882352941176471" d="M 114.5 92 L 110.5 97 L 114.5 92 Z " /><path fill="rgb(0,0,0)" stroke="rgb(0,0,0)" stroke-width="1" opacity="0.5882352941176471" d="M 397.5 92 L 401.5 97 L 397.5 92 Z " /><path fill="rgb(0,0,0)" stroke="rgb(0,0,0)" stroke-width="1" opacity="0.5882352941176471" d="M 58.5 93 L 57.5 95 L 58.5 93 Z " /><path fill="rgb(0,0,0)" stroke="rgb(0,0,0)" stroke-width="1" opacity="0.5882352941176471" d="M 453.5 93 L 454.5 95 L 453.5 93 Z " /><path fill="rgb(0,0,0)" stroke="rgb(0,0,0)" stroke-width="1" opacity="0.5882352941176471" d="M 54.5 98 L 53.5 100 L 54.5 98 Z " /><path fill="rgb(0,0,0)" stroke="rgb(0,0,0)" stroke-width="1" opacity="0.5882352941176471" d="M 457.5 98 L 458.5 100 L 457.5 98 Z " /><path fill="rgb(0,0,0)" stroke="rgb(0,0,0)" stroke-width="1" opacity="0.5882352941176471" d="M 51.5 102 L 50.5 104 L 51.5 102 Z " /><path fill="rgb(0,0,0)" stroke="rgb(0,0,0)" stroke-width="1" opacity="0.5882352941176471" d="M 103.5 102 L 102.5 104 L 103.5 102 Z " /><path fill="rgb(0,0,0)" stroke="rgb(0,0,0)" stroke-width="1" opacity="0.5882352941176471" d="M 408.5 102 L 409.5 104 L 408.5 102 Z " /><path fill="rgb(0,0,0)" stroke="rgb(0,0,0)" stroke-width="1" opacity="0.5882352941176471" d="M 460.5 102 L 461.5 104 L 460.5 102 Z " /><path fill="rgb(0,0,0)" stroke="rgb(0,0,0)" stroke-width="1" opacity="0.5882352941176471" d="M 48.5 106 L 47.5 108 L 48.5 106 Z " /><path fill="rgb(0,0,0)" stroke="rgb(0,0,0)" stroke-width="1" opacity="0.5882352941176471" d="M 463.5 106 L 464.5 108 L 463.5 106 Z " /><path fill="rgb(0,0,0)" stroke="rgb(0,0,0)" stroke-width="1" opacity="0.5882352941176471" d="M 46.5 109 L 45.5 111 L 46.5 109 Z " /><path fill="rgb(0,0,0)" stroke="rgb(0,0,0)" stroke-width="1" opacity="0.5882352941176471" d="M 465.5 109 L 466.5 111 L 465.5 109 Z " /><path fill="rgb(0,0,0)" stroke="rgb(0,0,0)" stroke-width="1" opacity="0.5882352941176471" d="M 96.5 110 L 92.5 115 L 96.5 110 Z " /><path fill="rgb(0,0,0)" stroke="rgb(0,0,0)" stroke-width="1" opacity="0.5882352941176471" d="M 415.5 110 L 419.5 115 L 415.5 110 Z " /><path fill="rgb(0,0,0)" stroke="rgb(0,0,0)" stroke-width="1" opacity="0.5882352941176471" d="M 88.5 119 L 87.5 121 L 88.5 119 Z " /><path fill="rgb(0,0,0)" stroke="rgb(0,0,0)" stroke-width="1" opacity="0.5882352941176471" d="M 423.5 119 L 424.5 121 L 423.5 119 Z " /><path fill="rgb(0,0,0)" stroke="rgb(0,0,0)" stroke-width="1" opacity="0.5882352941176471" d="M 38.5 121 L 37.5 123 L 38.5 121 Z " /><path fill="rgb(0,0,0)" stroke="rgb(0,0,0)" stroke-width="1" opacity="0.5882352941176471" d="M 473.5 121 L 474.5 123 L 473.5 121 Z " /><path fill="rgb(0,0,0)" stroke="rgb(0,0,0)" stroke-width="1" opacity="0.5882352941176471" d="M 85.5 123 L 84.5 125 L 85.5 123 Z " /><path fill="rgb(0,0,0)" stroke="rgb(0,0,0)" stroke-width="1" opacity="0.5882352941176471" d="M 426.5 123 L 427.5 125 L 426.5 123 Z " /><path fill="rgb(0,0,0)" stroke="rgb(0,0,0)" stroke-width="1" opacity="0.5882352941176471" d="M 82.5 127 L 81.5 129 L 82.5 127 Z " /><path fill="rgb(0,0,0)" stroke="rgb(0,0,0)" stroke-width="1" opacity="0.5882352941176471" d="M 429.5 127 L 430.5 129 L 429.5 127 Z " /><path fill="rgb(0,0,0)" stroke="rgb(0,0,0)" stroke-width="1" opacity="0.5882352941176471" d="M 79.5 131 L 78.5 133 L 79.5 131 Z " /><path fill="rgb(0,0,0)" stroke="rgb(0,0,0)" stroke-width="1" opacity="0.5882352941176471" d="M 432.5 131 L 433.5 133 L 432.5 131 Z " /><path fill="rgb(0,0,0)" stroke="rgb(0,0,0)" stroke-width="1" opacity="0.5882352941176471" d="M 252.5 135 L 260 135.5 L 252.5 136 L 252.5 135 Z " /><path fill="rgb(0,0,0)" stroke="rgb(0,0,0)" stroke-width="1" opacity="0.5882352941176471" d="M 242.5 140 L 241.5 142 L 242.5 140 Z " /><path fill="rgb(0,0,0)" stroke="rgb(0,0,0)" stroke-width="1" opacity="0.5882352941176471" d="M 269.5 140 L 270.5 142 L 269.5 140 Z " /><path fill="rgb(0,0,0)" stroke="rgb(0,0,0)" stroke-width="1" opacity="0.5882352941176471" d="M 236.5 151 L 237 153.5 L 236 153.5 L 236.5 151 Z " /><path fill="rgb(0,0,0)" stroke="rgb(0,0,0)" stroke-width="1" opacity="0.5882352941176471" d="M 275.5 151 L 276 153.5 L 275 153.5 L 275.5 151 Z " /><path fill="rgb(0,0,0)" stroke="rgb(0,0,0)" stroke-width="1" opacity="0.5882352941176471" d="M 4.5 207 L 5 209.5 L 4 209.5 L 4.5 207 Z " /><path fill="rgb(0,0,0)" stroke="rgb(0,0,0)" stroke-width="1" opacity="0.5882352941176471" d="M 507.5 207 L 508 209.5 L 507 209.5 L 507.5 207 Z " /><path fill="rgb(0,0,0)" stroke="rgb(0,0,0)" stroke-width="1" opacity="0.5882352941176471" d="M 43.5 214 L 44 216.5 L 43 216.5 L 43.5 214 Z " /><path fill="rgb(0,0,0)" stroke="rgb(0,0,0)" stroke-width="1" opacity="0.5882352941176471" d="M 468.5 214 L 469 216.5 L 468 216.5 L 468.5 214 Z " /><path fill="rgb(0,0,0)" stroke="rgb(0,0,0)" stroke-width="1" opacity="0.5882352941176471" d="M 2.5 219 L 3 222.5 L 2 222.5 L 2.5 219 Z " /><path fill="rgb(0,0,0)" stroke="rgb(0,0,0)" stroke-width="1" opacity="0.5882352941176471" d="M 509.5 219 L 510 222.5 L 509 222.5 L 509.5 219 Z " /><path fill="rgb(0,0,0)" stroke="rgb(0,0,0)" stroke-width="1" opacity="0.5882352941176471" d="M 41.5 226 L 42 229.5 L 41 229.5 L 41.5 226 Z " /><path fill="rgb(0,0,0)" stroke="rgb(0,0,0)" stroke-width="1" opacity="0.5882352941176471" d="M 470.5 226 L 471 229.5 L 470 229.5 L 470.5 226 Z " /><path fill="rgb(0,0,0)" stroke="rgb(0,0,0)" stroke-width="1" opacity="0.5882352941176471" d="M 1.5 227 L 2 230.5 L 1 230.5 L 1.5 227 Z " /><path fill="rgb(0,0,0)" stroke="rgb(0,0,0)" stroke-width="1" opacity="0.5882352941176471" d="M 510.5 227 L 511 230.5 L 510 230.5 L 510.5 227 Z " /><path fill="rgb(0,0,0)" stroke="rgb(0,0,0)" stroke-width="1" opacity="0.5882352941176471" d="M 40.5 234 L 41 239.5 L 40 239.5 L 40.5 234 Z " /><path fill="rgb(0,0,0)" stroke="rgb(0,0,0)" stroke-width="1" opacity="0.5882352941176471" d="M 154.5 234 L 236 234.5 L 154.5 235 L 154.5 234 Z " /><path fill="rgb(0,0,0)" stroke="rgb(0,0,0)" stroke-width="1" opacity="0.5882352941176471" d="M 276.5 234 L 358 234.5 L 276.5 235 L 276.5 234 Z " /><path fill="rgb(0,0,0)" stroke="rgb(0,0,0)" stroke-width="1" opacity="0.5882352941176471" d="M 471.5 234 L 472 239.5 L 471 239.5 L 471.5 234 Z " /><path fill="rgb(0,0,0)" stroke="rgb(0,0,0)" stroke-width="1" opacity="0.5882352941176471" d="M 0.5 238 L 1 245.5 L 0 245.5 L 0.5 238 Z " /><path fill="rgb(0,0,0)" stroke="rgb(0,0,0)" stroke-width="1" opacity="0.5882352941176471" d="M 511.5 238 L 512 245.5 L 511 245.5 L 511.5 238 Z " /><path fill="rgb(0,0,0)" stroke="rgb(0,0,0)" stroke-width="1" opacity="0.5882352941176471" d="M 143.5 239 L 142.5 241 L 143.5 239 Z " /><path fill="rgb(0,0,0)" stroke="rgb(0,0,0)" stroke-width="1" opacity="0.5882352941176471" d="M 368.5 239 L 369.5 241 L 368.5 239 Z " /><path fill="rgb(0,0,0)" stroke="rgb(0,0,0)" stroke-width="1" opacity="0.5882352941176471" d="M 137.5 249 L 138 251.5 L 137 251.5 L 137.5 249 Z " /><path fill="rgb(0,0,0)" stroke="rgb(0,0,0)" stroke-width="1" opacity="0.5882352941176471" d="M 374.5 249 L 375 251.5 L 374 251.5 L 374.5 249 Z " /><path fill="rgb(0,0,0)" stroke="rgb(0,0,0)" stroke-width="1" opacity="0.5882352941176471" d="M 39.5 253 L 40 258.5 L 39 258.5 L 39.5 253 Z " /><path fill="rgb(0,0,0)" stroke="rgb(0,0,0)" stroke-width="1" opacity="0.5882352941176471" d="M 472.5 253 L 473 258.5 L 472 258.5 L 472.5 253 Z " /><path fill="rgb(0,0,0)" stroke="rgb(0,0,0)" stroke-width="1" opacity="0.5882352941176471" d="M 137.5 256 L 138 258.5 L 137 258.5 L 137.5 256 Z " /><path fill="rgb(0,0,0)" stroke="rgb(0,0,0)" stroke-width="1" opacity="0.5882352941176471" d="M 374.5 256 L 375 258.5 L 374 258.5 L 374.5 256 Z " /><path fill="rgb(0,0,0)" stroke="rgb(0,0,0)" stroke-width="1" opacity="0.5882352941176471" d="M 140.5 265 L 141.5 267 L 140.5 265 Z " /><path fill="rgb(0,0,0)" stroke="rgb(0,0,0)" stroke-width="1" opacity="0.5882352941176471" d="M 371.5 265 L 370.5 267 L 371.5 265 Z " /><path fill="rgb(0,0,0)" stroke="rgb(0,0,0)" stroke-width="1" opacity="0.5882352941176471" d="M 0.5 266 L 1 273.5 L 0 273.5 L 0.5 266 Z " /><path fill="rgb(0,0,0)" stroke="rgb(0,0,0)" stroke-width="1" opacity="0.5882352941176471" d="M 511.5 266 L 512 273.5 L 511 273.5 L 511.5 266 Z " /><path fill="rgb(0,0,0)" stroke="rgb(0,0,0)" stroke-width="1" opacity="0.5882352941176471" d="M 144.5 269 L 145.5 271 L 144.5 269 Z " /><path fill="rgb(0,0,0)" stroke="rgb(0,0,0)" stroke-width="1" opacity="0.5882352941176471" d="M 367.5 269 L 366.5 271 L 367.5 269 Z " /><path fill="rgb(0,0,0)" stroke="rgb(0,0,0)" stroke-width="1" opacity="0.5882352941176471" d="M 40.5 272 L 41 277.5 L 40 277.5 L 40.5 272 Z " /><path fill="rgb(0,0,0)" stroke="rgb(0,0,0)" stroke-width="1" opacity="0.5882352941176471" d="M 471.5 272 L 472 277.5 L 471 277.5 L 471.5 272 Z " /><path fill="rgb(0,0,0)" stroke="rgb(0,0,0)" stroke-width="1" opacity="0.5882352941176471" d="M 1.5 281 L 2 284.5 L 1 284.5 L 1.5 281 Z " /><path fill="rgb(0,0,0)" stroke="rgb(0,0,0)" stroke-width="1" opacity="0.5882352941176471" d="M 510.5 281 L 511 284.5 L 510 284.5 L 510.5 281 Z " /><path fill="rgb(0,0,0)" stroke="rgb(0,0,0)" stroke-width="1" opacity="0.5882352941176471" d="M 41.5 282 L 42 285.5 L 41 285.5 L 41.5 282 Z " /><path fill="rgb(0,0,0)" stroke="rgb(0,0,0)" stroke-width="1" opacity="0.5882352941176471" d="M 470.5 282 L 471 285.5 L 470 285.5 L 470.5 282 Z " /><path fill="rgb(0,0,0)" stroke="rgb(0,0,0)" stroke-width="1" opacity="0.5882352941176471" d="M 2.5 289 L 3 292.5 L 2 292.5 L 2.5 289 Z " /><path fill="rgb(0,0,0)" stroke="rgb(0,0,0)" stroke-width="1" opacity="0.5882352941176471" d="M 509.5 289 L 510 292.5 L 509 292.5 L 509.5 289 Z " /><path fill="rgb(0,0,0)" stroke="rgb(0,0,0)" stroke-width="1" opacity="0.5882352941176471" d="M 43.5 295 L 44 297.5 L 43 297.5 L 43.5 295 Z " /><path fill="rgb(0,0,0)" stroke="rgb(0,0,0)" stroke-width="1" opacity="0.5882352941176471" d="M 468.5 295 L 469 297.5 L 468 297.5 L 468.5 295 Z " /><path fill="rgb(0,0,0)" stroke="rgb(0,0,0)" stroke-width="1" opacity="0.5882352941176471" d="M 4.5 302 L 5 304.5 L 4 304.5 L 4.5 302 Z " /><path fill="rgb(0,0,0)" stroke="rgb(0,0,0)" stroke-width="1" opacity="0.5882352941176471" d="M 507.5 302 L 508 304.5 L 507 304.5 L 507.5 302 Z " /><path fill="rgb(0,0,0)" stroke="rgb(0,0,0)" stroke-width="1" opacity="0.5882352941176471" d="M 236.5 354 L 237 357.5 L 236 357.5 L 236.5 354 Z " /><path fill="rgb(0,0,0)" stroke="rgb(0,0,0)" stroke-width="1" opacity="0.5882352941176471" d="M 275.5 354 L 276 357.5 L 275 357.5 L 275.5 354 Z " /><path fill="rgb(0,0,0)" stroke="rgb(0,0,0)" stroke-width="1" opacity="0.5882352941176471" d="M 239.5 364 L 241.5 367 L 239.5 364 Z " /><path fill="rgb(0,0,0)" stroke="rgb(0,0,0)" stroke-width="1" opacity="0.5882352941176471" d="M 272.5 364 L 270.5 367 L 272.5 364 Z " /><path fill="rgb(0,0,0)" stroke="rgb(0,0,0)" stroke-width="1" opacity="0.5882352941176471" d="M 243.5 368 L 244.5 370 L 243.5 368 Z " /><path fill="rgb(0,0,0)" stroke="rgb(0,0,0)" stroke-width="1" opacity="0.5882352941176471" d="M 268.5 368 L 267.5 370 L 268.5 368 Z " /><path fill="rgb(0,0,0)" stroke="rgb(0,0,0)" stroke-width="1" opacity="0.5882352941176471" d="M 78.5 379 L 79.5 381 L 78.5 379 Z " /><path fill="rgb(0,0,0)" stroke="rgb(0,0,0)" stroke-width="1" opacity="0.5882352941176471" d="M 433.5 379 L 432.5 381 L 433.5 379 Z " /><path fill="rgb(0,0,0)" stroke="rgb(0,0,0)" stroke-width="1" opacity="0.5882352941176471" d="M 81.5 383 L 82.5 385 L 81.5 383 Z " /><path fill="rgb(0,0,0)" stroke="rgb(0,0,0)" stroke-width="1" opacity="0.5882352941176471" d="M 430.5 383 L 429.5 385 L 430.5 383 Z " /><path fill="rgb(0,0,0)" stroke="rgb(0,0,0)" stroke-width="1" opacity="0.5882352941176471" d="M 84.5 387 L 85.5 389 L 84.5 387 Z " /><path fill="rgb(0,0,0)" stroke="rgb(0,0,0)" stroke-width="1" opacity="0.5882352941176471" d="M 427.5 387 L 426.5 389 L 427.5 387 Z " /><path fill="rgb(0,0,0)" stroke="rgb(0,0,0)" stroke-width="1" opacity="0.5882352941176471" d="M 37.5 389 L 38.5 391 L 37.5 389 Z " /><path fill="rgb(0,0,0)" stroke="rgb(0,0,0)" stroke-width="1" opacity="0.5882352941176471" d="M 474.5 389 L 473.5 391 L 474.5 389 Z " /><path fill="rgb(0,0,0)" stroke="rgb(0,0,0)" stroke-width="1" opacity="0.5882352941176471" d="M 87.5 391 L 88.5 393 L 87.5 391 Z " /><path fill="rgb(0,0,0)" stroke="rgb(0,0,0)" stroke-width="1" opacity="0.5882352941176471" d="M 424.5 391 L 423.5 393 L 424.5 391 Z " /><path fill="rgb(0,0,0)" stroke="rgb(0,0,0)" stroke-width="1" opacity="0.5882352941176471" d="M 92.5 397 L 96.5 402 L 92.5 397 Z " /><path fill="rgb(0,0,0)" stroke="rgb(0,0,0)" stroke-width="1" opacity="0.5882352941176471" d="M 419.5 397 L 415.5 402 L 419.5 397 Z " /><path fill="rgb(0,0,0)" stroke="rgb(0,0,0)" stroke-width="1" opacity="0.5882352941176471" d="M 45.5 401 L 46.5 403 L 45.5 401 Z " /><path fill="rgb(0,0,0)" stroke="rgb(0,0,0)" stroke-width="1" opacity="0.5882352941176471" d="M 466.5 401 L 465.5 403 L 466.5 401 Z " /><path fill="rgb(0,0,0)" stroke="rgb(0,0,0)" stroke-width="1" opacity="0.5882352941176471" d="M 47.5 404 L 48.5 406 L 47.5 404 Z " /><path fill="rgb(0,0,0)" stroke="rgb(0,0,0)" stroke-width="1" opacity="0.5882352941176471" d="M 464.5 404 L 463.5 406 L 464.5 404 Z " /><path fill="rgb(0,0,0)" stroke="rgb(0,0,0)" stroke-width="1" opacity="0.5882352941176471" d="M 50.5 408 L 51.5 410 L 50.5 408 Z " /><path fill="rgb(0,0,0)" stroke="rgb(0,0,0)" stroke-width="1" opacity="0.5882352941176471" d="M 102.5 408 L 103.5 410 L 102.5 408 Z " /><path fill="rgb(0,0,0)" stroke="rgb(0,0,0)" stroke-width="1" opacity="0.5882352941176471" d="M 409.5 408 L 408.5 410 L 409.5 408 Z " /><path fill="rgb(0,0,0)" stroke="rgb(0,0,0)" stroke-width="1" opacity="0.5882352941176471" d="M 461.5 408 L 460.5 410 L 461.5 408 Z " /><path fill="rgb(0,0,0)" stroke="rgb(0,0,0)" stroke-width="1" opacity="0.5882352941176471" d="M 53.5 412 L 54.5 414 L 53.5 412 Z " /><path fill="rgb(0,0,0)" stroke="rgb(0,0,0)" stroke-width="1" opacity="0.5882352941176471" d="M 458.5 412 L 457.5 414 L 458.5 412 Z " /><path fill="rgb(0,0,0)" stroke="rgb(0,0,0)" stroke-width="1" opacity="0.5882352941176471" d="M 110.5 415 L 114.5 420 L 110.5 415 Z " /><path fill="rgb(0,0,0)" stroke="rgb(0,0,0)" stroke-width="1" opacity="0.5882352941176471" d="M 401.5 415 L 397.5 420 L 401.5 415 Z " /><path fill="rgb(0,0,0)" stroke="rgb(0,0,0)" stroke-width="1" opacity="0.5882352941176471" d="M 57.5 417 L 58.5 419 L 57.5 417 Z " /><path fill="rgb(0,0,0)" stroke="rgb(0,0,0)" stroke-width="1" opacity="0.5882352941176471" d="M 454.5 417 L 453.5 419 L 454.5 417 Z " /><path fill="rgb(0,0,0)" stroke="rgb(0,0,0)" stroke-width="1" opacity="0.5882352941176471" d="M 62.5 423 L 65.5 427 L 62.5 423 Z " /><path fill="rgb(0,0,0)" stroke="rgb(0,0,0)" stroke-width="1" opacity="0.5882352941176471" d="M 119.5 423 L 120.5 425 L 119.5 423 Z " /><path fill="rgb(0,0,0)" stroke="rgb(0,0,0)" stroke-width="1" opacity="0.5882352941176471" d="M 392.5 423 L 391.5 425 L 392.5 423 Z " /><path fill="rgb(0,0,0)" stroke="rgb(0,0,0)" stroke-width="1" opacity="0.5882352941176471" d="M 449.5 423 L 446.5 427 L 449.5 423 Z " /><path fill="rgb(0,0,0)" stroke="rgb(0,0,0)" stroke-width="1" opacity="0.5882352941176471" d="M 123.5 426 L 124.5 428 L 123.5 426 Z " /><path fill="rgb(0,0,0)" stroke="rgb(0,0,0)" stroke-width="1" opacity="0.5882352941176471" d="M 388.5 426 L 387.5 428 L 388.5 426 Z " /><path fill="rgb(0,0,0)" stroke="rgb(0,0,0)" stroke-width="1" opacity="0.5882352941176471" d="M 127.5 429 L 128.5 431 L 127.5 429 Z " /><path fill="rgb(0,0,0)" stroke="rgb(0,0,0)" stroke-width="1" opacity="0.5882352941176471" d="M 384.5 429 L 383.5 431 L 384.5 429 Z " /><path fill="rgb(0,0,0)" stroke="rgb(0,0,0)" stroke-width="1" opacity="0.5882352941176471" d="M 131.5 432 L 132.5 434 L 131.5 432 Z " /><path fill="rgb(0,0,0)" stroke="rgb(0,0,0)" stroke-width="1" opacity="0.5882352941176471" d="M 380.5 432 L 379.5 434 L 380.5 432 Z " /><path fill="rgb(0,0,0)" stroke="rgb(0,0,0)" stroke-width="1" opacity="0.5882352941176471" d="M 73.5 435 L 76.5 439 L 73.5 435 Z " /><path fill="rgb(0,0,0)" stroke="rgb(0,0,0)" stroke-width="1" opacity="0.5882352941176471" d="M 438.5 435 L 435.5 439 L 438.5 435 Z " /><path fill="rgb(0,0,0)" stroke="rgb(0,0,0)" stroke-width="1" opacity="0.5882352941176471" d="M 85.5 446 L 88.5 450 L 85.5 446 Z " /><path fill="rgb(0,0,0)" stroke="rgb(0,0,0)" stroke-width="1" opacity="0.5882352941176471" d="M 426.5 446 L 423.5 450 L 426.5 446 Z " /><path fill="rgb(0,0,0)" stroke="rgb(0,0,0)" stroke-width="1" opacity="0.5882352941176471" d="M 93.5 453 L 94.5 455 L 93.5 453 Z " /><path fill="rgb(0,0,0)" stroke="rgb(0,0,0)" stroke-width="1" opacity="0.5882352941176471" d="M 418.5 453 L 417.5 455 L 418.5 453 Z " /><path fill="rgb(0,0,0)" stroke="rgb(0,0,0)" stroke-width="1" opacity="0.5882352941176471" d="M 98.5 457 L 99.5 459 L 98.5 457 Z " /><path fill="rgb(0,0,0)" stroke="rgb(0,0,0)" stroke-width="1" opacity="0.5882352941176471" d="M 413.5 457 L 412.5 459 L 413.5 457 Z " /><path fill="rgb(0,0,0)" stroke="rgb(0,0,0)" stroke-width="1" opacity="0.5882352941176471" d="M 102.5 460 L 103.5 462 L 102.5 460 Z " /><path fill="rgb(0,0,0)" stroke="rgb(0,0,0)" stroke-width="1" opacity="0.5882352941176471" d="M 409.5 460 L 408.5 462 L 409.5 460 Z " /><path fill="rgb(0,0,0)" stroke="rgb(0,0,0)" stroke-width="1" opacity="0.5882352941176471" d="M 106.5 463 L 107.5 465 L 106.5 463 Z " /><path fill="rgb(0,0,0)" stroke="rgb(0,0,0)" stroke-width="1" opacity="0.5882352941176471" d="M 405.5 463 L 404.5 465 L 405.5 463 Z " /><path fill="rgb(0,0,0)" stroke="rgb(0,0,0)" stroke-width="1" opacity="0.5882352941176471" d="M 109.5 465 L 110.5 467 L 109.5 465 Z " /><path fill="rgb(0,0,0)" stroke="rgb(0,0,0)" stroke-width="1" opacity="0.5882352941176471" d="M 402.5 465 L 401.5 467 L 402.5 465 Z " /><path fill="rgb(0,0,0)" stroke="rgb(0,0,0)" stroke-width="1" opacity="0.5882352941176471" d="M 214.5 468 L 217 468.5 L 214.5 469 L 214.5 468 Z " /><path fill="rgb(0,0,0)" stroke="rgb(0,0,0)" stroke-width="1" opacity="0.5882352941176471" d="M 295.5 468 L 298 468.5 L 295.5 469 L 295.5 468 Z " /><path fill="rgb(0,0,0)" stroke="rgb(0,0,0)" stroke-width="1" opacity="0.5882352941176471" d="M 226.5 470 L 230 470.5 L 226.5 471 L 226.5 470 Z " /><path fill="rgb(0,0,0)" stroke="rgb(0,0,0)" stroke-width="1" opacity="0.5882352941176471" d="M 282.5 470 L 286 470.5 L 282.5 471 L 282.5 470 Z " /><path fill="rgb(0,0,0)" stroke="rgb(0,0,0)" stroke-width="1" opacity="0.5882352941176471" d="M 234.5 471 L 240 471.5 L 234.5 472 L 234.5 471 Z " /><path fill="rgb(0,0,0)" stroke="rgb(0,0,0)" stroke-width="1" opacity="0.5882352941176471" d="M 272.5 471 L 278 471.5 L 272.5 472 L 272.5 471 Z " /><path fill="rgb(0,0,0)" stroke="rgb(0,0,0)" stroke-width="1" opacity="0.5882352941176471" d="M 253.5 472 L 259 472.5 L 253.5 473 L 253.5 472 Z " /><path fill="rgb(0,0,0)" stroke="rgb(0,0,0)" stroke-width="1" opacity="0.5882352941176471" d="M 121.5 473 L 122.5 475 L 121.5 473 Z " /><path fill="rgb(0,0,0)" stroke="rgb(0,0,0)" stroke-width="1" opacity="0.5882352941176471" d="M 390.5 473 L 389.5 475 L 390.5 473 Z " /><path fill="rgb(0,0,0)" stroke="rgb(0,0,0)" stroke-width="1" opacity="0.5882352941176471" d="M 207.5 507 L 210 507.5 L 207.5 508 L 207.5 507 Z " /><path fill="rgb(0,0,0)" stroke="rgb(0,0,0)" stroke-width="1" opacity="0.5882352941176471" d="M 302.5 507 L 305 507.5 L 302.5 508 L 302.5 507 Z " /><path fill="rgb(0,0,0)" stroke="rgb(0,0,0)" stroke-width="1" opacity="0.5882352941176471" d="M 219.5 509 L 223 509.5 L 219.5 510 L 219.5 509 Z " /><path fill="rgb(0,0,0)" stroke="rgb(0,0,0)" stroke-width="1" opacity="0.5882352941176471" d="M 289.5 509 L 293 509.5 L 289.5 510 L 289.5 509 Z " /><path fill="rgb(0,0,0)" stroke="rgb(0,0,0)" stroke-width="1" opacity="0.5882352941176471" d="M 227.5 510 L 231 510.5 L 227.5 511 L 227.5 510 Z " /><path fill="rgb(0,0,0)" stroke="rgb(0,0,0)" stroke-width="1" opacity="0.5882352941176471" d="M 281.5 510 L 285 510.5 L 281.5 511 L 281.5 510 Z " /><path fill="rgb(0,0,0)" stroke="rgb(0,0,0)" stroke-width="1" opacity="0.5882352941176471" d="M 238.5 511 L 246 511.5 L 238.5 512 L 238.5 511 Z " /><path fill="rgb(0,0,0)" stroke="rgb(0,0,0)" stroke-width="1" opacity="0.5882352941176471" d="M 266.5 511 L 274 511.5 L 266.5 512 L 266.5 511 Z " /><path fill="rgb(0,0,0)" stroke="rgb(0,0,0)" stroke-width="1" opacity="1" d="M 254.5 0 L 258.5 1 L 278.5 1 L 279.5 2 L 287.5 2 L 288.5 3 L 306.5 5 L 326.5 10 L 352.5 19 Q 404.2 40.8 440 78.5 Q 473.1 112.4 493 159.5 L 502 185.5 L 507 205.5 L 509 223.5 L 510 224.5 L 510 232.5 L 511 233.5 L 511 253.5 L 512 257.5 L 511 258.5 L 511 278.5 L 510 279.5 L 510 287.5 L 509 288.5 L 507 306.5 L 502 326.5 L 490 359.5 Q 468.6 406.6 433.5 440 Q 399.6 473.1 352.5 493 L 326.5 502 L 306.5 507 L 288.5 509 L 287.5 510 L 279.5 510 L 278.5 511 L 258.5 511 L 254.5 512 L 253.5 511 L 233.5 511 L 232.5 510 L 224.5 510 L 223.5 509 L 205.5 507 L 185.5 502 L 152.5 490 Q 105.4 468.6 72 433.5 Q 38.9 399.6 19 352.5 L 10 326.5 L 5 306.5 L 3 288.5 L 2 287.5 L 2 279.5 L 1 278.5 L 1 258.5 L 0 254.5 L 1 253.5 L 1 233.5 L 2 232.5 L 2 224.5 L 3 223.5 L 5 205.5 L 10 185.5 L 22 152.5 Q 43.4 105.4 78.5 72 Q 112.4 38.9 159.5 19 L 185.5 10 L 205.5 5 L 223.5 3 L 224.5 2 L 232.5 2 L 233.5 1 L 253.5 1 L 254.5 0 Z M 246 39 L 245 40 L 226 41 L 205 45 L 172 56 Q 134 72 108 98 Q 79 125 60 163 Q 52 180 46 201 L 41 226 L 40 245 L 39 246 L 39 267 L 40 268 L 41 287 L 46 312 L 52 331 Q 69 374 98 405 Q 125 433 163 452 Q 180 460 201 466 L 226 471 L 245 472 L 246 473 L 267 473 L 268 472 L 287 471 L 312 466 L 331 460 Q 374 443 405 414 Q 433 387 452 350 Q 460 332 466 312 L 471 287 L 472 268 L 473 267 L 473 246 L 472 245 L 471 226 L 466 201 L 460 182 Q 443 138 414 108 Q 384 75 341 56 L 319 48 L 299 43 L 280 41 L 279 40 L 268 40 L 267 39 L 246 39 Z " /><path fill="rgb(0,0,0)" stroke="rgb(0,0,0)" stroke-width="1" opacity="1" d="M 251.5 136 L 260.5 136 L 271 142.5 L 275 150.5 L 275 235 L 359.5 235 L 370 241.5 Q 376 246.5 374 259.5 Q 371.4 266.9 365.5 271 L 355.5 274 L 275 274 L 275 358.5 Q 272.4 365.9 266.5 370 L 262.5 372 L 254.5 373 L 245.5 370 L 240 364.5 L 237 358.5 L 237 274 L 156.5 274 L 146.5 271 L 141 265.5 Q 136.2 260.3 138 248.5 L 144.5 239 L 152.5 235 L 237 235 L 237 150.5 L 243.5 140 L 251.5 136 Z " /></svg>