<svg width="64" height="64" version="1.1" xmlns="http://www.w3.org/2000/svg" desc="Created with imagetracer.js version 1.2.6" ><path fill="rgb(0,0,0)" stroke="rgb(0,0,0)" stroke-width="1" opacity="0" d="M 0 0 L 25 0.5 Q 11.4 3.4 5 13.5 L 0.5 25 L 0 0 Z " /><path fill="rgb(0,0,0)" stroke="rgb(0,0,0)" stroke-width="1" opacity="0" d="M 39.5 0 L 64 0 L 64 24.5 L 63 24.5 Q 60.5 11 50.5 5 L 42.5 1 L 39.5 1 L 39.5 0 Z " /><path fill="rgb(0,0,0)" stroke="rgb(0,0,0)" stroke-width="1" opacity="0" d="M 31.5 5 L 41.5 7 L 53 15.5 L 57 22.5 L 59 32.5 L 55 45.5 L 48.5 53 L 41.5 57 L 31.5 59 L 18.5 55 L 11 48.5 L 7 41.5 L 5 31.5 L 9 18.5 L 15.5 11 L 22.5 7 L 31.5 5 Z M 31 17 L 29 19 L 29 29 L 19 29 Q 16 30 17 34 Q 21 36 29 35 L 29 45 L 30 46 L 30 47 L 34 47 Q 36 43 35 35 Q 43 36 47 34 Q 48 30 46 29 L 35 29 L 35 19 Q 34 16 31 17 Z " /><path fill="rgb(0,0,0)" stroke="rgb(0,0,0)" stroke-width="1" opacity="0" d="M 0.5 39 Q 3.4 52.6 13.5 59 L 25 63.5 L 0 64 L 0.5 39 Z " /><path fill="rgb(0,0,0)" stroke="rgb(0,0,0)" stroke-width="1" opacity="0" d="M 63.5 39 L 64 64 L 39 63.5 Q 52.6 60.6 59 50.5 L 63.5 39 Z " /><path fill="rgb(0,0,0)" stroke="rgb(0,0,0)" stroke-width="1" opacity="0.30980392156862746" d="M 27.5 5 L 30 5.5 L 27.5 6 L 27.5 5 Z " /><path fill="rgb(0,0,0)" stroke="rgb(0,0,0)" stroke-width="1" opacity="0.30980392156862746" d="M 34.5 5 L 37 5.5 L 34.5 6 L 34.5 5 Z " /><path fill="rgb(0,0,0)" stroke="rgb(0,0,0)" stroke-width="1" opacity="0.30980392156862746" d="M 12.5 6 L 11.5 8 L 12.5 6 Z " /><path fill="rgb(0,0,0)" stroke="rgb(0,0,0)" stroke-width="1" opacity="0.30980392156862746" d="M 51.5 6 L 52.5 8 L 51.5 6 Z " /><path fill="rgb(0,0,0)" stroke="rgb(0,0,0)" stroke-width="1" opacity="0.30980392156862746" d="M 7.5 11 L 6.5 13 L 7.5 11 Z " /><path fill="rgb(0,0,0)" stroke="rgb(0,0,0)" stroke-width="1" opacity="0.30980392156862746" d="M 56.5 11 L 57.5 13 L 56.5 11 Z " /><path fill="rgb(0,0,0)" stroke="rgb(0,0,0)" stroke-width="1" opacity="0.30980392156862746" d="M 13.5 12 L 12.5 14 L 13.5 12 Z " /><path fill="rgb(0,0,0)" stroke="rgb(0,0,0)" stroke-width="1" opacity="0.30980392156862746" d="M 50.5 12 L 51.5 14 L 50.5 12 Z " /><path fill="rgb(0,0,0)" stroke="rgb(0,0,0)" stroke-width="1" opacity="0.30980392156862746" d="M 5.5 27 L 6 29.5 L 5 29.5 L 5.5 27 Z " /><path fill="rgb(0,0,0)" stroke="rgb(0,0,0)" stroke-width="1" opacity="0.30980392156862746" d="M 58.5 27 L 59 29.5 L 58 29.5 L 58.5 27 Z " /><path fill="rgb(0,0,0)" stroke="rgb(0,0,0)" stroke-width="1" opacity="0.30980392156862746" d="M 18.5 29 L 17.5 31 L 18.5 29 Z " /><path fill="rgb(0,0,0)" stroke="rgb(0,0,0)" stroke-width="1" opacity="0.30980392156862746" d="M 45.5 29 L 46.5 31 L 45.5 29 Z " /><path fill="rgb(0,0,0)" stroke="rgb(0,0,0)" stroke-width="1" opacity="0.30980392156862746" d="M 5.5 34 L 6 36.5 L 5 36.5 L 5.5 34 Z " /><path fill="rgb(0,0,0)" stroke="rgb(0,0,0)" stroke-width="1" opacity="0.30980392156862746" d="M 20.5 34 L 29 34.5 L 20.5 35 L 20.5 34 Z " /><path fill="rgb(0,0,0)" stroke="rgb(0,0,0)" stroke-width="1" opacity="0.30980392156862746" d="M 35.5 34 L 44 34.5 L 35.5 35 L 35.5 34 Z " /><path fill="rgb(0,0,0)" stroke="rgb(0,0,0)" stroke-width="1" opacity="0.30980392156862746" d="M 58.5 34 L 59 36.5 L 58 36.5 L 58.5 34 Z " /><path fill="rgb(0,0,0)" stroke="rgb(0,0,0)" stroke-width="1" opacity="0.30980392156862746" d="M 12.5 50 L 13.5 52 L 12.5 50 Z " /><path fill="rgb(0,0,0)" stroke="rgb(0,0,0)" stroke-width="1" opacity="0.30980392156862746" d="M 51.5 50 L 50.5 52 L 51.5 50 Z " /><path fill="rgb(0,0,0)" stroke="rgb(0,0,0)" stroke-width="1" opacity="0.30980392156862746" d="M 6.5 51 L 7.5 53 L 6.5 51 Z " /><path fill="rgb(0,0,0)" stroke="rgb(0,0,0)" stroke-width="1" opacity="0.30980392156862746" d="M 57.5 51 L 56.5 53 L 57.5 51 Z " /><path fill="rgb(0,0,0)" stroke="rgb(0,0,0)" stroke-width="1" opacity="0.30980392156862746" d="M 11.5 56 L 12.5 58 L 11.5 56 Z " /><path fill="rgb(0,0,0)" stroke="rgb(0,0,0)" stroke-width="1" opacity="0.30980392156862746" d="M 52.5 56 L 51.5 58 L 52.5 56 Z " /><path fill="rgb(0,0,0)" stroke="rgb(0,0,0)" stroke-width="1" opacity="0.30980392156862746" d="M 27.5 58 L 30 58.5 L 27.5 59 L 27.5 58 Z " /><path fill="rgb(0,0,0)" stroke="rgb(0,0,0)" stroke-width="1" opacity="0.30980392156862746" d="M 34.5 58 L 37 58.5 L 34.5 59 L 34.5 58 Z " /><path fill="rgb(0,0,0)" stroke="rgb(0,0,0)" stroke-width="1" opacity="0.5843137254901961" d="M 27.5 0 L 30 0.5 L 27.5 1 L 27.5 0 Z " /><path fill="rgb(0,0,0)" stroke="rgb(0,0,0)" stroke-width="1" opacity="0.5843137254901961" d="M 34.5 0 L 37 0.5 L 34.5 1 L 34.5 0 Z " /><path fill="rgb(0,0,0)" stroke="rgb(0,0,0)" stroke-width="1" opacity="0.5843137254901961" d="M 10.5 8 L 8.5 11 L 10.5 8 Z " /><path fill="rgb(0,0,0)" stroke="rgb(0,0,0)" stroke-width="1" opacity="0.5843137254901961" d="M 53.5 8 L 55.5 11 L 53.5 8 Z " /><path fill="rgb(0,0,0)" stroke="rgb(0,0,0)" stroke-width="1" opacity="0.5843137254901961" d="M 15.5 10 L 14.5 12 L 15.5 10 Z " /><path fill="rgb(0,0,0)" stroke="rgb(0,0,0)" stroke-width="1" opacity="0.5843137254901961" d="M 48.5 10 L 49.5 12 L 48.5 10 Z " /><path fill="rgb(0,0,0)" stroke="rgb(0,0,0)" stroke-width="1" opacity="0.5843137254901961" d="M 11.5 14 L 10.5 16 L 11.5 14 Z " /><path fill="rgb(0,0,0)" stroke="rgb(0,0,0)" stroke-width="1" opacity="0.5843137254901961" d="M 52.5 14 L 53.5 16 L 52.5 14 Z " /><path fill="rgb(0,0,0)" stroke="rgb(0,0,0)" stroke-width="1" opacity="0.5843137254901961" d="M 29.5 20 L 30 28.5 L 28.5 30 L 19.5 30 L 19.5 29 L 29 29 L 29.5 20 Z " /><path fill="rgb(0,0,0)" stroke="rgb(0,0,0)" stroke-width="1" opacity="0.5843137254901961" d="M 34.5 20 L 35 29 L 45 29.5 L 35.5 30 L 34 28.5 L 34.5 20 Z " /><path fill="rgb(0,0,0)" stroke="rgb(0,0,0)" stroke-width="1" opacity="0.5843137254901961" d="M 0.5 27 L 1 29.5 L 0 29.5 L 0.5 27 Z " /><path fill="rgb(0,0,0)" stroke="rgb(0,0,0)" stroke-width="1" opacity="0.5843137254901961" d="M 63.5 27 L 64 29.5 L 63 29.5 L 63.5 27 Z " /><path fill="rgb(0,0,0)" stroke="rgb(0,0,0)" stroke-width="1" opacity="0.5843137254901961" d="M 0.5 34 L 1 36.5 L 0 36.5 L 0.5 34 Z " /><path fill="rgb(0,0,0)" stroke="rgb(0,0,0)" stroke-width="1" opacity="0.5843137254901961" d="M 29.5 34 L 30 43.5 L 29 43.5 L 29.5 34 Z " /><path fill="rgb(0,0,0)" stroke="rgb(0,0,0)" stroke-width="1" opacity="0.5843137254901961" d="M 34.5 34 L 35 43.5 L 34 43.5 L 34.5 34 Z " /><path fill="rgb(0,0,0)" stroke="rgb(0,0,0)" stroke-width="1" opacity="0.5843137254901961" d="M 63.5 34 L 64 36.5 L 63 36.5 L 63.5 34 Z " /><path fill="rgb(0,0,0)" stroke="rgb(0,0,0)" stroke-width="1" opacity="0.5843137254901961" d="M 10.5 48 L 11.5 50 L 10.5 48 Z " /><path fill="rgb(0,0,0)" stroke="rgb(0,0,0)" stroke-width="1" opacity="0.5843137254901961" d="M 53.5 48 L 52.5 50 L 53.5 48 Z " /><path fill="rgb(0,0,0)" stroke="rgb(0,0,0)" stroke-width="1" opacity="0.5843137254901961" d="M 14.5 52 L 15.5 54 L 14.5 52 Z " /><path fill="rgb(0,0,0)" stroke="rgb(0,0,0)" stroke-width="1" opacity="0.5843137254901961" d="M 49.5 52 L 48.5 54 L 49.5 52 Z " /><path fill="rgb(0,0,0)" stroke="rgb(0,0,0)" stroke-width="1" opacity="0.5843137254901961" d="M 8.5 53 L 10.5 56 L 8.5 53 Z " /><path fill="rgb(0,0,0)" stroke="rgb(0,0,0)" stroke-width="1" opacity="0.5843137254901961" d="M 55.5 53 L 53.5 56 L 55.5 53 Z " /><path fill="rgb(0,0,0)" stroke="rgb(0,0,0)" stroke-width="1" opacity="0.5843137254901961" d="M 27.5 63 L 30 63.5 L 27.5 64 L 27.5 63 Z " /><path fill="rgb(0,0,0)" stroke="rgb(0,0,0)" stroke-width="1" opacity="0.5843137254901961" d="M 34.5 63 L 37 63.5 L 34.5 64 L 34.5 63 Z " /><path fill="rgb(0,0,0)" stroke="rgb(0,0,0)" stroke-width="1" opacity="0.984313725490196" d="M 30.5 0 Q 50.2 0.8 58 13.5 Q 63.8 20.7 64 33.5 L 60 47.5 L 50.5 58 Q 43.3 63.8 30.5 64 L 16.5 60 L 6 50.5 Q 0.2 43.3 0 30.5 L 4 16.5 L 13.5 6 L 18.5 3 L 30.5 0 Z M 27 5 L 16 10 Q 8 16 5 27 Q 3 42 10 49 Q 16 56 27 59 Q 42 61 49 54 Q 56 48 59 38 Q 61 22 54 16 Q 49 9 42 6 L 27 5 Z " /><path fill="rgb(0,0,0)" stroke="rgb(0,0,0)" stroke-width="1" opacity="0.984313725490196" d="M 31.5 17 L 34 18.5 L 34 28.5 L 35.5 30 L 46 30 L 46 34 L 34 34 L 34 46 L 30 46 L 30 34 L 18 34 L 18 30 L 28.5 30 L 30 28.5 L 30 18.5 L 31.5 17 Z " /></svg>