<?xml version="1.0" encoding="UTF-8"?>
<svg version="1.1" xmlns="http://www.w3.org/2000/svg" width="32" height="32">
<path d="M0 0 C7.92 0 15.84 0 24 0 C24 14.11111111 24 14.11111111 23 20 C21.41062444 21.58937556 19.76100154 21.12981143 17.5625 21.1328125 C16.22058594 21.13474609 16.22058594 21.13474609 14.8515625 21.13671875 C13.91054688 21.13285156 12.96953125 21.12898438 12 21.125 C10.58847656 21.13080078 10.58847656 21.13080078 9.1484375 21.13671875 C8.25382813 21.13542969 7.35921875 21.13414063 6.4375 21.1328125 C5.61121094 21.13168457 4.78492188 21.13055664 3.93359375 21.12939453 C2 21 2 21 1 20 C-0.16066097 13.16499653 0 7.10987392 0 0 Z M6 3 C6 7.62 6 12.24 6 17 C6.33 17 6.66 17 7 17 C7 12.38 7 7.76 7 3 C6.67 3 6.34 3 6 3 Z M17 3 C17 7.62 17 12.24 17 17 C17.33 17 17.66 17 18 17 C18 12.38 18 7.76 18 3 C17.67 3 17.34 3 17 3 Z " fill="#FFFFFF" transform="translate(4,11)"/>
<path d="M0 0 C3.3 0 6.6 0 10 0 C10.33 0.99 10.66 1.98 11 3 C12.11375 2.938125 13.2275 2.87625 14.375 2.8125 C16.169375 2.9053125 16.169375 2.9053125 18 3 C18.99 4.485 18.99 4.485 20 6 C19.67 7.32 19.34 8.64 19 10 C9.76 10 0.52 10 -9 10 C-9.33 8.68 -9.66 7.36 -10 6 C-9.34 5.01 -8.68 4.02 -8 3 C-4.375 2.8125 -4.375 2.8125 -1 3 C-0.67 2.01 -0.34 1.02 0 0 Z M3 2 C7 3 7 3 7 3 Z " fill="#FFFFFF" transform="translate(11,0)"/>
</svg>
