<svg width="32" height="32" version="1.1" xmlns="http://www.w3.org/2000/svg" desc="Created with imagetracer.js version 1.2.6" ><path fill="rgb(0,0,0)" stroke="rgb(0,0,0)" stroke-width="1" opacity="0.9372549019607843" d="M 7.5 30 L 13 30.5 L 7.5 31 L 7.5 30 Z " /><path fill="rgb(0,0,0)" stroke="rgb(0,0,0)" stroke-width="1" opacity="0.9372549019607843" d="M 19.5 30 L 25 30.5 L 19.5 31 L 19.5 30 Z " /><path fill="rgb(0,0,0)" stroke="rgb(0,0,0)" stroke-width="1" opacity="1" d="M 14.5 2 Q 21.2 1.3 22.5 6 L 24.5 3 Q 27.5 2.5 26 9.5 L 31 14.5 L 31 17 L 15.5 4 L 2.5 17 L 1 17 L 1 14.5 L 12.5 3 L 14.5 2 Z " /><path fill="rgb(0,0,0)" stroke="rgb(0,0,0)" stroke-width="1" opacity="1" d="M 15.5 9 L 27 19.5 L 27 28.5 L 25.5 30 L 19 30 L 19 22 L 13 22 L 13 30 L 6.5 30 L 5 28.5 L 5 19.5 L 15.5 9 Z " /><path fill="rgb(0,0,0)" stroke="rgb(0,0,0)" stroke-width="1" opacity="0.03137254901960784" d="M 15.5 5 L 29 17.5 L 16.5 6 L 3.5 18 L 15.5 5 Z " /><path fill="rgb(0,0,0)" stroke="rgb(0,0,0)" stroke-width="1" opacity="0.03137254901960784" d="M 13.5 23 L 14 30.5 L 13 30.5 L 13.5 23 Z " /><path fill="rgb(0,0,0)" stroke="rgb(0,0,0)" stroke-width="1" opacity="0.03137254901960784" d="M 18.5 23 L 19 30.5 L 18 30.5 L 18.5 23 Z " /><path fill="rgb(0,0,0)" stroke="rgb(0,0,0)" stroke-width="1" opacity="0.03137254901960784" d="M 4.5 29 L 5.5 31 L 4.5 29 Z " /><path fill="rgb(0,0,0)" stroke="rgb(0,0,0)" stroke-width="1" opacity="0.03137254901960784" d="M 27.5 29 L 26.5 31 L 27.5 29 Z " /><path fill="rgb(0,0,0)" stroke="rgb(0,0,0)" stroke-width="1" opacity="0" d="M 0 0 L 32 0 L 32 13.5 L 27 9.5 L 27 2 L 23 2 Q 24.1 4.7 21.5 4 Q 20.3 -0.3 13.5 1 L 0 13.5 L 0 0 Z " /><path fill="rgb(0,0,0)" stroke="rgb(0,0,0)" stroke-width="1" opacity="0" d="M 15.5 6 L 28.5 18 L 32 18 L 32 32 L 0 32 L 0 18.5 L 3.5 18 L 15.5 6 Z M 16 8 L 4 20 L 4 30 L 6 31 L 14 31 L 14 23 L 18 23 L 18 31 L 27 31 L 28 30 L 28 20 L 16 8 Z " /><path fill="rgb(0,0,0)" stroke="rgb(0,0,0)" stroke-width="1" opacity="0.5803921568627451" d="M 12.5 2 L 0.5 15 L 12.5 2 Z " /><path fill="rgb(0,0,0)" stroke="rgb(0,0,0)" stroke-width="1" opacity="0.5803921568627451" d="M 19.5 2 L 22.5 6 L 19.5 2 Z " /><path fill="rgb(0,0,0)" stroke="rgb(0,0,0)" stroke-width="1" opacity="0.5803921568627451" d="M 24.5 2 L 27 3.5 L 27 9.5 L 32 14.5 L 26 9.5 Q 27.5 2.5 24.5 3 L 24.5 2 Z " /><path fill="rgb(0,0,0)" stroke="rgb(0,0,0)" stroke-width="1" opacity="0.5803921568627451" d="M 14.5 5 L 2.5 18 L 0 16.5 L 1.5 17 L 14.5 5 Z " /><path fill="rgb(0,0,0)" stroke="rgb(0,0,0)" stroke-width="1" opacity="0.5803921568627451" d="M 17.5 5 L 30.5 17 L 32 16.5 L 29.5 18 L 17.5 5 Z " /><path fill="rgb(0,0,0)" stroke="rgb(0,0,0)" stroke-width="1" opacity="0.5803921568627451" d="M 15.5 8 L 28 19.5 L 27.5 29 L 27 19.5 L 16.5 9 L 5 19.5 L 4.5 29 L 4 19.5 L 15.5 8 Z " /><path fill="rgb(0,0,0)" stroke="rgb(0,0,0)" stroke-width="1" opacity="0.5803921568627451" d="M 13.5 22 L 19 22.5 L 13.5 23 L 13.5 22 Z " /></svg>