<svg width="512" height="512" version="1.1" xmlns="http://www.w3.org/2000/svg" desc="Created with imagetracer.js version 1.2.6" ><path fill="rgb(0,0,0)" stroke="rgb(0,0,0)" stroke-width="1" opacity="0.8235294117647058" d="M 244.5 18 L 248 18.5 L 244.5 19 L 244.5 18 Z " /><path fill="rgb(0,0,0)" stroke="rgb(0,0,0)" stroke-width="1" opacity="0.8235294117647058" d="M 264.5 18 L 268 18.5 L 264.5 19 L 264.5 18 Z " /><path fill="rgb(0,0,0)" stroke="rgb(0,0,0)" stroke-width="1" opacity="0.8235294117647058" d="M 214.5 29 L 213.5 31 L 214.5 29 Z " /><path fill="rgb(0,0,0)" stroke="rgb(0,0,0)" stroke-width="1" opacity="0.8235294117647058" d="M 297.5 29 L 298.5 31 L 297.5 29 Z " /><path fill="rgb(0,0,0)" stroke="rgb(0,0,0)" stroke-width="1" opacity="0.8235294117647058" d="M 210.5 32 L 209.5 34 L 210.5 32 Z " /><path fill="rgb(0,0,0)" stroke="rgb(0,0,0)" stroke-width="1" opacity="0.8235294117647058" d="M 301.5 32 L 302.5 34 L 301.5 32 Z " /><path fill="rgb(0,0,0)" stroke="rgb(0,0,0)" stroke-width="1" opacity="0.8235294117647058" d="M 206.5 35 L 7.5 235 L 206.5 35 Z " /><path fill="rgb(0,0,0)" stroke="rgb(0,0,0)" stroke-width="1" opacity="0.8235294117647058" d="M 305.5 35 L 367 95.5 L 367.5 61 L 368 95.5 L 366.5 97 L 305.5 35 Z " /><path fill="rgb(0,0,0)" stroke="rgb(0,0,0)" stroke-width="1" opacity="0.8235294117647058" d="M 412.5 41 L 413.5 43 L 412.5 41 Z " /><path fill="rgb(0,0,0)" stroke="rgb(0,0,0)" stroke-width="1" opacity="0.8235294117647058" d="M 376.5 44 L 374.5 47 L 376.5 44 Z " /><path fill="rgb(0,0,0)" stroke="rgb(0,0,0)" stroke-width="1" opacity="0.8235294117647058" d="M 416.5 44 L 417.5 46 L 416.5 44 Z " /><path fill="rgb(0,0,0)" stroke="rgb(0,0,0)" stroke-width="1" opacity="0.8235294117647058" d="M 372.5 49 L 371.5 51 L 372.5 49 Z " /><path fill="rgb(0,0,0)" stroke="rgb(0,0,0)" stroke-width="1" opacity="0.8235294117647058" d="M 421.5 51 L 422.5 53 L 421.5 51 Z " /><path fill="rgb(0,0,0)" stroke="rgb(0,0,0)" stroke-width="1" opacity="0.8235294117647058" d="M 425.5 62 L 426 155.5 L 505 234.5 L 425 155.5 L 425.5 62 Z " /><path fill="rgb(0,0,0)" stroke="rgb(0,0,0)" stroke-width="1" opacity="0.8235294117647058" d="M 246.5 78 L 245.5 80 L 246.5 78 Z " /><path fill="rgb(0,0,0)" stroke="rgb(0,0,0)" stroke-width="1" opacity="0.8235294117647058" d="M 265.5 78 L 266.5 80 L 265.5 78 Z " /><path fill="rgb(0,0,0)" stroke="rgb(0,0,0)" stroke-width="1" opacity="0.8235294117647058" d="M 252.5 132 L 255 132.5 L 252.5 133 L 252.5 132 Z " /><path fill="rgb(0,0,0)" stroke="rgb(0,0,0)" stroke-width="1" opacity="0.8235294117647058" d="M 257.5 132 L 260 132.5 L 257.5 133 L 257.5 132 Z " /><path fill="rgb(0,0,0)" stroke="rgb(0,0,0)" stroke-width="1" opacity="0.8235294117647058" d="M 245.5 136 L 75.5 307 L 245.5 136 Z " /><path fill="rgb(0,0,0)" stroke="rgb(0,0,0)" stroke-width="1" opacity="0.8235294117647058" d="M 266.5 136 L 436.5 307 L 266.5 136 Z " /><path fill="rgb(0,0,0)" stroke="rgb(0,0,0)" stroke-width="1" opacity="0.8235294117647058" d="M 5.5 237 L 4.5 239 L 5.5 237 Z " /><path fill="rgb(0,0,0)" stroke="rgb(0,0,0)" stroke-width="1" opacity="0.8235294117647058" d="M 506.5 237 L 507.5 239 L 506.5 237 Z " /><path fill="rgb(0,0,0)" stroke="rgb(0,0,0)" stroke-width="1" opacity="0.8235294117647058" d="M 0.5 248 L 1 252.5 L 0 252.5 L 0.5 248 Z " /><path fill="rgb(0,0,0)" stroke="rgb(0,0,0)" stroke-width="1" opacity="0.8235294117647058" d="M 511.5 248 L 512 252.5 L 511 252.5 L 511.5 248 Z " /><path fill="rgb(0,0,0)" stroke="rgb(0,0,0)" stroke-width="1" opacity="0.8235294117647058" d="M 0.5 255 L 1 259.5 L 0 259.5 L 0.5 255 Z " /><path fill="rgb(0,0,0)" stroke="rgb(0,0,0)" stroke-width="1" opacity="0.8235294117647058" d="M 511.5 255 L 512 259.5 L 511 259.5 L 511.5 255 Z " /><path fill="rgb(0,0,0)" stroke="rgb(0,0,0)" stroke-width="1" opacity="0.8235294117647058" d="M 3.5 267 L 4.5 269 L 3.5 267 Z " /><path fill="rgb(0,0,0)" stroke="rgb(0,0,0)" stroke-width="1" opacity="0.8235294117647058" d="M 508.5 267 L 507.5 269 L 508.5 267 Z " /><path fill="rgb(0,0,0)" stroke="rgb(0,0,0)" stroke-width="1" opacity="0.8235294117647058" d="M 5.5 270 L 6.5 272 L 5.5 270 Z " /><path fill="rgb(0,0,0)" stroke="rgb(0,0,0)" stroke-width="1" opacity="0.8235294117647058" d="M 506.5 270 L 505.5 272 L 506.5 270 Z " /><path fill="rgb(0,0,0)" stroke="rgb(0,0,0)" stroke-width="1" opacity="0.8235294117647058" d="M 48.5 275 L 46.5 278 L 48.5 275 Z " /><path fill="rgb(0,0,0)" stroke="rgb(0,0,0)" stroke-width="1" opacity="0.8235294117647058" d="M 463.5 275 L 465.5 278 L 463.5 275 Z " /><path fill="rgb(0,0,0)" stroke="rgb(0,0,0)" stroke-width="1" opacity="0.8235294117647058" d="M 11.5 276 L 13.5 279 L 11.5 276 Z " /><path fill="rgb(0,0,0)" stroke="rgb(0,0,0)" stroke-width="1" opacity="0.8235294117647058" d="M 500.5 276 L 498.5 279 L 500.5 276 Z " /><path fill="rgb(0,0,0)" stroke="rgb(0,0,0)" stroke-width="1" opacity="0.8235294117647058" d="M 42.5 279 L 41.5 281 L 42.5 279 Z " /><path fill="rgb(0,0,0)" stroke="rgb(0,0,0)" stroke-width="1" opacity="0.8235294117647058" d="M 469.5 279 L 470.5 281 L 469.5 279 Z " /><path fill="rgb(0,0,0)" stroke="rgb(0,0,0)" stroke-width="1" opacity="0.8235294117647058" d="M 23.5 282 L 26 282.5 L 23.5 283 L 23.5 282 Z " /><path fill="rgb(0,0,0)" stroke="rgb(0,0,0)" stroke-width="1" opacity="0.8235294117647058" d="M 32.5 282 L 36 282.5 L 32.5 283 L 32.5 282 Z " /><path fill="rgb(0,0,0)" stroke="rgb(0,0,0)" stroke-width="1" opacity="0.8235294117647058" d="M 476.5 282 L 480 282.5 L 476.5 283 L 476.5 282 Z " /><path fill="rgb(0,0,0)" stroke="rgb(0,0,0)" stroke-width="1" opacity="0.8235294117647058" d="M 485.5 282 L 489 282.5 L 485.5 283 L 485.5 282 Z " /><path fill="rgb(0,0,0)" stroke="rgb(0,0,0)" stroke-width="1" opacity="0.8235294117647058" d="M 73.5 309 L 73 310.5 L 72.5 312 L 72 310.5 L 73.5 309 Z " /><path fill="rgb(0,0,0)" stroke="rgb(0,0,0)" stroke-width="1" opacity="0.8235294117647058" d="M 71.5 313 L 72 315.5 L 71 315.5 L 71.5 313 Z " /><path fill="rgb(0,0,0)" stroke="rgb(0,0,0)" stroke-width="1" opacity="0.8235294117647058" d="M 440.5 313 L 441 315.5 L 440 315.5 L 440.5 313 Z " /><path fill="rgb(0,0,0)" stroke="rgb(0,0,0)" stroke-width="1" opacity="0.8235294117647058" d="M 208.5 363 L 304 363.5 L 208.5 364 L 208.5 363 Z " /><path fill="rgb(0,0,0)" stroke="rgb(0,0,0)" stroke-width="1" opacity="0.8235294117647058" d="M 440.5 444 L 441 448.5 L 440 448.5 L 440.5 444 Z " /><path fill="rgb(0,0,0)" stroke="rgb(0,0,0)" stroke-width="1" opacity="0.8235294117647058" d="M 71.5 445 L 72 449.5 L 71 449.5 L 71.5 445 Z " /><path fill="rgb(0,0,0)" stroke="rgb(0,0,0)" stroke-width="1" opacity="0.8235294117647058" d="M 78.5 468 L 79.5 470 L 78.5 468 Z " /><path fill="rgb(0,0,0)" stroke="rgb(0,0,0)" stroke-width="1" opacity="0.8235294117647058" d="M 433.5 468 L 432.5 470 L 433.5 468 Z " /><path fill="rgb(0,0,0)" stroke="rgb(0,0,0)" stroke-width="1" opacity="0.8235294117647058" d="M 80.5 471 L 81.5 473 L 80.5 471 Z " /><path fill="rgb(0,0,0)" stroke="rgb(0,0,0)" stroke-width="1" opacity="0.8235294117647058" d="M 431.5 471 L 429.5 474 L 431.5 471 Z " /><path fill="rgb(0,0,0)" stroke="rgb(0,0,0)" stroke-width="1" opacity="0.8235294117647058" d="M 84.5 476 L 89.5 482 L 84.5 476 Z " /><path fill="rgb(0,0,0)" stroke="rgb(0,0,0)" stroke-width="1" opacity="0.8235294117647058" d="M 427.5 476 L 422.5 482 L 427.5 476 Z " /><path fill="rgb(0,0,0)" stroke="rgb(0,0,0)" stroke-width="1" opacity="0.8235294117647058" d="M 92.5 483 L 94.5 486 L 92.5 483 Z " /><path fill="rgb(0,0,0)" stroke="rgb(0,0,0)" stroke-width="1" opacity="0.8235294117647058" d="M 419.5 483 L 417.5 486 L 419.5 483 Z " /><path fill="rgb(0,0,0)" stroke="rgb(0,0,0)" stroke-width="1" opacity="0.8235294117647058" d="M 114.5 493 L 117 493.5 L 114.5 494 L 114.5 493 Z " /><path fill="rgb(0,0,0)" stroke="rgb(0,0,0)" stroke-width="1" opacity="0.8235294117647058" d="M 395.5 493 L 398 493.5 L 395.5 494 L 395.5 493 Z " /><path fill="rgb(0,0,0)" stroke="rgb(0,0,0)" stroke-width="1" opacity="1" d="M 248.5 18 L 263.5 18 L 278.5 21 L 299.5 31 L 366.5 97 L 368 95.5 L 368 59.5 Q 370.9 47.9 379.5 42 L 391.5 37 L 401.5 37 Q 413.5 40 420 48.5 L 425 59.5 L 425 155.5 L 506 236.5 L 510 243.5 L 512 254.5 L 510 264.5 L 501.5 276 Q 494.5 283 480.5 283 L 471.5 281 L 462.5 275 L 265.5 78 L 255.5 75 L 246.5 78 L 49.5 275 L 40.5 281 L 26.5 283 Q 13.5 281 7 272.5 L 2 264.5 L 0 253.5 L 2 243.5 L 6 236.5 L 208.5 34 L 227.5 23 L 248.5 18 Z " /><path fill="rgb(0,0,0)" stroke="rgb(0,0,0)" stroke-width="1" opacity="1" d="M 255.5 132 L 264.5 135 L 438 308.5 L 441 316.5 L 441 443.5 L 440 444.5 L 439 455.5 L 434 467.5 L 420.5 483 L 406.5 491 L 394.5 494 L 304 494 L 304 363 L 208 363 L 208 494 L 117.5 494 Q 93.8 489.7 82 473.5 L 75 461.5 L 71 444.5 L 71 316.5 L 74 308.5 L 247.5 135 L 255.5 132 Z " /><path fill="rgb(0,0,0)" stroke="rgb(0,0,0)" stroke-width="1" opacity="0" d="M 0 0 L 512 0 L 512 247.5 L 511 247.5 Q 510.1 238.9 505 234.5 L 426 155.5 L 426 62.5 Q 424.1 50.4 416.5 44 L 406.5 38 L 396.5 36 L 386.5 38 L 374 46.5 Q 368.7 52.2 367 61.5 L 366.5 96 L 305.5 35 L 297.5 29 Q 286.7 22.3 272.5 19 L 267.5 18 L 244.5 18 Q 221.2 22.2 206.5 35 L 7 234.5 Q 2 239.5 0.5 248 L 0 0 Z " /><path fill="rgb(0,0,0)" stroke="rgb(0,0,0)" stroke-width="1" opacity="0" d="M 252.5 76 Q 263.2 74.8 267.5 80 L 465.5 278 L 476.5 283 L 488.5 283 L 498.5 279 L 504 275 L 509 267.5 L 511.5 260 L 512 512 L 0 512 L 0 260.5 L 1 260.5 L 2 265.5 L 8 275 L 13.5 279 L 23.5 283 L 35.5 283 L 46.5 278 L 244.5 80 L 252.5 76 Z M 253 132 L 246 136 L 75 307 L 71 314 L 71 450 L 74 461 L 84 477 Q 95 490 115 494 L 208 494 L 208 364 L 304 364 L 304 494 L 398 494 L 406 492 L 423 482 Q 437 470 441 449 L 441 314 L 437 307 L 267 136 L 260 132 L 253 132 Z " /></svg>