<svg width="64" height="64" version="1.1" xmlns="http://www.w3.org/2000/svg" desc="Created with imagetracer.js version 1.2.6" ><path fill="rgb(0,0,0)" stroke="rgb(0,0,0)" stroke-width="1" opacity="0.16470588235294117" d="M 25.5 4 L 0.5 30 L 25.5 4 Z " /><path fill="rgb(0,0,0)" stroke="rgb(0,0,0)" stroke-width="1" opacity="0.16470588235294117" d="M 38.5 4 L 45 9.5 L 45.5 8 L 46 11.5 L 38.5 4 Z " /><path fill="rgb(0,0,0)" stroke="rgb(0,0,0)" stroke-width="1" opacity="0.16470588235294117" d="M 48.5 4 L 51 4.5 L 48.5 5 L 48.5 4 Z " /><path fill="rgb(0,0,0)" stroke="rgb(0,0,0)" stroke-width="1" opacity="0.16470588235294117" d="M 53.5 8 L 54 19.5 L 64 29.5 L 53 19.5 L 53.5 8 Z " /><path fill="rgb(0,0,0)" stroke="rgb(0,0,0)" stroke-width="1" opacity="0.16470588235294117" d="M 30.5 10 L 6.5 35 L 30.5 10 Z " /><path fill="rgb(0,0,0)" stroke="rgb(0,0,0)" stroke-width="1" opacity="0.16470588235294117" d="M 33.5 10 L 57.5 35 L 33.5 10 Z " /><path fill="rgb(0,0,0)" stroke="rgb(0,0,0)" stroke-width="1" opacity="0.16470588235294117" d="M 2.5 35 L 5 35.5 L 2.5 36 L 2.5 35 Z " /><path fill="rgb(0,0,0)" stroke="rgb(0,0,0)" stroke-width="1" opacity="0.16470588235294117" d="M 59.5 35 L 62 35.5 L 59.5 36 L 59.5 35 Z " /><path fill="rgb(0,0,0)" stroke="rgb(0,0,0)" stroke-width="1" opacity="0.16470588235294117" d="M 8.5 40 L 9 54.5 L 8 54.5 L 8.5 40 Z " /><path fill="rgb(0,0,0)" stroke="rgb(0,0,0)" stroke-width="1" opacity="0.16470588235294117" d="M 55.5 40 L 56 54.5 L 55 54.5 L 55.5 40 Z " /><path fill="rgb(0,0,0)" stroke="rgb(0,0,0)" stroke-width="1" opacity="0.16470588235294117" d="M 26.5 45 L 38 45.5 L 26.5 46 L 26.5 45 Z " /><path fill="rgb(0,0,0)" stroke="rgb(0,0,0)" stroke-width="1" opacity="0.16470588235294117" d="M 9.5 58 L 14 61.5 L 12.5 62 L 9.5 58 Z " /><path fill="rgb(0,0,0)" stroke="rgb(0,0,0)" stroke-width="1" opacity="0.16470588235294117" d="M 54.5 58 L 51.5 62 L 50 61.5 L 54.5 58 Z " /><path fill="rgb(0,0,0)" stroke="rgb(0,0,0)" stroke-width="1" opacity="0" d="M 0 0 L 64 0 L 64 28.5 L 54 19.5 Q 55.1 9.8 53 5 L 48.5 4 L 44.5 10 L 35.5 2 L 28.5 2 L 0.5 29 L 0 0 Z " /><path fill="rgb(0,0,0)" stroke="rgb(0,0,0)" stroke-width="1" opacity="0" d="M 31.5 10 L 57.5 35 L 61.5 36 L 64 34.5 L 64 64 L 0 64 L 0.5 34 L 4.5 36 L 31.5 10 Z M 32 16 L 8 41 Q 5 56 13 62 L 26 62 L 26 46 L 38 46 L 38 62 L 52 62 L 55 59 L 56 55 L 56 41 L 55 39 L 32 16 Z " /><path fill="rgb(0,0,0)" stroke="rgb(0,0,0)" stroke-width="1" opacity="0.8431372549019608" d="M 30.5 2 L 34 2.5 L 30.5 3 L 30.5 2 Z " /><path fill="rgb(0,0,0)" stroke="rgb(0,0,0)" stroke-width="1" opacity="0.8431372549019608" d="M 27.5 3 L 26.5 5 L 27.5 3 Z " /><path fill="rgb(0,0,0)" stroke="rgb(0,0,0)" stroke-width="1" opacity="0.8431372549019608" d="M 36.5 3 L 37.5 5 L 36.5 3 Z " /><path fill="rgb(0,0,0)" stroke="rgb(0,0,0)" stroke-width="1" opacity="0.8431372549019608" d="M 47.5 5 L 46.5 7 L 47.5 5 Z " /><path fill="rgb(0,0,0)" stroke="rgb(0,0,0)" stroke-width="1" opacity="0.8431372549019608" d="M 51.5 5 L 52.5 7 L 51.5 5 Z " /><path fill="rgb(0,0,0)" stroke="rgb(0,0,0)" stroke-width="1" opacity="0.8431372549019608" d="M 29.5 10 L 5.5 35 L 29.5 10 Z " /><path fill="rgb(0,0,0)" stroke="rgb(0,0,0)" stroke-width="1" opacity="0.8431372549019608" d="M 34.5 10 L 58.5 35 L 34.5 10 Z " /><path fill="rgb(0,0,0)" stroke="rgb(0,0,0)" stroke-width="1" opacity="0.8431372549019608" d="M 30.5 17 L 9.5 39 L 30.5 17 Z " /><path fill="rgb(0,0,0)" stroke="rgb(0,0,0)" stroke-width="1" opacity="0.8431372549019608" d="M 33.5 17 L 54.5 39 L 33.5 17 Z " /><path fill="rgb(0,0,0)" stroke="rgb(0,0,0)" stroke-width="1" opacity="0.8431372549019608" d="M 14.5 61 L 26 61.5 L 14.5 62 L 14.5 61 Z " /><path fill="rgb(0,0,0)" stroke="rgb(0,0,0)" stroke-width="1" opacity="0.8431372549019608" d="M 38.5 61 L 50 61.5 L 38.5 62 L 38.5 61 Z " /><path fill="rgb(0,0,0)" stroke="rgb(0,0,0)" stroke-width="1" opacity="0.996078431372549" d="M 25.5 5 L 1.5 30 L 25.5 5 Z " /><path fill="rgb(0,0,0)" stroke="rgb(0,0,0)" stroke-width="1" opacity="0.996078431372549" d="M 38.5 5 L 45.5 13 L 38.5 5 Z " /><path fill="rgb(0,0,0)" stroke="rgb(0,0,0)" stroke-width="1" opacity="0.996078431372549" d="M 53.5 20 L 62.5 30 L 53.5 20 Z " /><path fill="rgb(0,0,0)" stroke="rgb(0,0,0)" stroke-width="1" opacity="1" d="M 29.5 3 L 36.5 4 L 45.5 13 Q 45.3 7.3 48.5 5 Q 52.5 4.5 53 7.5 L 53 20.5 L 63 30.5 L 63 33.5 L 59.5 35 L 33.5 9 L 30.5 9 L 4.5 35 L 2.5 35 Q 0.3 34.3 1 30.5 L 29.5 3 Z " /><path fill="rgb(0,0,0)" stroke="rgb(0,0,0)" stroke-width="1" opacity="1" d="M 31.5 17 L 54 38.5 L 55 40.5 L 55 55.5 L 53 60 L 50.5 61 L 38 61 L 38 45 L 26 45 L 26 61 L 13.5 61 L 11 60 L 9 55.5 L 9 40.5 L 31.5 17 Z " /></svg>