<svg width="32" height="32" version="1.1" xmlns="http://www.w3.org/2000/svg" desc="Created with imagetracer.js version 1.2.6" ><path fill="rgb(0,0,0)" stroke="rgb(0,0,0)" stroke-width="1" opacity="0.18823529411764706" d="M 6.5 2 L 19 16.5 L 6.5 30 L 6 28.5 L 18 15.5 L 6 3.5 L 6.5 2 Z " /><path fill="rgb(0,0,0)" stroke="rgb(0,0,0)" stroke-width="1" opacity="0" d="M 0 0 L 8 0.5 L 6 3.5 L 18 16.5 L 6 29.5 L 7.5 32 L 0.5 32 L 0 31.5 L 0 0 Z " /><path fill="rgb(0,0,0)" stroke="rgb(0,0,0)" stroke-width="1" opacity="0" d="M 11.5 0 L 32 0 L 32 32 L 11 31.5 L 26 15.5 L 11.5 0 Z " /><path fill="rgb(0,0,0)" stroke="rgb(0,0,0)" stroke-width="1" opacity="0.6392156862745098" d="M 8.5 0 L 7.5 2 L 8.5 0 Z " /><path fill="rgb(0,0,0)" stroke="rgb(0,0,0)" stroke-width="1" opacity="0.6392156862745098" d="M 10.5 0 L 24.5 15 L 10.5 0 Z " /><path fill="rgb(0,0,0)" stroke="rgb(0,0,0)" stroke-width="1" opacity="0.6392156862745098" d="M 24.5 17 L 10.5 32 L 24.5 17 Z " /><path fill="rgb(0,0,0)" stroke="rgb(0,0,0)" stroke-width="1" opacity="0.6392156862745098" d="M 7.5 30 L 8.5 32 L 7.5 30 Z " /><path fill="rgb(0,0,0)" stroke="rgb(0,0,0)" stroke-width="1" opacity="0.996078431372549" d="M 7.5 3 L 20 16.5 L 7 28.5 L 19 15.5 L 7.5 3 Z " /><path fill="rgb(0,0,0)" stroke="rgb(0,0,0)" stroke-width="1" opacity="1" d="M 8.5 1 L 10.5 1 L 25 15.5 L 10.5 31 L 7 29.5 L 20 15.5 L 7 2.5 L 8.5 1 Z " /></svg>