<svg width="512" height="512" version="1.1" xmlns="http://www.w3.org/2000/svg" desc="Created with imagetracer.js version 1.2.6" ><path fill="rgb(255,255,255)" stroke="rgb(255,255,255)" stroke-width="1" opacity="0.4588235294117647" d="M 248.5 17 L 264 17.5 L 248.5 18 L 248.5 17 Z " /><path fill="rgb(255,255,255)" stroke="rgb(255,255,255)" stroke-width="1" opacity="0.4588235294117647" d="M 241.5 18 L 246 18.5 L 241.5 19 L 241.5 18 Z " /><path fill="rgb(255,255,255)" stroke="rgb(255,255,255)" stroke-width="1" opacity="0.4588235294117647" d="M 266.5 18 L 271 18.5 L 266.5 19 L 266.5 18 Z " /><path fill="rgb(255,255,255)" stroke="rgb(255,255,255)" stroke-width="1" opacity="0.4588235294117647" d="M 236.5 19 L 240 19.5 L 233.5 21 L 233.5 20 L 236.5 19 Z " /><path fill="rgb(255,255,255)" stroke="rgb(255,255,255)" stroke-width="1" opacity="0.4588235294117647" d="M 272.5 19 L 279 20.5 L 276.5 21 L 272.5 20 L 272.5 19 Z " /><path fill="rgb(255,255,255)" stroke="rgb(255,255,255)" stroke-width="1" opacity="0.4588235294117647" d="M 227.5 22 L 229 22.5 L 225.5 24 L 225.5 23 L 227.5 22 Z " /><path fill="rgb(255,255,255)" stroke="rgb(255,255,255)" stroke-width="1" opacity="0.4588235294117647" d="M 286.5 23 L 295 27.5 L 293.5 27 L 286.5 24 L 286.5 23 Z " /><path fill="rgb(255,255,255)" stroke="rgb(255,255,255)" stroke-width="1" opacity="0.4588235294117647" d="M 222.5 24 L 224 24.5 Q 212 29.5 203.5 38 L 8 233.5 L 3.5 240 L 4 238.5 L 6 234.5 L 205.5 35 L 222.5 24 Z " /><path fill="rgb(255,255,255)" stroke="rgb(255,255,255)" stroke-width="1" opacity="0.4588235294117647" d="M 296.5 28 L 306.5 35 L 367 95.5 L 308.5 38 L 297.5 30 L 296.5 28 Z " /><path fill="rgb(255,255,255)" stroke="rgb(255,255,255)" stroke-width="1" opacity="0.4588235294117647" d="M 391.5 36 L 402 36.5 L 391.5 37 L 391.5 36 Z " /><path fill="rgb(255,255,255)" stroke="rgb(255,255,255)" stroke-width="1" opacity="0.4588235294117647" d="M 387.5 37 L 390 37.5 L 387.5 38 L 387.5 37 Z " /><path fill="rgb(255,255,255)" stroke="rgb(255,255,255)" stroke-width="1" opacity="0.4588235294117647" d="M 403.5 37 L 408.5 38 L 418 44 L 422 49.5 L 425 57.5 L 424 57.5 Q 421.7 46.8 413.5 42 Q 410 38.5 403.5 38 L 403.5 37 Z " /><path fill="rgb(255,255,255)" stroke="rgb(255,255,255)" stroke-width="1" opacity="0.4588235294117647" d="M 384.5 38 L 386 38.5 Q 376.7 41.7 372 49.5 Q 368.3 54.8 367.5 63 L 367 58.5 Q 369.9 48.9 376.5 43 L 384.5 38 Z " /><path fill="rgb(255,255,255)" stroke="rgb(255,255,255)" stroke-width="1" opacity="0.4588235294117647" d="M 425.5 59 L 426 63.5 L 425 63.5 L 425.5 59 Z " /><path fill="rgb(255,255,255)" stroke="rgb(255,255,255)" stroke-width="1" opacity="0.4588235294117647" d="M 250.5 76 L 254 76.5 L 246.5 79 L 47.5 278 Q 43 282.5 34.5 283 L 34.5 282 Q 43 281.5 47.5 277 L 246.5 78 L 250.5 76 Z " /><path fill="rgb(255,255,255)" stroke="rgb(255,255,255)" stroke-width="1" opacity="0.4588235294117647" d="M 258.5 76 L 265.5 78 L 464.5 277 Q 469.6 281.4 478 282.5 L 474.5 283 L 464.5 278 L 265.5 79 L 258.5 77 L 258.5 76 Z " /><path fill="rgb(255,255,255)" stroke="rgb(255,255,255)" stroke-width="1" opacity="0.4588235294117647" d="M 250.5 132 L 253 132.5 L 248.5 134 L 73 309.5 L 71.5 314 L 71 311.5 L 248.5 133 L 250.5 132 Z " /><path fill="rgb(255,255,255)" stroke="rgb(255,255,255)" stroke-width="1" opacity="0.4588235294117647" d="M 262.5 133 L 440 309.5 L 441 313.5 L 440 313.5 L 439 309.5 L 263.5 134 L 262.5 133 Z " /><path fill="rgb(255,255,255)" stroke="rgb(255,255,255)" stroke-width="1" opacity="0.4588235294117647" d="M 426.5 155 L 506 234.5 L 509 239.5 L 507 238.5 L 504 233.5 L 426.5 155 Z " /><path fill="rgb(255,255,255)" stroke="rgb(255,255,255)" stroke-width="1" opacity="0.4588235294117647" d="M 2.5 241 L 3 242.5 L 1.5 245 L 1 243.5 L 2.5 241 Z " /><path fill="rgb(255,255,255)" stroke="rgb(255,255,255)" stroke-width="1" opacity="0.4588235294117647" d="M 509.5 241 L 511 244.5 L 510 244.5 L 509.5 241 Z " /><path fill="rgb(255,255,255)" stroke="rgb(255,255,255)" stroke-width="1" opacity="0.4588235294117647" d="M 0.5 246 L 1 249.5 L 0 249.5 L 0.5 246 Z " /><path fill="rgb(255,255,255)" stroke="rgb(255,255,255)" stroke-width="1" opacity="0.4588235294117647" d="M 511.5 246 L 512 249.5 L 511 249.5 L 511.5 246 Z " /><path fill="rgb(255,255,255)" stroke="rgb(255,255,255)" stroke-width="1" opacity="0.4588235294117647" d="M 0.5 258 Q 2.7 271.8 12.5 278 L 20 281.5 L 18.5 282 Q 9.1 278.4 4 270.5 L 0 261.5 L 0.5 258 Z " /><path fill="rgb(255,255,255)" stroke="rgb(255,255,255)" stroke-width="1" opacity="0.4588235294117647" d="M 511.5 258 L 512 261.5 Q 508.6 273.1 499.5 279 L 492.5 282 L 492.5 281 Q 502.3 278.3 507 270.5 L 511.5 258 Z " /><path fill="rgb(255,255,255)" stroke="rgb(255,255,255)" stroke-width="1" opacity="0.4588235294117647" d="M 21.5 282 L 24 282.5 L 21.5 283 L 21.5 282 Z " /><path fill="rgb(255,255,255)" stroke="rgb(255,255,255)" stroke-width="1" opacity="0.4588235294117647" d="M 488.5 282 L 491 282.5 L 488.5 283 L 488.5 282 Z " /><path fill="rgb(255,255,255)" stroke="rgb(255,255,255)" stroke-width="1" opacity="0.4588235294117647" d="M 26.5 283 L 33 283.5 L 26.5 284 L 26.5 283 Z " /><path fill="rgb(255,255,255)" stroke="rgb(255,255,255)" stroke-width="1" opacity="0.4588235294117647" d="M 480.5 283 L 486 283.5 L 480.5 284 L 480.5 283 Z " /><path fill="rgb(255,255,255)" stroke="rgb(255,255,255)" stroke-width="1" opacity="0.4588235294117647" d="M 70.5 316 L 71 442.5 L 70 442.5 L 70.5 316 Z " /><path fill="rgb(255,255,255)" stroke="rgb(255,255,255)" stroke-width="1" opacity="0.4588235294117647" d="M 441.5 316 L 442 442.5 L 441 442.5 L 441.5 316 Z " /><path fill="rgb(255,255,255)" stroke="rgb(255,255,255)" stroke-width="1" opacity="0.4588235294117647" d="M 208 363 L 304 363 L 304 494 L 394.5 494 L 394.5 495 L 303 495 L 303 364 L 209 364 L 209 495 L 117.5 495 L 117.5 494 L 208 494 L 208 363 Z " /><path fill="rgb(255,255,255)" stroke="rgb(255,255,255)" stroke-width="1" opacity="0.4588235294117647" d="M 71.5 447 L 73 455.5 L 72 455.5 L 71.5 447 Z " /><path fill="rgb(255,255,255)" stroke="rgb(255,255,255)" stroke-width="1" opacity="0.4588235294117647" d="M 440.5 447 L 441 451.5 L 440 451.5 L 440.5 447 Z " /><path fill="rgb(255,255,255)" stroke="rgb(255,255,255)" stroke-width="1" opacity="0.4588235294117647" d="M 439.5 453 L 440 455.5 L 439 455.5 L 439.5 453 Z " /><path fill="rgb(255,255,255)" stroke="rgb(255,255,255)" stroke-width="1" opacity="0.4588235294117647" d="M 73.5 457 L 76 463.5 L 75 463.5 Q 72 461 73.5 457 Z " /><path fill="rgb(255,255,255)" stroke="rgb(255,255,255)" stroke-width="1" opacity="0.4588235294117647" d="M 437.5 460 L 438 461.5 L 435.5 466 L 435 464.5 L 437.5 460 Z " /><path fill="rgb(255,255,255)" stroke="rgb(255,255,255)" stroke-width="1" opacity="0.4588235294117647" d="M 77.5 467 L 88.5 481 Q 96 488 107 491.5 L 105.5 492 Q 90.9 486.6 82 475.5 L 77.5 467 Z " /><path fill="rgb(255,255,255)" stroke="rgb(255,255,255)" stroke-width="1" opacity="0.4588235294117647" d="M 434.5 467 L 434 468.5 Q 430 477.5 422.5 483 Q 415.7 489.2 405.5 492 L 405.5 491 Q 418.9 486.9 427 477.5 L 434.5 467 Z " /><path fill="rgb(255,255,255)" stroke="rgb(255,255,255)" stroke-width="1" opacity="0.4588235294117647" d="M 108.5 492 L 111 492.5 L 108.5 493 L 108.5 492 Z " /><path fill="rgb(255,255,255)" stroke="rgb(255,255,255)" stroke-width="1" opacity="0.4588235294117647" d="M 401.5 492 L 404 492.5 L 401.5 493 L 401.5 492 Z " /><path fill="rgb(255,255,255)" stroke="rgb(255,255,255)" stroke-width="1" opacity="0.4588235294117647" d="M 112.5 493 L 116 493.5 L 112.5 494 L 112.5 493 Z " /><path fill="rgb(255,255,255)" stroke="rgb(255,255,255)" stroke-width="1" opacity="0.4588235294117647" d="M 396.5 493 L 400 493.5 L 396.5 494 L 396.5 493 Z " /><path fill="rgb(255,255,255)" stroke="rgb(255,255,255)" stroke-width="1" opacity="0.996078431372549" d="M 295.5 28 L 296.5 30 L 295.5 28 Z " /><path fill="rgb(255,255,255)" stroke="rgb(255,255,255)" stroke-width="1" opacity="0.996078431372549" d="M 213.5 30 L 212.5 32 L 213.5 30 Z " /><path fill="rgb(255,255,255)" stroke="rgb(255,255,255)" stroke-width="1" opacity="0.996078431372549" d="M 298.5 30 L 299.5 32 L 298.5 30 Z " /><path fill="rgb(255,255,255)" stroke="rgb(255,255,255)" stroke-width="1" opacity="0.996078431372549" d="M 301.5 32 L 303.5 35 L 301.5 32 Z " /><path fill="rgb(255,255,255)" stroke="rgb(255,255,255)" stroke-width="1" opacity="0.996078431372549" d="M 209.5 33 L 208.5 35 L 209.5 33 Z " /><path fill="rgb(255,255,255)" stroke="rgb(255,255,255)" stroke-width="1" opacity="0.996078431372549" d="M 203.5 38 L 8.5 234 L 203.5 38 Z " /><path fill="rgb(255,255,255)" stroke="rgb(255,255,255)" stroke-width="1" opacity="0.996078431372549" d="M 308.5 38 L 367 95.5 L 367.5 63 L 368 97 L 366.5 97 L 308.5 38 Z " /><path fill="rgb(255,255,255)" stroke="rgb(255,255,255)" stroke-width="1" opacity="0.996078431372549" d="M 380.5 41 L 379.5 43 L 380.5 41 Z " /><path fill="rgb(255,255,255)" stroke="rgb(255,255,255)" stroke-width="1" opacity="0.996078431372549" d="M 413.5 42 L 414.5 44 L 413.5 42 Z " /><path fill="rgb(255,255,255)" stroke="rgb(255,255,255)" stroke-width="1" opacity="0.996078431372549" d="M 373.5 48 L 372.5 50 L 373.5 48 Z " /><path fill="rgb(255,255,255)" stroke="rgb(255,255,255)" stroke-width="1" opacity="0.996078431372549" d="M 419.5 48 L 420.5 50 L 419.5 48 Z " /><path fill="rgb(255,255,255)" stroke="rgb(255,255,255)" stroke-width="1" opacity="0.996078431372549" d="M 425.5 64 L 426 155.5 L 504 233.5 L 425 155.5 L 425.5 64 Z " /><path fill="rgb(255,255,255)" stroke="rgb(255,255,255)" stroke-width="1" opacity="0.996078431372549" d="M 254.5 75 L 258 75.5 L 254.5 76 L 254.5 75 Z " /><path fill="rgb(255,255,255)" stroke="rgb(255,255,255)" stroke-width="1" opacity="0.996078431372549" d="M 244.5 79 L 47.5 277 L 244.5 79 Z " /><path fill="rgb(255,255,255)" stroke="rgb(255,255,255)" stroke-width="1" opacity="0.996078431372549" d="M 267.5 79 L 464.5 277 L 267.5 79 Z " /><path fill="rgb(255,255,255)" stroke="rgb(255,255,255)" stroke-width="1" opacity="0.996078431372549" d="M 253.5 132 L 259 132.5 L 253.5 133 L 253.5 132 Z " /><path fill="rgb(255,255,255)" stroke="rgb(255,255,255)" stroke-width="1" opacity="0.996078431372549" d="M 248.5 134 L 246.5 137 L 248.5 134 Z " /><path fill="rgb(255,255,255)" stroke="rgb(255,255,255)" stroke-width="1" opacity="0.996078431372549" d="M 263.5 134 L 265.5 137 L 263.5 134 Z " /><path fill="rgb(255,255,255)" stroke="rgb(255,255,255)" stroke-width="1" opacity="0.996078431372549" d="M 6.5 236 L 5.5 238 L 6.5 236 Z " /><path fill="rgb(255,255,255)" stroke="rgb(255,255,255)" stroke-width="1" opacity="0.996078431372549" d="M 505.5 236 L 506.5 238 L 505.5 236 Z " /><path fill="rgb(255,255,255)" stroke="rgb(255,255,255)" stroke-width="1" opacity="0.996078431372549" d="M 4.5 239 L 3.5 241 L 4.5 239 Z " /><path fill="rgb(255,255,255)" stroke="rgb(255,255,255)" stroke-width="1" opacity="0.996078431372549" d="M 507.5 239 L 508.5 241 L 507.5 239 Z " /><path fill="rgb(255,255,255)" stroke="rgb(255,255,255)" stroke-width="1" opacity="0.996078431372549" d="M 0.5 250 L 1 257.5 L 0 257.5 L 0.5 250 Z " /><path fill="rgb(255,255,255)" stroke="rgb(255,255,255)" stroke-width="1" opacity="0.996078431372549" d="M 511.5 250 L 512 257.5 L 511 257.5 L 511.5 250 Z " /><path fill="rgb(255,255,255)" stroke="rgb(255,255,255)" stroke-width="1" opacity="0.996078431372549" d="M 5.5 270 L 8.5 274 L 5.5 270 Z " /><path fill="rgb(255,255,255)" stroke="rgb(255,255,255)" stroke-width="1" opacity="0.996078431372549" d="M 506.5 270 L 499.5 278 L 506.5 270 Z " /><path fill="rgb(255,255,255)" stroke="rgb(255,255,255)" stroke-width="1" opacity="0.996078431372549" d="M 10.5 275 L 12.5 278 L 10.5 275 Z " /><path fill="rgb(255,255,255)" stroke="rgb(255,255,255)" stroke-width="1" opacity="0.996078431372549" d="M 24.5 282 L 27 282.5 L 24.5 283 L 24.5 282 Z " /><path fill="rgb(255,255,255)" stroke="rgb(255,255,255)" stroke-width="1" opacity="0.996078431372549" d="M 485.5 282 L 488 282.5 L 485.5 283 L 485.5 282 Z " /><path fill="rgb(255,255,255)" stroke="rgb(255,255,255)" stroke-width="1" opacity="0.996078431372549" d="M 74.5 308 L 73.5 310 L 74.5 308 Z " /><path fill="rgb(255,255,255)" stroke="rgb(255,255,255)" stroke-width="1" opacity="0.996078431372549" d="M 437.5 308 L 438.5 310 L 437.5 308 Z " /><path fill="rgb(255,255,255)" stroke="rgb(255,255,255)" stroke-width="1" opacity="0.996078431372549" d="M 71.5 314 L 72 316.5 L 71 316.5 L 71.5 314 Z " /><path fill="rgb(255,255,255)" stroke="rgb(255,255,255)" stroke-width="1" opacity="0.996078431372549" d="M 440.5 314 L 441 316.5 L 440 316.5 L 440.5 314 Z " /><path fill="rgb(255,255,255)" stroke="rgb(255,255,255)" stroke-width="1" opacity="0.996078431372549" d="M 440.5 442 L 441 446.5 L 440 446.5 L 440.5 442 Z " /><path fill="rgb(255,255,255)" stroke="rgb(255,255,255)" stroke-width="1" opacity="0.996078431372549" d="M 71.5 443 L 72 446.5 L 71 446.5 L 71.5 443 Z " /><path fill="rgb(255,255,255)" stroke="rgb(255,255,255)" stroke-width="1" opacity="0.996078431372549" d="M 77.5 466 L 78.5 468 L 77.5 466 Z " /><path fill="rgb(255,255,255)" stroke="rgb(255,255,255)" stroke-width="1" opacity="0.996078431372549" d="M 434.5 466 L 433.5 468 L 434.5 466 Z " /><path fill="rgb(255,255,255)" stroke="rgb(255,255,255)" stroke-width="1" opacity="0.996078431372549" d="M 81.5 472 L 82.5 474 L 81.5 472 Z " /><path fill="rgb(255,255,255)" stroke="rgb(255,255,255)" stroke-width="1" opacity="0.996078431372549" d="M 430.5 472 L 429.5 474 L 430.5 472 Z " /><path fill="rgb(255,255,255)" stroke="rgb(255,255,255)" stroke-width="1" opacity="0.996078431372549" d="M 85.5 477 L 88.5 481 L 85.5 477 Z " /><path fill="rgb(255,255,255)" stroke="rgb(255,255,255)" stroke-width="1" opacity="0.996078431372549" d="M 426.5 477 L 423.5 481 L 426.5 477 Z " /><path fill="rgb(255,255,255)" stroke="rgb(255,255,255)" stroke-width="1" opacity="0.996078431372549" d="M 91.5 482 L 93.5 485 L 91.5 482 Z " /><path fill="rgb(255,255,255)" stroke="rgb(255,255,255)" stroke-width="1" opacity="0.996078431372549" d="M 420.5 482 L 418.5 485 L 420.5 482 Z " /><path fill="rgb(0,0,0)" stroke="rgb(0,0,0)" stroke-width="1" opacity="0" d="M 0 0 L 512 0 L 512 245.5 L 511 245.5 L 506 234.5 L 426 154.5 L 426 59.5 L 422 49.5 L 418 44 L 405.5 37 L 391.5 36 Q 380.2 38.2 374 45.5 L 367 58.5 L 366.5 95 L 306.5 35 L 298.5 29 Q 288.7 22.3 275.5 19 L 264.5 18 L 263.5 17 L 248.5 17 L 247.5 18 L 236.5 19 L 222.5 24 L 205.5 35 L 6 234.5 L 0.5 246 L 0 0 Z " /><path fill="rgb(0,0,0)" stroke="rgb(0,0,0)" stroke-width="1" opacity="0" d="M 254.5 76 Q 261.5 76 265.5 79 L 464.5 278 L 474.5 283 L 485.5 284 Q 501 281.5 508 270.5 L 511.5 262 L 512 512 L 0 512 L 0 262.5 L 1 262.5 Q 3.6 273.9 12.5 279 Q 19.7 284.3 32.5 284 L 40.5 282 L 47.5 278 L 246.5 79 L 254.5 76 Z M 251 132 L 249 133 L 72 310 L 70 317 L 70 443 L 73 460 L 82 476 Q 94 491 118 495 L 209 495 L 209 364 L 303 364 L 303 495 L 395 495 L 410 491 L 423 483 Q 433 475 438 462 L 441 452 L 441 444 L 442 443 L 442 317 L 440 310 L 264 133 Q 259 131 251 132 Z " /><path fill="rgb(255,255,255)" stroke="rgb(255,255,255)" stroke-width="1" opacity="1" d="M 248.5 18 L 270.5 19 Q 284.2 21.8 294.5 28 L 304.5 35 L 366.5 97 L 368 97 L 368 59.5 Q 371.1 49.1 378.5 43 L 391.5 37 L 401.5 37 Q 412.8 39.8 419 47.5 L 425 59.5 L 425 155.5 L 505 235.5 L 511 247.5 L 511 260.5 Q 507.6 272.1 498.5 278 Q 491.9 282.9 480.5 283 L 466.5 278 L 267.5 79 L 262.5 76 L 254.5 75 L 249.5 76 L 244.5 79 L 45.5 278 Q 38.9 282.9 27.5 283 Q 26.2 280.8 21.5 282 L 9 275 L 1 260.5 L 1 247.5 L 7 235.5 L 207.5 35 L 225.5 24 L 233.5 21 L 248.5 18 Z " /><path fill="rgb(255,255,255)" stroke="rgb(255,255,255)" stroke-width="1" opacity="1" d="M 251.5 133 Q 262.8 131.2 266.5 137 L 437 307.5 L 440 312.5 L 441 317.5 L 441 441.5 L 440 442.5 L 440 451.5 L 436 463.5 Q 430.6 474.6 421.5 482 L 408.5 490 L 393.5 494 L 304 494 L 304 363 L 208 363 L 208 494 L 118.5 494 Q 94.9 490.1 83 474.5 L 74 458.5 L 71 442.5 L 71 317.5 L 72 312.5 L 75 307.5 L 245.5 137 L 251.5 133 Z " /></svg>