<svg width="64" height="64" version="1.1" xmlns="http://www.w3.org/2000/svg" desc="Created with imagetracer.js version 1.2.6" ><path fill="rgb(0,0,0)" stroke="rgb(0,0,0)" stroke-width="1" opacity="0" d="M 0 0 L 64 0 L 64 28.5 L 54 19.5 L 54 7.5 L 51.5 4 Q 47 3 46 5.5 L 44.5 10 L 37.5 3 L 28.5 2 L 0.5 29 L 0 0 Z " /><path fill="rgb(0,0,0)" stroke="rgb(0,0,0)" stroke-width="1" opacity="0" d="M 31.5 10 L 58.5 36 L 61.5 36 L 64 35 L 64 64 L 0 64 L 0 35.5 L 1.5 35 L 5.5 36 L 31.5 10 Z M 31 16 L 8 40 L 8 57 L 13 62 L 27 62 L 27 46 L 37 46 L 37 62 L 52 62 L 56 57 L 56 40 L 55 38 L 34 16 L 31 16 Z " /><path fill="rgb(255,255,255)" stroke="rgb(255,255,255)" stroke-width="1" opacity="0.3843137254901961" d="M 28.5 2 L 31 2.5 L 26.5 4 L 0.5 30 L 26.5 3 L 28.5 2 Z " /><path fill="rgb(255,255,255)" stroke="rgb(255,255,255)" stroke-width="1" opacity="0.3843137254901961" d="M 33.5 2 L 37.5 3 L 44.5 10 L 47.5 4 Q 52 3 53 5.5 L 51.5 5 Q 46.1 3.1 47 6.5 L 45.5 12 L 37.5 4 L 33.5 3 L 33.5 2 Z " /><path fill="rgb(255,255,255)" stroke="rgb(255,255,255)" stroke-width="1" opacity="0.3843137254901961" d="M 53.5 7 L 54 19.5 L 64 29.5 L 53 19.5 L 53.5 7 Z " /><path fill="rgb(255,255,255)" stroke="rgb(255,255,255)" stroke-width="1" opacity="0.3843137254901961" d="M 31.5 9 L 58.5 35 L 61.5 35 L 64 33.5 Q 64.8 35.8 62.5 35 L 58.5 36 L 31.5 10 L 5.5 36 L 2.5 36 L 0 35 L 0.5 33 Q 1.3 35.8 5.5 35 L 31.5 9 Z " /><path fill="rgb(255,255,255)" stroke="rgb(255,255,255)" stroke-width="1" opacity="0.3843137254901961" d="M 30.5 16 L 33.5 16 L 55 37.5 L 56 39.5 L 56 56.5 L 51.5 62 L 50 61.5 L 54 58.5 L 55 56.5 L 55 39.5 L 33.5 17 L 30.5 17 L 10 37.5 L 9 39.5 L 9 56.5 L 12.5 61 L 14 61.5 L 12.5 62 L 8 56.5 L 8 39.5 L 30.5 16 Z " /><path fill="rgb(255,255,255)" stroke="rgb(255,255,255)" stroke-width="1" opacity="0.3843137254901961" d="M 26 45 L 38 45 L 38 61.5 L 37 61.5 L 37 46 L 27 46 L 26.5 62 L 26 45 Z " /><path fill="rgb(255,255,255)" stroke="rgb(255,255,255)" stroke-width="1" opacity="0.996078431372549" d="M 26.5 4 L 1 30.5 L 0.5 33 L 0 30.5 L 26.5 4 Z " /><path fill="rgb(255,255,255)" stroke="rgb(255,255,255)" stroke-width="1" opacity="0.996078431372549" d="M 37.5 4 L 45.5 13 L 37.5 4 Z " /><path fill="rgb(255,255,255)" stroke="rgb(255,255,255)" stroke-width="1" opacity="0.996078431372549" d="M 51.5 5 L 52.5 7 L 51.5 5 Z " /><path fill="rgb(255,255,255)" stroke="rgb(255,255,255)" stroke-width="1" opacity="0.996078431372549" d="M 30.5 9 L 5.5 35 L 30.5 9 Z " /><path fill="rgb(255,255,255)" stroke="rgb(255,255,255)" stroke-width="1" opacity="0.996078431372549" d="M 33.5 9 L 58.5 35 L 33.5 9 Z " /><path fill="rgb(255,255,255)" stroke="rgb(255,255,255)" stroke-width="1" opacity="0.996078431372549" d="M 30.5 17 L 10.5 38 L 30.5 17 Z " /><path fill="rgb(255,255,255)" stroke="rgb(255,255,255)" stroke-width="1" opacity="0.996078431372549" d="M 33.5 17 L 53.5 38 L 33.5 17 Z " /><path fill="rgb(255,255,255)" stroke="rgb(255,255,255)" stroke-width="1" opacity="0.996078431372549" d="M 53.5 20 L 64 30.5 L 64 32.5 L 63 32.5 L 63 30.5 L 53.5 20 Z " /><path fill="rgb(255,255,255)" stroke="rgb(255,255,255)" stroke-width="1" opacity="0.996078431372549" d="M 14.5 61 L 26 61.5 L 14.5 62 L 14.5 61 Z " /><path fill="rgb(255,255,255)" stroke="rgb(255,255,255)" stroke-width="1" opacity="0.996078431372549" d="M 38.5 61 L 50 61.5 L 38.5 62 L 38.5 61 Z " /><path fill="rgb(255,255,255)" stroke="rgb(255,255,255)" stroke-width="1" opacity="1" d="M 29.5 3 L 36.5 4 L 45.5 13 Q 45.3 7.3 48.5 5 Q 52.5 4.5 53 7.5 L 53 20.5 L 63 30.5 L 63 33.5 L 59.5 35 L 33.5 9 L 30.5 9 L 4.5 35 L 2.5 35 Q 0.3 34.3 1 30.5 L 29.5 3 Z " /><path fill="rgb(255,255,255)" stroke="rgb(255,255,255)" stroke-width="1" opacity="1" d="M 31.5 17 L 55 39.5 L 55 55.5 L 53 60 L 50.5 61 L 38 61 L 38 45 L 26 45 L 26 61 L 13.5 61 L 11 60 L 9 55.5 L 9 39.5 L 31.5 17 Z " /></svg>